<svg width="24" height="24" fill="none" xmlns="http://www.w3.org/2000/svg"><path d="M7 13H1V1h18v8.171M11 12v4c0 1.657 2.686 3 6 3s6-1.343 6-3v-4" stroke="#9B9EA8" stroke-width="2" stroke-miterlimit="10"/><path d="M11 16v4c0 1.657 2.686 3 6 3s6-1.343 6-3v-4" stroke="#9B9EA8" stroke-width="2" stroke-miterlimit="10"/><path d="M17 15c3.314 0 6-1.343 6-3s-2.686-3-6-3-6 1.343-6 3 2.686 3 6 3zm-7-7a1 1 0 100-2 1 1 0 000 2z" stroke="#9B9EA8" stroke-width="2" stroke-miterlimit="10" stroke-linecap="square"/><path d="M10.5 7a.5.5 0 11-1 0 .5.5 0 011 0z" stroke="#9B9EA8"/></svg>