<svg width="24" height="24" fill="none" xmlns="http://www.w3.org/2000/svg"><path d="M23 12a2 2 0 00-2-2h-1.262a7.968 7.968 0 00-.852-2.058l.892-.892a2 2 0 10-2.828-2.828l-.892.892A7.968 7.968 0 0014 4.262V3a2 2 0 00-4 0v1.262a7.968 7.968 0 00-2.058.852l-.892-.892A2 2 0 104.222 7.05l.892.892A7.968 7.968 0 004.262 10H3a2 2 0 000 4h1.262c.189.732.477 1.422.852 2.058l-.892.892a2 2 0 102.828 2.828l.892-.892a7.953 7.953 0 002.058.852V21a2 2 0 004 0v-1.262a7.968 7.968 0 002.058-.852l.892.892a2 2 0 102.828-2.828l-.892-.892A7.953 7.953 0 0019.738 14H21a2 2 0 002-2z" stroke="#9B9EA8" stroke-width="2" stroke-miterlimit="10" stroke-linecap="square"/><path d="M12 15a3 3 0 100-6 3 3 0 000 6z" stroke="#9B9EA8" stroke-width="2" stroke-miterlimit="10" stroke-linecap="square"/></svg>