<svg width="20" height="20" fill="none" xmlns="http://www.w3.org/2000/svg"><path d="M11.666 15.833h2.5" stroke="#424B62" stroke-width="2" stroke-miterlimit="10" stroke-linecap="square"/><path d="M7.33 11.59l-4.854 2.924a1.67 1.67 0 00-.81 1.43v3.223h16.667v-3.224c0-.585-.307-1.128-.809-1.429L12.67 11.59M5.002 5.663a5.82 5.82 0 001.652.259 5.813 5.813 0 004.167-1.755 5.84 5.84 0 004.178 1.755" stroke="#424B62" stroke-width="2" stroke-miterlimit="10"/><path d="M5 5.833a5 5 0 1110 0C15 10 12.762 12.5 10 12.5S5 10 5 5.833z" stroke="#424B62" stroke-width="2" stroke-miterlimit="10" stroke-linecap="square"/></svg>