<svg width="222" height="223" viewBox="0 0 222 223" fill="none" xmlns="http://www.w3.org/2000/svg">
    <path d="M54.3389 51.2216C49.8013 51.2216 45.4495 49.4175 42.2409 46.2061C39.0323 42.9948 37.2297 38.6393 37.2297 34.0977C37.2297 29.5562 39.0323 25.2007 42.2409 21.9893C45.4495 18.778 49.8013 16.9739 54.3389 16.9739C58.8765 16.9739 63.2283 18.778 66.4369 21.9893C69.6455 25.2007 71.4481 29.5562 71.4481 34.0977C71.4481 38.6393 69.6455 42.9948 66.4369 46.2061C63.2283 49.4175 58.8765 51.2216 54.3389 51.2216Z" fill="#EBEBEB"/>
    <path d="M50.119 30.2841H46.5783V41.735H50.119V30.2841Z" fill="white"/>
    <path d="M48.3312 28.7847C48.7498 28.7886 49.1602 28.668 49.5102 28.4381C49.8602 28.2082 50.134 27.8794 50.297 27.4935C50.4599 27.1075 50.5046 26.6818 50.4254 26.2703C50.3462 25.8589 50.1466 25.4803 49.8519 25.1826C49.5573 24.885 49.181 24.6816 48.7707 24.5984C48.3604 24.5152 47.9346 24.5559 47.5474 24.7153C47.1603 24.8747 46.8292 25.1457 46.5962 25.4938C46.3631 25.8419 46.2387 26.2514 46.2387 26.6704C46.2374 27.2281 46.4568 27.7636 46.8489 28.1598C47.241 28.556 47.774 28.7807 48.3312 28.7847Z" fill="white"/>
    <path d="M55.7822 35.7222C55.7822 34.1127 56.5213 33.1531 57.9395 33.1531C59.238 33.1531 59.8672 34.0727 59.8672 35.7222V41.72H63.3879V34.4826C63.3879 31.4137 61.655 29.9342 59.228 29.9342C58.5396 29.9253 57.8607 30.0946 57.257 30.4256C56.6532 30.7567 56.1452 31.2382 55.7822 31.8236V30.2841H52.3813V41.73H55.7822V35.7222Z" fill="white"/>
    <path d="M77.266 0L79.6082 4.28846L83.893 6.63262L79.6082 8.97678L77.266 13.2652L74.9239 8.97678L70.6391 6.63262L74.9239 4.28846L77.266 0Z" fill="#F5F5F5"/>
    <path d="M174.972 116.153L176.73 119.367L179.941 121.127L176.73 122.886L174.972 126.1L173.214 122.886L170.003 121.127L173.214 119.367L174.972 116.153Z" fill="#EBEBEB"/>
    <path d="M179.941 100.274L180.735 101.729L182.183 102.518L180.735 103.313L179.941 104.762L179.147 103.313L177.699 102.518L179.147 101.729L179.941 100.274Z" fill="#E0E0E0"/>
    <path d="M60.5314 1.61444L61.3254 3.06392L62.7737 3.85863L61.3254 4.64835L60.5314 6.10283L59.7374 4.64835L58.2891 3.85863L59.7374 3.06392L60.5314 1.61444Z" fill="#E0E0E0"/>
    <path d="M20.7897 136.386C21.7112 135.964 22.4888 135.28 23.0266 134.42C23.5644 133.561 23.8389 132.562 23.816 131.548C23.816 128.684 21.5937 126.385 18.912 126.405C16.2303 126.425 14.0779 128.769 14.1028 131.633C14.0956 132.655 14.3916 133.657 14.9534 134.511C15.5153 135.365 16.3176 136.034 17.259 136.431C9.79808 137.656 10.2375 145.783 10.2375 145.783L27.9111 145.633C27.9111 145.633 28.2157 137.411 20.7897 136.386Z" fill="#E0E0E0"/>
    <path d="M190.339 189.957C190.214 189.316 189.866 188.74 189.356 188.332C188.847 187.924 188.209 187.71 187.556 187.73C186.904 187.749 186.28 187.999 185.795 188.437C185.31 188.874 184.997 189.469 184.91 190.117C184.819 189.47 184.502 188.877 184.015 188.443C183.528 188.009 182.903 187.762 182.251 187.747C181.599 187.731 180.963 187.948 180.455 188.358C179.948 188.768 179.603 189.346 179.482 189.987C179.351 190.934 179.591 191.896 180.151 192.671C180.705 193.435 181.357 194.124 182.089 194.72C183.087 195.605 183.991 196.43 184.98 197.309C185.979 196.42 186.793 195.585 187.772 194.695C188.5 194.093 189.147 193.397 189.694 192.626C190.241 191.851 190.471 190.896 190.339 189.957Z" fill="#EBEBEB"/>
    <path d="M201.85 84.5997L203.742 84.2248L206.739 77.6372L205.989 73.8535C205.989 73.8535 208.881 73.0938 209.52 78.117C210.159 83.1402 210.279 81.8057 210.279 81.8057C210.279 81.8057 216.497 80.5961 217.121 81.031C217.575 81.3508 218.969 87.4986 219.698 90.8374C219.9 91.6377 219.828 92.4826 219.494 93.2372C219.16 93.9919 218.583 94.6128 217.855 95.001C217.648 95.1031 217.428 95.1771 217.201 95.2209C215.653 95.5308 207.483 95.8406 207.483 95.8406L204.212 96.4904L201.85 84.5997Z" fill="#E0E0E0"/>
    <path d="M196.221 84.6396L199.952 97.375L203.198 96.7303L200.681 84.0248L196.221 84.6396Z" fill="#E0E0E0"/>
    <path d="M221.216 222.635C221.216 222.71 171.691 222.765 110.615 222.765C49.5397 222.765 0 222.71 0 222.635C0 222.56 49.5148 222.505 110.615 222.505C171.716 222.505 221.216 222.565 221.216 222.635Z" fill="#263238"/>
    <path d="M182.743 79.6014C177.903 81.9559 172.327 82.2903 167.241 80.531C162.155 78.7717 157.975 75.0628 155.621 70.2198C153.268 65.3759 152.934 59.7951 154.692 54.7047C156.45 49.6143 160.156 45.431 164.994 43.0745C167.391 41.908 169.993 41.2254 172.653 41.0656C175.313 40.9057 177.978 41.2719 180.497 42.143C183.015 43.0142 185.338 44.3734 187.331 46.1429C189.325 47.9124 190.951 50.0577 192.116 52.4562C193.282 54.8545 193.964 57.4592 194.124 60.1214C194.283 62.7836 193.917 65.4512 193.047 67.9719C192.177 70.4926 190.819 72.817 189.051 74.8124C187.283 76.8078 185.139 78.4351 182.743 79.6014Z" fill="#1AA3E0"/>
    <path d="M168.855 65.8764C168.929 65.8746 169.002 65.8563 169.068 65.8227C169.135 65.7891 169.193 65.7411 169.238 65.6822C169.284 65.6233 169.316 65.5549 169.331 65.4822C169.347 65.4094 169.346 65.334 169.329 65.2616C169.279 65.0167 169.144 64.3969 169.094 64.142C169.024 63.7871 168.94 63.6921 168.595 63.5322C167.7 63.1205 166.989 62.3925 166.597 61.4879C165.069 58.3391 166.053 54.3755 169.828 52.5411C173.169 50.9117 176.001 52.0413 177.319 54.7903C179.062 58.384 178.947 62.1877 176.59 63.3373C176.296 63.4992 175.969 63.5897 175.633 63.6017C175.298 63.6137 174.965 63.5467 174.66 63.4062C174.356 63.2656 174.088 63.0555 173.88 62.7926C173.671 62.5298 173.527 62.2215 173.459 61.8928C173.07 60.1334 172.96 58.0791 172.41 56.9396C171.911 55.9399 170.952 55.3351 169.823 55.8849C168.49 56.5347 168.091 58.434 168.99 60.2784C169.31 60.9605 169.771 61.5669 170.343 62.0577C170.343 62.0577 171.791 68.4954 172.041 69.625C172.54 71.8692 174.148 74.1234 174.303 74.3783C174.325 74.4066 174.355 74.4281 174.389 74.4402C174.422 74.4523 174.459 74.4545 174.494 74.4467C174.529 74.4388 174.561 74.4212 174.587 74.3958C174.612 74.3704 174.63 74.3384 174.638 74.3033C174.683 74.0834 175.317 71.3544 174.902 69.1352C174.787 68.5054 174.113 65.2816 174.113 65.2816C174.947 65.8963 176.565 66.0113 177.909 65.3565C181.904 63.4072 182.853 58.434 180.476 53.5458C178.683 49.8521 173.879 47.9328 169.129 50.247C163.212 53.1259 162.293 58.8189 164.011 62.3576C165.049 64.5018 166.772 66.0313 168.855 65.8764Z" fill="white"/>
    <path d="M203.003 136.886C201.286 136.23 199.714 135.242 198.379 133.978C197.043 132.715 195.969 131.199 195.219 129.52C194.469 127.84 194.058 126.029 194.008 124.19C193.958 122.351 194.27 120.52 194.928 118.802C195.582 117.084 196.569 115.511 197.831 114.174C199.094 112.837 200.607 111.762 202.284 111.011C203.962 110.26 205.771 109.847 207.608 109.797C209.445 109.746 211.274 110.058 212.991 110.715C214.708 111.371 216.28 112.359 217.616 113.623C218.951 114.887 220.025 116.402 220.775 118.081C221.525 119.761 221.937 121.572 221.987 123.411C222.037 125.25 221.724 127.081 221.066 128.799C220.412 130.518 219.425 132.09 218.163 133.427C216.9 134.764 215.387 135.839 213.71 136.59C212.032 137.341 210.223 137.754 208.386 137.805C206.549 137.855 204.72 137.543 203.003 136.886Z" fill="#1AA3E0"/>
    <path fill-rule="evenodd" clip-rule="evenodd" d="M215.308 126.18C215.932 124.342 215.825 122.335 215.008 120.575C214.191 118.815 212.728 117.438 210.923 116.73C209.118 116.022 207.109 116.037 205.315 116.773C203.521 117.509 202.08 118.909 201.29 120.682C201.245 120.782 201.205 120.887 201.165 120.987C200.677 122.26 200.549 123.644 200.796 124.985L198.094 128.249L202.469 128.499C203.312 129.497 204.4 130.258 205.625 130.709C206.851 131.159 208.173 131.283 209.461 131.068C210.749 130.854 211.959 130.308 212.973 129.484C213.986 128.66 214.769 127.587 215.243 126.37C215.268 126.308 215.29 126.244 215.308 126.18ZM205.96 129.544C204.802 129.104 203.799 128.332 203.078 127.324L200.526 127.179L202.099 125.28C201.747 124 201.811 122.642 202.284 121.401C202.359 121.212 202.444 121.022 202.534 120.842C203.245 119.431 204.457 118.337 205.932 117.774C207.407 117.211 209.039 117.219 210.508 117.797C211.978 118.374 213.179 119.48 213.876 120.898C214.574 122.315 214.717 123.942 214.279 125.46C214.234 125.62 214.185 125.775 214.125 125.93C213.52 127.492 212.32 128.75 210.789 129.427C209.258 130.105 207.521 130.147 205.96 129.544Z" fill="white"/>
    <path fill-rule="evenodd" clip-rule="evenodd" d="M210.894 126.31C210.749 126.16 210.065 125.42 209.925 125.31C209.785 125.2 209.685 125.12 209.505 125.25C209.325 125.38 208.841 125.635 208.701 125.71C208.561 125.785 208.451 125.76 208.312 125.61C207.879 125.214 207.519 124.745 207.248 124.225C207.006 123.737 206.837 123.214 206.749 122.676C206.719 122.466 206.838 122.406 206.958 122.356C207.078 122.306 207.208 122.221 207.333 122.156L207.428 122.096C207.493 122.046 207.555 121.99 207.613 121.931C207.655 121.894 207.687 121.846 207.705 121.793C207.724 121.739 207.728 121.682 207.717 121.626C207.717 121.526 207.682 120.547 207.667 120.152C207.652 119.757 207.488 119.757 207.388 119.717C207.288 119.677 207.178 119.617 207.063 119.577C206.975 119.545 206.881 119.532 206.787 119.538C206.694 119.544 206.602 119.569 206.519 119.612C206.255 119.723 206.016 119.887 205.819 120.094C205.621 120.302 205.468 120.547 205.37 120.817C205.298 121.014 205.252 121.221 205.235 121.431C205.207 121.912 205.263 122.394 205.4 122.856C205.445 123.001 205.87 125.21 207.358 126.57C208.846 127.929 208.941 127.699 209.27 127.789C209.532 127.84 209.802 127.834 210.06 127.77C210.319 127.706 210.561 127.586 210.769 127.419C210.981 127.208 211.125 126.938 211.183 126.645C211.128 126.55 211.033 126.46 210.894 126.31Z" fill="white"/>
    <path d="M21.0394 72.1491C18.209 72.1491 15.4946 71.0238 13.4932 69.0206C11.4918 67.0175 10.3674 64.3007 10.3674 61.4679C10.3674 58.6351 11.4918 55.9183 13.4932 53.9152C15.4946 51.9121 18.209 50.7867 21.0394 50.7867C22.4409 50.7867 23.8286 51.063 25.1234 51.5998C26.4182 52.1366 27.5947 52.9233 28.5857 53.9152C29.5767 54.907 30.3628 56.0845 30.8991 57.3804C31.4354 58.6763 31.7114 60.0652 31.7114 61.4679C31.7114 62.8706 31.4354 64.2595 30.8991 65.5554C30.3628 66.8513 29.5767 68.0288 28.5857 69.0206C27.5947 70.0125 26.4182 70.7993 25.1234 71.336C23.8286 71.8728 22.4409 72.1491 21.0394 72.1491Z" fill="#1AA3E0"/>
    <path d="M15.3564 65.0317C16.3813 65.6861 17.566 66.0464 18.7814 66.0733C19.9969 66.1002 21.1964 65.7928 22.2492 65.1844C23.3021 64.5761 24.168 63.6902 24.7524 62.6233C25.3369 61.5564 25.6176 60.3494 25.5639 59.1338C26.0151 58.8059 26.4055 58.4016 26.7175 57.9392C26.29 58.127 25.8375 58.2516 25.3742 58.3091C25.8626 58.0234 26.2314 57.5708 26.4129 57.0345C25.9507 57.3097 25.4435 57.5009 24.9147 57.5993C24.5645 57.2159 24.0967 56.9601 23.5851 56.8722C23.0735 56.7843 22.5472 56.8694 22.0893 57.1141C21.6314 57.3587 21.2678 57.7489 21.056 58.2232C20.8442 58.6975 20.7962 59.2289 20.9196 59.7336C19.9917 59.6858 19.0842 59.4435 18.2558 59.0225C17.4273 58.6015 16.6965 58.011 16.1104 57.2894C15.8135 57.8043 15.7231 58.4128 15.8575 58.9919C15.992 59.5709 16.3412 60.0773 16.8346 60.4083C16.4634 60.3987 16.1002 60.2993 15.7758 60.1184C15.7697 60.6627 15.9533 61.1921 16.2951 61.6154C16.637 62.0387 17.1156 62.3295 17.6486 62.4376C17.305 62.5313 16.9445 62.5449 16.5948 62.4776C16.7444 62.9407 17.0345 63.3455 17.4247 63.6358C17.815 63.9261 18.286 64.0873 18.7722 64.097C17.7994 64.8434 16.5733 65.1789 15.3564 65.0317Z" fill="white"/>
    <path d="M40.2011 191.791C35.4616 192.918 30.4691 192.115 26.3208 189.559C22.1725 187.003 19.2077 182.904 18.078 178.161C17.5179 175.81 17.4264 173.371 17.8085 170.985C18.1907 168.598 19.0392 166.31 20.3053 164.252C21.5715 162.194 23.2306 160.405 25.1877 158.989C27.1448 157.573 29.3617 156.557 31.7114 155.999C34.0592 155.439 36.4943 155.347 38.8775 155.729C41.2607 156.111 43.5454 156.959 45.6012 158.225C47.6569 159.49 49.4434 161.149 50.8587 163.106C52.2739 165.063 53.2902 167.279 53.8495 169.629C54.4093 171.981 54.5003 174.421 54.1171 176.808C53.734 179.196 52.8843 181.484 51.6166 183.543C50.349 185.601 48.6882 187.389 46.7294 188.804C44.7706 190.22 42.5522 191.235 40.2011 191.791Z" fill="#455A64"/>
    <path d="M34.0436 165.855C36.6605 165.231 36.9751 165.166 38.0388 164.966C38.6613 164.826 39.3031 164.794 39.9365 164.871C40.4001 164.927 40.8453 165.086 41.2399 165.336C41.6381 165.578 41.9789 165.903 42.2387 166.29C42.5921 166.822 42.8522 167.41 43.0077 168.03C43.3024 169.054 43.3873 169.364 44.0065 171.983C44.6258 174.602 44.6907 174.917 44.8904 175.982C45.0329 176.605 45.065 177.247 44.9853 177.881C44.9343 178.346 44.7753 178.793 44.5209 179.186C44.2824 179.585 43.9583 179.927 43.572 180.185C43.0388 180.539 42.4495 180.799 41.8292 180.955C40.8304 181.25 40.5008 181.335 37.884 181.955C35.2671 182.574 34.9525 182.644 33.8888 182.844C33.265 182.987 32.6211 183.019 31.9861 182.939C31.5222 182.885 31.0766 182.726 30.6827 182.475C30.2885 182.225 29.957 181.888 29.7139 181.49C29.3573 180.959 29.0954 180.371 28.9398 179.751C28.6502 178.726 28.5653 178.421 27.9411 175.802C27.3168 173.183 27.2519 172.868 27.0521 171.803C26.915 171.178 26.8829 170.535 26.9573 169.899C27.0187 169.437 27.1767 168.993 27.4211 168.596C27.6654 168.199 27.9907 167.858 28.3755 167.595C28.9062 167.239 29.4941 166.977 30.1134 166.82C31.1122 166.53 31.4468 166.445 34.0636 165.82L34.0436 165.855ZM33.6441 164.051C30.9824 164.686 30.6478 164.776 29.614 165.076C28.8052 165.277 28.0366 165.615 27.3418 166.075C26.7523 166.483 26.2539 167.009 25.8782 167.62C25.5025 168.231 25.2578 168.914 25.1594 169.624C25.0545 170.457 25.0917 171.302 25.2693 172.123C25.4741 173.178 25.539 173.518 26.1732 176.182C26.8074 178.846 26.8973 179.181 27.172 180.21C27.3718 181.02 27.7096 181.79 28.1708 182.485C28.5771 183.097 29.1145 183.611 29.7439 183.989C30.3495 184.371 31.0314 184.615 31.7414 184.704C32.574 184.809 33.4184 184.772 34.2384 184.594C35.2921 184.394 35.6317 184.324 38.2935 183.689C40.9552 183.054 41.2898 182.964 42.3186 182.689C43.1263 182.485 43.8942 182.147 44.5908 181.69C45.1864 181.288 45.6874 180.761 46.059 180.145C46.4382 179.538 46.6833 178.856 46.7781 178.146C46.8815 177.313 46.8427 176.467 46.6633 175.647C46.4635 174.587 46.3936 174.252 45.7594 171.588C45.1252 168.924 45.0353 168.59 44.7606 167.555C44.5555 166.747 44.218 165.978 43.7618 165.281C43.3599 164.686 42.8333 164.186 42.2187 163.816C41.614 163.432 40.9318 163.186 40.2211 163.096C39.3886 162.991 38.5442 163.028 37.7242 163.206C36.6654 163.411 36.3309 163.476 33.6691 164.111" fill="white"/>
    <path d="M34.7577 168.859C33.7624 169.097 32.8597 169.624 32.1639 170.375C31.468 171.126 31.0102 172.066 30.8484 173.077C30.6865 174.088 30.8278 175.125 31.2545 176.056C31.6811 176.987 32.374 177.77 33.2454 178.307C34.1168 178.843 35.1276 179.109 36.1501 179.071C37.1726 179.033 38.1608 178.692 38.9897 178.092C39.8187 177.491 40.4512 176.659 40.8072 175.698C41.1633 174.738 41.227 173.694 40.9901 172.698C40.6713 171.362 39.8359 170.208 38.6674 169.488C37.4988 168.769 36.0927 168.542 34.7577 168.859ZM36.7553 177.171C36.1086 177.324 35.4312 177.282 34.8087 177.049C34.1861 176.817 33.6463 176.405 33.2575 175.866C32.8687 175.327 32.6483 174.684 32.6242 174.02C32.6001 173.355 32.7733 172.698 33.122 172.132C33.4707 171.566 33.9792 171.116 34.5833 170.839C35.1874 170.562 35.8599 170.471 36.5159 170.576C37.1719 170.682 37.782 170.98 38.269 171.432C38.7561 171.884 39.0982 172.471 39.2522 173.118C39.3547 173.548 39.3714 173.994 39.3013 174.431C39.2312 174.868 39.0757 175.286 38.8438 175.663C38.6119 176.039 38.308 176.367 37.9496 176.625C37.5913 176.884 37.1854 177.07 36.7553 177.171Z" fill="white"/>
    <path d="M41.12 167.135C41.1746 167.368 41.1591 167.611 41.0755 167.835C40.9918 168.059 40.8438 168.253 40.6501 168.393C40.4564 168.533 40.2257 168.612 39.987 168.62C39.7484 168.629 39.5126 168.567 39.3093 168.441C39.106 168.316 38.9444 168.133 38.8449 167.916C38.7454 167.698 38.7124 167.457 38.7501 167.221C38.7878 166.985 38.8945 166.765 39.0568 166.59C39.219 166.414 39.4295 166.291 39.6617 166.235C39.8166 166.198 39.9773 166.191 40.1347 166.216C40.2922 166.241 40.4431 166.296 40.5787 166.38C40.7144 166.464 40.8321 166.574 40.925 166.703C41.0179 166.833 41.0842 166.98 41.12 167.135Z" fill="white"/>
    <path d="M179.437 175.602C178.311 175.603 177.196 175.381 176.156 174.951C175.116 174.52 174.17 173.888 173.374 173.092C172.578 172.295 171.946 171.349 171.515 170.308C171.084 169.268 170.862 168.152 170.862 167.025C170.862 165.898 171.084 164.783 171.515 163.742C171.946 162.701 172.578 161.755 173.374 160.958C174.17 160.162 175.116 159.53 176.156 159.1C177.196 158.669 178.311 158.447 179.437 158.448C180.563 158.446 181.679 158.667 182.721 159.097C183.762 159.527 184.709 160.158 185.506 160.955C186.303 161.752 186.936 162.698 187.368 163.739C187.799 164.781 188.021 165.897 188.021 167.025C188.021 168.153 187.799 169.269 187.368 170.311C186.936 171.352 186.303 172.299 185.506 173.095C184.709 173.892 183.762 174.523 182.721 174.953C181.679 175.384 180.563 175.604 179.437 175.602Z" fill="#455A64"/>
    <path d="M178.128 172.208H180.216V166.995H181.669L181.829 165.246H180.216V164.246C180.216 163.836 180.301 163.671 180.715 163.671H181.849V161.852H180.401C178.847 161.852 178.148 162.537 178.148 163.851V165.251H177.035V166.995H178.118L178.128 172.208Z" fill="white"/>
    <path d="M150.202 223L81.3411 222.975C77.3676 222.975 73.557 221.395 70.7473 218.583C67.9377 215.771 66.3593 211.957 66.3593 207.98L66.3892 35.2024C66.3892 33.2307 66.7777 31.2784 67.5325 29.4572C68.2873 27.636 69.3935 25.9817 70.7879 24.5889C72.1823 23.1962 73.8374 22.0923 75.6585 21.3405C77.4796 20.5887 79.431 20.2038 81.401 20.2077L150.257 20.2477C154.231 20.2477 158.041 21.8275 160.851 24.6395C163.661 27.4516 165.239 31.2655 165.239 35.2423L165.209 207.98C165.212 209.954 164.826 211.908 164.073 213.732C163.32 215.556 162.215 217.213 160.821 218.608C159.427 220.004 157.771 221.11 155.949 221.863C154.127 222.617 152.174 223.003 150.202 223Z" fill="#263238"/>
    <path d="M150.182 26.3055H136.829C135.952 26.3265 135.12 26.6935 134.512 27.3265C133.905 27.9594 133.573 28.807 133.588 29.6843V32.1084C133.597 32.5441 133.521 32.9774 133.364 33.3836C133.206 33.7897 132.97 34.1608 132.669 34.4756C132.368 34.7904 132.008 35.0426 131.609 35.2179C131.211 35.3932 130.782 35.4881 130.346 35.4972H104.323C103.888 35.4875 103.458 35.392 103.06 35.2161C102.661 35.0403 102.301 34.7876 102 34.4724C101.699 34.1572 101.463 33.7858 101.306 33.3793C101.148 32.9729 101.072 32.5393 101.082 32.1034V29.6643C101.099 28.7848 100.768 27.9341 100.161 27.2982C99.5538 26.6623 98.7196 26.2928 97.841 26.2705H93.1367H81.4559C80.0766 26.2673 78.7102 26.5363 77.435 27.0623C76.1597 27.5883 75.0006 28.361 74.0242 29.336C73.0477 30.311 72.273 31.4692 71.7444 32.7443C71.2158 34.0194 70.9437 35.3863 70.9437 36.7668L70.9088 205.411C70.9088 208.195 72.0137 210.865 73.9804 212.833C75.9471 214.802 78.6146 215.908 81.396 215.908L150.122 215.947C151.5 215.947 152.863 215.676 154.136 215.149C155.408 214.621 156.564 213.848 157.538 212.873C158.512 211.899 159.284 210.741 159.811 209.468C160.338 208.195 160.61 206.83 160.61 205.451L160.645 36.8018C160.645 34.0223 159.543 31.3563 157.582 29.3886C155.62 27.4209 152.959 26.3121 150.182 26.3055Z" fill="white"/>
    <path d="M151.186 40.0057C151.186 40.0506 149.448 40.1006 147.311 40.1156C145.173 40.1306 143.431 40.1156 143.431 40.0706C143.431 40.0256 145.163 39.9707 147.306 39.9557C149.448 39.9407 151.186 39.9607 151.186 40.0057Z" fill="#263238"/>
    <path d="M151.201 41.9899C151.201 42.0349 149.468 42.0849 147.326 42.1049C145.183 42.1249 143.445 42.1049 143.445 42.0549C143.445 42.0049 145.183 41.9599 147.326 41.94C149.468 41.92 151.201 41.9449 151.201 41.9899Z" fill="#263238"/>
    <path d="M151.221 43.9742C151.221 44.0192 149.483 44.0742 147.341 44.0891C145.198 44.1041 143.465 44.0891 143.46 44.0392C143.455 43.9892 145.198 43.9442 147.341 43.9242C149.483 43.9042 151.221 43.9292 151.221 43.9742Z" fill="#263238"/>
    <path d="M78.1549 45.9135H78.3597H78.924L81.0114 45.8635L80.9515 45.9185C80.9515 45.4586 80.9515 44.9538 80.9265 44.419C80.9265 44.1391 80.9265 43.8742 80.9265 43.5493C80.9595 43.3814 81.045 43.2284 81.1707 43.1124C81.2964 42.9965 81.4558 42.9237 81.6257 42.9046C81.9653 42.9046 82.2599 42.9046 82.6245 42.9046C82.8155 42.9355 82.9892 43.0334 83.1146 43.1809C83.24 43.3283 83.3088 43.5157 83.3087 43.7093C83.3087 44.419 83.3086 45.1538 83.3336 45.9185L83.2387 45.8235H85.8705L85.7707 45.9235C85.7707 44.8639 85.7707 43.7643 85.7407 42.6397C85.7407 42.3598 85.7407 42.0849 85.7407 41.805C85.7294 41.6806 85.6903 41.5603 85.6263 41.453C85.5623 41.3458 85.4751 41.2542 85.3711 41.1852L84.2225 40.0456L83.1089 38.951L82.5745 38.4212C82.3898 38.2412 82.2449 38.0563 82.0302 38.0113C81.9273 37.9842 81.8196 37.9805 81.7151 38.0004C81.6105 38.0202 81.5117 38.0633 81.4259 38.1263C81.2661 38.2612 81.0963 38.4512 80.9265 38.6261L79.9777 39.5808C79.3834 40.1955 78.7642 40.7603 78.3147 41.2951C78.1813 41.6103 78.1364 41.956 78.1849 42.2948C78.1849 42.6197 78.1849 42.9296 78.1849 43.2195C78.1849 43.7892 78.1849 44.2891 78.1849 44.7189C78.1849 45.1488 78.1849 45.4137 78.1849 45.6736C78.192 45.7884 78.192 45.9036 78.1849 46.0184C78.1791 45.9136 78.1791 45.8084 78.1849 45.7036C78.1849 45.4487 78.1849 45.1338 78.1849 44.7589C78.1849 44.384 78.1849 43.8242 78.1499 43.2594C78.1499 42.9595 78.1499 42.6447 78.1499 42.3098C78.1499 42.1398 78.1499 41.9699 78.1499 41.81C78.1487 41.6171 78.1987 41.4274 78.2947 41.2602C78.7941 40.6654 79.3634 40.1356 79.9627 39.5008L80.9016 38.5361C81.0714 38.3712 81.2062 38.2063 81.401 38.0363C81.5084 37.9544 81.6329 37.8979 81.7652 37.8711C81.8976 37.8443 82.0343 37.8478 82.165 37.8814C82.4137 37.9727 82.6329 38.1299 82.7993 38.3362L83.3386 38.866L84.4523 39.9606L85.6059 41.0902C85.7139 41.1873 85.8126 41.2944 85.9005 41.4101C85.9869 41.5428 86.0353 41.6966 86.0403 41.8549C86.0403 42.1348 86.0403 42.4147 86.0403 42.6946C86.0403 43.8192 86.0403 44.9188 86.0653 45.9785V46.0784H85.9654H83.3336H83.1488V45.9835C83.1488 45.2187 83.1488 44.484 83.1488 43.7743C83.1521 43.6218 83.1004 43.4732 83.0032 43.3557C82.906 43.2382 82.7698 43.1597 82.6195 43.1345C82.3149 43.1345 81.9553 43.1345 81.6607 43.1345C81.5261 43.148 81.3991 43.2035 81.2979 43.2932C81.1966 43.3829 81.1261 43.5023 81.0963 43.6343C81.0963 43.8992 81.0963 44.2041 81.0963 44.474C81.0963 45.0188 81.0963 45.5286 81.0963 45.9735V46.0334H81.0364H78.914H78.3597C78.2874 46.0007 78.2188 45.9605 78.1549 45.9135Z" fill="#263238"/>
    <path d="M123.6 177.696C123.36 177.734 123.118 177.751 122.876 177.746L120.908 177.786C119.25 177.811 116.953 177.826 114.416 177.826C111.879 177.826 109.582 177.826 107.924 177.786L105.956 177.746C105.714 177.75 105.471 177.734 105.232 177.696C105.471 177.656 105.714 177.639 105.956 177.646L107.924 177.601C109.582 177.601 111.879 177.566 114.416 177.566C116.953 177.566 119.245 177.566 120.908 177.601L122.876 177.646C123.118 177.639 123.361 177.655 123.6 177.696Z" fill="#455A64"/>
    <path d="M152.45 182.215C152.45 182.29 141.877 182.345 128.838 182.345C115.799 182.345 105.227 182.29 105.227 182.215C105.227 182.14 115.799 182.085 128.838 182.085C141.877 182.085 152.45 182.145 152.45 182.215Z" fill="#455A64"/>
    <path d="M137.693 186.488C137.693 186.563 130.426 186.618 121.462 186.618C112.498 186.618 105.227 186.563 105.227 186.488C105.227 186.413 112.493 186.358 121.462 186.358C130.431 186.358 137.693 186.398 137.693 186.488Z" fill="#455A64"/>
    <path d="M153.383 194.75L151.915 193.276L150.517 194.67V190.452H153.378L153.383 194.75ZM151.915 193.091L151.96 193.136L153.254 194.435V190.587H150.652V194.36L151.915 193.091Z" fill="#263238"/>
    <path d="M114.316 194.2L113.817 193.97C113.518 194.111 113.179 194.135 112.864 194.038C112.549 193.941 112.281 193.729 112.114 193.446C111.946 193.162 111.89 192.825 111.957 192.502C112.025 192.179 112.21 191.893 112.476 191.7C112.743 191.506 113.072 191.419 113.4 191.456C113.727 191.492 114.03 191.65 114.247 191.897C114.465 192.145 114.582 192.465 114.576 192.795C114.571 193.125 114.442 193.441 114.216 193.68L114.316 194.2ZM113.112 191.391C112.771 191.415 112.451 191.568 112.219 191.82C111.987 192.072 111.859 192.403 111.862 192.745C111.866 193.088 111.999 193.416 112.236 193.663C112.473 193.911 112.796 194.058 113.137 194.075C113.365 194.06 113.586 193.989 113.782 193.87L114.166 194.04L114.076 193.665C114.252 193.473 114.368 193.233 114.41 192.976C114.452 192.718 114.418 192.454 114.312 192.216C114.206 191.977 114.032 191.775 113.813 191.634C113.594 191.493 113.338 191.419 113.077 191.421L113.112 191.391Z" fill="#263238"/>
    <path d="M117.642 193.985L117.053 192.536L115.939 191.536H118.636L117.642 193.985ZM116.189 191.621L117.138 192.491L117.637 193.725L118.486 191.601L116.189 191.621Z" fill="#263238"/>
    <path d="M118.574 191.509L117.101 192.468L117.155 192.552L118.629 191.592L118.574 191.509Z" fill="#263238"/>
    <path d="M110.066 191.816C110.026 191.623 109.92 191.451 109.765 191.329C109.611 191.207 109.418 191.144 109.221 191.151C109.025 191.157 108.837 191.233 108.691 191.365C108.545 191.497 108.45 191.676 108.423 191.871C108.396 191.674 108.3 191.493 108.151 191.36C108.002 191.228 107.811 191.153 107.612 191.149C107.413 191.146 107.219 191.214 107.066 191.34C106.912 191.467 106.809 191.645 106.775 191.841C106.737 192.129 106.81 192.421 106.98 192.656C107.149 192.887 107.347 193.096 107.569 193.276C107.874 193.541 108.148 193.775 108.448 194.055C108.748 193.785 108.997 193.531 109.297 193.261C109.517 193.077 109.711 192.865 109.876 192.631C110.043 192.394 110.111 192.102 110.066 191.816Z" fill="#1AA3E0"/>
    <path d="M156.39 198.484C156.39 198.484 156.39 198.319 156.39 198.014C156.39 197.709 156.39 197.244 156.39 196.644C156.39 195.44 156.39 193.646 156.365 191.366C156.365 186.773 156.34 180.09 156.32 171.708L156.405 171.793L76.5469 171.838L76.6767 171.708C76.6767 181.015 76.6767 190.037 76.6767 198.484L76.5519 198.359L133.697 198.414L150.377 198.449H154.872H156.03H156.43H156.045H154.902H150.452L133.797 198.484L76.5669 198.544H76.437V198.484C76.437 190.037 76.437 181.015 76.437 171.708V171.578H76.5768L156.435 171.623H156.52V171.708C156.52 180.11 156.485 186.813 156.475 191.421C156.475 193.71 156.475 195.475 156.475 196.679C156.475 197.269 156.475 197.719 156.475 198.029C156.475 198.339 156.39 198.484 156.39 198.484Z" fill="#263238"/>
    <path d="M79.8539 176.19L79.752 193.893L101.875 194.021L101.977 176.318L79.8539 176.19Z" fill="#EBEBEB"/>
    <path d="M101.971 176.302H101.546H100.338H95.7984L79.8179 176.267L79.9378 176.152C79.9128 181.425 79.8828 187.463 79.8528 193.85C79.8778 193.885 79.6081 193.606 79.723 193.72H81.2462H82.7443H85.7407L91.4837 193.755L101.841 193.83L101.736 193.94C101.786 188.622 101.831 184.214 101.866 181.115C101.866 179.576 101.901 178.366 101.911 177.521C101.911 177.116 101.911 176.802 101.911 176.572C101.911 176.342 101.911 176.237 101.911 176.237C101.911 176.237 101.911 176.337 101.911 176.547C101.911 176.757 101.911 177.081 101.911 177.481C101.911 178.316 101.911 179.521 101.911 181.05C101.911 184.164 101.911 188.597 101.911 193.94V194.045H101.801L91.4437 194.005L85.7007 193.975H82.7044H81.2062H79.6831L79.5482 193.84C79.5932 187.448 79.6281 181.41 79.6631 176.142V176.022H79.7829L95.8134 176.167L100.308 176.227H101.492H101.791L101.971 176.302Z" fill="#263238"/>
    <path d="M80.6114 177.309L80.5224 192.783L101.092 192.902L101.181 177.428L80.6114 177.309Z" fill="#E0E0E0"/>
    <path d="M80.5121 192.771L87.7533 183.194L92.1679 189.237L95.2042 186.033L101.082 192.886L80.5121 192.771Z" fill="#F5F5F5"/>
    <path d="M94.1005 182.05C94.0995 182.371 94.0033 182.685 93.8239 182.952C93.6445 183.218 93.3901 183.426 93.0928 183.548C92.7956 183.67 92.4689 183.701 92.1541 183.636C91.8394 183.572 91.5507 183.416 91.3246 183.188C91.0985 182.96 90.9452 182.669 90.8841 182.354C90.823 182.038 90.8569 181.711 90.9814 181.415C91.1059 181.119 91.3155 180.866 91.5836 180.689C91.8517 180.512 92.1663 180.418 92.4875 180.42C92.7004 180.421 92.9111 180.464 93.1075 180.546C93.3039 180.628 93.4821 180.749 93.6319 180.9C93.7818 181.051 93.9003 181.231 93.9807 181.428C94.0611 181.625 94.1019 181.837 94.1005 182.05Z" fill="#F5F5F5"/>
    <path d="M117.152 61.4679C117.073 61.4814 116.992 61.4814 116.913 61.4679L116.239 61.4929L113.742 61.5379C111.639 61.5379 108.748 61.5729 105.522 61.5729C102.296 61.5729 99.4041 61.5729 97.3016 61.5379L94.8047 61.4929L94.1255 61.4679C94.0479 61.4818 93.9684 61.4818 93.8908 61.4679C93.9675 61.449 94.0465 61.4406 94.1255 61.4429H94.8047L97.3016 61.403C99.4041 61.378 102.296 61.363 105.522 61.363C108.748 61.363 111.639 61.363 113.742 61.403L116.239 61.4429H116.913C116.993 61.4409 117.074 61.4493 117.152 61.4679Z" fill="#263238"/>
    <path d="M149.833 159.323L147.655 157.134L145.573 159.208V152.94H149.828L149.833 159.323ZM147.655 156.864L147.72 156.929L149.643 158.858V153.14H145.768V158.748L147.655 156.864Z" fill="#263238"/>
    <path d="M94.4701 158.663L93.4713 158.208C92.8897 158.479 92.2281 158.523 91.6159 158.331C91.0036 158.14 90.4848 157.727 90.1608 157.173C89.8367 156.618 89.7308 155.963 89.8637 155.335C89.9966 154.707 90.3587 154.151 90.8793 153.776C91.3999 153.401 92.0416 153.234 92.6788 153.307C93.3161 153.381 93.9031 153.689 94.3251 154.173C94.7472 154.656 94.9739 155.28 94.961 155.922C94.9481 156.563 94.6965 157.177 94.2553 157.643L94.4701 158.663ZM92.088 153.14C91.7417 153.143 91.3994 153.214 91.0806 153.35C90.7618 153.485 90.4728 153.682 90.2301 153.929C89.9873 154.176 89.7955 154.469 89.6658 154.79C89.536 155.111 89.4707 155.455 89.4736 155.802C89.4766 156.148 89.5477 156.491 89.683 156.81C89.8182 157.129 90.0149 157.418 90.2618 157.661C90.5088 157.904 90.8011 158.096 91.1221 158.226C91.4432 158.356 91.7866 158.421 92.1329 158.418C92.5821 158.391 93.0177 158.254 93.4014 158.018L93.4463 157.993L94.1954 158.328L94.0256 157.588L94.0606 157.553C94.4075 157.175 94.6361 156.702 94.7182 156.195C94.8003 155.688 94.7323 155.167 94.5226 154.698C94.3129 154.229 93.9707 153.832 93.5381 153.555C93.1055 153.278 92.6014 153.134 92.088 153.14Z" fill="#263238"/>
    <path d="M101.022 158.228L99.8535 155.374L97.6662 153.375L102.98 153.335L101.022 158.228ZM98.1606 153.565L100.028 155.279L101.027 157.708L102.695 153.53L98.1606 153.565Z" fill="#263238"/>
    <path d="M102.874 153.326L99.9774 155.213L100.084 155.376L102.98 153.49L102.874 153.326Z" fill="#263238"/>
    <path d="M86.1102 154C86.0348 153.617 85.826 153.274 85.521 153.031C85.216 152.788 84.8347 152.662 84.4452 152.674C84.0557 152.687 83.6834 152.838 83.3947 153.1C83.106 153.362 82.9197 153.718 82.8692 154.105C82.8119 153.72 82.6199 153.367 82.3275 153.111C82.035 152.854 81.6609 152.709 81.272 152.703C80.883 152.696 80.5043 152.828 80.2032 153.074C79.9022 153.321 79.6984 153.667 79.6281 154.05C79.5531 154.615 79.6979 155.188 80.0327 155.649C80.3678 156.104 80.7587 156.516 81.1962 156.874C81.7905 157.374 82.3349 157.873 82.9291 158.408C83.5084 157.878 84.0078 157.379 84.5921 156.844C85.0237 156.48 85.4079 156.064 85.7357 155.604C86.0607 155.137 86.1947 154.563 86.1102 154Z" fill="#1AA3E0"/>
    <path d="M85.6258 65.0816C87.6172 65.0816 89.2315 63.4659 89.2315 61.4729C89.2315 59.4799 87.6172 57.8642 85.6258 57.8642C83.6345 57.8642 82.0202 59.4799 82.0202 61.4729C82.0202 63.4659 83.6345 65.0816 85.6258 65.0816Z" fill="#EBEBEB"/>
    <path d="M148.474 138.63C148.474 138.705 133.363 138.765 114.725 138.765C96.0881 138.765 80.9715 138.705 80.9715 138.63C80.9715 138.555 96.0831 138.5 114.725 138.5C133.368 138.5 148.474 138.56 148.474 138.63Z" fill="#455A64"/>
    <path d="M148.474 133.007C148.474 133.077 133.363 133.137 114.725 133.137C96.0881 133.137 80.9715 133.077 80.9715 133.007C80.9715 132.937 96.0831 132.877 114.725 132.877C133.368 132.877 148.474 132.937 148.474 133.007Z" fill="#455A64"/>
    <path d="M117.712 144.333C117.712 144.403 109.487 144.463 99.3442 144.463C89.2015 144.463 80.9715 144.403 80.9715 144.333C80.9715 144.263 89.1965 144.203 99.3442 144.203C109.492 144.203 117.712 144.263 117.712 144.333Z" fill="#455A64"/>
    <path d="M113.182 205.626C113.177 205.91 113.089 206.186 112.927 206.42C112.766 206.654 112.539 206.834 112.275 206.939C112.011 207.044 111.722 207.068 111.445 207.009C111.167 206.95 110.913 206.81 110.715 206.607C110.517 206.403 110.383 206.146 110.331 205.867C110.278 205.588 110.31 205.299 110.421 205.038C110.532 204.776 110.718 204.554 110.955 204.398C111.192 204.242 111.47 204.16 111.754 204.162C111.944 204.164 112.132 204.203 112.306 204.278C112.481 204.353 112.639 204.461 112.772 204.597C112.905 204.733 113.009 204.894 113.08 205.071C113.15 205.247 113.185 205.436 113.182 205.626Z" fill="#263238"/>
    <path d="M117.607 205.646C117.601 205.929 117.512 206.203 117.351 206.435C117.189 206.667 116.963 206.847 116.701 206.95C116.438 207.054 116.151 207.078 115.874 207.019C115.598 206.96 115.346 206.82 115.148 206.618C114.951 206.416 114.818 206.16 114.766 205.882C114.713 205.604 114.744 205.317 114.854 205.057C114.964 204.797 115.149 204.575 115.384 204.419C115.62 204.263 115.896 204.181 116.179 204.182C116.369 204.183 116.557 204.222 116.732 204.297C116.907 204.371 117.065 204.479 117.198 204.616C117.331 204.752 117.436 204.913 117.506 205.09C117.576 205.267 117.61 205.456 117.607 205.646Z" fill="#263238"/>
    <path d="M122.067 205.666C122.061 205.949 121.971 206.223 121.81 206.455C121.649 206.687 121.423 206.867 121.16 206.97C120.897 207.074 120.61 207.098 120.334 207.039C120.058 206.98 119.805 206.84 119.608 206.638C119.411 206.436 119.278 206.18 119.225 205.902C119.173 205.624 119.204 205.337 119.314 205.077C119.424 204.817 119.608 204.595 119.844 204.439C120.079 204.283 120.356 204.201 120.638 204.202C120.828 204.204 121.016 204.243 121.191 204.318C121.365 204.393 121.524 204.501 121.656 204.637C121.789 204.773 121.893 204.934 121.964 205.111C122.034 205.287 122.069 205.476 122.067 205.666Z" fill="#263238"/>
    <path d="M156.869 68.6104H77.0013V117.493H156.869V68.6104Z" fill="#E0E0E0"/>
    <path d="M84.3724 117.503L107.26 86.8438L121.447 106.017L131.066 95.7606L149.923 117.483L84.3724 117.503Z" fill="#F5F5F5"/>
    <path d="M127.465 83.0801C127.466 84.1025 127.164 85.1022 126.597 85.9528C126.03 86.8033 125.224 87.4665 124.281 87.8584C123.337 88.2504 122.299 88.3534 121.297 88.1546C120.295 87.9557 119.374 87.4639 118.652 86.7413C117.929 86.0188 117.437 85.0979 117.237 84.0952C117.037 83.0926 117.139 82.0532 117.53 81.1085C117.921 80.1639 118.583 79.3564 119.432 78.7883C120.281 78.2202 121.28 77.917 122.301 77.917C123.67 77.917 124.982 78.4608 125.951 79.4289C126.919 80.3971 127.464 81.7103 127.465 83.0801Z" fill="#F5F5F5"/>
    <path d="M156.654 162.922C156.654 161.877 156.605 117.718 156.535 52.3412L156.654 52.4611H76.7966L76.9264 52.3312C76.9264 93.6864 76.9264 131.958 76.9264 162.912L76.8166 162.807L156.684 162.912L76.8166 163.021H76.7117V162.912C76.7117 131.958 76.7117 93.6864 76.6867 52.3312V52.2012H76.8265H156.684H156.804V52.3162C156.779 85.0395 156.759 112.695 156.744 132.178C156.744 141.904 156.719 149.586 156.714 154.844C156.714 157.463 156.714 159.478 156.714 160.842C156.714 161.517 156.714 162.032 156.714 162.382C156.714 162.732 156.654 162.922 156.654 162.922Z" fill="#263238"/>
    <path d="M119.105 176.642L120.873 170.699C121.183 169.409 121.592 167.89 122.141 166.155C122.641 164.596 123.909 162.956 125.068 161.777C126.871 159.943 127.73 159.933 128.938 158.958C129.048 158.888 129.173 158.783 129.278 158.728C129.506 158.603 129.707 158.433 129.867 158.228C130.911 157.099 129.907 155.344 127.785 155.514C126.192 155.639 123.585 156.094 119.35 160.467C119.295 160.537 119.24 160.592 119.19 160.657C116.968 163.551 114.88 155.294 114.501 152.22C114.427 151.744 114.247 151.29 113.975 150.893C113.702 150.495 113.344 150.164 112.926 149.924C112.508 149.684 112.042 149.542 111.562 149.506C111.081 149.471 110.599 149.545 110.151 149.721L99.8336 154.549C98.8495 154.264 97.8001 154.299 96.8372 154.649C96.1152 154.903 95.5136 155.417 95.1498 156.091C94.786 156.764 94.6861 157.55 94.8696 158.293L99.0595 174.992L86.7695 215.927H113.262L119.105 176.642Z" fill="#FFBE9D"/>
    <path d="M139.48 139.045L131.29 155.109L127.195 153.97L106.62 170.729C105.781 171.416 104.706 171.749 103.625 171.656C102.544 171.562 101.542 171.05 100.832 170.229L92.9919 161.117C92.9919 161.117 108.798 154.305 111.719 148.667C114.641 143.029 111.265 141.744 111.265 141.744L118.701 133.287L139.48 139.045Z" fill="#1AA3E0"/>
    <path d="M128.858 106.237C128.858 106.237 116.873 103.583 99.9984 87.3486C83.1239 71.1145 75.2035 49.5372 73.161 49.6572C71.1185 49.7771 62.0795 45.5736 44.9303 82.9052C27.7812 120.237 34.538 128.889 37.9388 128.839C41.3397 128.789 64.5165 122.306 78.9889 123.951C93.4613 125.595 112.064 133.147 112.064 133.147L128.858 106.237Z" fill="#1AA3E0"/>
    <path d="M154.322 126.585L150.232 134.367L148.399 137.866C147.19 140.169 145.143 141.919 142.682 142.756C140.22 143.593 137.532 143.453 135.171 142.364L109.477 133.402L124.459 99.2144L150.127 112.905C152.489 114.169 154.255 116.317 155.041 118.88C155.827 121.442 155.568 124.212 154.322 126.585Z" fill="#1AA3E0"/>
    <g opacity="0.4">
        <path opacity="0.4" d="M154.322 126.585L150.232 134.367L148.399 137.866C147.19 140.169 145.143 141.919 142.682 142.756C140.22 143.593 137.532 143.453 135.171 142.364L109.477 133.402L124.459 99.2144L150.127 112.905C152.489 114.169 154.255 116.317 155.041 118.88C155.827 121.442 155.568 124.212 154.322 126.585Z" fill="black"/>
    </g>
    <path d="M46.2987 83.585C37.1748 103.808 33.3744 121.831 37.809 123.836C42.2436 125.84 53.2452 111.075 62.3691 90.8474C71.493 70.6197 75.2934 52.6061 70.8588 50.5969C66.4242 48.5876 55.4226 63.3623 46.2987 83.585Z" fill="#1AA3E0"/>
    <g opacity="0.5">
        <path opacity="0.5" d="M46.2987 83.585C37.1748 103.808 33.3744 121.831 37.809 123.836C42.2436 125.84 53.2452 111.075 62.3691 90.8474C71.493 70.6197 75.2934 52.6061 70.8588 50.5969C66.4242 48.5876 55.4226 63.3623 46.2987 83.585Z" fill="black"/>
    </g>
    <path d="M156.525 137.835L149.563 135.646L153.873 127.444L159.091 130.693L156.525 137.835Z" fill="#1AA3E0"/>
    <g opacity="0.6">
        <path opacity="0.6" d="M153.873 127.444L149.563 135.646L150.991 136.096L154.497 127.834L153.873 127.444Z" fill="black"/>
    </g>
    <path d="M149.069 129.334C148.969 129.558 145.493 128.209 141.308 126.335C137.123 124.46 133.817 122.721 133.912 122.496C134.007 122.271 137.488 123.626 141.678 125.52C145.868 127.414 149.174 129.109 149.069 129.334Z" fill="#1AA3E0"/>
    <path d="M151.216 124.45C151.106 124.67 147.96 123.346 144.19 121.486C140.419 119.627 137.453 117.943 137.563 117.718C137.673 117.493 140.814 118.822 144.584 120.682C148.355 122.541 151.326 124.225 151.216 124.45Z" fill="#1AA3E0"/>
    <path d="M146.372 134.457C146.337 134.577 145.508 134.387 144.19 133.957C143.53 133.752 142.746 133.492 141.882 133.197C141.018 132.902 140.135 132.432 139.181 131.998C135.37 130.228 132.459 128.499 132.554 128.289C132.649 128.079 135.78 129.434 139.545 131.188C140.494 131.618 141.373 132.088 142.202 132.432C143.031 132.777 143.775 133.082 144.399 133.362C145.648 133.937 146.407 134.337 146.372 134.457Z" fill="#1AA3E0"/>
    <path d="M64.9011 79.0916C64.9011 79.0916 54.4837 72.6239 48.7857 86.7138C43.0876 100.804 54.0443 103.118 54.0443 103.118C58.7757 95.6609 62.4308 87.5722 64.9011 79.0916Z" fill="#1AA3E0"/>
    <g opacity="0.5">
        <path opacity="0.5" d="M75.9826 62.2976C76.0475 62.2976 75.8977 63.2673 75.5781 64.9916C75.2585 66.716 74.7791 69.2101 74.1099 72.279L72.6616 77.2123C72.3986 78.0953 72.1273 79.0099 71.8476 79.9563L71.4231 81.3908C71.2683 81.8906 71.0636 82.3454 70.8838 82.8302L68.5317 88.9081C68.3269 89.4379 68.1172 89.9677 67.9124 90.5025C67.7077 91.0373 67.413 91.5471 67.1783 92.0769L65.6302 95.2758L64.0771 98.4696C63.8124 98.9694 63.5777 99.5292 63.293 100.019C63.0084 100.509 62.7087 101.019 62.4241 101.494L59.1031 107.107C58.8334 107.546 58.6037 108.001 58.3041 108.421L57.4401 109.646L55.7822 111.985L52.7858 116.168C50.7882 118.582 49.1203 120.487 47.9717 121.811C47.4075 122.528 46.7844 123.197 46.1089 123.811C46.5784 123.03 47.113 122.291 47.707 121.601C48.8156 120.187 50.3787 118.208 52.2964 115.773L55.1679 111.56L56.7759 109.216C57.0556 108.816 57.3353 108.406 57.6199 107.991C57.9046 107.576 58.1193 107.122 58.394 106.677L61.675 101.069L62.529 99.5992C62.8236 99.0994 63.0283 98.5996 63.303 98.0598L64.8411 94.8859C65.3405 93.8113 65.8749 92.7567 66.3843 91.7121C66.624 91.2122 66.9136 90.6824 67.1134 90.1526L67.7376 88.5732L70.1247 82.5753C70.3095 82.0755 70.5192 81.6307 70.679 81.1508C70.8389 80.671 70.9737 80.2012 71.1185 79.7314L71.9675 77.0173L73.5006 72.1441L75.2335 64.9467C75.4073 64.0439 75.6579 63.1577 75.9826 62.2976Z" fill="black"/>
    </g>
    <g opacity="0.4">
        <path opacity="0.4" d="M95.4789 159.998C96.4327 161.727 97.4015 163.496 98.8048 164.861C100.208 166.225 102.126 167.195 104.123 166.995C106.121 166.795 107.944 165.166 107.964 163.196C108.903 163.901 110.346 163.521 111.125 162.637C111.904 161.752 112.159 160.527 112.248 159.353C113.527 160.108 115.305 159.513 116.159 158.298C116.551 157.666 116.799 156.954 116.885 156.215C116.971 155.475 116.894 154.726 116.658 154.02C116.171 152.614 115.48 151.289 114.606 150.086C115.604 150.166 116.633 150.236 117.512 149.791C118.391 149.346 119.01 148.177 118.476 147.337C118.125 146.868 117.615 146.543 117.043 146.422C115.5 145.923 114.421 145.553 112.813 145.738C112.443 145.738 113.457 149.976 103.384 155.764C97.4065 159.188 95.4789 159.998 95.4789 159.998Z" fill="black"/>
    </g>
    <path d="M118.161 166.095C118.161 166.14 117.487 166.01 116.398 166.04C114.984 166.074 113.592 166.408 112.316 167.021C111.04 167.634 109.909 168.511 108.997 169.594C108.293 170.424 107.999 171.029 107.934 171.004C107.975 170.848 108.041 170.699 108.128 170.564C108.342 170.183 108.584 169.819 108.853 169.474C109.75 168.334 110.897 167.415 112.205 166.787C113.514 166.16 114.948 165.841 116.398 165.855C116.834 165.858 117.268 165.898 117.697 165.975C117.858 165.988 118.015 166.028 118.161 166.095Z" fill="#EB996E"/>
    <path d="M96.1331 157.294C97.7561 158.853 98.8647 160.577 100.568 162.147C101.342 162.862 102.565 164.211 103.564 164.391C104.563 164.571 105.262 164.436 105.671 163.466C106.006 162.682 105.407 161.607 104.997 160.967C103.914 159.263 102.875 157.933 102.066 156.609C101.681 155.989 102.176 155.859 102.355 156.149C103.135 156.959 104.303 157.648 105.002 158.543C105.961 159.748 106.131 161.352 108.638 160.842C108.973 160.788 109.291 160.656 109.567 160.457C110.511 159.733 110.566 158.458 110.156 157.459C109.802 156.687 109.331 155.975 108.758 155.349C109.826 156.554 110.99 157.848 112.688 157.958C113.168 158.017 113.653 157.924 114.078 157.694C114.503 157.464 114.846 157.107 115.06 156.674C115.559 155.534 114.845 154.43 114.121 153.54C112.839 151.958 111.413 150.499 109.861 149.181C109.282 148.694 108.551 148.424 107.794 148.417C106.915 148.417 105.796 148.577 105.297 149.336C105.012 149.703 104.804 150.124 104.686 150.573C104.569 151.022 104.544 151.491 104.613 151.95C104.613 151.95 102.415 150.836 100.648 152C99.5594 152.766 98.7773 153.892 98.4402 155.179L96.1331 157.294Z" fill="#FFBE9D"/>
    <path d="M107.844 147.937C107.492 147.528 107.274 147.022 107.219 146.486C107.164 145.95 107.274 145.41 107.534 144.938C107.909 144.203 108.378 143.488 108.858 143.329C110.95 142.624 120.099 144.208 120.014 146.238C119.929 148.267 119.26 149.236 114.301 148.522C113.427 148.397 112.059 148.227 112.059 148.227L110.86 150.026L107.844 147.937Z" fill="#FFBE9D"/>
    <path d="M109.482 156.444C108.281 154.462 106.53 152.873 104.443 151.871C104.783 151.925 105.112 152.041 105.412 152.21C106.915 152.938 108.177 154.083 109.047 155.509C109.249 155.791 109.396 156.108 109.482 156.444Z" fill="#EB996E"/>
    <path d="M111.02 150.201C110.975 150.241 110.371 149.751 109.547 149.246C109.202 149.028 108.845 148.829 108.478 148.652C108.193 148.522 108.004 148.487 108.009 148.447C108.014 148.407 108.223 148.387 108.538 148.482C108.943 148.612 109.329 148.795 109.687 149.027C110.531 149.541 111.085 150.146 111.02 150.201Z" fill="#EB996E"/>
    <path d="M112.558 148.312C111.963 148.381 111.36 148.313 110.795 148.112C110.382 147.986 109.999 147.778 109.667 147.502C109.417 147.287 109.312 147.112 109.337 147.087C109.817 147.398 110.332 147.653 110.87 147.847C111.443 147.964 112.006 148.119 112.558 148.312Z" fill="#EB996E"/>
    <path d="M103.669 158.958C103.354 158.627 103.074 158.263 102.835 157.873C102.265 156.95 101.544 156.129 100.703 155.444C99.8304 154.806 98.7496 154.52 97.6762 154.645C97.2359 154.723 96.8078 154.859 96.4028 155.049C96.4028 155.049 96.4927 154.944 96.6974 154.819C96.989 154.642 97.3106 154.52 97.6463 154.46C98.2053 154.369 98.7767 154.391 99.3272 154.524C99.8776 154.657 100.396 154.899 100.852 155.234C101.721 155.933 102.447 156.794 102.99 157.768C103.249 158.145 103.476 158.543 103.669 158.958Z" fill="#EB996E"/>
    <path d="M110.665 179.201C109.434 179.463 108.186 179.642 106.93 179.735C105.681 179.917 104.421 180.01 103.16 180.015C104.393 179.753 105.643 179.575 106.9 179.481C108.147 179.302 109.405 179.209 110.665 179.201Z" fill="#EB996E"/>
    <path d="M189.335 12.9753L189.899 14.005L190.928 14.5698L189.899 15.1346L189.335 16.1642L188.77 15.1346L187.742 14.5698L188.77 14.005L189.335 12.9753Z" fill="#1AA3E0"/>
    <path d="M201.12 38.5511L201.685 39.5808L202.718 40.1456L201.685 40.7104L201.12 41.74L200.556 40.7104L199.527 40.1456L200.556 39.5808L201.12 38.5511Z" fill="#1AA3E0"/>
    <path d="M12.1852 106.787L12.7495 107.816L13.7783 108.381L12.7495 108.946L12.1852 109.976L11.6209 108.946L10.5921 108.381L11.6209 107.816L12.1852 106.787Z" fill="#1AA3E0"/>
    <path d="M173.869 19.3331L175.167 21.7122L177.549 23.0167L175.167 24.3213L173.869 26.7004L172.565 24.3213L170.188 23.0167L172.565 21.7122L173.869 19.3331Z" fill="#1AA3E0"/>
    <path d="M22.7523 90.5725L24.0508 92.9517L26.4229 94.2512L24.0508 95.5507L22.7523 97.9299L21.4539 95.5507L19.0768 94.2512L21.4539 92.9517L22.7523 90.5725Z" fill="#1AA3E0"/>
    <path d="M204.327 147.287L205.63 149.666L208.002 150.966L205.63 152.265L204.327 154.639L203.028 152.265L200.656 150.966L203.028 149.666L204.327 147.287Z" fill="#1AA3E0"/>
</svg>
