<svg width="1440" height="215" viewBox="0 0 1440 215" fill="none" xmlns="http://www.w3.org/2000/svg">
    <g opacity="0.1">
        <g opacity="0.2">
            <path d="M343.669 0.000671387V213.37" stroke="#F0F0F0"/>
            <path d="M709.112 0.000671387V213.37" stroke="#F0F0F0"/>
            <path d="M1074.56 0.000671387V213.37" stroke="#F0F0F0"/>
            <path d="M1440 0.000671387V213.37" stroke="#F0F0F0"/>
            <path d="M-21 213.37H1439.22" stroke="#F0F0F0"/>
            <path d="M-21 177.678H1439.22" stroke="#F0F0F0"/>
            <path d="M-21 141.988H1439.22" stroke="#F0F0F0"/>
            <path d="M-21 106.299H1439.22" stroke="#F0F0F0"/>
            <path d="M-21 70.6063H1439.22" stroke="#F0F0F0"/>
            <path d="M-21 34.9167H1439.22" stroke="#F0F0F0"/>
        </g>
        <path d="M-21 65.1745C-21 65.1745 161.334 93.8824 343.668 93.8824C526.002 93.8824 526.002 136.556 709.112 136.556C891.446 136.556 891.446 170.695 1073.78 170.695C1256.11 170.695 1439.22 187.765 1439.22 187.765" stroke="#A6CEE3" stroke-width="2"/>
        <path d="M-21 58.1907C-21 58.1907 161.334 92.3299 343.668 92.3299C526.002 92.3299 526.002 111.727 709.112 111.727C891.446 111.727 891.446 155.953 1073.78 155.953C1256.11 155.953 1439.22 191.644 1439.22 191.644" stroke="#1AA3E0" stroke-width="2"/>
        <path d="M-21 70.6057C-21 70.6057 161.334 110.176 343.668 110.176C526.002 110.176 526.002 136.556 709.112 136.556C891.446 136.556 891.446 157.505 1073.78 157.505C1256.11 157.505 1439.22 190.093 1439.22 190.093" stroke="#1AA3E0" stroke-width="2"/>
        <path d="M-21 213.37C-21 213.37 161.334 110.177 343.668 110.177C526.002 110.177 526.002 187.766 709.112 187.766C891.446 187.766 891.446 99.3143 1073.78 99.3143C1256.11 99.3143 1439.22 213.37 1439.22 213.37" stroke="#1AA3E0" stroke-width="2"/>
        <path d="M-21 177.678C-21 177.678 161.334 145.091 343.668 145.091C526.002 145.091 526.002 104.745 709.112 104.745C891.446 104.745 891.446 72.1572 1073.78 72.1572C1256.11 72.1572 1439.22 31.811 1439.22 31.811" stroke="#1AA3E0" stroke-width="2"/>
        <path d="M-21 172.246C-21 172.246 161.334 145.09 343.668 145.09C526.002 145.09 526.002 102.416 709.112 102.416C891.446 102.416 891.446 65.173 1073.78 65.173C1256.11 65.173 1439.22 29.4821 1439.22 29.4821" stroke="#1AA3E0" stroke-width="2"/>
    </g>
</svg>
