<svg width="72" height="72" viewBox="0 0 72 72" fill="none" xmlns="http://www.w3.org/2000/svg">
    <g clip-path="url(#clip0)">
        <path d="M68.2877 6.15179H50.82L50.0098 1.18487C49.8845 0.415277 49.1594 -0.107123 48.3893 0.0186704C47.6197 0.144464 47.0978 0.869562 47.2231 1.63915L47.9592 6.15179H24.1309L24.867 1.63915C24.9928 0.869562 24.4704 0.143915 23.7013 0.0186704C22.9318 -0.106574 22.2061 0.415277 22.0803 1.18487L21.2701 6.15179H3.80236C3.02288 6.15179 2.39062 6.78405 2.39062 7.56353V15.5253C2.39062 16.3048 3.02288 16.9371 3.80236 16.9371H5.09051V35.4238C5.09051 36.2032 5.72222 36.8355 6.50225 36.8355C7.28173 36.8355 7.914 36.2032 7.914 35.4238V16.9371H64.1766V52.4751H7.914V46.7606C7.914 45.9805 7.28173 45.3488 6.50225 45.3488C5.72222 45.3488 5.09051 45.9805 5.09051 46.7606V53.8868C5.09051 54.6669 5.72222 55.2986 6.50225 55.2986H13.2528L10.7957 70.3608C10.6705 71.1304 11.1923 71.8561 11.9619 71.9813C12.0388 71.994 12.1152 72 12.191 72C12.8705 72 13.4698 71.5078 13.5824 70.8151L16.1136 55.2991H55.9764L58.5077 70.8151C58.6208 71.5078 59.2196 72 59.8991 72C59.9749 72 60.0513 71.994 60.1282 71.9813C60.8978 71.8561 61.4196 71.1304 61.2944 70.3608L58.8373 55.2991H65.5878C66.3673 55.2991 66.9996 54.6669 66.9996 53.8874V16.9371H68.2877C69.0672 16.9371 69.6995 16.3048 69.6995 15.5253V7.56353C69.6995 6.78405 69.0677 6.15179 68.2877 6.15179ZM6.50225 14.1136H5.21411V8.97528H22.4654H22.472H22.478H49.6121H49.6181H49.6247H66.876V14.1136H6.50225Z" fill="#1AA3E0"/>
        <path d="M45.0357 33.4412C45.0357 34.2207 45.668 34.853 46.4474 34.853H58.4797C59.2591 34.853 59.8914 34.2207 59.8914 33.4412C59.8914 32.6612 59.2591 32.0295 58.4797 32.0295H46.4474C45.668 32.0295 45.0357 32.6612 45.0357 33.4412Z" fill="#1AA3E0"/>
        <path d="M58.4797 39.1591H46.4474C45.668 39.1591 45.0357 39.7913 45.0357 40.5708C45.0357 41.3503 45.668 41.9825 46.4474 41.9825H58.4797C59.2591 41.9825 59.8914 41.3503 59.8914 40.5708C59.8914 39.7913 59.2591 39.1591 58.4797 39.1591Z" fill="#1AA3E0"/>
        <path d="M39.4135 46.5952C40.193 46.5952 40.8252 45.9629 40.8252 45.1834V21.6985C40.8252 20.919 40.193 20.2868 39.4135 20.2868H34.0719C33.2919 20.2868 32.6602 20.919 32.6602 21.6985V45.1834C32.6602 45.9629 33.2919 46.5952 34.0719 46.5952H39.4135ZM35.4837 23.1102H38.0018V43.7717H35.4837V23.1102Z" fill="#1AA3E0"/>
        <path d="M29.0994 46.5952C29.8795 46.5952 30.5112 45.9629 30.5112 45.1834V28.2057C30.5112 27.4262 29.8795 26.794 29.0994 26.794H23.7584C22.9784 26.794 22.3467 27.4262 22.3467 28.2057V45.1834C22.3467 45.9629 22.9784 46.5952 23.7584 46.5952H29.0994ZM25.1696 29.6174H27.6877V43.7717H25.1696V29.6174Z" fill="#1AA3E0"/>
        <path d="M18.7862 46.5952C19.5656 46.5952 20.1979 45.9629 20.1979 45.1834V34.7129C20.1979 33.9334 19.5656 33.3012 18.7862 33.3012H13.4446C12.6651 33.3012 12.0329 33.9334 12.0329 34.7129V45.1834C12.0329 45.9629 12.6651 46.5952 13.4446 46.5952H18.7862ZM14.8563 36.1246H17.3744V43.7717H14.8563V36.1246Z" fill="#1AA3E0"/>
        <path d="M58.4797 27.7228C59.2592 27.7228 59.8914 27.0906 59.8914 26.3111C59.8914 25.5316 59.2592 24.8994 58.4797 24.8994H52.1049C51.3254 24.8994 50.6931 25.5316 50.6931 26.3111C50.6931 27.0906 51.3254 27.7228 52.1049 27.7228H58.4797Z" fill="#1AA3E0"/>
        <path d="M47.7515 25.7706C47.5225 25.2163 46.9457 24.8609 46.3469 24.9043C45.7515 24.9472 45.2406 25.3707 45.0846 25.9458C44.933 26.5045 45.1522 27.123 45.6251 27.4587C46.1036 27.7981 46.7534 27.8075 47.2396 27.479C47.7894 27.1071 48.0042 26.382 47.7515 25.7706Z" fill="#1AA3E0"/>
        <path d="M5.33402 41.8831C5.66251 42.3742 6.2783 42.6104 6.85123 42.4681C7.41703 42.3275 7.8411 41.8375 7.91032 41.2607C7.98063 40.6763 7.65873 40.0918 7.13193 39.8331C6.59415 39.5688 5.93442 39.6782 5.51035 40.1011C5.03959 40.5708 4.96433 41.3305 5.33402 41.8831Z" fill="#1AA3E0"/>
    </g>
    <defs>
        <clipPath id="clip0">
            <rect width="72" height="72" fill="white"/>
        </clipPath>
    </defs>
</svg>
