<svg width="550" height="352" viewBox="0 0 550 352" fill="none" xmlns="http://www.w3.org/2000/svg">
    <g clip-path="url(#clip0)">
        <rect x="77" width="394" height="352" fill="white"/>
        <path d="M471 351.774C471 351.904 382.797 352.009 274.009 352.009C165.221 352.009 77 351.93 77 351.774C77 351.618 165.186 351.548 274.009 351.548C382.832 351.548 471 351.652 471 351.774Z" fill="#263238"/>
        <path d="M254.155 161.053C252.83 158.196 251.789 155.215 251.049 152.154C250.308 149.069 250.498 145.833 251.597 142.856C252.161 141.381 253.076 140.065 254.263 139.022C255.449 137.979 256.873 137.24 258.409 136.869C260.314 136.495 262.359 136.808 264.186 136.139C266.3 135.356 267.71 133.419 269.354 131.88C271.955 129.471 275.266 127.965 278.794 127.588C280.635 127.328 282.513 127.599 284.205 128.37C285.043 128.764 285.767 129.364 286.31 130.113C286.853 130.862 287.197 131.736 287.311 132.654C289.437 131.838 291.66 131.303 293.924 131.064C296.212 130.833 298.499 131.51 300.292 132.949C301.162 133.684 301.774 134.678 302.039 135.785C302.303 136.891 302.206 138.054 301.763 139.102C302.727 138.627 303.833 138.526 304.868 138.818C305.903 139.11 306.792 139.775 307.366 140.684C307.9 141.624 308.15 142.698 308.087 143.778C308.024 144.857 307.649 145.895 307.009 146.767C305.417 148.667 303.199 149.94 300.753 150.356C298.63 150.651 296.16 150.851 294.132 150.173" fill="#263238"/>
        <path d="M259.349 222.275L289.8 219.841C289.991 216.287 289.739 202.548 289.739 202.548C289.739 202.548 302.406 200.576 302.563 187.923C302.72 175.27 300.527 146.21 300.527 146.21C293.324 143.117 285.425 142.001 277.646 142.977C269.867 143.954 262.49 146.987 256.278 151.763L254.398 153.206L259.349 222.275Z" fill="#FFBE9D"/>
        <path d="M289.765 202.366C283.91 202.477 278.155 200.843 273.234 197.673C273.234 197.673 277.141 206.78 289.765 205.642V202.366Z" fill="#AA6550"/>
        <path d="M255.964 166.319C255.756 166.224 247.264 163.712 247.542 172.402C247.821 181.092 256.452 178.998 256.46 178.746C256.469 178.494 255.964 166.319 255.964 166.319Z" fill="#FFBE9D"/>
        <path d="M253.711 175.522C253.711 175.522 253.563 175.626 253.311 175.757C252.958 175.919 252.555 175.938 252.188 175.809C251.258 175.505 250.448 174.071 250.353 172.524C250.306 171.783 250.425 171.041 250.701 170.351C250.774 170.078 250.913 169.827 251.105 169.619C251.298 169.412 251.538 169.255 251.806 169.161C251.973 169.119 252.149 169.134 252.306 169.203C252.464 169.272 252.594 169.392 252.676 169.543C252.797 169.778 252.745 169.952 252.789 169.969C252.832 169.986 252.971 169.813 252.893 169.465C252.838 169.251 252.712 169.061 252.536 168.926C252.282 168.752 251.97 168.683 251.666 168.735C251.314 168.818 250.988 168.989 250.721 169.232C250.453 169.475 250.251 169.783 250.135 170.125C249.787 170.887 249.635 171.723 249.691 172.559C249.796 174.297 250.744 175.904 252.006 176.226C252.241 176.287 252.487 176.293 252.725 176.245C252.963 176.197 253.187 176.095 253.38 175.948C253.702 175.757 253.746 175.522 253.711 175.522Z" fill="#AA6550"/>
        <path d="M296.377 165.824C296.38 166.293 296.2 166.745 295.875 167.084C295.55 167.423 295.106 167.622 294.637 167.64C294.407 167.658 294.176 167.63 293.957 167.557C293.738 167.485 293.535 167.37 293.361 167.219C293.187 167.067 293.045 166.883 292.943 166.677C292.841 166.47 292.781 166.245 292.766 166.015C292.762 165.544 292.941 165.091 293.266 164.75C293.59 164.409 294.036 164.208 294.507 164.19C294.737 164.172 294.969 164.201 295.189 164.274C295.408 164.347 295.611 164.463 295.785 164.615C295.959 164.767 296.101 164.952 296.203 165.16C296.305 165.367 296.364 165.593 296.377 165.824Z" fill="#263238"/>
        <path d="M298.135 164.008C297.908 164.251 296.542 163.234 294.594 163.243C292.645 163.252 291.218 164.216 291.009 163.982C290.8 163.747 291.131 163.452 291.757 162.991C292.602 162.413 293.605 162.11 294.628 162.122C295.636 162.111 296.621 162.415 297.447 162.991C298.039 163.478 298.248 163.903 298.135 164.008Z" fill="#263238"/>
        <path d="M277.236 165.824C277.239 166.293 277.059 166.745 276.734 167.084C276.41 167.423 275.966 167.622 275.496 167.64C275.266 167.658 275.035 167.63 274.816 167.557C274.597 167.485 274.395 167.37 274.221 167.219C274.047 167.067 273.904 166.883 273.802 166.677C273.7 166.47 273.64 166.245 273.626 166.015C273.621 165.544 273.8 165.091 274.125 164.75C274.45 164.409 274.895 164.208 275.366 164.19C275.597 164.172 275.829 164.201 276.048 164.274C276.268 164.347 276.47 164.463 276.645 164.615C276.819 164.767 276.961 164.952 277.063 165.16C277.164 165.367 277.223 165.593 277.236 165.824Z" fill="#263238"/>
        <path d="M278.994 164.373C278.768 164.607 277.402 163.599 275.453 163.599C273.504 163.599 272.077 164.581 271.868 164.338C271.764 164.234 271.99 163.808 272.617 163.356C273.46 162.775 274.463 162.471 275.488 162.487C276.496 162.472 277.482 162.776 278.307 163.356C278.898 163.843 279.107 164.268 278.994 164.373Z" fill="#263238"/>
        <path d="M286.059 178.798C287.086 178.474 288.15 178.281 289.225 178.225C289.721 178.172 290.191 178.077 290.278 177.738C290.315 177.227 290.2 176.716 289.948 176.269L288.477 172.48C286.433 167.101 284.954 162.669 285.171 162.591C285.389 162.513 287.224 166.815 289.26 172.15C289.753 173.477 290.223 174.746 290.67 175.956C290.984 176.554 291.077 177.244 290.931 177.903C290.859 178.079 290.748 178.236 290.606 178.362C290.464 178.489 290.296 178.581 290.113 178.633C289.829 178.711 289.537 178.749 289.243 178.746C288.188 178.901 287.118 178.918 286.059 178.798Z" fill="#263238"/>
        <path d="M280.334 180.145C280.647 180.145 280.656 182.231 282.465 183.734C284.275 185.237 286.52 185.003 286.537 185.298C286.537 185.429 286.032 185.707 285.084 185.733C283.845 185.747 282.641 185.325 281.682 184.542C280.762 183.792 280.169 182.714 280.029 181.535C279.951 180.649 280.186 180.128 280.334 180.145Z" fill="#263238"/>
        <path d="M297.421 160.593C297.073 161.027 295.733 160.593 294.124 160.593C292.514 160.593 291.139 160.888 290.826 160.427C290.687 160.201 290.905 159.758 291.505 159.341C292.307 158.841 293.239 158.59 294.184 158.619C295.128 158.649 296.043 158.957 296.812 159.506C297.386 159.88 297.569 160.375 297.421 160.593Z" fill="#263238"/>
        <path d="M276.462 157.342C276.245 157.586 275.749 157.481 275.096 157.342C273.517 156.966 271.877 156.913 270.276 157.186C269.615 157.264 269.11 157.334 268.91 157.082C268.71 156.83 268.91 156.291 269.589 155.735C270.511 155.066 271.631 154.723 272.77 154.761C273.909 154.799 275.003 155.215 275.879 155.943C276.514 156.56 276.671 157.125 276.462 157.342Z" fill="#263238"/>
        <path d="M301.162 150.095C295.065 151.75 288.598 151.421 282.7 149.156C276.132 146.671 268.693 145.889 267.214 147.305C265.735 148.722 266.048 155.187 260.045 157.69C260.045 157.69 261.715 169.917 256.773 169.969C251.832 170.021 252.971 150.712 252.971 150.712L264.36 143.655L277.167 139.893L289.417 138.659L301.162 141.005V150.095Z" fill="#263238"/>
        <path d="M333.884 251.36C333.884 251.36 355.948 274.05 363.726 270.678C384.876 261.554 402.068 242.227 407.984 235.301C408.236 233.997 408.489 232.468 408.706 230.643C408.889 229.067 408.801 227.471 408.445 225.924C408.087 223.976 407.46 222.087 406.583 220.311C405.618 218.755 407.01 216.887 408.532 217.521C410.055 218.155 413.752 222.266 414.527 228.053C414.62 228.384 414.785 228.69 415.009 228.951C415.233 229.212 415.511 229.421 415.823 229.564C416.136 229.707 416.476 229.78 416.82 229.779C417.164 229.778 417.504 229.702 417.815 229.557C421.643 228.297 434.65 223.257 436.956 222.718C439.018 222.24 441.48 222.361 440.105 223.865C438.731 225.368 429.143 230.973 429.143 230.973C429.143 230.973 441.567 223.378 442.594 225.238C443.298 226.524 440.68 229.479 431.962 233.685C431.962 233.685 442.246 227.506 444.003 227.706C447.953 228.166 435.651 235.727 435.651 235.727C444.351 230.513 443.907 230.156 444.847 231.173C445.552 231.929 444.029 233.659 439.757 237.135C436.277 239.959 433.267 243.574 428.221 248.154C428.221 248.154 376.019 320.672 343.176 298.417C325.471 286.416 320.607 280.368 310.558 271.278" fill="#FFBE9D"/>
        <path d="M430.5 238.96C430.631 239.177 433.354 237.691 436.59 235.631C439.827 233.572 442.333 231.729 442.185 231.521C442.037 231.312 439.314 232.807 436.095 234.858C432.875 236.909 430.378 238.768 430.5 238.96Z" fill="#AA6550"/>
        <path d="M428.143 235.875C428.264 236.092 431.266 234.667 434.833 232.685C438.4 230.704 441.193 228.922 441.071 228.697C440.949 228.471 437.956 229.904 434.381 231.886C430.805 233.867 427.995 235.649 428.143 235.875Z" fill="#AA6550"/>
        <path d="M425.715 232.624C425.837 232.85 428.691 231.547 432.092 229.722C435.494 227.897 438.183 226.246 438.035 226.003C437.887 225.759 435.059 227.08 431.657 228.905C428.256 230.73 425.593 232.399 425.715 232.624Z" fill="#AA6550"/>
        <path d="M203.258 269.375C203.258 269.375 192.139 298.991 183.665 299.017C160.609 299.086 137.127 288.284 128.932 284.304C128.184 283.209 127.331 281.906 126.4 280.324C125.604 278.953 125.045 277.458 124.747 275.901C124.302 273.97 124.121 271.988 124.208 270.009C124.469 268.202 122.468 267.037 121.302 268.271C120.136 269.505 118.413 274.711 120.031 280.324C120.078 280.665 120.05 281.011 119.95 281.34C119.849 281.668 119.679 281.971 119.449 282.227C119.22 282.483 118.938 282.687 118.623 282.823C118.307 282.96 117.965 283.026 117.622 283.018C113.611 283.392 99.6729 283.974 97.3325 284.409C95.2531 284.8 93.0433 285.895 94.9051 286.72C96.2624 287.32 102.457 288.171 105.746 288.589C101.752 288.137 93.3217 287.363 93.1825 288.971C93.0955 289.918 94.5745 290.944 98.2199 291.647C95.7316 291.482 93.487 291.448 92.8867 291.804C89.4066 293.803 103.753 295.801 103.753 295.801C93.7132 294.489 93.9481 294.011 93.4957 295.315C93.1564 296.288 95.2357 297.27 100.552 298.791C104.902 299.99 109.078 302.084 115.542 304.265C115.542 304.265 192.47 349.819 213.62 316.292C225.026 298.217 227.062 290.726 232.622 278.369L203.258 269.375Z" fill="#FFBE9D"/>
        <path d="M109.774 296.67C109.774 296.922 106.65 296.67 102.814 296.053C98.9769 295.436 95.9927 294.785 96.0449 294.533C96.0971 294.281 99.1944 294.533 103.005 295.15C106.816 295.767 109.8 296.418 109.774 296.67Z" fill="#AA6550"/>
        <path d="M110.687 292.838C110.687 293.09 107.346 292.986 103.283 292.603C99.2204 292.221 95.9404 291.734 95.9665 291.439C95.9926 291.143 99.2987 291.3 103.37 291.682C107.442 292.065 110.705 292.621 110.687 292.838Z" fill="#AA6550"/>
        <path d="M111.61 288.927C111.61 289.179 108.451 289.136 104.597 288.814C100.743 288.493 97.637 288.041 97.637 287.789C97.637 287.537 100.795 287.589 104.649 287.902C108.504 288.215 111.627 288.675 111.61 288.927Z" fill="#AA6550"/>
        <path d="M359.915 270.748L323.522 230.183C313.386 220.232 307.974 217.26 293.871 215.592C291.566 215.323 289.73 215.149 288.416 214.984C277.848 218.321 266.506 218.321 255.938 214.984C250.918 215.192 246.759 216.722 242.496 217.591C229.046 220.198 219.371 229.948 216.683 238.977L186.345 298.165L211.967 319.673L235.371 282.566L236.798 322.063L235.345 351.609L325.175 351.87L321.094 282.584L345.273 302.241L359.915 270.748Z" fill="#1AA3E0"/>
        <path d="M235.78 257.704C235.87 258.138 235.908 258.582 235.893 259.025C235.893 259.894 235.954 261.093 235.98 262.614C235.98 265.638 236.041 269.827 235.98 274.45C235.919 279.073 235.902 283.262 235.832 286.286C235.832 287.806 235.754 289.032 235.719 289.875C235.73 290.316 235.686 290.757 235.588 291.187C235.492 290.756 235.451 290.315 235.467 289.875C235.467 289.006 235.406 287.798 235.38 286.286C235.336 283.253 235.319 279.073 235.38 274.441C235.44 269.809 235.458 265.638 235.527 262.605C235.527 261.093 235.606 259.868 235.649 259.016C235.633 258.575 235.677 258.134 235.78 257.704Z" fill="#263238"/>
        <path d="M322.617 308.48C322.478 307.81 322.391 307.13 322.356 306.447C322.226 305.021 322.06 303.144 321.851 300.885C321.46 296.184 320.981 289.683 320.459 282.505C319.937 275.327 319.52 268.862 319.241 264.161C319.128 261.893 319.024 260.007 318.954 258.582C318.897 257.899 318.897 257.213 318.954 256.531C319.1 257.2 319.19 257.88 319.224 258.564C319.354 259.99 319.52 261.867 319.72 264.126C320.111 268.827 320.59 275.327 321.121 282.505C321.651 289.683 322.052 296.184 322.33 300.894C322.452 303.162 322.547 305.048 322.626 306.473C322.675 307.141 322.672 307.812 322.617 308.48Z" fill="#263238"/>
        <g opacity="0.3">
            <path opacity="0.3" d="M335.937 243.835C335.937 243.956 308.679 244.061 275.035 244.061C241.391 244.061 214.133 243.956 214.133 243.835C214.133 243.713 241.391 243.609 275.035 243.609C308.679 243.609 335.937 243.704 335.937 243.835Z" fill="#EBEBEB"/>
        </g>
        <g opacity="0.3">
            <path opacity="0.3" d="M345.342 279.881C345.342 280.011 312.125 280.107 271.164 280.107C230.203 280.107 196.977 280.011 196.977 279.881C196.977 279.751 230.185 279.655 271.164 279.655C312.142 279.655 345.342 279.803 345.342 279.881Z" fill="#EBEBEB"/>
        </g>
        <g opacity="0.3">
            <path opacity="0.3" d="M323.348 320.985C323.348 321.115 304.059 321.211 280.264 321.211C256.469 321.211 237.18 321.115 237.18 320.985C237.18 320.855 256.469 320.759 280.264 320.759C304.059 320.759 323.348 320.863 323.348 320.985Z" fill="#EBEBEB"/>
        </g>
        <g opacity="0.3">
            <path opacity="0.3" d="M246.82 351.774C246.699 351.774 246.594 321.498 246.594 284.165C246.594 246.833 246.699 216.539 246.82 216.539C246.942 216.539 247.029 246.781 247.029 284.148C247.029 321.515 246.951 351.774 246.82 351.774Z" fill="#EBEBEB"/>
        </g>
        <g opacity="0.3">
            <path opacity="0.3" d="M298.883 351.783C298.883 351.783 298.883 351.661 298.883 351.435C298.883 351.209 298.883 350.835 298.883 350.401C298.883 349.48 298.883 348.15 298.839 346.456C298.839 342.98 298.77 338.035 298.726 331.926C298.613 319.629 298.456 302.693 298.291 283.983C298.126 265.273 298.004 248.301 297.995 236.031C297.995 229.948 297.995 224.96 297.995 221.501C297.995 219.763 297.995 218.477 298.039 217.556C298.039 217.121 298.039 216.774 298.039 216.522C298.028 216.406 298.028 216.29 298.039 216.174C298.039 216.174 298.039 216.296 298.039 216.522C298.039 216.748 298.039 217.121 298.039 217.556C298.039 218.477 298.039 219.807 298.082 221.501C298.082 224.977 298.152 229.913 298.195 236.031C298.309 248.319 298.465 265.264 298.63 283.983C298.796 302.701 298.918 319.612 298.926 331.917C298.926 338 298.926 342.997 298.926 346.456C298.926 348.15 298.926 349.48 298.926 350.401C298.926 350.835 298.926 351.174 298.926 351.435C298.923 351.552 298.908 351.668 298.883 351.783Z" fill="#EBEBEB"/>
        </g>
        <g opacity="0.3">
            <path opacity="0.3" d="M335.711 293.985C335.589 293.985 335.485 283.036 335.485 269.531C335.485 256.027 335.589 245.077 335.711 245.077C335.833 245.077 335.937 256.018 335.937 269.531C335.937 283.044 335.841 293.985 335.711 293.985Z" fill="#EBEBEB"/>
        </g>
        <g opacity="0.3">
            <path opacity="0.3" d="M206.068 304.005C205.938 304.005 205.842 293.681 205.842 280.941C205.842 268.202 205.938 257.869 206.068 257.869C206.199 257.869 206.295 268.193 206.295 280.941C206.295 293.69 206.19 304.005 206.068 304.005Z" fill="#EBEBEB"/>
        </g>
        <path d="M252.58 216.174L257.539 205.763L273.782 217.191L289.808 206.441L295.446 215.583L279.394 226.003H268.649L252.58 217.382" fill="#1AA3E0"/>
        <path d="M273.782 217.234C273.685 217.277 273.583 217.306 273.478 217.321C273.178 217.359 272.886 217.438 272.608 217.556C271.605 217.963 270.758 218.679 270.189 219.598C269.309 220.973 268.56 222.428 267.953 223.943C267.571 224.812 267.188 225.681 266.7 226.611C266.222 227.575 265.59 228.455 264.83 229.218L264.673 229.366L264.517 229.201L263.594 228.245C260.375 224.873 257.635 221.666 255.764 219.285C254.807 218.095 254.024 217.121 253.554 216.435C253.269 216.096 253.018 215.729 252.806 215.34C253.128 215.638 253.419 215.967 253.676 216.322L255.99 219.085C257.957 221.406 260.732 224.578 263.934 227.932L264.856 228.888H264.543C265.275 228.162 265.881 227.319 266.335 226.394C266.814 225.525 267.205 224.612 267.597 223.787C268.235 222.263 269.025 220.808 269.954 219.442C270.576 218.497 271.494 217.785 272.564 217.417C272.845 217.321 273.138 217.268 273.434 217.26C273.669 217.182 273.782 217.182 273.782 217.234Z" fill="#263238"/>
        <path d="M295.159 215.783C294.933 216.158 294.668 216.508 294.367 216.826C293.819 217.478 293.019 218.399 291.975 219.485C289.231 222.313 286.235 224.884 283.022 227.167C282.317 227.662 281.613 228.14 280.934 228.584L280.621 228.783V228.401C280.423 226.571 279.978 224.776 279.298 223.065C278.794 221.678 278.069 220.38 277.149 219.224C276.556 218.444 275.758 217.843 274.844 217.486C274.2 217.269 273.809 217.243 273.817 217.2C273.826 217.156 273.913 217.2 274.096 217.2C274.367 217.208 274.636 217.252 274.896 217.33C275.868 217.645 276.729 218.234 277.376 219.024C278.355 220.184 279.131 221.5 279.673 222.918C280.388 224.667 280.859 226.506 281.073 228.384L280.725 228.21C281.395 227.758 282.091 227.289 282.796 226.793C285.988 224.529 288.991 222.009 291.775 219.259C292.853 218.208 293.689 217.321 294.272 216.713C294.541 216.379 294.838 216.068 295.159 215.783Z" fill="#263238"/>
        <path d="M279.96 351.783C279.96 351.783 279.96 351.661 279.96 351.435C279.96 351.209 279.96 350.853 279.96 350.418C279.96 349.506 279.96 348.194 279.907 346.516C279.907 343.101 279.812 338.2 279.733 332.152C279.559 320.029 279.168 303.283 278.324 284.8C277.48 266.316 276.314 249.605 275.383 237.517C274.896 231.486 274.513 226.602 274.235 223.196C274.104 221.527 274 220.224 273.922 219.311C273.922 218.877 273.87 218.547 273.861 218.294C273.847 218.179 273.847 218.062 273.861 217.947C273.861 217.947 273.861 218.06 273.913 218.286C273.965 218.512 273.974 218.877 274.026 219.303C274.122 220.215 274.252 221.519 274.418 223.187C274.757 226.559 275.201 231.443 275.714 237.491C276.732 249.57 277.933 266.29 278.785 284.782C279.638 303.275 279.968 320.02 280.064 332.152C280.116 338.235 280.116 343.127 280.064 346.516C280.064 348.194 280.064 349.506 280.064 350.418C280.064 350.853 280.064 351.183 280.064 351.435C280.041 351.554 280.006 351.67 279.96 351.783Z" fill="#263238"/>
        <g opacity="0.2">
            <path opacity="0.2" d="M273.4 217.234C275.375 218.355 276.105 220.849 276.114 223.109C276.123 225.368 275.583 227.628 275.775 229.887C275.773 230.48 275.909 231.066 276.172 231.598C276.435 232.13 276.817 232.594 277.289 232.955C278.663 233.824 280.412 233.007 281.822 232.233C284.849 230.574 287.912 228.879 290.391 226.463C291.578 225.243 292.499 223.791 293.098 222.198C293.697 220.606 293.96 218.907 293.871 217.208C289.695 221.684 285.484 224.386 280.917 227.914C280.589 225.532 279.81 223.235 278.62 221.145C277.437 219.094 275.757 216.974 273.4 217.234Z" fill="black"/>
        </g>
        <g opacity="0.2">
            <path opacity="0.2" d="M258.479 222.379C260.019 225.394 261.637 228.462 264.29 230.608C265.465 231.538 267.188 232.242 268.414 231.373C269.398 230.669 269.563 229.305 269.641 228.097C269.85 225.038 270.755 221.519 270.964 218.451C268.536 221.188 267.205 226.011 264.647 229.322C262.037 227.68 260.532 224.873 258.653 222.431" fill="black"/>
        </g>
        <g opacity="0.2">
            <path opacity="0.2" d="M337.512 295.445L349.631 272.929C346.047 273.285 343.637 276.666 341.801 279.759C339.965 282.853 337.712 286.286 334.154 286.903C331.683 287.328 329.212 286.225 327.054 284.939C324.897 283.653 322.808 282.132 320.355 281.593L337.512 295.445Z" fill="black"/>
        </g>
        <g opacity="0.2">
            <path opacity="0.2" d="M231.047 289.362C231.047 289.362 222.608 298.235 216.918 299.538C214.056 300.168 211.094 300.183 208.226 299.584C205.359 298.985 202.651 297.784 200.283 296.062C199.92 295.744 199.488 295.515 199.021 295.393C198.785 295.345 198.54 295.388 198.335 295.514C198.129 295.64 197.98 295.839 197.916 296.071C197.926 296.282 197.984 296.489 198.086 296.674C198.189 296.86 198.333 297.019 198.508 297.14C204.308 302.533 210.352 307.666 216.639 312.538L231.047 289.362Z" fill="black"/>
        </g>
        <g opacity="0.2">
            <path opacity="0.2" d="M270.79 228.879C267.588 254.422 265.497 280.069 264.517 305.821C264.369 309.844 264.264 313.99 265.7 317.752C267.37 322.097 270.92 325.487 274.4 328.667C275.871 330.023 277.88 331.483 279.673 330.64C280.356 330.255 280.938 329.713 281.369 329.058C283.544 326.26 285.58 323.236 286.389 319.777C288.912 308.949 278.681 298.234 280.986 287.355" fill="black"/>
        </g>
        <path d="M269.963 219.989L277.645 219.789L279.699 223.917L277.236 230.817H270.964L267.64 224.638L269.963 219.989Z" fill="#455A64"/>
        <path d="M270.964 230.817L267.37 318.63L277.811 329.979L287.459 316.275L277.237 230.817H270.964Z" fill="#455A64"/>
        <path d="M276.871 230.939C275.905 231.032 274.932 231.032 273.965 230.939C272.999 231.001 272.028 230.969 271.068 230.843C272.974 230.335 274.983 230.368 276.871 230.939Z" fill="#263238"/>
        <path d="M278.524 221.275C278.272 221.767 277.943 222.216 277.55 222.605C276.673 223.602 275.706 224.515 274.661 225.333C273.625 226.157 272.515 226.884 271.346 227.506C270.879 227.804 270.364 228.022 269.824 228.149C269.763 228.027 271.99 226.88 274.383 224.977C276.775 223.074 278.42 221.18 278.524 221.275Z" fill="#263238"/>
        <path d="M278.185 239.394C277.046 240.837 275.792 242.186 274.435 243.426C273.18 244.774 271.815 246.015 270.355 247.137C271.495 245.692 272.752 244.344 274.113 243.105C275.364 241.756 276.726 240.515 278.185 239.394Z" fill="#263238"/>
        <path d="M278.716 245.72C277.428 247.311 276.023 248.804 274.513 250.187C273.114 251.683 271.605 253.071 269.998 254.341C271.287 252.748 272.691 251.252 274.2 249.866C275.6 248.374 277.11 246.988 278.716 245.72Z" fill="#EBEBEB"/>
        <path d="M279.707 251.56C278.189 253.383 276.556 255.107 274.818 256.722C273.181 258.446 271.438 260.065 269.598 261.571C271.115 259.745 272.748 258.017 274.487 256.401C276.12 254.675 277.864 253.058 279.707 251.56Z" fill="#263238"/>
        <path d="M280.395 257.713C278.724 259.682 276.943 261.557 275.061 263.326C273.281 265.193 271.396 266.958 269.415 268.61C271.077 266.638 272.855 264.766 274.739 263.005C276.52 261.132 278.408 259.365 280.395 257.713Z" fill="#EBEBEB"/>
        <path d="M281.047 263.909C279.235 266.019 277.313 268.032 275.288 269.94C273.365 271.957 271.332 273.866 269.197 275.658C271.007 273.528 272.93 271.498 274.957 269.575C276.879 267.574 278.913 265.682 281.047 263.909Z" fill="#263238"/>
        <path d="M281.83 269.966C281.926 270.053 279.081 273.016 275.496 276.588C271.912 280.159 268.919 282.975 268.832 282.888C270.832 280.574 272.949 278.364 275.175 276.266C278.759 272.694 281.735 269.879 281.83 269.966Z" fill="#EBEBEB"/>
        <path d="M282.483 276.153C282.57 276.24 279.516 279.412 275.67 283.244C271.825 287.076 268.632 290.092 268.545 290.005C268.458 289.918 271.503 286.746 275.349 282.923C279.194 279.099 282.387 276.066 282.483 276.153Z" fill="#263238"/>
        <path d="M283.248 282.236C283.335 282.323 280.073 285.712 275.966 289.788C271.86 293.863 268.458 297.105 268.371 297.018C268.284 296.931 271.538 293.542 275.653 289.466C279.768 285.391 283.153 282.149 283.248 282.236Z" fill="#EBEBEB"/>
        <path d="M283.727 288.597C283.814 288.684 280.351 292.273 275.992 296.601C271.634 300.928 268.032 304.378 267.936 304.292C267.84 304.205 271.312 300.616 275.67 296.288C280.029 291.96 283.64 288.493 283.727 288.597Z" fill="#263238"/>
        <path d="M284.571 294.576C284.658 294.663 281.004 298.443 276.41 303.014C271.816 307.585 268.005 311.226 267.918 311.139C267.831 311.052 271.486 307.272 276.088 302.692C280.69 298.113 284.484 294.506 284.571 294.576Z" fill="#EBEBEB"/>
        <path d="M285.902 300.103C285.989 300.198 281.9 304.404 276.775 309.505C271.651 314.607 267.414 318.682 267.327 318.595C267.24 318.508 271.32 314.294 276.453 309.184C281.587 304.074 285.815 300.016 285.902 300.103Z" fill="#263238"/>
        <path d="M270.642 322.193C270.555 322.106 274.009 318.491 278.368 314.12C282.726 309.749 286.32 306.299 286.415 306.368C286.511 306.438 283.04 310.07 278.689 314.442C274.339 318.813 270.729 322.28 270.642 322.193Z" fill="#EBEBEB"/>
        <path d="M274.635 326.19C274.548 326.104 277.245 323.114 280.725 319.508C282.744 317.277 284.875 315.151 287.111 313.138C285.195 315.466 283.162 317.697 281.021 319.821C279.003 322.051 276.871 324.178 274.635 326.19Z" fill="#263238"/>
        <path d="M277.41 233.511C276.415 234.811 275.302 236.018 274.087 237.117C272.977 238.325 271.756 239.428 270.442 240.411C271.439 239.109 272.551 237.899 273.765 236.796C274.877 235.591 276.097 234.492 277.41 233.511Z" fill="#EBEBEB"/>
        <path d="M187.102 297.974C185.832 297.861 185.362 296.14 185.762 294.932C186.162 293.724 187.128 292.751 187.502 291.534C187.737 290.848 187.841 290.022 188.442 289.605C188.77 289.395 189.155 289.291 189.544 289.308C189.934 289.325 190.308 289.463 190.617 289.701C194.158 292.725 196.768 295.671 200.631 298.947C204.354 302.093 208.365 306.134 212.298 309.028C214.508 310.661 217.213 312.347 217.518 315.111C217.592 316.24 217.229 317.354 216.504 318.223C215.778 319.091 214.746 319.648 213.62 319.777C211.376 319.934 209.435 318.343 207.756 316.849C200.75 310.603 193.74 304.361 186.728 298.121" fill="#1AA3E0"/>
        <path d="M216.108 312.173C215.728 311.946 215.367 311.688 215.03 311.4C214.351 310.879 213.35 310.166 212.098 309.28C210.622 308.257 209.213 307.142 207.878 305.943L203.015 301.528C199.534 298.374 196.472 295.506 194.245 293.412L191.635 290.909C191.314 290.62 191.022 290.299 190.765 289.953C191.135 290.211 191.482 290.502 191.8 290.822L194.523 293.212C196.803 295.245 199.926 298.078 203.371 301.224C205.111 302.805 206.712 304.3 208.2 305.673C209.514 306.881 210.897 308.013 212.341 309.062C213.568 309.983 214.542 310.748 215.195 311.304C215.526 311.564 215.832 311.855 216.108 312.173Z" fill="#263238"/>
        <path d="M213.794 314.198C213.397 314.02 213.019 313.805 212.663 313.555C211.958 313.121 210.923 312.46 209.714 311.626C207.243 309.957 203.893 307.55 200.344 304.674C196.794 301.797 193.705 299.095 191.539 297.053C190.451 296.036 189.581 295.193 189.007 294.593C188.686 294.304 188.395 293.984 188.137 293.637C188.492 293.901 188.827 294.192 189.138 294.506L191.748 296.853C193.975 298.834 197.081 301.519 200.622 304.361C204.163 307.203 207.478 309.636 209.896 311.365L212.759 313.407C213.126 313.641 213.472 313.906 213.794 314.198Z" fill="#263238"/>
        <g opacity="0.3">
            <path opacity="0.3" d="M198.308 296.948C197.495 298.072 196.564 299.106 195.532 300.033C194.603 301.066 193.564 301.996 192.435 302.805C194.175 300.647 196.144 298.683 198.308 296.948Z" fill="#EBEBEB"/>
        </g>
        <g opacity="0.3">
            <path opacity="0.3" d="M211.941 309.149C211.053 310.315 210.047 311.387 208.939 312.347C207.933 313.414 206.823 314.378 205.625 315.224C206.51 314.055 207.516 312.983 208.626 312.026C209.63 310.956 210.741 309.993 211.941 309.149Z" fill="#EBEBEB"/>
        </g>
        <g opacity="0.5">
            <path opacity="0.5" d="M263.847 210.673C262.988 212.416 261.996 214.089 260.88 215.679C259.893 217.351 258.776 218.944 257.539 220.441C258.402 218.701 259.394 217.028 260.506 215.435C261.489 213.761 262.607 212.168 263.847 210.673Z" fill="#EBEBEB"/>
        </g>
        <g opacity="0.5">
            <path opacity="0.5" d="M289.66 220.763C288.662 219.119 287.79 217.402 287.05 215.627C286.177 213.912 285.441 212.131 284.849 210.3C286.73 213.643 288.342 217.13 289.669 220.728L289.66 220.763Z" fill="#EBEBEB"/>
        </g>
        <path d="M346.43 300.138C346.191 300.687 345.781 301.144 345.26 301.44C344.739 301.737 344.136 301.856 343.541 301.78C342.271 301.641 341.114 300.911 339.835 300.816C339.113 300.737 338.286 300.815 337.747 300.32C337.512 300.025 337.353 299.676 337.285 299.304C337.217 298.933 337.241 298.551 337.355 298.191C338.164 293.385 340.774 289.084 343.576 285.095C346.377 281.106 349.449 277.274 351.406 272.781C352.502 270.261 353.546 267.254 356.148 266.351C357.238 266.024 358.413 266.13 359.427 266.649C360.44 267.167 361.214 268.057 361.586 269.132C362.238 271.287 361.116 273.529 360.028 275.493L346.43 300.138Z" fill="#1AA3E0"/>
        <path d="M355.13 270.835C355.029 271.254 354.892 271.664 354.721 272.06C354.434 272.833 353.99 273.946 353.433 275.31C352.311 278.039 350.684 281.784 348.761 285.86C346.839 289.935 344.959 293.568 343.541 296.166C342.845 297.461 342.262 298.504 341.845 299.216C341.649 299.598 341.419 299.962 341.157 300.303C341.302 299.901 341.48 299.511 341.688 299.138L343.263 296.01C344.594 293.403 346.412 289.736 348.335 285.669C350.258 281.602 351.937 277.848 353.129 275.18C353.703 273.894 354.182 272.825 354.547 271.991C354.706 271.589 354.901 271.202 355.13 270.835Z" fill="#263238"/>
        <path d="M353.668 266.021C353.484 266.431 353.263 266.823 353.007 267.194L351.119 270.305C349.527 272.912 347.378 276.579 345.133 280.733C342.889 284.887 340.992 288.641 339.643 291.396L338.06 294.672C337.883 295.082 337.674 295.477 337.434 295.854C337.548 295.423 337.702 295.004 337.895 294.602C338.225 293.803 338.721 292.664 339.356 291.265C340.627 288.467 342.488 284.643 344.733 280.516C346.978 276.388 349.188 272.755 350.823 270.166C351.693 268.871 352.346 267.837 352.833 267.133C353.072 266.734 353.352 266.361 353.668 266.021Z" fill="#263238"/>
        <g opacity="0.5">
            <path opacity="0.5" d="M349.457 293.968C347.814 293.746 346.22 293.249 344.742 292.499C343.197 291.894 341.763 291.04 340.496 289.97C340.566 289.857 342.454 290.996 344.925 292.091C347.395 293.186 349.492 293.846 349.457 293.968Z" fill="#EBEBEB"/>
        </g>
        <g opacity="0.5">
            <path opacity="0.5" d="M360.133 276.014C358.539 275.25 356.998 274.379 355.521 273.407C353.964 272.557 352.464 271.604 351.032 270.557C352.687 271.217 354.27 272.044 355.756 273.025C357.314 273.869 358.78 274.87 360.133 276.014Z" fill="#EBEBEB"/>
        </g>
        <path d="M373.792 0L372.052 3.17188L368.885 4.9012L372.052 6.63052L373.792 9.8024L375.523 6.63052L378.699 4.9012L375.523 3.17188L373.792 0Z" fill="#455A64"/>
        <path d="M435.964 187.94L434.224 191.112L431.057 192.841L434.224 194.579L435.964 197.743L437.695 194.579L440.871 192.841L437.695 191.112L435.964 187.94Z" fill="#455A64"/>
        <path d="M155.72 9.84583L153.98 13.0177L150.813 14.747L153.98 16.4763L155.72 19.6482L157.451 16.4763L160.627 14.747L157.451 13.0177L155.72 9.84583Z" fill="#455A64"/>
        <path d="M271.668 45.1014L270.598 47.048L268.649 48.1169L270.598 49.1771L271.668 51.1237L272.738 49.1771L274.679 48.1169L272.738 47.048L271.668 45.1014Z" fill="#455A64"/>
        <path d="M210.914 95.2345L209.957 96.9638L208.235 97.911L209.957 98.8583L210.914 100.588L211.863 98.8583L213.594 97.911L211.863 96.9638L210.914 95.2345Z" fill="#455A64"/>
        <path d="M325.671 178.598L324.723 180.328L322.991 181.275L324.723 182.222L325.671 183.951L326.628 182.222L328.351 181.275L326.628 180.328L325.671 178.598Z" fill="#455A64"/>
        <path d="M158.782 194.918L157.834 196.656L156.103 197.595L157.834 198.542L158.782 200.28L159.731 198.542L161.462 197.595L159.731 196.656L158.782 194.918Z" fill="#455A64"/>
        <path d="M119.509 47.891C119.509 47.891 124.73 45.1276 130.576 49.2988C134.178 51.9058 141.826 55.8685 144.183 53.444L147.081 44.1021C143.275 43.302 139.691 41.6796 136.579 39.3487C131.96 35.6989 122.755 35.8727 122.755 35.8727L119.509 47.891Z" fill="#E8F1EA"/>
        <g opacity="0.4">
            <path opacity="0.4" d="M135.831 40.5305C136.416 40.863 136.923 41.3178 137.316 41.8637C137.709 42.4096 137.98 43.0338 138.11 43.6938C138.239 44.3537 138.225 45.0338 138.067 45.6876C137.91 46.3415 137.613 46.9537 137.197 47.4825C135.622 49.3422 131.977 48.8556 130.124 47.274C129.681 46.8999 129.317 46.4423 129.052 45.9275C128.786 45.4126 128.625 44.8506 128.578 44.2736C128.53 43.6965 128.597 43.1157 128.774 42.5644C128.951 42.0131 129.235 41.5021 129.61 41.0606C131.185 39.1835 133.726 39.3052 135.831 40.5305Z" fill="white"/>
        </g>
        <path d="M135.735 42.3902C135.735 42.451 135.509 42.3902 135.222 42.2772C134.843 42.108 134.446 41.9827 134.039 41.9035C133.792 41.8559 133.538 41.8559 133.291 41.9035C133.059 41.9525 132.853 42.0819 132.708 42.2685C132.648 42.365 132.611 42.4736 132.599 42.5865C132.587 42.6993 132.6 42.8134 132.638 42.9203C132.708 43.1115 132.934 43.2853 133.299 43.4677C133.473 43.5546 133.674 43.6416 133.882 43.7545C134.118 43.872 134.33 44.0309 134.509 44.2238C134.607 44.3315 134.692 44.4512 134.761 44.5801C134.832 44.7159 134.879 44.8629 134.9 45.0146C134.953 45.3098 134.911 45.6143 134.778 45.8836C134.668 46.123 134.497 46.3296 134.283 46.4832C134.088 46.6201 133.865 46.7121 133.63 46.7526C133.259 46.8128 132.88 46.78 132.525 46.657C132.258 46.5671 132.006 46.4383 131.777 46.2746C131.61 46.1637 131.453 46.0387 131.307 45.901C131.072 45.6663 130.968 45.5099 131.011 45.4491C131.055 45.3883 131.229 45.4491 131.525 45.5534C131.902 45.7275 132.3 45.8558 132.708 45.9357C132.949 45.9874 133.198 45.9874 133.439 45.9357C133.54 45.9098 133.635 45.86 133.713 45.7905C133.792 45.721 133.853 45.6337 133.891 45.536C133.921 45.4427 133.921 45.3425 133.891 45.2492C133.896 45.2088 133.896 45.168 133.891 45.1275C133.862 45.08 133.827 45.0362 133.787 44.9972C133.502 44.7812 133.189 44.6057 132.856 44.4758C132.624 44.3681 132.408 44.2308 132.212 44.0674C132.105 43.9717 132.006 43.867 131.916 43.7545C131.826 43.6329 131.756 43.498 131.707 43.3548C131.593 43.0837 131.553 42.7871 131.591 42.4955C131.629 42.2038 131.745 41.9276 131.925 41.695C132.074 41.5096 132.258 41.3558 132.467 41.2424C132.676 41.129 132.906 41.0583 133.143 41.0345C133.506 40.9936 133.874 41.0322 134.222 41.1475C134.682 41.3042 135.102 41.5626 135.448 41.9035C135.666 42.1729 135.779 42.338 135.735 42.3902Z" fill="#E8F1EA"/>
        <path d="M133.987 40.3741C133.872 41.5697 133.579 42.7414 133.117 43.8502C132.829 45.0116 132.372 46.1243 131.759 47.1524C131.885 45.9587 132.178 44.7886 132.629 43.6764C132.922 42.5165 133.379 41.4045 133.987 40.3741Z" fill="#E8F1EA"/>
        <path d="M134.691 40.8259C134.611 41.9113 134.355 42.9765 133.935 43.9804C133.378 45.7184 132.812 47.0133 132.673 46.9611C132.765 45.8795 133.023 44.8184 133.439 43.8153C133.695 42.7589 134.118 41.7498 134.691 40.8259Z" fill="#E8F1EA"/>
        <g opacity="0.5">
            <path opacity="0.5" d="M145.906 44.7018L143.235 53.1833H143.148C138.963 54.0523 133.656 50.4025 130.15 47.9693C129.541 47.5522 128.967 47.1611 128.471 46.8396C127.341 46.1623 126.057 45.7809 124.74 45.7307C123.423 45.6806 122.115 45.9634 120.936 46.5528L120.658 46.4398L123.39 37.237H123.486C125.996 36.9003 128.55 37.0887 130.983 37.7904C133.417 38.492 135.679 39.6915 137.623 41.3127C140.234 43.5982 145.68 44.6236 145.732 44.6323L145.906 44.7018ZM142.991 52.9139L145.506 44.9364C144.531 44.7453 139.868 43.7198 137.423 41.5821C135.526 39.9997 133.322 38.8261 130.948 38.1352C128.575 37.4443 126.085 37.251 123.633 37.5673L121.076 46.1617C121.34 46.0371 121.613 45.9325 121.893 45.8489C123.01 45.5049 124.186 45.3967 125.347 45.5314C126.508 45.666 127.628 46.0405 128.636 46.631L130.324 47.7607C133.761 50.1157 138.955 53.6613 142.991 52.9139Z" fill="white"/>
        </g>
        <path d="M446.665 123.078C446.665 123.078 446.604 133.21 435.651 138.615C428.865 141.961 416.684 150.321 418.485 155.77L430.248 167.632C430.248 167.632 436.486 159.741 445.856 155.639C455.07 151.616 462.152 137.59 462.152 137.59L446.665 123.078Z" fill="#E8F1EA"/>
        <g opacity="0.4">
            <path opacity="0.4" d="M444.664 153.562C443.697 154.173 442.61 154.569 441.476 154.723C440.343 154.878 439.189 154.787 438.093 154.458C436.998 154.128 435.986 153.567 435.126 152.813C434.266 152.059 433.579 151.129 433.11 150.086C431.57 146.219 435.225 141.144 439.087 139.606C440.941 138.868 443.011 138.894 444.845 139.677C446.68 140.461 448.129 141.938 448.875 143.786C450.424 147.644 448.205 151.372 444.664 153.562Z" fill="white"/>
        </g>
        <path d="M441.915 151.929C441.863 151.807 442.089 151.581 442.498 151.242C443.06 150.808 443.57 150.313 444.021 149.765C444.279 149.418 444.471 149.026 444.586 148.609C444.699 148.222 444.665 147.808 444.49 147.444C444.396 147.274 444.262 147.129 444.1 147.02C443.938 146.911 443.753 146.842 443.559 146.819C443.062 146.835 442.586 147.029 442.22 147.366C441.941 147.566 441.654 147.801 441.35 148.018C440.98 148.272 440.571 148.466 440.14 148.592C439.896 148.655 439.644 148.684 439.392 148.678C439.13 148.68 438.871 148.633 438.626 148.539C438.16 148.372 437.754 148.069 437.461 147.67C437.208 147.326 437.041 146.926 436.974 146.505C436.908 146.083 436.943 145.651 437.078 145.246C437.284 144.64 437.637 144.094 438.104 143.656C438.459 143.327 438.857 143.049 439.288 142.83C439.591 142.668 439.908 142.534 440.236 142.43C440.767 142.256 441.106 142.23 441.106 142.335C441.106 142.439 440.949 142.691 440.54 143.039C439.978 143.471 439.464 143.963 439.009 144.507C438.753 144.841 438.572 145.227 438.478 145.637C438.435 145.813 438.436 145.996 438.48 146.172C438.523 146.348 438.61 146.51 438.731 146.645C438.84 146.769 438.981 146.859 439.14 146.906C439.214 146.919 439.291 146.919 439.366 146.906C439.457 146.903 439.548 146.889 439.636 146.862C440.195 146.609 440.717 146.278 441.184 145.88C441.53 145.618 441.907 145.399 442.307 145.228C442.538 145.144 442.777 145.083 443.02 145.046C443.276 145.003 443.538 145.003 443.794 145.046C444.265 145.115 444.71 145.301 445.09 145.586C445.47 145.872 445.772 146.248 445.969 146.68C446.127 147.054 446.208 147.456 446.208 147.862C446.208 148.267 446.127 148.669 445.969 149.043C445.739 149.625 445.386 150.149 444.934 150.582C444.325 151.144 443.601 151.568 442.811 151.824C442.315 152.059 441.985 152.059 441.915 151.929Z" fill="#E8F1EA"/>
        <path d="M446.378 150.912C446.204 151.086 444.177 149.261 441.854 146.836C439.531 144.412 437.782 142.317 437.956 142.144C438.13 141.97 440.166 143.795 442.498 146.219C444.83 148.644 446.561 150.738 446.378 150.912Z" fill="#E8F1EA"/>
        <path d="M445.186 151.633C445.012 151.807 443.15 150.164 441.045 147.966C438.94 145.767 437.365 143.847 437.565 143.673C437.765 143.499 439.601 145.15 441.706 147.349C443.812 149.547 445.395 151.468 445.186 151.633Z" fill="#E8F1EA"/>
        <g opacity="0.5">
            <path opacity="0.5" d="M430.291 165.381L419.634 154.553L419.686 154.405C421.757 147.453 431.492 142.352 437.956 138.989C439.061 138.415 440.114 137.868 441.002 137.373C446.944 134.07 447.736 126.832 447.475 126.267L447.883 125.928L459.568 137.425L459.516 137.581C458.014 141.634 455.684 145.33 452.673 148.433C449.662 151.536 446.037 153.979 442.028 155.604C436.477 157.725 430.57 165.077 430.509 165.164L430.291 165.381ZM420.234 154.405L430.257 164.581C431.327 163.278 436.625 157.082 441.811 155.109C445.722 153.522 449.262 151.144 452.208 148.125C455.155 145.105 457.444 141.51 458.933 137.564L448.005 126.858C447.977 127.351 447.913 127.842 447.814 128.326C447.501 129.882 446.074 135.148 441.219 137.885C440.349 138.381 439.279 138.937 438.165 139.51C431.858 142.761 422.348 147.714 420.234 154.405Z" fill="white"/>
        </g>
        <path d="M452.234 37.88C452.234 37.88 445.787 39.3052 440.767 33.1439C437.669 29.3203 430.631 22.8114 427.394 24.7319L421.548 33.8739C425.395 35.8462 428.766 38.6341 431.423 42.0425C435.312 47.2566 445.239 49.768 445.239 49.768L452.234 37.88Z" fill="#E8F1EA"/>
        <g opacity="0.4">
            <path opacity="0.4" d="M432.571 41.0084C432.049 40.4801 431.646 39.8466 431.388 39.1501C431.131 38.4536 431.026 37.7103 431.079 36.9699C431.133 36.2295 431.344 35.509 431.699 34.8567C432.054 34.2044 432.544 33.6353 433.136 33.1874C435.372 31.6492 439.122 33.2395 440.662 35.4642C441.399 36.5373 441.678 37.8585 441.44 39.1375C441.202 40.4166 440.465 41.5489 439.392 42.2859C437.165 43.8066 434.476 42.9376 432.571 41.0084Z" fill="white"/>
        </g>
        <path d="M433.215 39.088C433.284 39.0359 433.458 39.1489 433.737 39.3574C434.091 39.6516 434.48 39.9024 434.894 40.1048C435.15 40.2261 435.429 40.2913 435.712 40.2959C435.973 40.3161 436.231 40.2352 436.434 40.07C436.529 39.986 436.603 39.881 436.65 39.7632C436.696 39.6455 436.715 39.5184 436.704 39.3922C436.619 39.0772 436.425 38.8029 436.155 38.6188C435.99 38.471 435.799 38.3233 435.616 38.1408C435.399 37.9439 435.217 37.7118 435.077 37.4543C435 37.3093 434.944 37.1543 434.911 36.9937C434.885 36.8267 434.885 36.6567 434.911 36.4897C434.948 36.168 435.081 35.865 435.294 35.6207C435.481 35.3966 435.724 35.2257 435.999 35.1254C436.245 35.0316 436.511 34.9988 436.773 35.0298C437.187 35.0747 437.583 35.2177 437.93 35.4469C438.191 35.6218 438.425 35.8324 438.626 36.0726C438.773 36.2428 438.904 36.4261 439.018 36.62C439.209 36.9329 439.27 37.1328 439.209 37.1849C439.148 37.237 438.966 37.1328 438.679 36.9242C438.323 36.6291 437.935 36.3755 437.521 36.1682C437.276 36.0551 437.009 35.9959 436.738 35.9944C436.62 35.9903 436.502 36.0161 436.395 36.0692C436.289 36.1223 436.197 36.2011 436.129 36.2985C436.067 36.385 436.031 36.4875 436.025 36.594C436.012 36.6424 436.012 36.6933 436.025 36.7417C436.042 36.799 436.066 36.8543 436.095 36.9068C436.338 37.2397 436.631 37.5329 436.965 37.7758C437.182 37.9593 437.375 38.1696 437.539 38.4015C437.63 38.5348 437.705 38.6776 437.765 38.8273C437.828 38.9826 437.866 39.1468 437.878 39.314C437.9 39.6228 437.845 39.9321 437.717 40.2143C437.589 40.4964 437.394 40.7425 437.147 40.9303C436.934 41.0862 436.692 41.1981 436.435 41.2593C436.178 41.3204 435.911 41.3297 435.651 41.2866C435.248 41.2311 434.864 41.0823 434.529 40.8521C434.076 40.5518 433.701 40.1501 433.432 39.679C433.215 39.2966 433.154 39.088 433.215 39.088Z" fill="#E8F1EA"/>
        <path d="M434.502 41.695C434.372 41.6081 435.233 40.0613 436.434 38.219C437.635 36.3767 438.722 34.9863 438.861 35.0732C439 35.1601 438.13 36.7156 436.921 38.5492C435.712 40.3828 434.633 41.808 434.502 41.695Z" fill="#E8F1EA"/>
        <path d="M433.867 41.0606C433.737 40.9737 434.511 39.5572 435.607 37.9061C436.704 36.255 437.695 34.9776 437.826 35.0731C437.956 35.1687 437.182 36.5765 436.086 38.2276C434.99 39.8788 434.006 41.1475 433.867 41.0606Z" fill="#E8F1EA"/>
        <g opacity="0.5">
            <path opacity="0.5" d="M422.983 33.6045L428.334 25.2794H428.43C433.163 25.5923 437.791 31.0322 440.862 34.6299C441.384 35.2469 441.889 35.8292 442.324 36.3679C443.338 37.4236 444.603 38.2065 446 38.644C447.398 39.0815 448.884 39.1595 450.319 38.8707L450.589 39.0792L444.969 48.1517H444.864C442.072 47.7839 439.386 46.8381 436.98 45.3747C434.574 43.9112 432.501 41.9624 430.892 39.6528C428.743 36.4462 423.218 33.7609 423.157 33.7349L422.983 33.6045ZM428.508 25.6444L423.488 33.4655C424.471 33.9521 429.169 36.4201 431.179 39.4182C432.746 41.6768 434.765 43.586 437.109 45.025C439.452 46.464 442.07 47.4014 444.795 47.778L450.015 39.3139C449.696 39.367 449.373 39.396 449.049 39.4008C447.751 39.4472 446.458 39.2223 445.252 38.7405C444.045 38.2586 442.953 37.5304 442.046 36.6026C441.602 36.1072 441.097 35.5163 440.567 34.8646C437.565 31.3364 433.058 26.0528 428.508 25.6444Z" fill="white"/>
        </g>
        <path d="M373.27 44.5541C373.27 44.5541 365.187 50.6371 354.225 45.3014C347.439 41.9644 333.423 37.4021 330.143 42.1556L327.898 58.6667C327.898 58.6667 337.964 58.7971 346.926 63.7244C355.739 68.5647 371.182 65.6275 371.182 65.6275L373.27 44.5541Z" fill="#E8F1EA"/>
        <g opacity="0.4">
            <path opacity="0.4" d="M347.857 61.5432C346.78 61.1484 345.801 60.5264 344.987 59.7197C344.173 58.9129 343.542 57.9402 343.138 56.868C342.735 55.7958 342.567 54.6493 342.647 53.5065C342.727 52.3638 343.053 51.2517 343.602 50.2461C345.725 46.6744 351.989 46.4746 355.565 48.595C357.281 49.6192 358.519 51.2818 359.009 53.2174C359.498 55.1531 359.198 57.2037 358.175 58.9188C356.061 62.4991 351.746 63.0205 347.857 61.5432Z" fill="white"/>
        </g>
        <path d="M347.491 58.3887C347.543 58.2757 347.865 58.3105 348.361 58.4321C349.046 58.6138 349.75 58.7129 350.458 58.7276C350.891 58.7287 351.32 58.643 351.719 58.4756C352.097 58.3324 352.407 58.0535 352.589 57.6935C352.665 57.5138 352.698 57.3192 352.686 57.1248C352.674 56.9304 352.617 56.7414 352.52 56.5724C352.197 56.1912 351.751 55.9358 351.258 55.8512C350.936 55.7556 350.58 55.66 350.197 55.5296C349.771 55.3884 349.369 55.1832 349.005 54.9213C348.807 54.7639 348.629 54.583 348.474 54.3825C348.316 54.1729 348.196 53.9377 348.118 53.6873C347.979 53.2165 347.979 52.7157 348.118 52.2448C348.241 51.8123 348.471 51.4178 348.787 51.0977C349.076 50.8164 349.424 50.6027 349.805 50.472C350.411 50.262 351.061 50.2082 351.693 50.3156C352.17 50.391 352.633 50.5344 353.068 50.7414C353.371 50.8852 353.662 51.0537 353.938 51.2454C354.399 51.567 354.617 51.8016 354.564 51.9146C354.512 52.0275 354.19 52.0015 353.694 51.9146C353.009 51.7323 352.306 51.6274 351.598 51.6017C351.178 51.6002 350.762 51.6891 350.38 51.8624C350.214 51.9365 350.069 52.0495 349.957 52.1918C349.845 52.3341 349.769 52.5013 349.736 52.6793C349.687 52.8349 349.687 53.0017 349.736 53.1572C349.761 53.23 349.8 53.2976 349.849 53.3571C349.913 53.4243 349.983 53.4854 350.058 53.5396C350.604 53.8322 351.19 54.043 351.798 54.1653C352.214 54.2805 352.614 54.4469 352.99 54.6606C353.202 54.7909 353.4 54.9423 353.581 55.1125C353.765 55.2932 353.923 55.4978 354.051 55.7208C354.276 56.1406 354.393 56.6092 354.393 57.0852C354.393 57.5611 354.276 58.0297 354.051 58.4495C353.854 58.8033 353.587 59.1141 353.267 59.3633C352.947 59.6126 352.581 59.7953 352.189 59.9007C351.589 60.0803 350.955 60.1219 350.336 60.0224C349.517 59.8843 348.738 59.5667 348.057 59.0926C347.639 58.745 347.43 58.4929 347.491 58.3887Z" fill="#E8F1EA"/>
        <path d="M350.997 61.2911C350.754 61.2911 350.997 58.5364 351.476 55.2081C351.954 51.8798 352.581 49.2293 352.824 49.2727C353.068 49.3162 352.824 52.0275 352.355 55.3558C351.885 58.6841 351.25 61.3259 350.997 61.2911Z" fill="#E8F1EA"/>
        <path d="M349.692 60.8131C349.449 60.8131 349.623 58.3017 350.075 55.295C350.527 52.2882 351.11 49.8723 351.354 49.9071C351.598 49.9419 351.424 52.4185 350.962 55.4253C350.501 58.4321 349.945 60.8131 349.692 60.8131Z" fill="#E8F1EA"/>
        <g opacity="0.5">
            <path opacity="0.5" d="M329.682 57.3371L331.787 42.3033L331.935 42.2425C338.739 39.6355 348.692 44.2499 355.287 47.3001C356.426 47.8302 357.496 48.3255 358.427 48.7253C364.665 51.4192 370.904 47.639 371.191 47.0915L371.704 47.2045L369.703 63.4984L369.546 63.5505C365.414 64.8304 361.06 65.2356 356.762 64.7404C352.464 64.2451 348.317 62.8602 344.585 60.6741C339.513 57.5718 330.082 57.3719 329.986 57.3719L329.682 57.3371ZM332.292 42.6857L330.308 56.8244C332.005 56.8766 340.148 57.2937 344.872 60.1962C348.515 62.3282 352.559 63.6844 356.752 64.1794C360.944 64.6744 365.194 64.2976 369.233 63.0726L371.104 47.8823C370.694 48.1638 370.264 48.4136 369.816 48.6297C368.398 49.3249 363.369 51.4366 358.236 49.2206C357.296 48.8122 356.217 48.3516 355.078 47.7867C348.631 44.8234 338.887 40.3133 332.292 42.7117V42.6857Z" fill="white"/>
        </g>
        <path d="M364.866 157.203C364.866 157.203 356.826 155.465 354.364 145.906C352.842 139.971 348.274 128.943 343.611 129.395L332.222 136.73C335.544 140.965 337.902 145.873 339.13 151.112C340.792 159.08 350.745 167.041 350.745 167.041L364.866 157.203Z" fill="#E8F1EA"/>
        <g opacity="0.4">
            <path opacity="0.4" d="M340.992 150.512C340.67 149.642 340.538 148.712 340.607 147.787C340.677 146.861 340.944 145.962 341.392 145.149C341.841 144.336 342.459 143.629 343.205 143.076C343.951 142.523 344.807 142.137 345.716 141.944C349.04 141.37 352.468 145.115 353.042 148.435C353.182 149.226 353.163 150.036 352.988 150.82C352.813 151.603 352.484 152.344 352.021 153C351.557 153.656 350.968 154.214 350.288 154.642C349.608 155.069 348.849 155.358 348.057 155.491C344.716 156.065 342.132 153.684 340.992 150.512Z" fill="white"/>
        </g>
        <path d="M342.732 148.626C342.828 148.626 342.976 148.817 343.176 149.2C343.428 149.716 343.738 150.203 344.098 150.651C344.327 150.916 344.604 151.134 344.916 151.294C345.207 151.448 345.545 151.489 345.864 151.407C346.014 151.361 346.152 151.281 346.265 151.172C346.379 151.063 346.465 150.93 346.517 150.781C346.581 150.383 346.504 149.974 346.299 149.626C346.186 149.374 346.056 149.104 345.934 148.8C345.796 148.465 345.711 148.11 345.681 147.749C345.672 147.544 345.69 147.34 345.734 147.14C345.803 146.843 345.94 146.566 346.133 146.33C346.326 146.093 346.57 145.904 346.847 145.776C347.182 145.624 347.55 145.558 347.917 145.585C348.242 145.617 348.557 145.718 348.84 145.88C349.286 146.144 349.659 146.514 349.927 146.958C350.128 147.292 350.283 147.651 350.388 148.027C350.465 148.294 350.517 148.567 350.545 148.844C350.597 149.304 350.545 149.556 350.467 149.582C350.388 149.608 350.214 149.4 350.005 149.017C349.758 148.497 349.451 148.008 349.092 147.557C348.874 147.298 348.6 147.09 348.292 146.949C348.158 146.878 348.008 146.84 347.857 146.84C347.705 146.84 347.555 146.878 347.422 146.949C347.306 147.02 347.21 147.118 347.143 147.236C347.116 147.29 347.098 147.349 347.091 147.41C347.078 147.484 347.078 147.561 347.091 147.636C347.197 148.119 347.373 148.584 347.613 149.017C347.764 149.338 347.872 149.677 347.935 150.025C347.957 150.222 347.957 150.42 347.935 150.616C347.923 150.827 347.878 151.035 347.804 151.233C347.667 151.594 347.443 151.915 347.152 152.169C346.86 152.422 346.511 152.599 346.134 152.685C345.812 152.749 345.481 152.749 345.16 152.683C344.838 152.618 344.533 152.488 344.263 152.302C343.837 152.025 343.477 151.657 343.211 151.225C342.863 150.651 342.649 150.006 342.584 149.339C342.602 148.904 342.645 148.644 342.732 148.626Z" fill="#E8F1EA"/>
        <path d="M342.802 152.32C342.689 152.146 344.481 150.842 346.795 149.408C349.109 147.975 351.067 146.94 351.145 147.106C351.224 147.271 349.466 148.583 347.152 150.025C344.838 151.468 342.906 152.485 342.802 152.32Z" fill="#E8F1EA"/>
        <path d="M342.428 151.251C342.314 151.077 343.933 149.886 346.03 148.583C348.126 147.279 349.919 146.358 350.032 146.523C350.145 146.688 348.518 147.896 346.421 149.191C344.324 150.486 342.532 151.416 342.428 151.251Z" fill="#E8F1EA"/>
        <g opacity="0.5">
            <path opacity="0.5" d="M334.032 137.147L344.42 130.516L344.533 130.577C349.753 133.384 352.128 141.944 353.721 147.61C353.99 148.592 354.251 149.513 354.495 150.295C356.122 155.561 361.742 157.403 362.238 157.29L362.429 157.664L351.345 165.007L351.232 164.938C348.264 163.07 345.717 160.605 343.756 157.699C341.796 154.793 340.463 151.511 339.844 148.061C339.087 143.308 334.241 137.39 334.188 137.329L334.032 137.147ZM344.472 131.012L334.641 137.286C335.511 138.355 339.53 143.586 340.235 148.027C340.837 151.393 342.131 154.599 344.036 157.441C345.941 160.283 348.415 162.699 351.302 164.538L361.655 157.69C361.267 157.581 360.886 157.448 360.515 157.29C359.341 156.778 355.382 154.796 354.051 150.469C353.808 149.678 353.546 148.731 353.268 147.775C351.711 142.178 349.353 133.81 344.403 131.012H344.472Z" fill="white"/>
        </g>
        <path d="M288.608 94.0527C288.608 94.0527 282.213 95.2606 277.454 89.0298C274.513 85.1801 267.771 78.5496 264.525 80.3397L258.496 89.1949C262.226 91.2549 265.462 94.1017 267.979 97.5374C271.651 102.838 281.36 105.567 281.36 105.567L288.608 94.0527Z" fill="#E8F1EA"/>
        <g opacity="0.4">
            <path opacity="0.4" d="M269.137 96.5467C268.633 96.0112 268.25 95.3738 268.014 94.6777C267.779 93.9816 267.696 93.2431 267.771 92.5121C267.846 91.7811 268.077 91.0748 268.45 90.441C268.822 89.8072 269.326 89.2607 269.928 88.8386C272.173 87.396 275.827 89.0732 277.28 91.3152C277.973 92.3929 278.209 93.7012 277.937 94.9526C277.664 96.204 276.905 97.2962 275.827 97.9892C273.574 99.4405 270.955 98.5019 269.137 96.5467Z" fill="white"/>
        </g>
        <path d="M269.833 94.6262C269.902 94.574 270.076 94.687 270.337 94.9042C270.679 95.2064 271.055 95.4662 271.46 95.6777C271.707 95.7994 271.976 95.8731 272.251 95.8949C272.51 95.9209 272.769 95.8462 272.973 95.6864C273.071 95.6073 273.148 95.506 273.198 95.3911C273.248 95.2762 273.269 95.1509 273.26 95.0259C273.181 94.7178 273 94.4454 272.747 94.2525C272.582 94.1048 272.408 93.9483 272.225 93.7658C272.018 93.5629 271.845 93.3282 271.712 93.0706C271.643 92.924 271.593 92.7692 271.564 92.6101C271.538 92.446 271.538 92.2788 271.564 92.1147C271.613 91.8168 271.743 91.538 271.939 91.3083C272.136 91.0786 272.391 90.9068 272.678 90.8112C272.924 90.7313 273.186 90.7076 273.443 90.7417C273.851 90.7931 274.24 90.9454 274.574 91.1849C274.823 91.3677 275.046 91.5841 275.235 91.828C275.377 91.9987 275.502 92.1819 275.61 92.3754C275.784 92.6883 275.836 92.8882 275.775 92.9316C275.714 92.9751 275.54 92.8795 275.27 92.6622C274.924 92.3637 274.548 92.1016 274.148 91.8801C273.905 91.7649 273.642 91.6999 273.374 91.6889C273.258 91.6811 273.143 91.7024 273.038 91.7511C272.933 91.7997 272.842 91.8739 272.773 91.967C272.706 92.0514 272.666 92.1547 272.66 92.2625C272.652 92.3084 272.652 92.3555 272.66 92.4015C272.674 92.4599 272.698 92.5157 272.73 92.5666C272.953 92.8965 273.226 93.1897 273.539 93.4356C273.745 93.6237 273.926 93.8368 274.078 94.07C274.167 94.2017 274.237 94.345 274.287 94.4958C274.344 94.6491 274.376 94.8104 274.383 94.9738C274.397 95.279 274.335 95.583 274.201 95.8578C274.067 96.1326 273.866 96.3695 273.617 96.5467C273.403 96.6956 273.16 96.7994 272.905 96.8517C272.649 96.9039 272.385 96.9037 272.129 96.8508C271.733 96.7836 271.358 96.626 271.033 96.3902C270.603 96.0767 270.247 95.6734 269.989 95.2084C269.815 94.8695 269.772 94.7044 269.833 94.6262Z" fill="#E8F1EA"/>
        <path d="M271.025 97.3114C270.894 97.2245 271.79 95.7211 273.034 93.9657C274.278 92.2103 275.383 90.846 275.514 90.9329C275.644 91.0198 274.74 92.5319 273.504 94.2873C272.269 96.0426 271.146 97.3896 271.025 97.3114Z" fill="#E8F1EA"/>
        <path d="M270.416 96.6336C270.285 96.5467 271.094 95.1737 272.225 93.5747C273.356 91.9758 274.365 90.7592 274.496 90.8461C274.626 90.933 273.817 92.306 272.695 93.905C271.573 95.5039 270.52 96.7292 270.416 96.6336Z" fill="#E8F1EA"/>
        <g opacity="0.5">
            <path opacity="0.5" d="M259.914 88.9603L265.43 80.922H265.535C270.189 81.3652 274.583 86.866 277.498 90.4811C278.002 91.1068 278.472 91.7064 278.89 92.2191C279.86 93.2933 281.087 94.1045 282.456 94.5771C283.826 95.0497 285.292 95.1682 286.72 94.9217L286.981 95.139L281.169 103.907H281.065C278.324 103.463 275.707 102.453 273.38 100.94C271.053 99.4269 269.069 97.4451 267.553 95.1216C265.535 91.8976 260.167 89.082 260.114 89.0385L259.914 88.9603ZM265.596 81.2783L260.375 88.83C261.332 89.3514 265.891 91.9149 267.779 94.913C269.261 97.1829 271.197 99.122 273.466 100.609C275.734 102.095 278.286 103.097 280.96 103.551L286.389 95.3562C286.075 95.3996 285.758 95.42 285.441 95.417C284.158 95.4249 282.887 95.1646 281.711 94.6527C280.535 94.1409 279.479 93.3889 278.611 92.445C278.194 91.9497 277.741 91.3501 277.21 90.707C274.374 87.1615 270.076 81.7823 265.596 81.2783Z" fill="white"/>
        </g>
        <path d="M128.21 192.099C128.21 192.099 121.815 193.306 117.056 187.076C114.115 183.226 107.373 176.595 104.127 178.386L98.0981 187.241C101.828 189.301 105.064 192.148 107.581 195.583C111.253 200.884 120.962 203.613 120.962 203.613L128.21 192.099Z" fill="#E8F1EA"/>
        <g opacity="0.4">
            <path opacity="0.4" d="M108.747 194.627C108.242 194.093 107.858 193.455 107.622 192.759C107.385 192.063 107.302 191.324 107.377 190.592C107.452 189.861 107.684 189.154 108.057 188.52C108.43 187.887 108.936 187.34 109.539 186.919C111.784 185.477 115.438 187.154 116.882 189.396C117.575 190.474 117.811 191.782 117.539 193.033C117.266 194.285 116.507 195.377 115.429 196.07C113.184 197.486 110.557 196.548 108.747 194.627Z" fill="white"/>
        </g>
        <path d="M109.443 192.672C109.504 192.62 109.678 192.733 109.939 192.95C110.281 193.252 110.657 193.512 111.062 193.724C111.312 193.846 111.584 193.92 111.862 193.941C112.12 193.964 112.378 193.89 112.584 193.732C112.679 193.652 112.753 193.55 112.802 193.435C112.85 193.32 112.871 193.196 112.862 193.072C112.787 192.762 112.605 192.488 112.349 192.299C112.193 192.151 112.01 191.994 111.827 191.812C111.62 191.62 111.444 191.397 111.305 191.151C111.233 191.006 111.183 190.851 111.157 190.691C111.127 190.527 111.127 190.359 111.157 190.195C111.196 189.873 111.332 189.569 111.549 189.326C111.743 189.108 111.992 188.946 112.271 188.857C112.514 188.776 112.774 188.752 113.028 188.788C113.436 188.839 113.825 188.991 114.159 189.231C114.412 189.411 114.638 189.628 114.829 189.874C114.968 190.045 115.09 190.228 115.194 190.421C115.368 190.734 115.429 190.934 115.368 190.986C115.307 191.038 115.125 190.925 114.855 190.708C114.512 190.41 114.139 190.147 113.741 189.926C113.498 189.813 113.235 189.748 112.967 189.735C112.851 189.729 112.735 189.752 112.629 189.8C112.523 189.849 112.43 189.922 112.358 190.013C112.294 190.1 112.255 190.202 112.245 190.308C112.236 190.354 112.236 190.402 112.245 190.448C112.259 190.506 112.282 190.562 112.314 190.613C112.537 190.943 112.81 191.236 113.123 191.482C113.332 191.669 113.516 191.882 113.672 192.116C113.753 192.252 113.823 192.394 113.88 192.542C113.934 192.696 113.964 192.857 113.967 193.02C113.989 193.329 113.932 193.639 113.801 193.92C113.67 194.201 113.47 194.445 113.219 194.627C112.786 194.92 112.254 195.029 111.74 194.932C111.343 194.862 110.968 194.701 110.644 194.462C110.192 194.145 109.822 193.725 109.565 193.237C109.426 192.889 109.374 192.716 109.443 192.672Z" fill="#E8F1EA"/>
        <path d="M110.627 195.34C110.496 195.253 111.392 193.75 112.636 191.994C113.881 190.239 114.985 188.875 115.116 188.961C115.246 189.048 114.35 190.56 113.106 192.316C111.862 194.071 110.757 195.436 110.627 195.34Z" fill="#E8F1EA"/>
        <path d="M110.026 194.68C109.896 194.593 110.696 193.22 111.827 191.621C112.958 190.022 113.976 188.805 114.098 188.892C114.22 188.979 113.428 190.352 112.297 191.951C111.166 193.55 110.148 194.775 110.026 194.68Z" fill="#E8F1EA"/>
        <g opacity="0.5">
            <path opacity="0.5" d="M99.5164 187.006L105.041 178.985H105.137C109.791 179.428 114.194 184.929 117.1 188.544C117.604 189.179 118.074 189.77 118.5 190.282C119.47 191.358 120.697 192.17 122.066 192.643C123.436 193.115 124.903 193.233 126.331 192.985L126.592 193.202L120.788 201.97H120.675C117.927 201.528 115.301 200.516 112.968 198.998C110.635 197.48 108.646 195.491 107.129 193.159C105.111 189.935 99.7426 187.119 99.6904 187.076L99.5164 187.006ZM105.215 179.324L99.9949 186.876C100.952 187.397 105.502 189.961 107.39 192.959C108.874 195.229 110.813 197.167 113.085 198.651C115.356 200.134 117.911 201.132 120.588 201.579L126.009 193.385C125.694 193.428 125.377 193.449 125.06 193.446C123.784 193.452 122.521 193.192 121.351 192.684C120.181 192.175 119.13 191.428 118.265 190.491C117.839 189.996 117.395 189.396 116.865 188.753C113.985 185.207 109.678 179.854 105.215 179.324Z" fill="white"/>
        </g>
        <path d="M221.981 130.195C221.981 130.195 219.606 137.929 209.983 139.554C204.024 140.553 192.8 144.125 192.896 148.739L199.16 160.514C203.599 157.605 208.62 155.698 213.873 154.927C221.851 153.962 230.49 144.855 230.49 144.855L221.981 130.195Z" fill="#E8F1EA"/>
        <g opacity="0.4">
            <path opacity="0.4" d="M213.437 153.058C212.556 153.304 211.631 153.357 210.727 153.213C209.823 153.07 208.961 152.734 208.199 152.227C207.437 151.721 206.793 151.056 206.311 150.279C205.829 149.502 205.521 148.63 205.407 147.723C205.111 144.412 209.079 141.361 212.367 141.075C213.959 140.937 215.541 141.437 216.764 142.463C217.988 143.49 218.753 144.959 218.893 146.549C219.188 149.86 216.648 152.198 213.437 153.058Z" fill="white"/>
        </g>
        <path d="M211.724 151.19C211.724 151.086 211.932 150.964 212.333 150.799C212.861 150.598 213.363 150.335 213.829 150.017C214.11 149.815 214.347 149.558 214.525 149.261C214.708 148.994 214.78 148.667 214.725 148.348C214.69 148.198 214.621 148.058 214.523 147.939C214.425 147.82 214.301 147.725 214.16 147.662C213.773 147.56 213.362 147.6 213.002 147.775C212.75 147.862 212.472 147.975 212.132 148.061C211.793 148.175 211.437 148.228 211.08 148.218C210.879 148.212 210.68 148.18 210.488 148.122C210.287 148.061 210.098 147.964 209.931 147.835C209.615 147.604 209.376 147.283 209.244 146.914C209.115 146.577 209.079 146.211 209.14 145.854C209.196 145.541 209.321 145.245 209.505 144.985C209.8 144.567 210.195 144.23 210.653 144.003C211.001 143.833 211.37 143.711 211.75 143.638C212.02 143.588 212.293 143.559 212.567 143.551C213.011 143.551 213.263 143.595 213.281 143.69C213.298 143.786 213.081 143.925 212.689 144.099C212.156 144.297 211.648 144.557 211.175 144.872C210.903 145.066 210.677 145.318 210.514 145.611C210.439 145.734 210.395 145.874 210.388 146.018C210.38 146.162 210.409 146.306 210.471 146.436C210.523 146.558 210.611 146.661 210.723 146.732C210.774 146.764 210.83 146.787 210.888 146.801C210.963 146.811 211.039 146.811 211.115 146.801C211.598 146.735 212.07 146.601 212.515 146.402C212.844 146.282 213.186 146.203 213.533 146.167C213.727 146.145 213.922 146.145 214.116 146.167C214.322 146.196 214.522 146.258 214.708 146.349C215.05 146.51 215.348 146.753 215.574 147.056C215.801 147.359 215.948 147.714 216.004 148.087C216.04 148.409 216.011 148.734 215.92 149.044C215.829 149.355 215.677 149.644 215.473 149.895C215.168 150.292 214.775 150.613 214.325 150.834C213.733 151.13 213.081 151.287 212.42 151.294C211.993 151.346 211.741 151.277 211.724 151.19Z" fill="#E8F1EA"/>
        <path d="M215.36 151.424C215.186 151.52 214.055 149.686 212.828 147.271C211.602 144.855 210.758 142.873 210.932 142.787C211.106 142.7 212.246 144.525 213.464 146.94C214.682 149.356 215.534 151.338 215.36 151.424Z" fill="#E8F1EA"/>
        <path d="M214.281 151.703C214.107 151.798 213.063 150.112 211.958 147.949C210.854 145.785 210.088 143.951 210.262 143.864C210.436 143.777 211.48 145.454 212.594 147.618C213.707 149.782 214.455 151.616 214.281 151.703Z" fill="#E8F1EA"/>
        <g opacity="0.5">
            <path opacity="0.5" d="M199.717 158.811L194.053 148.07L194.123 147.966C197.316 143.108 205.938 141.457 211.637 140.362C212.62 140.171 213.542 139.997 214.334 139.823C219.641 138.659 221.92 133.306 221.851 132.81L222.242 132.645L228.541 144.125L228.463 144.238C226.38 146.995 223.744 149.288 220.724 150.972C217.704 152.655 214.366 153.691 210.923 154.014C206.19 154.353 199.978 158.629 199.917 158.672L199.717 158.811ZM194.549 148.096L199.874 158.185C200.996 157.438 206.469 153.91 210.897 153.588C214.255 153.272 217.51 152.266 220.46 150.633C223.41 149 225.989 146.775 228.037 144.099L222.155 133.375C222.018 133.748 221.855 134.111 221.668 134.461C221.076 135.574 218.797 139.284 214.429 140.24C213.629 140.414 212.689 140.588 211.715 140.779C206.138 141.857 197.699 143.464 194.549 148.096Z" fill="white"/>
        </g>
        <path d="M169.806 108.296C169.806 108.296 161.845 114.57 150.778 109.391C143.931 106.184 129.837 101.882 126.644 106.688L124.704 123.269C124.704 123.269 134.77 123.216 143.844 127.979C152.736 132.654 168.127 129.439 168.127 129.439L169.806 108.296Z" fill="#E8F1EA"/>
        <g opacity="0.4">
            <path opacity="0.4" d="M144.705 125.754C143.623 125.378 142.635 124.774 141.807 123.982C140.98 123.191 140.332 122.231 139.909 121.168C139.486 120.104 139.296 118.962 139.354 117.82C139.411 116.677 139.714 115.559 140.242 114.544C142.313 110.929 148.568 110.616 152.179 112.675C153.039 113.165 153.794 113.82 154.401 114.601C155.008 115.382 155.454 116.276 155.715 117.23C155.976 118.183 156.047 119.179 155.922 120.161C155.797 121.142 155.48 122.088 154.989 122.947C152.927 126.553 148.629 127.153 144.705 125.754Z" fill="white"/>
        </g>
        <path d="M144.288 122.6C144.34 122.487 144.662 122.521 145.158 122.6C145.847 122.771 146.554 122.858 147.263 122.86C147.695 122.852 148.121 122.758 148.516 122.582C148.897 122.436 149.208 122.15 149.386 121.783C149.459 121.603 149.489 121.409 149.474 121.216C149.459 121.023 149.399 120.836 149.299 120.67C148.971 120.294 148.522 120.045 148.029 119.966C147.698 119.871 147.342 119.793 146.959 119.662C146.53 119.533 146.125 119.336 145.758 119.08C145.557 118.926 145.376 118.748 145.219 118.55C145.06 118.341 144.934 118.11 144.845 117.863C144.692 117.397 144.674 116.897 144.792 116.421C144.902 116.009 145.11 115.63 145.398 115.315C145.685 115 146.045 114.76 146.445 114.613C147.049 114.394 147.698 114.328 148.333 114.422C148.811 114.494 149.277 114.631 149.717 114.831C150.018 114.972 150.309 115.134 150.587 115.317C151.057 115.63 151.274 115.865 151.222 115.969C151.17 116.073 150.857 116.065 150.352 115.969C149.662 115.803 148.956 115.713 148.246 115.7C147.827 115.706 147.414 115.804 147.037 115.986C146.874 116.061 146.731 116.174 146.622 116.317C146.513 116.459 146.44 116.626 146.411 116.803C146.364 116.962 146.364 117.131 146.411 117.29C146.446 117.359 146.49 117.423 146.541 117.481C146.599 117.551 146.667 117.612 146.741 117.664C147.29 117.942 147.876 118.141 148.481 118.255C148.899 118.367 149.302 118.527 149.682 118.732C149.895 118.859 150.096 119.004 150.282 119.167C150.47 119.346 150.632 119.55 150.761 119.775C150.999 120.186 151.131 120.65 151.145 121.125C151.158 121.6 151.053 122.071 150.839 122.495C150.649 122.854 150.388 123.171 150.073 123.428C149.757 123.685 149.394 123.876 149.003 123.99C148.407 124.172 147.777 124.223 147.159 124.138C146.338 124.021 145.554 123.724 144.862 123.269C144.444 122.956 144.236 122.704 144.288 122.6Z" fill="#E8F1EA"/>
        <path d="M147.846 125.441C147.594 125.441 147.759 122.686 148.203 119.358C148.647 116.03 149.203 113.362 149.447 113.397C149.691 113.432 149.534 116.152 149.09 119.48C148.647 122.808 148.099 125.476 147.846 125.441Z" fill="#E8F1EA"/>
        <path d="M146.541 124.955C146.298 124.955 146.419 122.452 146.828 119.436C147.237 116.421 147.759 113.996 148.003 114.022C148.246 114.048 148.116 116.534 147.716 119.549C147.316 122.565 146.785 124.989 146.541 124.955Z" fill="#E8F1EA"/>
        <g opacity="0.5">
            <path opacity="0.5" d="M126.496 121.904L128.323 106.871L128.462 106.818C135.213 104.081 145.262 108.556 151.953 111.442C153.093 111.954 154.18 112.424 155.12 112.815C161.401 115.422 167.57 111.502 167.848 110.938L168.361 111.051L166.621 127.344L166.465 127.397C162.357 128.753 158.011 129.24 153.704 128.825C149.398 128.411 145.225 127.104 141.452 124.989C136.336 121.974 126.896 121.948 126.8 121.948L126.496 121.904ZM128.81 107.21L127.07 121.374C128.758 121.374 136.91 121.67 141.686 124.485C145.371 126.55 149.444 127.831 153.648 128.248C157.852 128.665 162.097 128.21 166.117 126.91L167.709 111.694C167.302 111.98 166.875 112.236 166.43 112.458C165.029 113.188 160.035 115.378 154.859 113.258C153.919 112.875 152.832 112.389 151.683 111.885C145.175 109.017 135.353 104.681 128.81 107.21Z" fill="white"/>
        </g>
        <path d="M233.657 1.78149C233.657 1.78149 234.771 10.6454 225.827 16.6241C220.276 20.3348 210.601 28.9988 212.776 33.6045L224.409 42.6161C227.558 37.6828 231.743 33.4929 236.676 30.3371C244.271 25.7661 248.856 12.6875 248.856 12.6875L233.657 1.78149Z" fill="#E8F1EA"/>
        <g opacity="0.4">
            <path opacity="0.4" d="M235.414 28.6598C234.637 29.3044 233.73 29.7745 232.755 30.0382C231.779 30.3019 230.759 30.3531 229.762 30.1883C228.765 30.0234 227.816 29.6464 226.977 29.0829C226.139 28.5193 225.432 27.7823 224.904 26.9218C223.112 23.7152 225.774 18.8574 228.933 17.0673C230.472 16.2095 232.289 15.9967 233.986 16.4757C235.682 16.9547 237.119 18.0863 237.981 19.6222C239.773 22.8288 238.259 26.3396 235.414 28.6598Z" fill="white"/>
        </g>
        <path d="M232.839 27.5388C232.778 27.4519 232.952 27.226 233.274 26.8784C233.714 26.4343 234.103 25.9416 234.431 25.4097C234.618 25.0799 234.739 24.7169 234.788 24.3409C234.845 23.9895 234.767 23.6296 234.57 23.3328C234.47 23.1963 234.339 23.0851 234.188 23.0082C234.037 22.9312 233.87 22.8906 233.7 22.8896C233.266 22.9642 232.872 23.1887 232.587 23.524C232.369 23.7326 232.143 23.9672 231.873 24.2018C231.576 24.4614 231.242 24.6752 230.882 24.8362C230.674 24.9166 230.458 24.972 230.238 25.0013C230.01 25.0406 229.778 25.0406 229.55 25.0013C229.127 24.9083 228.74 24.6939 228.437 24.3843C228.157 24.1022 227.956 23.7516 227.854 23.3676C227.781 23.0209 227.781 22.6628 227.854 22.3161C227.965 21.7616 228.21 21.2426 228.567 20.804C228.838 20.4718 229.154 20.1792 229.507 19.935C229.755 19.7599 230.016 19.6059 230.29 19.4744C230.742 19.2572 231.012 19.1963 231.073 19.2832C231.134 19.3701 230.977 19.6135 230.655 19.9611C230.216 20.4078 229.825 20.9001 229.489 21.4297C229.303 21.7485 229.19 22.1047 229.159 22.4725C229.137 22.6334 229.156 22.7972 229.214 22.949C229.271 23.1008 229.366 23.2357 229.489 23.3415C229.6 23.4382 229.736 23.5015 229.881 23.524C229.947 23.5323 230.015 23.5323 230.081 23.524C230.159 23.5112 230.235 23.4878 230.307 23.4545C230.767 23.1678 231.183 22.8166 231.543 22.4117C231.807 22.1496 232.099 21.9165 232.413 21.7165C232.605 21.6175 232.806 21.5361 233.013 21.4731C233.234 21.4101 233.462 21.3808 233.692 21.3862C234.112 21.3947 234.523 21.5071 234.889 21.7133C235.255 21.9196 235.564 22.2133 235.788 22.5681C235.972 22.8745 236.093 23.2148 236.142 23.5687C236.191 23.9225 236.169 24.2827 236.076 24.6276C235.948 25.1624 235.701 25.6614 235.353 26.0876C234.878 26.6525 234.284 27.1063 233.613 27.4171C233.178 27.5909 232.9 27.6344 232.839 27.5388Z" fill="#E8F1EA"/>
        <path d="M236.589 26.1485C236.45 26.3136 234.466 24.9579 232.152 23.1069C229.838 21.2559 228.071 19.6309 228.211 19.4484C228.35 19.2659 230.333 20.639 232.648 22.4899C234.962 24.3409 236.746 25.9747 236.589 26.1485Z" fill="#E8F1EA"/>
        <path d="M235.649 26.9218C235.519 27.0956 233.7 25.8703 231.604 24.1931C229.507 22.5159 227.889 21.0039 228.054 20.8388C228.219 20.6736 230.003 21.899 232.1 23.5761C234.196 25.2533 235.788 26.748 235.649 26.9218Z" fill="#E8F1EA"/>
        <g opacity="0.5">
            <path opacity="0.5" d="M224.208 40.6521L213.646 32.4053V32.2662C214.664 25.9312 222.581 20.3695 227.828 16.6936C228.698 16.0592 229.568 15.4596 230.307 14.9556C235.119 11.384 234.979 4.96201 234.657 4.52751L234.971 4.1886L246.516 12.8787V13.0177C245.672 16.7351 244.06 20.2357 241.785 23.2958C239.509 26.3558 236.619 28.9079 233.3 30.7889C228.689 33.2743 224.374 40.348 224.33 40.4523L224.208 40.6521ZM214.151 32.2054L224.087 39.9569C224.87 38.6882 228.785 32.666 233.091 30.337C236.331 28.5003 239.155 26.0131 241.384 23.0323C243.614 20.0515 245.201 16.6416 246.046 13.0177L235.266 4.8838C235.303 5.32046 235.303 5.75935 235.266 6.19601C235.179 7.58642 234.562 12.3573 230.603 15.2858C229.881 15.8246 229.02 16.4242 228.115 17.0238C222.973 20.6824 215.23 26.1223 214.151 32.2054Z" fill="white"/>
        </g>
        <path d="M432.153 322.089H386.338V331.987H432.153V322.089Z" fill="#263238"/>
        <path d="M404.53 322.089L405.287 331.995H411.751L412.091 322.089H404.53Z" fill="#E0E0E0"/>
        <path d="M421.043 322.089H375.228V331.987H421.043V322.089Z" fill="#455A64"/>
        <path d="M420.895 323.644C420.895 323.775 410.707 323.87 398.135 323.87C385.563 323.87 375.367 323.775 375.367 323.644C375.367 323.514 385.555 323.418 398.135 323.418C410.716 323.418 420.895 323.523 420.895 323.644Z" fill="#263238"/>
        <path d="M420.878 325.912C420.878 326.034 410.69 326.138 398.118 326.138C385.546 326.138 375.349 326.034 375.349 325.912C375.349 325.791 385.546 325.686 398.118 325.686C410.69 325.686 420.878 325.791 420.878 325.912Z" fill="#263238"/>
        <path d="M420.878 328.181C420.878 328.302 410.69 328.406 398.118 328.406C385.546 328.406 375.349 328.302 375.349 328.181C375.349 328.059 385.546 327.955 398.118 327.955C410.69 327.955 420.878 328.05 420.878 328.181Z" fill="#263238"/>
        <path d="M420.878 330.44C420.878 330.57 410.69 330.666 398.118 330.666C385.546 330.666 375.349 330.57 375.349 330.44C375.349 330.31 385.546 330.214 398.118 330.214C410.69 330.214 420.878 330.318 420.878 330.44Z" fill="#263238"/>
        <path d="M393.411 322.089L394.168 331.995H400.641L400.972 322.089H393.411Z" fill="#E0E0E0"/>
        <path d="M437.713 312.304H391.897V322.202H437.713V312.304Z" fill="#263238"/>
        <path d="M410.09 312.304L410.846 322.202H417.311L417.65 312.304H410.09Z" fill="#E0E0E0"/>
        <path d="M426.603 312.304H380.787V322.202H426.603V312.304Z" fill="#455A64"/>
        <path d="M426.455 313.859C426.455 313.981 416.258 314.085 403.695 314.085C391.132 314.085 380.926 313.981 380.926 313.859C380.926 313.738 391.114 313.633 403.695 313.633C416.275 313.633 426.455 313.694 426.455 313.859Z" fill="#263238"/>
        <path d="M426.437 316.119C426.437 316.249 416.249 316.345 403.677 316.345C391.105 316.345 380.909 316.249 380.909 316.119C380.909 315.988 391.105 315.893 403.677 315.893C416.249 315.893 426.437 315.997 426.437 316.119Z" fill="#263238"/>
        <path d="M426.437 318.387C426.437 318.508 416.249 318.613 403.677 318.613C391.105 318.613 380.909 318.508 380.909 318.387C380.909 318.265 391.105 318.161 403.677 318.161C416.249 318.161 426.437 318.265 426.437 318.387Z" fill="#263238"/>
        <path d="M426.437 320.646C426.437 320.768 416.249 320.872 403.677 320.872C391.105 320.872 380.909 320.768 380.909 320.646C380.909 320.524 391.105 320.42 403.677 320.42C416.249 320.42 426.437 320.524 426.437 320.646Z" fill="#263238"/>
        <path d="M398.971 312.304L399.727 322.202H406.2L406.531 312.304H398.971Z" fill="#E0E0E0"/>
        <path d="M434.607 341.78H388.791V351.678H434.607V341.78Z" fill="#263238"/>
        <path d="M406.975 341.78L407.732 351.678H414.205L414.535 341.78H406.975Z" fill="#E0E0E0"/>
        <path d="M423.488 341.78H377.672V351.678H423.488V341.78Z" fill="#455A64"/>
        <path d="M423.34 343.336C423.34 343.466 413.152 343.562 400.58 343.562C388.008 343.562 377.812 343.466 377.812 343.336C377.812 343.206 388.008 343.11 400.58 343.11C413.152 343.11 423.34 343.24 423.34 343.336Z" fill="#263238"/>
        <path d="M423.331 345.604C423.331 345.726 413.135 345.83 400.563 345.83C387.991 345.83 377.803 345.726 377.803 345.604C377.803 345.482 387.991 345.378 400.563 345.378C413.135 345.378 423.331 345.474 423.331 345.604Z" fill="#263238"/>
        <path d="M423.331 347.864C423.331 347.994 413.135 348.098 400.563 348.098C387.991 348.098 377.803 347.994 377.803 347.864C377.803 347.733 387.991 347.638 400.563 347.638C413.135 347.638 423.331 347.742 423.331 347.864Z" fill="#263238"/>
        <path d="M423.331 350.132C423.331 350.262 413.135 350.358 400.563 350.358C387.991 350.358 377.803 350.262 377.803 350.132C377.803 350.001 387.991 349.906 400.563 349.906C413.135 349.906 423.331 350.01 423.331 350.132Z" fill="#263238"/>
        <path d="M395.865 341.78L396.621 351.678H403.086L403.425 341.78H395.865Z" fill="#E0E0E0"/>
        <path d="M440.166 331.987H394.351V341.885H440.166V331.987Z" fill="#263238"/>
        <path d="M412.534 331.995L413.291 341.893H419.755L420.095 331.995H412.534Z" fill="#E0E0E0"/>
        <path d="M429.047 331.987H383.232V341.885H429.047V331.987Z" fill="#455A64"/>
        <path d="M428.865 333.542C428.865 333.673 418.677 333.777 406.105 333.777C393.533 333.777 383.336 333.673 383.336 333.542C383.336 333.412 393.533 333.316 406.105 333.316C418.677 333.316 428.865 333.421 428.865 333.542Z" fill="#263238"/>
        <path d="M428.865 335.81C428.865 335.941 418.677 336.036 406.105 336.036C393.533 336.036 383.345 335.941 383.345 335.81C383.345 335.68 393.533 335.584 406.105 335.584C418.677 335.584 428.865 335.689 428.865 335.81Z" fill="#263238"/>
        <path d="M428.865 338.078C428.865 338.2 418.677 338.304 406.105 338.304C393.533 338.304 383.345 338.2 383.345 338.078C383.345 337.957 393.533 337.853 406.105 337.853C418.677 337.853 428.865 337.948 428.865 338.078Z" fill="#263238"/>
        <path d="M428.865 340.338C428.865 340.468 418.677 340.573 406.105 340.573C393.533 340.573 383.345 340.468 383.345 340.338C383.345 340.208 393.533 340.112 406.105 340.112C418.677 340.112 428.865 340.216 428.865 340.338Z" fill="#263238"/>
        <path d="M401.415 331.995L402.172 341.893H408.645L408.976 331.995H401.415Z" fill="#E0E0E0"/>
        <path d="M403.782 331.882H357.966V341.78H403.782V331.882Z" fill="#1AA3E0"/>
        <path opacity="0.2" d="M403.782 331.882H357.966V341.78H403.782V331.882Z" fill="black"/>
        <path d="M376.159 331.882L376.915 341.789H383.38L383.719 331.882H376.159Z" fill="#E0E0E0"/>
        <path d="M398.753 341.78H352.938V351.678H398.753V341.78Z" fill="#1AA3E0"/>
        <path opacity="0.2" d="M398.753 341.78H352.938V351.678H398.753V341.78Z" fill="black"/>
        <path d="M371.13 341.78L371.887 351.678H378.351L378.682 341.78H371.13Z" fill="#E0E0E0"/>
        <path d="M387.634 341.78H341.819V351.678H387.634V341.78Z" fill="#1AA3E0"/>
        <g opacity="0.2">
            <path opacity="0.2" d="M387.495 343.336C387.495 343.466 377.298 343.562 364.726 343.562C352.154 343.562 341.966 343.466 341.966 343.336C341.966 343.206 352.154 343.11 364.726 343.11C377.298 343.11 387.495 343.24 387.495 343.336Z" fill="black"/>
        </g>
        <g opacity="0.2">
            <path opacity="0.2" d="M387.477 345.604C387.477 345.726 377.281 345.83 364.718 345.83C352.154 345.83 341.949 345.726 341.949 345.604C341.949 345.482 352.137 345.378 364.718 345.378C377.298 345.378 387.477 345.474 387.477 345.604Z" fill="black"/>
        </g>
        <g opacity="0.2">
            <path opacity="0.2" d="M387.477 347.864C387.477 347.994 377.281 348.098 364.718 348.098C352.154 348.098 341.949 347.994 341.949 347.864C341.949 347.733 352.137 347.638 364.718 347.638C377.298 347.638 387.477 347.742 387.477 347.864Z" fill="black"/>
        </g>
        <g opacity="0.2">
            <path opacity="0.2" d="M387.477 350.132C387.477 350.262 377.281 350.358 364.718 350.358C352.154 350.358 341.949 350.262 341.949 350.132C341.949 350.001 352.137 349.906 364.718 349.906C377.298 349.906 387.477 350.01 387.477 350.132Z" fill="black"/>
        </g>
        <path d="M360.011 341.78L360.768 351.678H367.232L367.571 341.78H360.011Z" fill="#E0E0E0"/>
        <path d="M394.246 331.882H348.431V341.78H394.246V331.882Z" fill="#1AA3E0"/>
        <g opacity="0.2">
            <path opacity="0.2" d="M394.107 333.438C394.107 333.568 383.91 333.664 371.347 333.664C358.784 333.664 348.579 333.568 348.579 333.438C348.579 333.308 358.767 333.212 371.347 333.212C383.928 333.212 394.107 333.316 394.107 333.438Z" fill="black"/>
        </g>
        <g opacity="0.2">
            <path opacity="0.2" d="M394.064 335.706C394.064 335.828 383.876 335.932 371.304 335.932C358.732 335.932 348.535 335.828 348.535 335.706C348.535 335.584 358.723 335.48 371.304 335.48C383.884 335.48 394.064 335.576 394.064 335.706Z" fill="black"/>
        </g>
        <g opacity="0.2">
            <path opacity="0.2" d="M394.064 337.974C394.064 338.096 383.876 338.2 371.304 338.2C358.732 338.2 348.535 338.096 348.535 337.974C348.535 337.852 358.723 337.748 371.304 337.748C383.884 337.748 394.064 337.844 394.064 337.974Z" fill="black"/>
        </g>
        <g opacity="0.2">
            <path opacity="0.2" d="M394.064 340.234C394.064 340.364 383.876 340.46 371.304 340.46C358.732 340.46 348.535 340.364 348.535 340.234C348.535 340.103 358.723 340.008 371.304 340.008C383.884 340.008 394.064 340.112 394.064 340.234Z" fill="black"/>
        </g>
        <path d="M366.623 331.882L367.38 341.789H373.844L374.184 331.882H366.623Z" fill="#E0E0E0"/>
        <path d="M186.876 341.78H141.06V351.678H186.876V341.78Z" fill="#263238"/>
        <path d="M159.244 341.78L160 351.678H166.465L166.804 341.78H159.244Z" fill="#E0E0E0"/>
        <path d="M175.757 341.78H129.941V351.678H175.757V341.78Z" fill="#455A64"/>
        <path d="M175.609 343.336C175.609 343.466 165.421 343.562 152.849 343.562C140.277 343.562 130.08 343.466 130.08 343.336C130.08 343.206 140.277 343.11 152.849 343.11C165.421 343.11 175.609 343.24 175.609 343.336Z" fill="#263238"/>
        <path d="M175.591 345.604C175.591 345.726 165.403 345.83 152.831 345.83C140.26 345.83 130.072 345.726 130.072 345.604C130.072 345.482 140.26 345.378 152.831 345.378C165.403 345.378 175.591 345.474 175.591 345.604Z" fill="#263238"/>
        <path d="M175.591 347.864C175.591 347.994 165.403 348.098 152.831 348.098C140.26 348.098 130.072 347.994 130.072 347.864C130.072 347.733 140.26 347.638 152.831 347.638C165.403 347.638 175.591 347.742 175.591 347.864Z" fill="#263238"/>
        <path d="M175.591 350.132C175.591 350.262 165.403 350.358 152.831 350.358C140.26 350.358 130.072 350.262 130.072 350.132C130.072 350.001 140.26 349.906 152.831 349.906C165.403 349.906 175.591 350.01 175.591 350.132Z" fill="#263238"/>
        <path d="M148.125 341.78L148.882 351.678H155.355L155.685 341.78H148.125Z" fill="#F5F5F5"/>
        <path d="M181.299 331.987H135.483V341.885H181.299V331.987Z" fill="#263238"/>
        <path d="M153.675 331.995L154.432 341.893H160.897L161.227 331.995H153.675Z" fill="#E0E0E0"/>
        <path d="M170.18 331.987H124.364V341.885H170.18V331.987Z" fill="#455A64"/>
        <path d="M170.041 333.542C170.041 333.673 159.844 333.777 147.272 333.777C134.7 333.777 124.512 333.673 124.512 333.542C124.512 333.412 134.7 333.316 147.272 333.316C159.844 333.316 170.041 333.421 170.041 333.542Z" fill="#263238"/>
        <path d="M170.023 335.81C170.023 335.941 159.827 336.036 147.255 336.036C134.683 336.036 124.495 335.941 124.495 335.81C124.495 335.68 134.683 335.584 147.255 335.584C159.827 335.584 170.023 335.689 170.023 335.81Z" fill="#263238"/>
        <path d="M170.023 338.078C170.023 338.2 159.827 338.304 147.255 338.304C134.683 338.304 124.495 338.2 124.495 338.078C124.495 337.957 134.683 337.853 147.255 337.853C159.827 337.853 170.023 337.948 170.023 338.078Z" fill="#263238"/>
        <path d="M170.023 340.338C170.023 340.468 159.827 340.573 147.255 340.573C134.683 340.573 124.495 340.468 124.495 340.338C124.495 340.208 134.683 340.112 147.255 340.112C159.827 340.112 170.023 340.216 170.023 340.338Z" fill="#263238"/>
        <path d="M142.556 331.995L143.313 341.893H149.778L150.117 331.995H142.556Z" fill="#F5F5F5"/>
    </g>
    <path d="M318.01 50.9863C313.605 68.6631 295.696 79.4217 278.014 75.0103C260.332 70.5989 249.578 52.6987 253.99 35.0202C258.402 17.3418 276.302 6.5782 293.98 10.9903C311.658 15.4024 322.422 33.3036 318.01 50.9863Z" fill="#F7931A"/>
    <path d="M300.553 38.2986C301.209 33.9073 297.865 31.5465 293.293 29.9717L294.778 24.0235L291.156 23.1212L289.709 28.9131C288.758 28.6761 287.781 28.4511 286.809 28.2306L288.261 22.4005L284.643 21.4983L283.162 27.4442L275.858 25.6352L274.895 29.5031C274.895 29.5031 277.582 30.1189 277.525 30.1572C278.991 30.5235 279.257 31.4937 279.213 32.2632L275.149 48.5586C274.969 49.0041 274.515 49.672 273.49 49.4166C273.526 49.4694 270.858 48.7566 270.858 48.7566L269.06 52.9077L276.353 54.7491L274.854 60.7666L278.471 61.6689L279.956 55.716C280.946 55.9839 281.903 56.2315 282.841 56.4644L281.361 62.3896L284.983 63.2918L286.482 57.2858C292.657 58.454 297.301 57.9828 299.253 52.4018C300.827 47.9056 299.176 45.3118 295.926 43.6195C298.292 43.0717 300.074 41.5161 300.55 38.3009L300.553 38.2986ZM292.277 49.9011C291.155 54.3973 283.586 51.9675 281.13 51.357L283.119 43.3859C285.573 43.9984 293.444 45.2114 292.278 49.9004L292.277 49.9011ZM293.4 38.2349C292.379 42.3269 286.077 40.2479 284.031 39.7377L285.832 32.5061C287.878 33.0169 294.462 33.968 293.397 38.2346" fill="white"/>
    <path d="M35.4709 89.7206C35.4709 90.0016 35.2364 90.2303 34.9565 90.2303H25.0462C25.2936 92.6872 27.1363 94.9284 29.7278 94.9284C31.4989 94.9284 32.8142 94.2489 33.8039 92.8309C33.9472 92.6349 34.1621 92.5108 34.4356 92.6284C34.5853 92.6937 34.6895 92.8309 34.7155 92.9878C34.7416 93.1511 34.696 93.2426 34.6504 93.3341C33.6542 95.0787 31.6682 95.9347 29.7213 95.9347C26.3875 95.9347 24.0109 92.942 24.0109 89.7402C24.0109 86.5384 26.3875 83.5457 29.7213 83.5457C33.0551 83.5392 35.4643 86.5254 35.4709 89.7206ZM34.4095 89.2371C34.1946 86.7802 32.3194 84.5389 29.7278 84.5389C27.1363 84.5389 25.2936 86.7802 25.0462 89.2371H34.4095ZM47.4973 83.7875C47.7838 83.7875 47.9922 84.0358 47.9922 84.2841C47.9922 84.5716 47.7773 84.7807 47.4973 84.7807H44.8407V95.2421C44.8407 95.4904 44.6258 95.7387 44.3458 95.7387C44.0593 95.7387 43.851 95.4904 43.851 95.2421V84.7807H41.2985C41.012 84.7807 40.8037 84.5651 40.8037 84.2841C40.8037 84.0358 41.0185 83.7875 41.2985 83.7875H43.851V79.9584C43.851 79.7166 44.0138 79.4945 44.2482 79.4553C44.5802 79.403 44.8407 79.6317 44.8407 79.9454V83.7875H47.4973ZM63.7041 88.845V95.1833C63.7041 95.4708 63.4567 95.6799 63.2092 95.6799C62.9227 95.6799 62.7144 95.4643 62.7144 95.1833V88.845C62.7144 86.7083 61.5098 84.5716 59.1331 84.5716C56.0858 84.5716 54.7705 87.2441 54.9463 89.982C54.9463 90.0539 54.9789 90.3741 54.9789 90.4067V95.1637C54.9789 95.4054 54.8161 95.6276 54.5817 95.6668C54.2496 95.7191 53.9892 95.4904 53.9892 95.1767V74.3585C53.9892 74.1102 54.204 73.8619 54.484 73.8619C54.7705 73.8619 54.9789 74.1102 54.9789 74.3585V86.1398C55.8319 84.6108 57.3555 83.5784 59.1266 83.5784C62.0372 83.5784 63.7041 86.1398 63.7041 88.845ZM81.4736 89.7206C81.4736 90.0016 81.2392 90.2303 80.9592 90.2303H71.0424C71.2898 92.6872 73.1326 94.9284 75.7241 94.9284C77.4952 94.9284 78.8105 94.2489 79.8002 92.8309C79.9434 92.6349 80.1583 92.5108 80.4318 92.6284C80.5816 92.6937 80.6857 92.8309 80.7118 92.9878C80.7378 93.1511 80.6922 93.2426 80.6467 93.3341C79.6504 95.0787 77.6645 95.9347 75.7176 95.9347C72.3838 95.9347 70.0071 92.942 70.0071 89.7402C70.0071 86.5384 72.3838 83.5457 75.7176 83.5457C79.0579 83.5392 81.4671 86.5254 81.4736 89.7206ZM80.4058 89.2371C80.1909 86.7802 78.3156 84.5389 75.7241 84.5389C73.1326 84.5389 71.2898 86.7802 71.0424 89.2371H80.4058ZM93.6368 84.2514C93.6368 84.5716 93.461 84.748 93.1745 84.7872C90.2639 85.212 88.9552 87.597 88.9552 90.3741V95.131C88.9552 95.3728 88.7924 95.5949 88.558 95.6341C88.2259 95.6864 87.9654 95.4577 87.9654 95.1441V84.3037C87.9654 84.0619 88.1282 83.8398 88.3626 83.8006C88.6947 83.7483 88.9552 83.977 88.9552 84.2906V86.4992C89.7691 85.114 91.4034 83.794 93.1029 83.794C93.3503 83.7875 93.6368 83.9705 93.6368 84.2514ZM109.915 89.7206C109.915 90.0016 109.681 90.2303 109.401 90.2303H99.4905C99.738 92.6872 101.581 94.9284 104.172 94.9284C105.943 94.9284 107.259 94.2489 108.248 92.8309C108.392 92.6349 108.606 92.5108 108.88 92.6284C109.03 92.6937 109.134 92.8309 109.16 92.9878C109.186 93.1511 109.14 93.2426 109.095 93.3341C108.099 95.0787 106.113 95.9347 104.166 95.9347C100.832 95.9347 98.4552 92.942 98.4552 89.7402C98.4552 86.5384 100.832 83.5457 104.166 83.5457C107.5 83.5392 109.909 86.5254 109.915 89.7206ZM108.854 89.2371C108.639 86.7802 106.764 84.5389 104.172 84.5389C101.581 84.5389 99.738 86.7802 99.4905 89.2371H108.854ZM125.914 84.3756V95.2421C125.914 95.5296 125.666 95.7387 125.419 95.7387C125.132 95.7387 124.924 95.5231 124.924 95.2421V93.1773C124.11 94.8174 122.651 95.987 120.809 95.987C117.866 95.987 116.231 93.4256 116.231 90.7204V84.3494C116.231 84.1011 116.446 83.8528 116.726 83.8528C117.013 83.8528 117.221 84.1011 117.221 84.3494V90.7204C117.221 92.8571 118.426 94.9938 120.802 94.9938C124.136 94.9938 124.917 91.8639 124.917 88.4072V84.3494C124.917 84.0619 125.204 83.7679 125.556 83.8724C125.77 83.9443 125.914 84.1534 125.914 84.3756ZM150.982 88.8058V95.1767C150.982 95.4643 150.735 95.6734 150.488 95.6734C150.201 95.6734 149.993 95.4577 149.993 95.1767V88.8058C149.993 86.6691 148.788 84.5716 146.411 84.5716C143.429 84.5716 142.296 87.7734 142.296 90.263V95.1767C142.296 95.4643 142.049 95.6734 141.801 95.6734C141.515 95.6734 141.306 95.4577 141.306 95.1767V88.8058C141.306 86.6691 140.102 84.5716 137.725 84.5716C134.71 84.5716 133.467 86.9566 133.578 90.1257C133.578 90.1976 133.61 90.3414 133.578 90.3741V95.1637C133.578 95.4054 133.415 95.6276 133.174 95.6668C132.842 95.7191 132.581 95.4904 132.581 95.1767V84.3037C132.581 84.0619 132.744 83.8398 132.978 83.8006C133.311 83.7483 133.571 83.977 133.571 84.2906V86.1072C134.424 84.5781 135.948 83.5784 137.719 83.5784C139.737 83.5784 141.3 84.8591 141.938 86.7475C142.752 84.8983 144.347 83.5784 146.405 83.5784C149.315 83.5784 150.982 86.1006 150.982 88.8058Z" fill="black"/>
    <g opacity="0.6">
        <path opacity="0.6" d="M87.5032 48.2288L70.9383 55.7889L87.5032 65.6099L104.062 55.7889L87.5032 48.2288Z" fill="#010101"/>
    </g>
    <g opacity="0.45">
        <path opacity="0.45" d="M70.9383 55.7889L87.5033 65.6099V28.2078L70.9383 55.7889Z" fill="#010101"/>
    </g>
    <g opacity="0.8">
        <path opacity="0.8" d="M87.5032 28.2078V65.6099L104.062 55.7889L87.5032 28.2078Z" fill="#010101"/>
    </g>
    <path d="M445 106C463.288 106 478 91.2876 478 73C478 54.7124 463.288 40 445 40C426.712 40 412 54.7124 412 73C412 91.2876 426.712 106 445 106Z" fill="#2775CA"/>
    <path d="M454.075 78.2249C454.075 73.4125 451.188 71.7625 445.413 71.0751C441.288 70.525 440.463 69.4251 440.463 67.4999C440.463 65.5747 441.838 64.3375 444.588 64.3375C447.063 64.3375 448.438 65.1625 449.125 67.225C449.263 67.6375 449.675 67.9124 450.088 67.9124H452.287C452.838 67.9124 453.25 67.4999 453.25 66.9501V66.8125C452.7 63.7874 450.225 61.45 447.063 61.1751V57.8751C447.063 57.325 446.65 56.9125 445.963 56.7749H443.9C443.35 56.7749 442.938 57.1874 442.8 57.8751V61.0375C438.675 61.5876 436.063 64.3375 436.063 67.7751C436.063 72.3126 438.813 74.0999 444.588 74.7876C448.438 75.475 449.675 76.3 449.675 78.5001C449.675 80.7002 447.75 82.2126 445.138 82.2126C441.562 82.2126 440.325 80.6999 439.912 78.6374C439.775 78.0876 439.363 77.8124 438.95 77.8124H436.612C436.063 77.8124 435.65 78.2249 435.65 78.775V78.9126C436.2 82.3499 438.4 84.8249 442.938 85.5126V88.8126C442.938 89.3624 443.35 89.7749 444.037 89.9125H446.1C446.65 89.9125 447.063 89.5 447.2 88.8126V85.5126C451.325 84.8249 454.075 81.9374 454.075 78.2249Z" fill="white"/>
    <path d="M437.988 92.6624C427.263 88.8126 421.762 76.8501 425.75 66.2624C427.813 60.4874 432.35 56.0875 437.988 54.025C438.538 53.7501 438.813 53.3376 438.813 52.6499V50.725C438.813 50.1749 438.538 49.7624 437.988 49.6251C437.85 49.6251 437.575 49.6251 437.437 49.7624C424.375 53.8874 417.225 67.7751 421.35 80.8375C423.825 88.5374 429.738 94.45 437.437 96.925C437.988 97.1999 438.538 96.925 438.675 96.3749C438.813 96.2376 438.813 96.1 438.813 95.8251V93.8999C438.813 93.4874 438.4 92.9376 437.988 92.6624ZM452.563 49.7624C452.013 49.4875 451.462 49.7624 451.325 50.3125C451.188 50.4501 451.188 50.5874 451.188 50.8626V52.7875C451.188 53.3376 451.6 53.8874 452.013 54.1626C462.738 58.0124 468.238 69.9749 464.25 80.5626C462.187 86.3376 457.65 90.7375 452.013 92.8C451.462 93.0749 451.188 93.4874 451.188 94.1751V96.1C451.188 96.6501 451.462 97.0626 452.013 97.1999C452.15 97.1999 452.425 97.1999 452.563 97.0626C465.625 92.9376 472.775 79.0499 468.65 65.9875C466.175 58.15 460.125 52.2374 452.563 49.7624Z" fill="white"/>
    <g clip-path="url(#clip1)">
        <path d="M7.52515 229.372V206.847H14.851C17.6419 206.847 19.436 206.946 20.2832 207.195C21.5789 207.544 22.6753 208.292 23.5225 209.388C24.3697 210.534 24.8183 211.98 24.8183 213.774C24.8183 215.169 24.5691 216.315 24.0707 217.262C23.5724 218.209 22.9245 218.957 22.1769 219.505C21.3796 220.053 20.632 220.402 19.8347 220.551C18.7383 220.751 17.1933 220.85 15.1002 220.85H12.1101V229.372H7.52515ZM12.1101 210.634V217.013H14.6019C16.396 217.013 17.592 216.913 18.1901 216.664C18.7881 216.415 19.2865 216.066 19.6353 215.568C19.9842 215.07 20.1337 214.471 20.1337 213.824C20.1337 213.026 19.8845 212.329 19.3861 211.78C18.8878 211.232 18.2897 210.933 17.5422 210.784C16.994 210.684 15.8976 210.634 14.253 210.634H12.1101Z" fill="black"/>
        <path d="M46.5468 229.372H41.613L39.6196 224.239H30.5992L28.7553 229.372H23.9212L32.6924 206.847H37.5265L46.5468 229.372ZM38.1743 220.452L35.0845 212.079L32.0445 220.452H38.1743Z" fill="black"/>
        <path d="M52.0288 229.372V219.904L43.756 206.847H49.0884L54.3711 215.767L59.554 206.847H64.7868L56.514 219.953V229.422H52.0288V229.372Z" fill="black"/>
        <path d="M67.0793 229.372V206.847H83.7744V210.684H71.6144V215.668H82.9271V219.455H71.6144V225.585H84.2229V229.372H67.0793Z" fill="#64B3DF"/>
        <path d="M88.0603 229.372V206.847H104.755V210.684H92.5954V215.668H103.908V219.455H92.5954V225.585H105.204V229.372H88.0603Z" fill="#64B3DF"/>
        <path d="M109.091 229.372V206.847H118.66C121.052 206.847 122.796 207.046 123.892 207.445C124.989 207.843 125.836 208.591 126.534 209.588C127.181 210.634 127.53 211.83 127.53 213.126C127.53 214.82 127.032 216.216 126.035 217.312C125.039 218.409 123.543 219.106 121.6 219.405C122.597 220.003 123.394 220.601 124.042 221.299C124.69 221.997 125.537 223.193 126.633 224.937L129.374 229.323H123.942L120.653 224.439C119.507 222.694 118.709 221.598 118.261 221.149C117.812 220.701 117.364 220.402 116.915 220.203C116.467 220.003 115.669 219.953 114.623 219.953H113.626V229.372H109.091ZM113.626 216.365H117.015C119.208 216.365 120.553 216.266 121.102 216.066C121.65 215.867 122.048 215.568 122.397 215.119C122.696 214.671 122.846 214.123 122.846 213.425C122.846 212.677 122.646 212.03 122.248 211.581C121.849 211.132 121.251 210.833 120.553 210.684C120.204 210.634 119.058 210.584 117.214 210.584H113.626V216.365Z" fill="#64B3DF"/>
        <path d="M142.232 223.043C142.232 224.788 141.634 226.283 140.388 227.479C139.142 228.725 137.697 229.323 135.953 229.323C134.208 229.323 132.763 228.725 131.517 227.479C130.321 226.233 129.673 224.788 129.673 223.043C129.673 221.299 130.271 219.854 131.517 218.608C132.713 217.412 134.208 216.764 135.953 216.764C137.697 216.764 139.192 217.362 140.388 218.608C141.634 219.854 142.232 221.349 142.232 223.043ZM135.953 217.661C134.458 217.661 133.212 218.209 132.165 219.256C131.119 220.302 130.57 221.598 130.57 223.093C130.57 224.588 131.069 225.884 132.115 226.93C133.162 227.977 134.458 228.525 135.953 228.525C137.448 228.525 138.744 227.977 139.79 226.93C140.837 225.884 141.385 224.588 141.385 223.093C141.385 221.598 140.886 220.352 139.79 219.256C138.694 218.209 137.448 217.661 135.953 217.661ZM135.853 219.605C136.7 219.605 137.348 219.704 137.747 219.854C138.445 220.153 138.793 220.751 138.793 221.598C138.793 222.196 138.544 222.645 138.146 222.944C137.896 223.093 137.597 223.193 137.149 223.292C137.697 223.392 138.096 223.591 138.345 223.99C138.594 224.339 138.744 224.688 138.744 225.037V225.535C138.744 225.685 138.744 225.884 138.744 226.033C138.744 226.233 138.793 226.332 138.793 226.382L138.843 226.482H137.697V226.432C137.697 226.432 137.697 226.382 137.697 226.332L137.647 226.133V225.585C137.647 224.788 137.448 224.289 136.999 223.99C136.75 223.841 136.302 223.791 135.654 223.791H134.707V226.482H133.511V219.605H135.853ZM137.597 221.698C137.597 221.199 137.448 220.85 137.149 220.701C136.85 220.551 136.351 220.452 135.704 220.452H134.657V222.944H135.753C136.252 222.944 136.65 222.894 136.9 222.794C137.348 222.595 137.597 222.246 137.597 221.698Z" fill="black"/>
    </g>
    <path d="M539.577 217.842H518.227L522 226.459H533.128L539.577 217.842ZM549.879 201.672H511.149L514.922 210.289H543.438L549.879 201.672Z" fill="#009A61"/>
    <path d="M511.047 178L480.973 243.934H492.424L511.032 201.408L529.67 244H541.127L511.047 178Z" fill="#00384F"/>
    <path d="M471 201.672L477.295 210.289H514.922L511.149 201.672H471ZM482.45 217.842L488.753 226.459H522L518.227 217.842H482.45Z" fill="#009A61"/>
    <defs>
        <clipPath id="clip0">
            <rect x="77" width="394" height="352" fill="white"/>
        </clipPath>
        <clipPath id="clip1">
            <rect y="207" width="152" height="22" fill="white"/>
        </clipPath>
    </defs>
</svg>
