<svg width="278" height="115" viewBox="0 0 278 115" fill="none" xmlns="http://www.w3.org/2000/svg">
    <g clip-path="url(#clip0)">
        <path d="M29.0249 55.9629H29.2019L34.8226 41.9847H40.8593V42.9431L30.4307 66.9125H27.7602L17.2217 42.9359V41.9775H23.2632L29.0249 55.9629Z" fill="#484D5F"/>
        <path d="M57.9359 58.6389V66.6295H51.543V41.9844H66.8583V47.6197H57.9359V53.0059H65.8398V58.6389H57.9359Z" fill="#484D5F"/>
        <path d="M87.3046 58.8863L82.8076 66.6302H76.0273V65.6718L83.9671 53.5625L76.8713 42.9291V41.9707H83.4148L87.3046 48.3967H87.4792L91.412 41.9875H97.9125V42.9459L90.8262 53.5697L98.7995 65.679V66.6373H92.0216L87.5246 58.8935L87.3046 58.8863Z" fill="#484D5F"/>
        <path d="M144.188 64.5413H133.43L131.83 67.9819H125V66.966L137.286 40.2676H140.289L152.613 66.966V67.9819H145.788L144.188 64.5413ZM138.768 51.3298L135.725 58.5178H141.888L138.768 51.3298Z" fill="#484D5F"/>
        <path d="M170.984 61.687H180.891V67.9813H163.962V40.6191H170.984V61.687Z" fill="#484D5F"/>
        <path d="M210.532 46.8727H200.431V50.7446H209.712V56.9573H200.431V61.7661H210.884V67.9813H193.488V40.6191H210.532V46.8727Z" fill="#484D5F"/>
        <path d="M247.74 66.9654V67.9813H239.942L235.26 59.9284H231.643V67.9813H224.662V40.6191H236.635C247.36 40.6575 249.306 53.5958 242.406 58.2871L247.74 66.9654ZM236.626 46.8727C234.988 46.8343 233.278 46.8727 231.634 46.8727V53.6365H236.626C240.408 53.6365 240.604 46.9134 236.626 46.8727Z" fill="#484D5F"/>
        <path d="M257.062 46.8727V40.6191H277.342V46.8727H270.675V67.9813H263.77V46.8727H257.062Z" fill="#484D5F"/>
        <path d="M51.4667 -0.00243982C23.277 -0.00243982 0.344727 22.9846 0.344727 51.2357C0.344727 71.7261 12.411 89.442 29.7943 97.6315C22.6649 93.0937 16.7937 86.8258 12.7248 79.4087C8.65585 71.9916 6.52089 63.6652 6.51771 55.201C6.51771 27.4747 29.0245 4.91891 56.6905 4.91891C69.0337 4.90876 80.9437 9.47749 90.1255 17.7446C85.3341 12.1745 79.4002 7.70561 72.7287 4.64291C66.0571 1.5802 58.8049 -0.00427432 51.4667 -0.00243982Z" fill="#A2C037"/>
        <path d="M82.4388 1.26025C99.0858 11.6612 110.191 30.1726 110.191 51.2357C110.191 83.6845 83.8494 110.083 51.4687 110.083C36.8534 110.097 22.7626 104.627 11.9707 94.7491C17.5605 101.116 24.4402 106.216 32.1514 109.709C39.8625 113.201 48.228 115.007 56.6902 115.005C89.592 115.005 116.362 88.1697 116.362 55.2034C116.362 31.464 102.488 10.9113 82.4388 1.26025Z" fill="#C20D19"/>
    </g>
    <defs>
        <clipPath id="clip0">
            <rect width="277" height="115" fill="white" transform="translate(0.344727)"/>
        </clipPath>
    </defs>
</svg>
