<svg width="145" height="145" viewBox="0 0 145 145" fill="none" xmlns="http://www.w3.org/2000/svg">
    <path d="M38.8142 72.0112H39.0244L45.7365 55.3579H52.9502V56.4918L40.4933 85.0569H37.3033L24.7188 56.4918V55.3579H31.9339L38.8142 72.0112Z" fill="#484D5F"/>
    <path d="M73.3364 75.1997V84.7218H65.7021V55.3579H83.991V62.0699H73.3364V68.4876H82.7744V75.1997H73.3364Z" fill="#484D5F"/>
    <path d="M108.403 75.4926L103.038 84.7218H94.9385V83.5879L104.419 69.1648L95.9448 56.4918V55.3579H103.747L108.403 62.9936H108.613L113.311 55.3579H121.075V56.4918L112.598 69.1648L122.12 83.5937V84.7276H114.023L108.658 75.4984L108.403 75.4926Z" fill="#484D5F"/>
    <path d="M65.6104 5.33594C31.9516 5.33594 4.56543 32.7192 4.56543 66.3809C4.56688 90.7931 18.9741 111.901 39.7294 121.655C23.0355 111.013 11.9372 92.3316 11.9372 71.1036C11.9372 38.0697 38.813 11.1939 71.8483 11.1939C86.5868 11.1826 100.808 16.6267 111.771 26.4769C100.57 13.5357 84.0298 5.33594 65.6104 5.33594Z" fill="#A2C037"/>
    <path d="M102.594 6.83594C122.469 19.2262 135.727 41.2821 135.727 66.3787C135.727 105.04 104.273 136.495 65.6105 136.495C47.4681 136.495 30.912 129.567 18.4492 118.218C31.5137 133.008 50.6088 142.353 71.8484 142.353C111.135 142.353 143.097 110.391 143.097 71.1028C143.097 42.8206 126.532 18.3344 102.594 6.83594Z" fill="#C20D19"/>
</svg>
