<svg width="202" height="83" viewBox="0 0 202 83" fill="none" xmlns="http://www.w3.org/2000/svg">
    <g clip-path="url(#clip0)">
        <path d="M20.9143 40.3904H21.0433L25.1422 30.3018H29.5444V30.9935L21.9395 48.2932H19.992L12.3069 30.9883V30.2966H16.7126L20.9143 40.3904Z" fill="white"/>
        <path d="M41.998 42.3222V48.0893H37.3361V30.302H48.5046V34.3693H41.998V38.2567H47.7619V42.3222H41.998Z" fill="white"/>
        <path d="M63.4147 42.4999L60.1352 48.089H55.1908V47.3972L60.9808 38.6575L55.8062 30.983V30.2913H60.5781L63.4147 34.9292H63.5419L66.4099 30.3034H71.1504V30.9951L65.9828 38.6627L71.7972 47.4024V48.0941H66.8545L63.5751 42.5051L63.4147 42.4999Z" fill="white"/>
        <path d="M104.897 46.5813H97.0515L95.8851 49.0645H90.9041V48.3313L99.8637 29.062H102.053L111.041 48.3313V49.0645H106.063L104.897 46.5813ZM100.945 37.0461L98.7252 42.2339H103.22L100.945 37.0461Z" fill="white"/>
        <path d="M124.437 44.5219H131.662V49.0647H119.316V29.3164H124.437V44.5219Z" fill="white"/>
        <path d="M153.278 33.8298H145.912V36.6243H152.68V41.1083H145.912V44.579H153.534V49.0647H140.849V29.3164H153.278V33.8298Z" fill="white"/>
        <path d="M180.411 48.3315V49.0647H174.724L171.31 43.2526H168.672V49.0647H163.581V29.3164H172.312C180.134 29.3441 181.553 38.6822 176.521 42.0681L180.411 48.3315ZM172.306 33.8298C171.111 33.8021 169.865 33.8298 168.665 33.8298V38.7116H172.306C175.064 38.7116 175.207 33.8592 172.306 33.8298Z" fill="white"/>
        <path d="M187.209 33.8298V29.3164H201.998V33.8298H197.136V49.0647H192.101V33.8298H187.209Z" fill="white"/>
        <path d="M37.2803 -0.00414924C16.7232 -0.00414924 0 16.5865 0 36.9764C0 51.7651 8.79921 64.5514 21.4759 70.4621C16.2768 67.187 11.9952 62.6632 9.02803 57.31C6.06082 51.9567 4.50392 45.9472 4.5016 39.8383C4.5016 19.8272 20.9145 3.54778 41.0897 3.54778C50.0908 3.54046 58.7762 6.83788 65.4719 12.8046C61.9778 8.7844 57.6506 5.55905 52.7854 3.34858C47.9202 1.13811 42.6316 -0.00547328 37.2803 -0.00414924Z" fill="#A2C037"/>
        <path d="M59.8668 0.909424C72.0064 8.4162 80.1048 21.7766 80.1048 36.9786C80.1048 60.3982 60.8954 79.4513 37.2821 79.4513C26.624 79.4612 16.3484 75.5129 8.47852 68.384C12.5548 72.9793 17.5718 76.66 23.1951 79.1809C28.8184 81.7017 34.9188 83.0048 41.0898 83.0033C65.0832 83.0033 84.6046 63.6354 84.6046 39.8423C84.6046 22.7087 74.4874 7.87494 59.8668 0.909424Z" fill="#C20D19"/>
    </g>
    <path d="M97.9983 66.25H94.2783L93.5083 68H92.4783L95.6483 61H96.6383L99.8183 68H98.7683L97.9983 66.25ZM97.6483 65.45L96.1383 62.02L94.6283 65.45H97.6483ZM101.863 61.87V64.31H105.373V65.17H101.863V68H100.863V61H105.803V61.87H101.863ZM108.21 61.87V64.31H111.72V65.17H108.21V68H107.21V61H112.15V61.87H108.21ZM113.558 61H114.558V68H113.558V61ZM116.654 61H117.654V67.13H121.444V68H116.654V61ZM122.591 61H123.591V68H122.591V61ZM130.147 66.25H126.427L125.657 68H124.627L127.797 61H128.787L131.967 68H130.917L130.147 66.25ZM129.797 65.45L128.287 62.02L126.777 65.45H129.797ZM134.049 61.87H131.649V61H137.439V61.87H135.039V68H134.049V61.87ZM143.609 67.13V68H138.529V61H143.469V61.87H139.529V64.02H143.039V64.87H139.529V67.13H143.609ZM150.643 61C151.55 61 152.263 61.2167 152.783 61.65C153.303 62.0833 153.563 62.68 153.563 63.44C153.563 64.2 153.303 64.7967 152.783 65.23C152.263 65.6633 151.55 65.88 150.643 65.88H148.913V68H147.913V61H150.643ZM150.613 65.01C151.247 65.01 151.73 64.8767 152.063 64.61C152.397 64.3367 152.563 63.9467 152.563 63.44C152.563 62.9333 152.397 62.5467 152.063 62.28C151.73 62.0067 151.247 61.87 150.613 61.87H148.913V65.01H150.613ZM159.712 68L158.202 65.85C158.016 65.8633 157.869 65.87 157.762 65.87H156.032V68H155.032V61H157.762C158.669 61 159.382 61.2167 159.902 61.65C160.422 62.0833 160.682 62.68 160.682 63.44C160.682 63.98 160.549 64.44 160.282 64.82C160.016 65.2 159.636 65.4767 159.142 65.65L160.802 68H159.712ZM157.732 65.02C158.366 65.02 158.849 64.8833 159.182 64.61C159.516 64.3367 159.682 63.9467 159.682 63.44C159.682 62.9333 159.516 62.5467 159.182 62.28C158.849 62.0067 158.366 61.87 157.732 61.87H156.032V65.02H157.732ZM165.458 68.08C164.751 68.08 164.115 67.9267 163.548 67.62C162.981 67.3067 162.535 66.8767 162.208 66.33C161.888 65.7833 161.728 65.1733 161.728 64.5C161.728 63.8267 161.888 63.2167 162.208 62.67C162.535 62.1233 162.981 61.6967 163.548 61.39C164.115 61.0767 164.751 60.92 165.458 60.92C166.158 60.92 166.791 61.0767 167.358 61.39C167.925 61.6967 168.368 62.1233 168.688 62.67C169.008 63.21 169.168 63.82 169.168 64.5C169.168 65.18 169.008 65.7933 168.688 66.34C168.368 66.88 167.925 67.3067 167.358 67.62C166.791 67.9267 166.158 68.08 165.458 68.08ZM165.458 67.19C165.971 67.19 166.431 67.0733 166.838 66.84C167.251 66.6067 167.575 66.2867 167.808 65.88C168.048 65.4667 168.168 65.0067 168.168 64.5C168.168 63.9933 168.048 63.5367 167.808 63.13C167.575 62.7167 167.251 62.3933 166.838 62.16C166.431 61.9267 165.971 61.81 165.458 61.81C164.945 61.81 164.478 61.9267 164.058 62.16C163.645 62.3933 163.318 62.7167 163.078 63.13C162.845 63.5367 162.728 63.9933 162.728 64.5C162.728 65.0067 162.845 65.4667 163.078 65.88C163.318 66.2867 163.645 66.6067 164.058 66.84C164.478 67.0733 164.945 67.19 165.458 67.19ZM175.546 64.46H176.506V67.19C176.16 67.4767 175.756 67.6967 175.296 67.85C174.836 68.0033 174.356 68.08 173.856 68.08C173.15 68.08 172.513 67.9267 171.946 67.62C171.38 67.3067 170.933 66.88 170.606 66.34C170.286 65.7933 170.126 65.18 170.126 64.5C170.126 63.82 170.286 63.2067 170.606 62.66C170.933 62.1133 171.38 61.6867 171.946 61.38C172.52 61.0733 173.163 60.92 173.876 60.92C174.436 60.92 174.943 61.0133 175.396 61.2C175.856 61.38 176.246 61.6467 176.566 62L175.946 62.62C175.386 62.08 174.71 61.81 173.916 61.81C173.383 61.81 172.903 61.9267 172.476 62.16C172.056 62.3867 171.726 62.7067 171.486 63.12C171.246 63.5267 171.126 63.9867 171.126 64.5C171.126 65.0067 171.246 65.4667 171.486 65.88C171.726 66.2867 172.056 66.6067 172.476 66.84C172.903 67.0733 173.38 67.19 173.906 67.19C174.533 67.19 175.08 67.04 175.546 66.74V64.46ZM183.101 68L181.591 65.85C181.404 65.8633 181.258 65.87 181.151 65.87H179.421V68H178.421V61H181.151C182.058 61 182.771 61.2167 183.291 61.65C183.811 62.0833 184.071 62.68 184.071 63.44C184.071 63.98 183.938 64.44 183.671 64.82C183.404 65.2 183.024 65.4767 182.531 65.65L184.191 68H183.101ZM181.121 65.02C181.754 65.02 182.238 64.8833 182.571 64.61C182.904 64.3367 183.071 63.9467 183.071 63.44C183.071 62.9333 182.904 62.5467 182.571 62.28C182.238 62.0067 181.754 61.87 181.121 61.87H179.421V65.02H181.121ZM190.147 66.25H186.427L185.657 68H184.627L187.797 61H188.787L191.967 68H190.917L190.147 66.25ZM189.797 65.45L188.287 62.02L186.777 65.45H189.797ZM199.501 68L199.491 62.9L196.961 67.15H196.501L193.971 62.93V68H193.011V61H193.831L196.751 65.92L199.631 61H200.451L200.461 68H199.501Z" fill="white"/>
    <defs>
        <clipPath id="clip0">
            <rect width="202" height="83" fill="white"/>
        </clipPath>
    </defs>
</svg>
