<svg width="79" height="68" viewBox="0 0 79 68" fill="none" xmlns="http://www.w3.org/2000/svg">
    <path d="M46.1392 2.8147C38.9124 2.8147 31.9072 5.25029 26.2322 9.59008C26.6312 10.3429 27.0302 11.14 27.4293 11.9814C32.7053 7.77445 39.3114 5.42742 46.1392 5.42742C62.6767 5.42742 76.1549 18.8453 76.1549 35.4074C76.1549 51.9694 62.721 65.3874 46.1392 65.3874C29.5574 65.3874 16.1235 51.9694 16.1235 35.4074C16.1235 30.2262 17.4536 25.2222 19.9364 20.7938C19.5374 19.731 19.1384 18.7125 18.695 17.7382C15.3254 22.9637 13.4633 29.0749 13.4633 35.4074C13.4633 53.3865 28.0943 68.0001 46.0949 68.0001C64.0954 68.0001 78.7264 53.3865 78.7264 35.4074C78.7264 17.4283 64.1398 2.8147 46.1392 2.8147Z" fill="white"/>
    <path d="M49.9965 16.6754C49.2428 14.5497 46.9373 13.2212 46.9373 13.2212L42.415 18.0924C42.415 18.0924 46.8043 19.8638 43.2131 27.9234C42.282 30.0047 40.9963 31.9975 38.9125 35.5402C36.8286 39.1271 33.8138 42.9355 33.8138 42.9355C33.8138 42.9355 26.986 1.30896 12.0889 0.0690233C0.69448 -0.905215 -1.38933 8.74861 0.738822 9.19144C0.738822 9.19144 2.86697 4.23168 9.51743 4.23168C18.6064 4.23168 24.8135 24.7793 27.7397 39.1714C29.3358 46.921 29.6461 52.855 29.6461 52.855C29.6461 52.855 31.6413 51.2608 34.0354 47.8953C37.139 43.5112 40.9519 36.8244 42.4594 34.5659C45.2526 30.4918 51.371 20.6609 49.9965 16.6754Z" fill="white"/>
    <path d="M71.8102 38.8171C71.8102 38.8171 67.4209 46.7439 63.8297 46.7439C61.8345 46.7439 60.4158 45.5483 59.4847 44.1312C62.2336 41.297 64.7607 39.0386 64.7607 37.4444C64.7607 35.673 62.0119 36.2487 62.0119 36.2487C62.0119 36.2487 62.3666 37.5329 61.7459 38.7286C61.4355 39.3043 60.0611 40.8542 58.5537 42.4484C58.2876 41.8727 58.1103 41.3413 57.9773 40.8985C57.3122 38.8614 56.6915 37.0458 57.1792 35.9387C57.1792 35.9387 54.8737 35.8059 54.6521 37.9758H48.2676C48.2676 37.9758 48.9327 32.706 50.3514 30.8461C51.3268 29.5619 52.2136 29.1633 53.322 29.3848C53.987 29.5176 54.9181 30.4476 54.6077 31.2447C56.2482 30.8018 56.6472 29.5176 56.1595 28.6319C55.4944 27.4363 50.7061 26.3292 47.8686 30.5361C46.0952 33.1931 45.3414 37.9758 45.3414 37.9758C45.3414 37.9758 41.7502 37.3558 41.5285 40.987C42.8586 39.7914 44.9424 40.1899 44.9424 40.1899L42.6369 52.4565C42.6369 52.4565 41.7502 55.0692 43.7897 55.0692C45.8291 55.0692 46.0508 54.6707 46.0508 54.6707C46.0508 54.6707 44.7207 54.095 45.0311 53.165C45.3414 52.2351 47.6913 39.88 47.6913 39.88H54.9181C55.2284 41.1642 55.8491 42.847 56.7359 44.4412C55.8048 45.4597 55.0067 46.3896 54.6521 46.9653C53.5436 48.7367 51.9919 50.9508 54.6964 52.5893C55.0954 51.0837 55.5831 48.8252 57.7556 46.0797C59.0413 47.7624 60.6375 49.0909 62.6326 49.1795C66.9775 49.4009 71.6772 43.1569 73.0516 39.4814C72.5196 39.0829 71.8102 38.8171 71.8102 38.8171Z" fill="white"/>
</svg>
