<svg width="72" height="72" viewBox="0 0 72 72" fill="none" xmlns="http://www.w3.org/2000/svg">
    <path d="M70.5883 7.03125H6.62805C5.84802 7.03125 5.21631 7.66351 5.21631 8.44299V22.1342H1.41174C0.632263 22.1342 0 22.7659 0 23.5459V63.64C0 64.4194 0.632263 65.0517 1.41174 65.0517H27.7147C28.4947 65.0517 29.127 64.4194 29.127 63.64C29.127 62.8599 28.4947 62.2282 27.7147 62.2282H2.82349V24.9576H63.9602V62.2282H39.0322C38.2527 62.2282 37.6205 62.8599 37.6205 63.64C37.6205 64.4194 38.2527 65.0517 39.0322 65.0517H65.3719C66.152 65.0517 66.7837 64.4194 66.7837 63.64V49.9488H70.5883C71.3677 49.9488 72 49.3171 72 48.537V8.44299C72 7.66351 71.3677 7.03125 70.5883 7.03125ZM30.7117 22.1336C30.8633 18.0637 34.2197 14.7991 38.3258 14.7991H38.4582C42.5643 14.7991 45.9207 18.0637 46.0723 22.1336H30.7117ZM69.1765 47.1253H66.7837V23.5453C66.7837 22.7659 66.152 22.1336 65.3719 22.1336H64.1305C59.8447 21.5283 56.5367 17.8374 56.5367 13.3874C56.5367 12.6079 55.905 11.9756 55.125 11.9756H47.4917C46.7122 11.9756 46.08 12.6079 46.08 13.3874C46.08 14.1674 46.7122 14.7991 47.4917 14.7991H53.7984C54.1516 17.7089 55.582 20.2896 57.6766 22.1336H48.8963C48.743 16.507 44.1216 11.9756 38.4582 11.9756H38.3258C32.6629 11.9756 28.041 16.507 27.8882 22.1336H19.5419C21.6354 20.2896 23.0652 17.7083 23.4179 14.7991H29.2928C30.0723 14.7991 30.7046 14.1674 30.7046 13.3874C30.7046 12.6079 30.0723 11.9756 29.2928 11.9756H22.0913C21.3113 11.9756 20.6796 12.6079 20.6796 13.3874C20.6796 17.838 17.3716 21.5283 13.0858 22.1336H8.03979V9.85474H69.1765V47.1253Z" fill="#1AA3E0"/>
    <path d="M65.3719 19.8435C66.152 19.8435 66.7837 19.2118 66.7837 18.4318V13.3874C66.7837 12.6079 66.152 11.9756 65.3719 11.9756H60.3276C59.5481 11.9756 58.9158 12.6079 58.9158 13.3874C58.9158 16.9475 61.8124 19.8435 65.3719 19.8435ZM63.9602 14.7991V16.7344C63.0906 16.3663 62.393 15.6687 62.025 14.7991H63.9602Z" fill="#1AA3E0"/>
    <path d="M11.8438 19.8435C15.4039 19.8435 18.2999 16.9475 18.2999 13.3874C18.2999 12.6079 17.6682 11.9756 16.8882 11.9756H11.8438C11.0643 11.9756 10.4321 12.6079 10.4321 13.3874V18.4318C10.4321 19.2118 11.0643 19.8435 11.8438 19.8435ZM13.2556 14.7991H15.1908C14.8228 15.6687 14.1251 16.3663 13.2556 16.7344V14.7991Z" fill="#1AA3E0"/>
    <path d="M49.9092 27.0786H42.2754C41.4959 27.0786 40.8636 27.7103 40.8636 28.4903C40.8636 29.2698 41.4959 29.902 42.2754 29.902H48.5821C49.2253 35.204 53.4419 39.4206 58.7444 40.0638V47.1215C53.4419 47.7647 49.2253 51.9813 48.5821 57.2833H42.2754C41.4959 57.2833 40.8636 57.9155 40.8636 58.695C40.8636 59.475 41.4959 60.1068 42.2754 60.1068H49.9092C50.6887 60.1068 51.321 59.475 51.321 58.695C51.321 53.8231 55.2843 49.8598 60.1562 49.8598C60.9357 49.8598 61.5679 49.2281 61.5679 48.4481V38.7372C61.5679 37.9572 60.9357 37.3255 60.1562 37.3255C55.2843 37.3255 51.321 33.3616 51.321 28.4903C51.321 27.7103 50.6887 27.0786 49.9092 27.0786Z" fill="#1AA3E0"/>
    <path d="M16.875 60.1068H24.0765C24.856 60.1068 25.4883 59.475 25.4883 58.695C25.4883 57.9155 24.856 57.2833 24.0765 57.2833H18.2016C17.5583 51.9813 13.3418 47.7642 8.03979 47.1215V40.0638C13.3418 39.4206 17.5583 35.204 18.2016 29.902H24.0765C24.856 29.902 25.4883 29.2698 25.4883 28.4903C25.4883 27.7103 24.856 27.0786 24.0765 27.0786H16.875C16.095 27.0786 15.4633 27.7103 15.4633 28.4903C15.4633 33.3616 11.4994 37.3255 6.62805 37.3255C5.84802 37.3255 5.21631 37.9572 5.21631 38.7372V48.4481C5.21631 49.2281 5.84802 49.8598 6.62805 49.8598C11.4994 49.8598 15.4633 53.8237 15.4633 58.695C15.4633 59.475 16.095 60.1068 16.875 60.1068Z" fill="#1AA3E0"/>
    <path d="M60.1562 34.9464C60.9357 34.9464 61.5679 34.3141 61.5679 33.5347V28.4903C61.5679 27.7103 60.9357 27.0786 60.1562 27.0786H55.1118C54.3318 27.0786 53.7001 27.7103 53.7001 28.4903C53.7001 32.0499 56.5961 34.9464 60.1562 34.9464ZM58.7444 29.902V31.8373C57.8749 31.4692 57.1772 30.7716 56.8092 29.902H58.7444Z" fill="#1AA3E0"/>
    <path d="M6.62805 34.9464C10.1876 34.9464 13.0842 32.0499 13.0842 28.4903C13.0842 27.7103 12.4519 27.0786 11.6724 27.0786H6.62805C5.84802 27.0786 5.21631 27.7103 5.21631 28.4903V33.5347C5.21631 34.3141 5.84802 34.9464 6.62805 34.9464ZM8.03979 29.902H9.97504C9.60699 30.7716 8.90936 31.4692 8.03979 31.8373V29.902Z" fill="#1AA3E0"/>
    <path d="M33.11 60.1068H33.2424C39.002 60.1068 43.6871 55.4211 43.6871 49.662V37.5233C43.6871 31.7642 39.002 27.0786 33.2424 27.0786H33.11C27.3505 27.0786 22.6648 31.7642 22.6648 37.5233V49.662C22.6648 55.4211 27.3505 60.1068 33.11 60.1068ZM25.4883 37.5233C25.4883 33.321 28.9072 29.902 33.1095 29.902H33.2424C37.4447 29.902 40.8636 33.321 40.8636 37.5233V49.662C40.8636 53.8643 37.4447 57.2833 33.2424 57.2833H33.1095C28.9072 57.2833 25.4883 53.8643 25.4883 49.662V37.5233Z" fill="#1AA3E0"/>
    <path d="M6.62805 52.2389C5.84802 52.2389 5.21631 52.8712 5.21631 53.6506V58.695C5.21631 59.475 5.84802 60.1068 6.62805 60.1068H11.6724C12.4519 60.1068 13.0842 59.475 13.0842 58.695C13.0842 55.1349 10.1876 52.2389 6.62805 52.2389ZM8.03979 57.2833V55.348C8.90936 55.7161 9.60699 56.4137 9.97504 57.2833H8.03979Z" fill="#1AA3E0"/>
    <path d="M60.1562 52.2389C56.5961 52.2389 53.7001 55.1349 53.7001 58.695C53.7001 59.475 54.3318 60.1068 55.1118 60.1068H60.1562C60.9357 60.1068 61.5679 59.475 61.5679 58.695V53.6506C61.5679 52.8712 60.9357 52.2389 60.1562 52.2389ZM58.7444 57.2833H56.8092C57.1772 56.4137 57.8749 55.7161 58.7444 55.348V57.2833Z" fill="#1AA3E0"/>
    <path d="M30.391 44.3375C30.8717 44.5875 31.4039 44.7649 31.9802 44.8748V48.7518C31.3842 48.2712 31.0013 47.5356 31.0013 46.7117C31.0013 45.9322 30.369 45.2999 29.5896 45.2999C28.8101 45.2999 28.1778 45.9322 28.1778 46.7117C28.1778 49.1418 29.7785 51.2045 31.9802 51.9027V52.7772C31.9802 53.5573 32.6124 54.189 33.3919 54.189C34.172 54.189 34.8037 53.5573 34.8037 52.7772V52.0252C35.8913 51.7824 36.8916 51.21 37.6524 50.3729C38.6917 49.2297 39.1334 47.7114 38.8642 46.2068C38.6038 44.7528 37.7035 43.5284 36.3934 42.8478C35.9127 42.5984 35.3799 42.4204 34.8037 42.3111V38.4335C35.4002 38.9147 35.7831 39.6497 35.7831 40.4736C35.7831 41.2531 36.4148 41.8854 37.1948 41.8854C37.9743 41.8854 38.6066 41.2531 38.6066 40.4736C38.6066 38.0435 37.0059 35.9808 34.8037 35.2826V34.4081C34.8037 33.6286 34.172 32.9963 33.3919 32.9963C32.6124 32.9963 31.9802 33.6286 31.9802 34.4081V35.1606C30.8931 35.4029 29.8928 35.9753 29.132 36.8124C28.0927 37.9556 27.651 39.4744 27.9202 40.9785C28.18 42.4325 29.0809 43.6569 30.391 44.3375ZM35.0915 45.3532C35.8122 45.7278 36.0231 46.3601 36.0847 46.704C36.1984 47.339 36.0083 47.9839 35.5628 48.4739C35.3458 48.7128 35.0866 48.904 34.8037 49.0468V45.2274C34.9042 45.2653 35.0014 45.306 35.0915 45.3532ZM31.221 38.7114C31.4386 38.4725 31.6973 38.2813 31.9802 38.1385V41.9573C31.8797 41.92 31.783 41.8788 31.6923 41.8321C30.9716 41.4575 30.7607 40.8246 30.6992 40.4808C30.5855 39.8463 30.7761 39.2009 31.221 38.7114Z" fill="#1AA3E0"/>
    <path d="M55.1118 45.0044C55.8913 45.0044 56.5236 44.3721 56.5236 43.5927C56.5236 42.8126 55.8913 42.1809 55.1118 42.1809H47.5988C46.8193 42.1809 46.1871 42.8126 46.1871 43.5927C46.1871 44.3721 46.8193 45.0044 47.5988 45.0044H55.1118Z" fill="#1AA3E0"/>
    <path d="M11.2324 42.1809C10.4524 42.1809 9.82068 42.8126 9.82068 43.5927C9.82068 44.3721 10.4524 45.0044 11.2324 45.0044H18.7449C19.5244 45.0044 20.1566 44.3721 20.1566 43.5927C20.1566 42.8126 19.5244 42.1809 18.7449 42.1809H11.2324Z" fill="#1AA3E0"/>
    <path d="M34.6728 63.0994C34.4449 62.5473 33.8747 62.1897 33.277 62.232C32.6942 62.2732 32.1927 62.6731 32.0196 63.2301C31.8483 63.7811 32.0499 64.4035 32.5052 64.7556C32.9755 65.1187 33.6341 65.1456 34.134 64.8253C34.7036 64.4611 34.9299 63.7212 34.6728 63.0994Z" fill="#1AA3E0"/>
</svg>
