<svg width="72" height="72" viewBox="0 0 72 72" fill="none" xmlns="http://www.w3.org/2000/svg">
    <path d="M47.5219 47.5241C47.5219 46.7446 46.8896 46.1124 46.1102 46.1124H17.7319C16.9525 46.1124 16.3202 46.7446 16.3202 47.5241C16.3202 48.3036 16.9525 48.9359 17.7319 48.9359H46.1102C46.8896 48.9359 47.5219 48.3036 47.5219 47.5241Z" fill="#1AA3E0"/>
    <path d="M64.4013 59.5876H58.3094V36.8525C58.3094 36.0731 57.6771 35.4408 56.8976 35.4408C56.1182 35.4408 55.4859 36.0731 55.4859 36.8525V59.5876H26.6309C25.8514 59.5876 25.2191 60.2199 25.2191 60.9994C25.2191 65.5071 21.5519 69.1749 17.0453 69.1765C12.5376 69.1749 8.87036 65.5071 8.87036 60.9994V15.0853H10.465V17.0425C10.465 17.822 11.0973 18.4543 11.8768 18.4543H19.7798C20.5593 18.4543 21.1915 17.822 21.1915 17.0425V15.0853H43.1647V17.0425C43.1647 17.822 43.797 18.4543 44.577 18.4543H52.4795C53.259 18.4543 53.8912 17.822 53.8912 17.0425V15.0853H55.4859V25.5586C55.4859 26.3381 56.1182 26.9703 56.8976 26.9703C57.6771 26.9703 58.3094 26.3381 58.3094 25.5586V13.6736C58.3094 12.8941 57.6771 12.2618 56.8976 12.2618H53.8912V10.3046C53.8912 9.52515 53.259 8.89288 52.4795 8.89288H49.94V1.41174C49.94 0.632263 49.3077 0 48.5283 0C47.7488 0 47.1165 0.632263 47.1165 1.41174V8.89288H44.577C43.7975 8.89288 43.1653 9.52515 43.1653 10.3046V12.2618H21.1915V10.3046C21.1915 9.52515 20.5593 8.89288 19.7798 8.89288H17.2403V1.41174C17.2403 0.632263 16.608 0 15.8286 0C15.0485 0 14.4163 0.632263 14.4163 1.41174V8.89288H11.8768C11.0973 8.89288 10.465 9.52515 10.465 10.3046V12.2618H7.45862C6.67914 12.2618 6.04688 12.8941 6.04688 13.6736V60.9994C6.04688 67.0589 10.9737 71.9929 17.0332 71.9995C17.0359 71.9995 17.0387 72 17.042 72H54.8119C60.878 72 65.813 67.0649 65.813 60.9994C65.813 60.2199 65.1808 59.5876 64.4013 59.5876ZM45.9882 11.7164H51.0677V15.6308H45.9882V11.7164ZM13.2885 11.7164H18.368V15.6308H13.2885V11.7164ZM54.8119 69.1765H24.3984C26.3073 67.4588 27.6141 65.083 27.958 62.4111H62.8671C62.1964 66.2498 58.8395 69.1765 54.8119 69.1765Z" fill="#1AA3E0"/>
    <path d="M17.7318 42.5682H46.1101C46.6193 42.5682 47.0895 42.2941 47.3394 41.8502C47.5899 41.4064 47.5817 40.8625 47.3185 40.4264L35.2951 20.5241C35.0391 20.1011 34.581 19.8424 34.0866 19.8424C33.5922 19.8424 33.1336 20.1011 32.8781 20.5241L28.0864 28.4557L27.129 26.8715C26.8735 26.4485 26.4149 26.1898 25.9205 26.1898C25.4261 26.1898 24.968 26.4485 24.712 26.8715L16.5233 40.4264C16.2597 40.8625 16.252 41.4064 16.5019 41.8502C16.7524 42.2941 17.2226 42.5682 17.7318 42.5682ZM34.0866 23.9848L43.6074 39.7452H34.9062L29.7355 31.1863L34.0866 23.9848ZM25.921 30.3316L31.6076 39.7452H20.234L25.921 30.3316Z" fill="#1AA3E0"/>
    <path d="M22.3764 51.1913C21.5964 51.1913 20.9647 51.8236 20.9647 52.6031C20.9647 53.3826 21.5964 54.0148 22.3764 54.0148H35.8083C36.5878 54.0148 37.22 53.3826 37.22 52.6031C37.22 51.8236 36.5878 51.1913 35.8083 51.1913H22.3764Z" fill="#1AA3E0"/>
    <path d="M42.6402 51.8198C42.3046 51.3177 41.6602 51.0749 41.078 51.2463C40.5182 51.4111 40.1095 51.9049 40.059 52.4877C40.0084 53.0738 40.3479 53.6479 40.8835 53.8879C41.4152 54.1263 42.0497 54.0137 42.4633 53.6012C42.9346 53.1315 43.0093 52.3718 42.6402 51.8198Z" fill="#1AA3E0"/>
    <path d="M58.2071 30.6656C57.9814 30.119 57.4183 29.7642 56.8278 29.796C56.2406 29.8279 55.7248 30.2333 55.5534 30.7958C55.3842 31.3506 55.5831 31.9724 56.0445 32.3251C56.5191 32.6887 57.1898 32.7112 57.688 32.3795C58.2406 32.0114 58.4609 31.2792 58.2071 30.6656Z" fill="#1AA3E0"/>
</svg>
