<svg width="375" height="320" viewBox="0 0 375 320" fill="none" xmlns="http://www.w3.org/2000/svg">
    <path d="M0 7.99999C0 3.58171 3.58172 0 8 0H367C371.418 0 375 3.58172 375 8V310H0V7.99999Z" fill="#424B62"/>
    <path d="M108.739 32.5453C108.078 32.5453 107.437 32.4577 106.815 32.2825C106.202 32.0993 105.708 31.8644 105.334 31.5776L105.991 30.1202C106.349 30.383 106.776 30.594 107.269 30.7533C107.763 30.9126 108.257 30.9923 108.751 30.9923C109.3 30.9923 109.706 30.9126 109.969 30.7533C110.232 30.5861 110.363 30.3671 110.363 30.0963C110.363 29.8972 110.284 29.7339 110.125 29.6065C109.973 29.4711 109.774 29.3635 109.527 29.2839C109.288 29.2043 108.962 29.1167 108.548 29.0211C107.91 28.8698 107.389 28.7184 106.983 28.5671C106.576 28.4158 106.226 28.1729 105.931 27.8384C105.645 27.5039 105.501 27.0579 105.501 26.5003C105.501 26.0145 105.633 25.5765 105.895 25.1862C106.158 24.788 106.553 24.4734 107.078 24.2424C107.612 24.0115 108.261 23.896 109.025 23.896C109.559 23.896 110.081 23.9597 110.59 24.0871C111.1 24.2146 111.546 24.3978 111.928 24.6367L111.331 26.1061C110.559 25.6681 109.786 25.4491 109.014 25.4491C108.472 25.4491 108.07 25.5367 107.807 25.7119C107.552 25.8871 107.425 26.1181 107.425 26.4048C107.425 26.6915 107.572 26.9065 107.867 27.0499C108.169 27.1853 108.627 27.3207 109.241 27.4561C109.878 27.6074 110.399 27.7587 110.806 27.91C111.212 28.0614 111.558 28.3003 111.845 28.6268C112.14 28.9534 112.287 29.3954 112.287 29.9529C112.287 30.4308 112.152 30.8688 111.881 31.267C111.618 31.6573 111.22 31.9679 110.686 32.1989C110.152 32.4298 109.503 32.5453 108.739 32.5453Z" fill="#9B9EA8"/>
    <path d="M113.478 25.9747H115.342V32.402H113.478V25.9747ZM114.41 25.0787C114.067 25.0787 113.789 24.9792 113.573 24.78C113.358 24.5809 113.251 24.334 113.251 24.0394C113.251 23.7447 113.358 23.4978 113.573 23.2987C113.789 23.0996 114.067 23 114.41 23C114.752 23 115.031 23.0956 115.246 23.2867C115.461 23.4779 115.569 23.7168 115.569 24.0035C115.569 24.3141 115.461 24.573 115.246 24.78C115.031 24.9792 114.752 25.0787 114.41 25.0787Z" fill="#9B9EA8"/>
    <path d="M123.702 25.9747V31.3268C123.702 32.5055 123.395 33.3816 122.782 33.955C122.168 34.5285 121.272 34.8152 120.094 34.8152C119.472 34.8152 118.883 34.7395 118.326 34.5882C117.768 34.4369 117.306 34.2178 116.94 33.9311L117.681 32.5931C117.951 32.8161 118.294 32.9913 118.708 33.1188C119.122 33.2542 119.536 33.3219 119.95 33.3219C120.595 33.3219 121.069 33.1745 121.372 32.8798C121.683 32.5931 121.838 32.1551 121.838 31.5657V31.2909C121.352 31.8245 120.675 32.0914 119.807 32.0914C119.218 32.0914 118.676 31.9639 118.182 31.7091C117.696 31.4462 117.31 31.0799 117.023 30.61C116.737 30.1401 116.593 29.5985 116.593 28.9852C116.593 28.372 116.737 27.8304 117.023 27.3605C117.31 26.8906 117.696 26.5282 118.182 26.2734C118.676 26.0105 119.218 25.8791 119.807 25.8791C120.739 25.8791 121.448 26.1858 121.933 26.799V25.9747H123.702ZM120.177 30.5622C120.671 30.5622 121.073 30.4188 121.384 30.1321C121.703 29.8374 121.862 29.4551 121.862 28.9852C121.862 28.5153 121.703 28.137 121.384 27.8503C121.073 27.5556 120.671 27.4083 120.177 27.4083C119.684 27.4083 119.277 27.5556 118.959 27.8503C118.64 28.137 118.481 28.5153 118.481 28.9852C118.481 29.4551 118.64 29.8374 118.959 30.1321C119.277 30.4188 119.684 30.5622 120.177 30.5622Z" fill="#9B9EA8"/>
    <path d="M129.343 25.8791C130.139 25.8791 130.78 26.1181 131.266 26.5959C131.76 27.0738 132.007 27.7826 132.007 28.7224V32.402H130.143V29.0091C130.143 28.4994 130.032 28.1211 129.809 27.8742C129.586 27.6193 129.263 27.4919 128.841 27.4919C128.371 27.4919 127.997 27.6393 127.718 27.9339C127.439 28.2207 127.3 28.6507 127.3 29.2242V32.402H125.436V25.9747H127.216V26.7273C127.463 26.4565 127.77 26.2495 128.136 26.1061C128.502 25.9548 128.905 25.8791 129.343 25.8791Z" fill="#9B9EA8"/>
    <path d="M140.926 32.5453C139.732 32.5453 138.8 32.2148 138.131 31.5538C137.47 30.8927 137.139 29.9489 137.139 28.7224V24.0394H139.075V28.6507C139.075 30.148 139.696 30.8967 140.938 30.8967C141.543 30.8967 142.005 30.7175 142.324 30.3591C142.643 29.9927 142.802 29.4233 142.802 28.6507V24.0394H144.713V28.7224C144.713 29.9489 144.379 30.8927 143.71 31.5538C143.049 32.2148 142.121 32.5453 140.926 32.5453Z" fill="#9B9EA8"/>
    <path d="M150.293 25.8791C150.891 25.8791 151.432 26.0185 151.918 26.2973C152.412 26.568 152.798 26.9543 153.077 27.4561C153.356 27.9499 153.495 28.5273 153.495 29.1883C153.495 29.8494 153.356 30.4308 153.077 30.9325C152.798 31.4263 152.412 31.8126 151.918 32.0914C151.432 32.3621 150.891 32.4975 150.293 32.4975C149.473 32.4975 148.828 32.2387 148.358 31.721V34.7196H146.494V25.9747H148.274V26.7154C148.736 26.1579 149.409 25.8791 150.293 25.8791ZM149.971 30.9684C150.449 30.9684 150.839 30.8091 151.142 30.4905C151.452 30.164 151.607 29.7299 151.607 29.1883C151.607 28.6468 151.452 28.2167 151.142 27.8981C150.839 27.5716 150.449 27.4083 149.971 27.4083C149.493 27.4083 149.099 27.5716 148.788 27.8981C148.485 28.2167 148.334 28.6468 148.334 29.1883C148.334 29.7299 148.485 30.164 148.788 30.4905C149.099 30.8091 149.493 30.9684 149.971 30.9684Z" fill="#9B9EA8"/>
    <g filter="url(#filter0_d)">
        <path d="M105 142.161C105 138.862 107.674 136.188 110.973 136.188H265.532C268.831 136.188 271.506 138.862 271.506 142.161V160.081C271.506 163.38 268.831 166.054 265.532 166.054H110.973C107.674 166.054 105 163.38 105 160.081V142.161Z" fill="#1AA3E0"/>
    </g>
    <path d="M167.549 154.998C166.888 154.998 166.247 154.91 165.626 154.735C165.013 154.552 164.519 154.317 164.145 154.03L164.802 152.573C165.16 152.836 165.586 153.047 166.08 153.206C166.574 153.365 167.067 153.445 167.561 153.445C168.111 153.445 168.517 153.365 168.78 153.206C169.043 153.039 169.174 152.82 169.174 152.549C169.174 152.35 169.094 152.187 168.935 152.059C168.784 151.924 168.585 151.816 168.338 151.737C168.099 151.657 167.772 151.569 167.358 151.474C166.721 151.322 166.199 151.171 165.793 151.02C165.387 150.868 165.037 150.626 164.742 150.291C164.455 149.956 164.312 149.51 164.312 148.953C164.312 148.467 164.443 148.029 164.706 147.639C164.969 147.241 165.363 146.926 165.889 146.695C166.422 146.464 167.071 146.349 167.836 146.349C168.37 146.349 168.891 146.412 169.401 146.54C169.911 146.667 170.357 146.85 170.739 147.089L170.142 148.559C169.369 148.121 168.597 147.902 167.824 147.902C167.283 147.902 166.88 147.989 166.617 148.165C166.363 148.34 166.235 148.571 166.235 148.857C166.235 149.144 166.383 149.359 166.677 149.503C166.98 149.638 167.438 149.773 168.051 149.909C168.688 150.06 169.21 150.211 169.616 150.363C170.022 150.514 170.369 150.753 170.655 151.079C170.95 151.406 171.097 151.848 171.097 152.406C171.097 152.883 170.962 153.321 170.691 153.72C170.428 154.11 170.03 154.421 169.497 154.652C168.963 154.882 168.314 154.998 167.549 154.998Z" fill="white"/>
    <path d="M172.288 148.427H174.152V154.855H172.288V148.427ZM173.22 147.531C172.878 147.531 172.599 147.432 172.384 147.233C172.169 147.034 172.061 146.787 172.061 146.492C172.061 146.197 172.169 145.95 172.384 145.751C172.599 145.552 172.878 145.453 173.22 145.453C173.563 145.453 173.842 145.548 174.057 145.739C174.272 145.931 174.379 146.169 174.379 146.456C174.379 146.767 174.272 147.026 174.057 147.233C173.842 147.432 173.563 147.531 173.22 147.531Z" fill="white"/>
    <path d="M182.512 148.427V153.779C182.512 154.958 182.205 155.834 181.592 156.408C180.979 156.981 180.083 157.268 178.904 157.268C178.283 157.268 177.694 157.192 177.136 157.041C176.579 156.89 176.117 156.67 175.75 156.384L176.491 155.046C176.762 155.269 177.104 155.444 177.518 155.571C177.933 155.707 178.347 155.774 178.761 155.774C179.406 155.774 179.88 155.627 180.183 155.332C180.493 155.046 180.648 154.608 180.648 154.018V153.744C180.163 154.277 179.486 154.544 178.618 154.544C178.028 154.544 177.487 154.417 176.993 154.162C176.507 153.899 176.121 153.533 175.834 153.063C175.547 152.593 175.404 152.051 175.404 151.438C175.404 150.825 175.547 150.283 175.834 149.813C176.121 149.343 176.507 148.981 176.993 148.726C177.487 148.463 178.028 148.332 178.618 148.332C179.549 148.332 180.258 148.638 180.744 149.252V148.427H182.512ZM178.988 153.015C179.482 153.015 179.884 152.871 180.194 152.585C180.513 152.29 180.672 151.908 180.672 151.438C180.672 150.968 180.513 150.59 180.194 150.303C179.884 150.008 179.482 149.861 178.988 149.861C178.494 149.861 178.088 150.008 177.769 150.303C177.451 150.59 177.291 150.968 177.291 151.438C177.291 151.908 177.451 152.29 177.769 152.585C178.088 152.871 178.494 153.015 178.988 153.015Z" fill="white"/>
    <path d="M188.153 148.332C188.95 148.332 189.591 148.571 190.077 149.049C190.57 149.526 190.817 150.235 190.817 151.175V154.855H188.954V151.462C188.954 150.952 188.842 150.574 188.619 150.327C188.396 150.072 188.074 149.945 187.651 149.945C187.182 149.945 186.807 150.092 186.529 150.387C186.25 150.673 186.11 151.103 186.11 151.677V154.855H184.247V148.427H186.027V149.18C186.274 148.909 186.58 148.702 186.947 148.559C187.313 148.407 187.715 148.332 188.153 148.332Z" fill="white"/>
    <path d="M199.737 154.998C198.542 154.998 197.61 154.667 196.941 154.006C196.28 153.345 195.95 152.402 195.95 151.175V146.492H197.885V151.103C197.885 152.601 198.506 153.349 199.749 153.349C200.354 153.349 200.816 153.17 201.135 152.812C201.453 152.445 201.612 151.876 201.612 151.103V146.492H203.524V151.175C203.524 152.402 203.189 153.345 202.52 154.006C201.859 154.667 200.931 154.998 199.737 154.998Z" fill="white"/>
    <path d="M209.104 148.332C209.701 148.332 210.243 148.471 210.729 148.75C211.222 149.021 211.609 149.407 211.887 149.909C212.166 150.403 212.306 150.98 212.306 151.641C212.306 152.302 212.166 152.883 211.887 153.385C211.609 153.879 211.222 154.265 210.729 154.544C210.243 154.815 209.701 154.95 209.104 154.95C208.284 154.95 207.638 154.691 207.169 154.174V157.172H205.305V148.427H207.085V149.168C207.547 148.611 208.22 148.332 209.104 148.332ZM208.781 153.421C209.259 153.421 209.649 153.262 209.952 152.943C210.263 152.617 210.418 152.183 210.418 151.641C210.418 151.099 210.263 150.669 209.952 150.351C209.649 150.024 209.259 149.861 208.781 149.861C208.303 149.861 207.909 150.024 207.599 150.351C207.296 150.669 207.145 151.099 207.145 151.641C207.145 152.183 207.296 152.617 207.599 152.943C207.909 153.262 208.303 153.421 208.781 153.421Z" fill="white"/>
    <g filter="url(#filter1_d)">
        <path fill-rule="evenodd" clip-rule="evenodd" d="M265.532 260.88H110.973C108.087 260.88 105.747 263.22 105.747 266.107V284.027C105.747 286.914 108.087 289.254 110.973 289.254H265.532C268.419 289.254 270.759 286.914 270.759 284.027V266.107C270.759 263.22 268.419 260.88 265.532 260.88ZM110.973 260.134C107.674 260.134 105 262.808 105 266.107V284.027C105 287.326 107.674 290 110.973 290H265.532C268.831 290 271.506 287.326 271.506 284.027V266.107C271.506 262.808 268.831 260.134 265.532 260.134H110.973Z" fill="#1AA3E0"/>
    </g>
    <path d="M172.443 270.736H173.802V276.904H177.628V278.054H172.443V270.736Z" fill="#1AA3E0"/>
    <path d="M181.033 278.127C180.469 278.127 179.96 278.005 179.507 277.761C179.054 277.517 178.699 277.179 178.441 276.747C178.19 276.308 178.065 275.813 178.065 275.263C178.065 274.712 178.19 274.221 178.441 273.789C178.699 273.357 179.054 273.019 179.507 272.775C179.96 272.531 180.469 272.409 181.033 272.409C181.605 272.409 182.117 272.531 182.57 272.775C183.023 273.019 183.375 273.357 183.626 273.789C183.884 274.221 184.013 274.712 184.013 275.263C184.013 275.813 183.884 276.308 183.626 276.747C183.375 277.179 183.023 277.517 182.57 277.761C182.117 278.005 181.605 278.127 181.033 278.127ZM181.033 277.008C181.514 277.008 181.911 276.848 182.225 276.527C182.539 276.207 182.695 275.785 182.695 275.263C182.695 274.74 182.539 274.318 182.225 273.998C181.911 273.677 181.514 273.517 181.033 273.517C180.552 273.517 180.155 273.677 179.842 273.998C179.535 274.318 179.382 274.74 179.382 275.263C179.382 275.785 179.535 276.207 179.842 276.527C180.155 276.848 180.552 277.008 181.033 277.008Z" fill="#1AA3E0"/>
    <path d="M190.802 272.472V277.207C190.802 279.172 189.799 280.155 187.792 280.155C187.255 280.155 186.746 280.085 186.266 279.946C185.785 279.813 185.387 279.618 185.074 279.36L185.659 278.378C185.903 278.58 186.21 278.74 186.579 278.859C186.955 278.984 187.335 279.047 187.719 279.047C188.332 279.047 188.781 278.907 189.067 278.629C189.353 278.35 189.496 277.925 189.496 277.353V277.061C189.273 277.304 189.001 277.489 188.68 277.615C188.36 277.74 188.008 277.803 187.624 277.803C187.095 277.803 186.614 277.691 186.182 277.468C185.757 277.238 185.419 276.918 185.168 276.507C184.924 276.095 184.802 275.625 184.802 275.095C184.802 274.566 184.924 274.099 185.168 273.695C185.419 273.283 185.757 272.966 186.182 272.743C186.614 272.52 187.095 272.409 187.624 272.409C188.029 272.409 188.394 272.475 188.722 272.607C189.057 272.74 189.335 272.942 189.558 273.214V272.472H190.802ZM187.823 276.695C188.318 276.695 188.722 276.548 189.036 276.256C189.356 275.956 189.516 275.569 189.516 275.095C189.516 274.628 189.356 274.249 189.036 273.956C188.722 273.663 188.318 273.517 187.823 273.517C187.321 273.517 186.91 273.663 186.59 273.956C186.276 274.249 186.119 274.628 186.119 275.095C186.119 275.569 186.276 275.956 186.59 276.256C186.91 276.548 187.321 276.695 187.823 276.695Z" fill="#1AA3E0"/>
    <path d="M195.534 270.736H196.893V278.054H195.534V270.736Z" fill="#1AA3E0"/>
    <path d="M201.914 272.409C202.618 272.409 203.183 272.614 203.608 273.026C204.033 273.437 204.246 274.047 204.246 274.855V278.054H202.939V275.022C202.939 274.534 202.824 274.168 202.594 273.925C202.364 273.674 202.036 273.548 201.611 273.548C201.13 273.548 200.751 273.695 200.472 273.987C200.193 274.273 200.054 274.688 200.054 275.231V278.054H198.747V272.472H199.991V273.193C200.207 272.935 200.479 272.74 200.806 272.607C201.134 272.475 201.503 272.409 201.914 272.409Z" fill="#1AA3E0"/>
    <path d="M186.283 247.503C185.799 247.503 185.363 247.399 184.975 247.19C184.586 246.98 184.282 246.691 184.061 246.32C183.846 245.944 183.738 245.52 183.738 245.048C183.738 244.576 183.846 244.155 184.061 243.785C184.282 243.414 184.586 243.125 184.975 242.916C185.363 242.707 185.799 242.602 186.283 242.602C186.773 242.602 187.212 242.707 187.6 242.916C187.988 243.125 188.29 243.414 188.505 243.785C188.726 244.155 188.836 244.576 188.836 245.048C188.836 245.52 188.726 245.944 188.505 246.32C188.29 246.691 187.988 246.98 187.6 247.19C187.212 247.399 186.773 247.503 186.283 247.503ZM186.283 246.544C186.695 246.544 187.036 246.407 187.304 246.132C187.573 245.857 187.708 245.496 187.708 245.048C187.708 244.6 187.573 244.239 187.304 243.964C187.036 243.689 186.695 243.552 186.283 243.552C185.871 243.552 185.53 243.689 185.261 243.964C184.999 244.239 184.867 244.6 184.867 245.048C184.867 245.496 184.999 245.857 185.261 246.132C185.53 246.407 185.871 246.544 186.283 246.544Z" fill="#8890A7"/>
    <path d="M190.974 243.355C191.296 242.853 191.864 242.602 192.676 242.602V243.668C192.581 243.65 192.494 243.641 192.416 243.641C191.98 243.641 191.64 243.77 191.395 244.027C191.15 244.278 191.027 244.642 191.027 245.12V247.44H189.907V242.656H190.974V243.355Z" fill="#8890A7"/>
    <g clip-path="url(#clip0)">
        <path opacity="0.15" d="M105 58.5348C105 55.2359 107.682 52.5615 110.991 52.5615H266.009C269.318 52.5615 272 55.2359 272 58.5348V76.4547C272 79.7537 269.318 82.428 266.009 82.428H110.991C107.682 82.428 105 79.7537 105 76.4547V58.5348Z" fill="white"/>
    </g>
    <g clip-path="url(#clip1)">
        <path opacity="0.15" d="M105 100.348C105 97.0488 107.682 94.3745 110.991 94.3745H266.009C269.318 94.3745 272 97.0488 272 100.348V118.268C272 121.567 269.318 124.241 266.009 124.241H110.991C107.682 124.241 105 121.567 105 118.268V100.348Z" fill="white"/>
    </g>
    <path opacity="0.5" fill-rule="evenodd" clip-rule="evenodd" d="M179.666 245.2H105V244.454H179.666V245.2Z" fill="#98A4C4"/>
    <path opacity="0.5" fill-rule="evenodd" clip-rule="evenodd" d="M271.506 245.2H196.84V244.454H271.506V245.2Z" fill="#98A4C4"/>
    <path d="M123.86 183.676H124.756V189.948H123.86V183.676Z" fill="white"/>
    <path d="M130.644 185.154C131.301 185.154 131.803 185.315 132.149 185.638C132.501 185.96 132.678 186.441 132.678 187.08V189.948H131.862V189.32C131.719 189.541 131.513 189.712 131.244 189.831C130.981 189.945 130.668 190.001 130.303 190.001C129.772 190.001 129.345 189.873 129.022 189.616C128.705 189.359 128.547 189.022 128.547 188.604C128.547 188.186 128.699 187.851 129.004 187.6C129.309 187.343 129.793 187.215 130.456 187.215H131.818V187.045C131.818 186.674 131.71 186.391 131.495 186.193C131.28 185.996 130.963 185.898 130.545 185.898C130.264 185.898 129.99 185.946 129.721 186.041C129.452 186.131 129.225 186.253 129.04 186.408L128.682 185.763C128.926 185.566 129.219 185.417 129.56 185.315C129.9 185.208 130.261 185.154 130.644 185.154ZM130.447 189.338C130.775 189.338 131.059 189.267 131.298 189.123C131.537 188.974 131.71 188.765 131.818 188.496V187.833H130.491C129.763 187.833 129.398 188.078 129.398 188.568C129.398 188.807 129.491 188.995 129.676 189.132C129.861 189.27 130.118 189.338 130.447 189.338Z" fill="white"/>
    <path d="M140.21 185.154C140.807 185.154 141.279 185.327 141.626 185.674C141.978 186.02 142.154 186.534 142.154 187.215V189.948H141.294V187.313C141.294 186.853 141.187 186.507 140.972 186.274C140.762 186.041 140.461 185.925 140.067 185.925C139.631 185.925 139.284 186.062 139.027 186.337C138.77 186.606 138.642 186.994 138.642 187.502V189.948H137.782V187.313C137.782 186.853 137.674 186.507 137.459 186.274C137.25 186.041 136.948 185.925 136.554 185.925C136.118 185.925 135.772 186.062 135.515 186.337C135.258 186.606 135.13 186.994 135.13 187.502V189.948H134.269V185.199H135.094V185.907C135.267 185.662 135.494 185.477 135.775 185.351C136.055 185.22 136.375 185.154 136.733 185.154C137.104 185.154 137.432 185.229 137.719 185.378C138.006 185.527 138.227 185.745 138.382 186.032C138.561 185.757 138.809 185.542 139.126 185.387C139.448 185.232 139.81 185.154 140.21 185.154Z" fill="white"/>
    <path d="M148.177 190.001C147.705 190.001 147.281 189.897 146.905 189.688C146.528 189.479 146.233 189.192 146.018 188.828C145.809 188.457 145.704 188.039 145.704 187.573C145.704 187.107 145.809 186.692 146.018 186.328C146.233 185.957 146.528 185.671 146.905 185.468C147.281 185.259 147.705 185.154 148.177 185.154C148.649 185.154 149.07 185.259 149.44 185.468C149.817 185.671 150.109 185.957 150.318 186.328C150.534 186.692 150.641 187.107 150.641 187.573C150.641 188.039 150.534 188.457 150.318 188.828C150.109 189.192 149.817 189.479 149.44 189.688C149.07 189.897 148.649 190.001 148.177 190.001ZM148.177 189.249C148.482 189.249 148.753 189.18 148.992 189.043C149.237 188.899 149.428 188.702 149.566 188.451C149.703 188.194 149.772 187.902 149.772 187.573C149.772 187.245 149.703 186.955 149.566 186.704C149.428 186.447 149.237 186.25 148.992 186.113C148.753 185.975 148.482 185.907 148.177 185.907C147.872 185.907 147.598 185.975 147.353 186.113C147.114 186.25 146.923 186.447 146.779 186.704C146.642 186.955 146.573 187.245 146.573 187.573C146.573 187.902 146.642 188.194 146.779 188.451C146.923 188.702 147.114 188.899 147.353 189.043C147.598 189.18 147.872 189.249 148.177 189.249Z" fill="white"/>
    <path d="M153.569 183.953C153.055 183.953 152.798 184.231 152.798 184.787V185.199H154.178V185.907H152.816V189.948H151.956V185.907H151.15V185.199H151.956V184.778C151.956 184.306 152.093 183.933 152.368 183.658C152.643 183.383 153.028 183.246 153.524 183.246C153.715 183.246 153.894 183.269 154.062 183.317C154.229 183.365 154.372 183.434 154.492 183.523L154.232 184.177C154.035 184.028 153.814 183.953 153.569 183.953Z" fill="white"/>
    <path d="M157.396 183.299H158.256V189.948H157.396V183.299Z" fill="white"/>
    <path d="M164.19 187.6C164.19 187.666 164.184 187.752 164.172 187.86H160.319C160.373 188.278 160.555 188.616 160.866 188.872C161.182 189.123 161.574 189.249 162.039 189.249C162.607 189.249 163.064 189.058 163.41 188.675L163.885 189.231C163.67 189.482 163.401 189.673 163.079 189.804C162.762 189.936 162.407 190.001 162.013 190.001C161.511 190.001 161.066 189.9 160.678 189.697C160.289 189.488 159.988 189.198 159.773 188.828C159.564 188.457 159.459 188.039 159.459 187.573C159.459 187.113 159.561 186.698 159.764 186.328C159.973 185.957 160.256 185.671 160.615 185.468C160.979 185.259 161.388 185.154 161.842 185.154C162.296 185.154 162.7 185.259 163.052 185.468C163.41 185.671 163.688 185.957 163.885 186.328C164.088 186.698 164.19 187.122 164.19 187.6ZM161.842 185.88C161.43 185.88 161.084 186.005 160.803 186.256C160.528 186.507 160.367 186.836 160.319 187.242H163.366C163.318 186.842 163.153 186.516 162.873 186.265C162.598 186.008 162.255 185.88 161.842 185.88Z" fill="white"/>
    <path d="M169.927 185.199V189.303C169.927 190.133 169.721 190.745 169.309 191.139C168.897 191.54 168.281 191.74 167.463 191.74C167.015 191.74 166.588 191.677 166.182 191.551C165.776 191.432 165.447 191.259 165.196 191.032L165.608 190.369C165.829 190.56 166.101 190.709 166.424 190.817C166.752 190.93 167.09 190.987 167.436 190.987C167.992 190.987 168.401 190.856 168.664 190.593C168.932 190.33 169.067 189.93 169.067 189.392V189.016C168.864 189.261 168.613 189.446 168.314 189.571C168.021 189.691 167.702 189.751 167.355 189.751C166.901 189.751 166.489 189.655 166.119 189.464C165.755 189.267 165.468 188.995 165.259 188.648C165.05 188.296 164.945 187.896 164.945 187.448C164.945 187 165.05 186.603 165.259 186.256C165.468 185.904 165.755 185.632 166.119 185.441C166.489 185.25 166.901 185.154 167.355 185.154C167.714 185.154 168.045 185.22 168.35 185.351C168.661 185.483 168.914 185.677 169.112 185.934V185.199H169.927ZM167.454 188.998C167.765 188.998 168.042 188.932 168.287 188.801C168.538 188.669 168.732 188.487 168.87 188.254C169.013 188.015 169.085 187.746 169.085 187.448C169.085 186.988 168.932 186.618 168.628 186.337C168.323 186.05 167.932 185.907 167.454 185.907C166.97 185.907 166.576 186.05 166.271 186.337C165.967 186.618 165.814 186.988 165.814 187.448C165.814 187.746 165.883 188.015 166.02 188.254C166.164 188.487 166.358 188.669 166.603 188.801C166.854 188.932 167.137 188.998 167.454 188.998Z" fill="white"/>
    <path d="M173.3 185.154C173.957 185.154 174.459 185.315 174.805 185.638C175.157 185.96 175.334 186.441 175.334 187.08V189.948H174.518V189.32C174.375 189.541 174.169 189.712 173.9 189.831C173.637 189.945 173.324 190.001 172.959 190.001C172.428 190.001 172.001 189.873 171.678 189.616C171.361 189.359 171.203 189.022 171.203 188.604C171.203 188.186 171.355 187.851 171.66 187.6C171.965 187.343 172.449 187.215 173.112 187.215H174.473V187.045C174.473 186.674 174.366 186.391 174.151 186.193C173.936 185.996 173.619 185.898 173.201 185.898C172.92 185.898 172.646 185.946 172.377 186.041C172.108 186.131 171.881 186.253 171.696 186.408L171.338 185.763C171.582 185.566 171.875 185.417 172.216 185.315C172.556 185.208 172.917 185.154 173.3 185.154ZM173.103 189.338C173.431 189.338 173.715 189.267 173.954 189.123C174.193 188.974 174.366 188.765 174.473 188.496V187.833H173.147C172.419 187.833 172.054 188.078 172.054 188.568C172.054 188.807 172.147 188.995 172.332 189.132C172.517 189.27 172.774 189.338 173.103 189.338Z" fill="white"/>
    <path d="M176.925 183.299H177.786V189.948H176.925V183.299Z" fill="white"/>
    <path d="M183.563 185.154C184.22 185.154 184.722 185.315 185.069 185.638C185.421 185.96 185.597 186.441 185.597 187.08V189.948H184.782V189.32C184.639 189.541 184.433 189.712 184.164 189.831C183.901 189.945 183.587 190.001 183.223 190.001C182.691 190.001 182.264 189.873 181.942 189.616C181.625 189.359 181.467 189.022 181.467 188.604C181.467 188.186 181.619 187.851 181.924 187.6C182.228 187.343 182.712 187.215 183.375 187.215H184.737V187.045C184.737 186.674 184.63 186.391 184.415 186.193C184.2 185.996 183.883 185.898 183.465 185.898C183.184 185.898 182.909 185.946 182.641 186.041C182.372 186.131 182.145 186.253 181.96 186.408L181.601 185.763C181.846 185.566 182.139 185.417 182.479 185.315C182.82 185.208 183.181 185.154 183.563 185.154ZM183.366 189.338C183.695 189.338 183.979 189.267 184.217 189.123C184.456 188.974 184.63 188.765 184.737 188.496V187.833H183.411C182.682 187.833 182.318 188.078 182.318 188.568C182.318 188.807 182.411 188.995 182.596 189.132C182.781 189.27 183.038 189.338 183.366 189.338Z" fill="white"/>
    <path d="M191.758 185.199V189.303C191.758 190.133 191.552 190.745 191.14 191.139C190.728 191.54 190.112 191.74 189.294 191.74C188.846 191.74 188.419 191.677 188.013 191.551C187.607 191.432 187.278 191.259 187.027 191.032L187.439 190.369C187.66 190.56 187.932 190.709 188.255 190.817C188.583 190.93 188.921 190.987 189.267 190.987C189.823 190.987 190.232 190.856 190.495 190.593C190.764 190.33 190.898 189.93 190.898 189.392V189.016C190.695 189.261 190.444 189.446 190.145 189.571C189.853 189.691 189.533 189.751 189.187 189.751C188.733 189.751 188.32 189.655 187.95 189.464C187.586 189.267 187.299 188.995 187.09 188.648C186.881 188.296 186.776 187.896 186.776 187.448C186.776 187 186.881 186.603 187.09 186.256C187.299 185.904 187.586 185.632 187.95 185.441C188.32 185.25 188.733 185.154 189.187 185.154C189.545 185.154 189.876 185.22 190.181 185.351C190.492 185.483 190.746 185.677 190.943 185.934V185.199H191.758ZM189.285 188.998C189.596 188.998 189.873 188.932 190.118 188.801C190.369 188.669 190.563 188.487 190.701 188.254C190.844 188.015 190.916 187.746 190.916 187.448C190.916 186.988 190.763 186.618 190.459 186.337C190.154 186.05 189.763 185.907 189.285 185.907C188.801 185.907 188.407 186.05 188.102 186.337C187.798 186.618 187.645 186.988 187.645 187.448C187.645 187.746 187.714 188.015 187.852 188.254C187.995 188.487 188.189 188.669 188.434 188.801C188.685 188.932 188.969 188.998 189.285 188.998Z" fill="white"/>
    <path d="M197.693 187.6C197.693 187.666 197.687 187.752 197.675 187.86H193.823C193.876 188.278 194.059 188.616 194.369 188.872C194.686 189.123 195.077 189.249 195.543 189.249C196.11 189.249 196.567 189.058 196.914 188.675L197.389 189.231C197.174 189.482 196.905 189.673 196.582 189.804C196.266 189.936 195.91 190.001 195.516 190.001C195.014 190.001 194.569 189.9 194.181 189.697C193.793 189.488 193.491 189.198 193.276 188.828C193.067 188.457 192.963 188.039 192.963 187.573C192.963 187.113 193.064 186.698 193.267 186.328C193.476 185.957 193.76 185.671 194.118 185.468C194.483 185.259 194.892 185.154 195.346 185.154C195.8 185.154 196.203 185.259 196.555 185.468C196.914 185.671 197.192 185.957 197.389 186.328C197.592 186.698 197.693 187.122 197.693 187.6ZM195.346 185.88C194.934 185.88 194.587 186.005 194.307 186.256C194.032 186.507 193.87 186.836 193.823 187.242H196.869C196.821 186.842 196.657 186.516 196.376 186.265C196.102 186.008 195.758 185.88 195.346 185.88Z" fill="white"/>
    <path d="M203.023 185.154C203.68 185.154 204.182 185.315 204.529 185.638C204.881 185.96 205.057 186.441 205.057 187.08V189.948H204.242V189.32C204.098 189.541 203.892 189.712 203.624 189.831C203.361 189.945 203.047 190.001 202.683 190.001C202.151 190.001 201.724 189.873 201.402 189.616C201.085 189.359 200.927 189.022 200.927 188.604C200.927 188.186 201.079 187.851 201.384 187.6C201.688 187.343 202.172 187.215 202.835 187.215H204.197V187.045C204.197 186.674 204.09 186.391 203.874 186.193C203.659 185.996 203.343 185.898 202.925 185.898C202.644 185.898 202.369 185.946 202.1 186.041C201.832 186.131 201.605 186.253 201.419 186.408L201.061 185.763C201.306 185.566 201.599 185.417 201.939 185.315C202.28 185.208 202.641 185.154 203.023 185.154ZM202.826 189.338C203.155 189.338 203.438 189.267 203.677 189.123C203.916 188.974 204.09 188.765 204.197 188.496V187.833H202.871C202.142 187.833 201.778 188.078 201.778 188.568C201.778 188.807 201.87 188.995 202.056 189.132C202.241 189.27 202.498 189.338 202.826 189.338Z" fill="white"/>
    <path d="M209.185 185.154C209.788 185.154 210.266 185.33 210.618 185.683C210.977 186.029 211.156 186.54 211.156 187.215V189.948H210.296V187.313C210.296 186.853 210.185 186.507 209.964 186.274C209.743 186.041 209.427 185.925 209.014 185.925C208.548 185.925 208.181 186.062 207.912 186.337C207.644 186.606 207.509 186.994 207.509 187.502V189.948H206.649V185.199H207.473V185.916C207.647 185.671 207.879 185.483 208.172 185.351C208.471 185.22 208.808 185.154 209.185 185.154Z" fill="white"/>
    <path d="M217.254 183.299V189.948H216.43V189.195C216.238 189.458 215.997 189.658 215.704 189.795C215.411 189.933 215.089 190.001 214.736 190.001C214.276 190.001 213.864 189.9 213.5 189.697C213.135 189.494 212.849 189.21 212.64 188.846C212.436 188.475 212.335 188.051 212.335 187.573C212.335 187.095 212.436 186.674 212.64 186.31C212.849 185.946 213.135 185.662 213.5 185.459C213.864 185.256 214.276 185.154 214.736 185.154C215.077 185.154 215.39 185.22 215.677 185.351C215.964 185.477 216.203 185.665 216.394 185.916V183.299H217.254ZM214.808 189.249C215.107 189.249 215.378 189.18 215.623 189.043C215.868 188.899 216.059 188.702 216.197 188.451C216.334 188.194 216.403 187.902 216.403 187.573C216.403 187.245 216.334 186.955 216.197 186.704C216.059 186.447 215.868 186.25 215.623 186.113C215.378 185.975 215.107 185.907 214.808 185.907C214.503 185.907 214.228 185.975 213.984 186.113C213.745 186.25 213.553 186.447 213.41 186.704C213.273 186.955 213.204 187.245 213.204 187.573C213.204 187.902 213.273 188.194 213.41 188.451C213.553 188.702 213.745 188.899 213.984 189.043C214.228 189.18 214.503 189.249 214.808 189.249Z" fill="white"/>
    <path d="M221.413 183.676H222.309V189.948H221.413V183.676Z" fill="white"/>
    <path d="M229.003 185.154C229.607 185.154 230.084 185.33 230.437 185.683C230.795 186.029 230.974 186.54 230.974 187.215V189.948H230.114V187.313C230.114 186.853 230.004 186.507 229.783 186.274C229.562 186.041 229.245 185.925 228.833 185.925C228.367 185.925 228 186.062 227.731 186.337C227.462 186.606 227.328 186.994 227.328 187.502V189.948H226.468V183.299H227.328V185.871C227.507 185.644 227.74 185.468 228.027 185.342C228.319 185.217 228.645 185.154 229.003 185.154Z" fill="white"/>
    <path d="M234.296 185.154C234.953 185.154 235.454 185.315 235.801 185.638C236.153 185.96 236.329 186.441 236.329 187.08V189.948H235.514V189.32C235.371 189.541 235.165 189.712 234.896 189.831C234.633 189.945 234.319 190.001 233.955 190.001C233.423 190.001 232.996 189.873 232.674 189.616C232.357 189.359 232.199 189.022 232.199 188.604C232.199 188.186 232.351 187.851 232.656 187.6C232.961 187.343 233.444 187.215 234.107 187.215H235.469V187.045C235.469 186.674 235.362 186.391 235.147 186.193C234.932 185.996 234.615 185.898 234.197 185.898C233.916 185.898 233.641 185.946 233.373 186.041C233.104 186.131 232.877 186.253 232.692 186.408L232.333 185.763C232.578 185.566 232.871 185.417 233.211 185.315C233.552 185.208 233.913 185.154 234.296 185.154ZM234.098 189.338C234.427 189.338 234.711 189.267 234.95 189.123C235.189 188.974 235.362 188.765 235.469 188.496V187.833H234.143C233.415 187.833 233.05 188.078 233.05 188.568C233.05 188.807 233.143 188.995 233.328 189.132C233.513 189.27 233.77 189.338 234.098 189.338Z" fill="white"/>
    <path d="M242.036 185.199L239.957 189.948H239.079L237 185.199H237.896L239.527 189.007L241.194 185.199H242.036Z" fill="white"/>
    <path d="M246.999 187.6C246.999 187.666 246.993 187.752 246.981 187.86H243.129C243.182 188.278 243.365 188.616 243.675 188.872C243.992 189.123 244.383 189.249 244.849 189.249C245.416 189.249 245.873 189.058 246.22 188.675L246.695 189.231C246.48 189.482 246.211 189.673 245.888 189.804C245.572 189.936 245.216 190.001 244.822 190.001C244.32 190.001 243.875 189.9 243.487 189.697C243.099 189.488 242.797 189.198 242.582 188.828C242.373 188.457 242.268 188.039 242.268 187.573C242.268 187.113 242.37 186.698 242.573 186.328C242.782 185.957 243.066 185.671 243.424 185.468C243.789 185.259 244.198 185.154 244.652 185.154C245.106 185.154 245.509 185.259 245.861 185.468C246.22 185.671 246.498 185.957 246.695 186.328C246.898 186.698 246.999 187.122 246.999 187.6ZM244.652 185.88C244.24 185.88 243.893 186.005 243.612 186.256C243.338 186.507 243.176 186.836 243.129 187.242H246.175C246.127 186.842 245.963 186.516 245.682 186.265C245.407 186.008 245.064 185.88 244.652 185.88Z" fill="white"/>
    <path d="M251.424 185.996C251.574 185.722 251.795 185.512 252.087 185.369C252.38 185.226 252.735 185.154 253.154 185.154V185.987C253.106 185.981 253.04 185.978 252.956 185.978C252.49 185.978 252.123 186.119 251.854 186.4C251.591 186.674 251.46 187.069 251.46 187.582V189.948H250.6V185.199H251.424V185.996Z" fill="white"/>
    <path d="M258.462 187.6C258.462 187.666 258.456 187.752 258.444 187.86H254.591C254.645 188.278 254.827 188.616 255.138 188.872C255.454 189.123 255.845 189.249 256.311 189.249C256.879 189.249 257.336 189.058 257.682 188.675L258.157 189.231C257.942 189.482 257.673 189.673 257.351 189.804C257.034 189.936 256.679 190.001 256.284 190.001C255.783 190.001 255.338 189.9 254.949 189.697C254.561 189.488 254.26 189.198 254.044 188.828C253.835 188.457 253.731 188.039 253.731 187.573C253.731 187.113 253.832 186.698 254.036 186.328C254.245 185.957 254.528 185.671 254.887 185.468C255.251 185.259 255.66 185.154 256.114 185.154C256.568 185.154 256.971 185.259 257.324 185.468C257.682 185.671 257.96 185.957 258.157 186.328C258.36 186.698 258.462 187.122 258.462 187.6ZM256.114 185.88C255.702 185.88 255.356 186.005 255.075 186.256C254.8 186.507 254.639 186.836 254.591 187.242H257.637C257.59 186.842 257.425 186.516 257.145 186.265C256.87 186.008 256.526 185.88 256.114 185.88Z" fill="white"/>
    <path d="M261.254 185.154C261.911 185.154 262.413 185.315 262.759 185.638C263.112 185.96 263.288 186.441 263.288 187.08V189.948H262.473V189.32C262.329 189.541 262.123 189.712 261.854 189.831C261.592 189.945 261.278 190.001 260.914 190.001C260.382 190.001 259.955 189.873 259.632 189.616C259.316 189.359 259.158 189.022 259.158 188.604C259.158 188.186 259.31 187.851 259.614 187.6C259.919 187.343 260.403 187.215 261.066 187.215H262.428V187.045C262.428 186.674 262.32 186.391 262.105 186.193C261.89 185.996 261.574 185.898 261.156 185.898C260.875 185.898 260.6 185.946 260.331 186.041C260.062 186.131 259.835 186.253 259.65 186.408L259.292 185.763C259.537 185.566 259.829 185.417 260.17 185.315C260.51 185.208 260.872 185.154 261.254 185.154ZM261.057 189.338C261.386 189.338 261.669 189.267 261.908 189.123C262.147 188.974 262.32 188.765 262.428 188.496V187.833H261.102C260.373 187.833 260.009 188.078 260.009 188.568C260.009 188.807 260.101 188.995 260.286 189.132C260.472 189.27 260.728 189.338 261.057 189.338Z" fill="white"/>
    <path d="M269.386 183.299V189.948H268.562V189.195C268.371 189.458 268.129 189.658 267.836 189.795C267.543 189.933 267.221 190.001 266.868 190.001C266.408 190.001 265.996 189.9 265.632 189.697C265.267 189.494 264.981 189.21 264.772 188.846C264.569 188.475 264.467 188.051 264.467 187.573C264.467 187.095 264.569 186.674 264.772 186.31C264.981 185.946 265.267 185.662 265.632 185.459C265.996 185.256 266.408 185.154 266.868 185.154C267.209 185.154 267.522 185.22 267.809 185.351C268.096 185.477 268.335 185.665 268.526 185.916V183.299H269.386ZM266.94 189.249C267.239 189.249 267.51 189.18 267.755 189.043C268 188.899 268.191 188.702 268.329 188.451C268.466 188.194 268.535 187.902 268.535 187.573C268.535 187.245 268.466 186.955 268.329 186.704C268.191 186.447 268 186.25 267.755 186.113C267.51 185.975 267.239 185.907 266.94 185.907C266.635 185.907 266.361 185.975 266.116 186.113C265.877 186.25 265.686 186.447 265.542 186.704C265.405 186.955 265.336 187.245 265.336 187.573C265.336 187.902 265.405 188.194 265.542 188.451C265.686 188.702 265.877 188.899 266.116 189.043C266.361 189.18 266.635 189.249 266.94 189.249Z" fill="white"/>
    <path d="M125.464 196.354C126.121 196.354 126.623 196.515 126.969 196.838C127.322 197.16 127.498 197.641 127.498 198.28V201.148H126.682V200.52C126.539 200.741 126.333 200.912 126.064 201.031C125.801 201.145 125.488 201.201 125.123 201.201C124.592 201.201 124.165 201.073 123.842 200.816C123.525 200.559 123.367 200.222 123.367 199.804C123.367 199.385 123.52 199.051 123.824 198.8C124.129 198.543 124.613 198.415 125.276 198.415H126.638V198.245C126.638 197.874 126.53 197.59 126.315 197.393C126.1 197.196 125.783 197.098 125.365 197.098C125.085 197.098 124.81 197.145 124.541 197.241C124.272 197.331 124.045 197.453 123.86 197.608L123.502 196.963C123.746 196.766 124.039 196.617 124.38 196.515C124.72 196.408 125.082 196.354 125.464 196.354ZM125.267 200.538C125.595 200.538 125.879 200.467 126.118 200.323C126.357 200.174 126.53 199.965 126.638 199.696V199.033H125.311C124.583 199.033 124.218 199.278 124.218 199.768C124.218 200.007 124.311 200.195 124.496 200.332C124.681 200.47 124.938 200.538 125.267 200.538Z" fill="white"/>
    <path d="M131.625 196.354C132.228 196.354 132.706 196.53 133.059 196.883C133.417 197.229 133.596 197.74 133.596 198.415V201.148H132.736V198.513C132.736 198.053 132.626 197.707 132.405 197.474C132.184 197.241 131.867 197.125 131.455 197.125C130.989 197.125 130.622 197.262 130.353 197.537C130.084 197.806 129.95 198.194 129.95 198.701V201.148H129.09V196.399H129.914V197.116C130.087 196.871 130.32 196.683 130.613 196.551C130.911 196.42 131.249 196.354 131.625 196.354Z" fill="white"/>
    <path d="M139.694 194.499V201.148H138.87V200.395C138.679 200.658 138.437 200.858 138.144 200.995C137.852 201.133 137.529 201.201 137.177 201.201C136.717 201.201 136.305 201.1 135.94 200.897C135.576 200.694 135.289 200.41 135.08 200.045C134.877 199.675 134.775 199.251 134.775 198.773C134.775 198.295 134.877 197.874 135.08 197.51C135.289 197.145 135.576 196.862 135.94 196.659C136.305 196.456 136.717 196.354 137.177 196.354C137.517 196.354 137.831 196.42 138.117 196.551C138.404 196.677 138.643 196.865 138.834 197.116V194.499H139.694ZM137.248 200.449C137.547 200.449 137.819 200.38 138.064 200.243C138.309 200.099 138.5 199.902 138.637 199.651C138.775 199.394 138.843 199.102 138.843 198.773C138.843 198.445 138.775 198.155 138.637 197.904C138.5 197.647 138.309 197.45 138.064 197.313C137.819 197.175 137.547 197.107 137.248 197.107C136.944 197.107 136.669 197.175 136.424 197.313C136.185 197.45 135.994 197.647 135.851 197.904C135.713 198.155 135.645 198.445 135.645 198.773C135.645 199.102 135.713 199.394 135.851 199.651C135.994 199.902 136.185 200.099 136.424 200.243C136.669 200.38 136.944 200.449 137.248 200.449Z" fill="white"/>
    <path d="M145.457 196.354C146.114 196.354 146.616 196.515 146.963 196.838C147.315 197.16 147.491 197.641 147.491 198.28V201.148H146.676V200.52C146.533 200.741 146.327 200.912 146.058 201.031C145.795 201.145 145.481 201.201 145.117 201.201C144.585 201.201 144.158 201.073 143.836 200.816C143.519 200.559 143.361 200.222 143.361 199.804C143.361 199.385 143.513 199.051 143.818 198.8C144.122 198.543 144.606 198.415 145.269 198.415H146.631V198.245C146.631 197.874 146.524 197.59 146.309 197.393C146.094 197.196 145.777 197.098 145.359 197.098C145.078 197.098 144.803 197.145 144.535 197.241C144.266 197.331 144.039 197.453 143.854 197.608L143.495 196.963C143.74 196.766 144.033 196.617 144.373 196.515C144.714 196.408 145.075 196.354 145.457 196.354ZM145.26 200.538C145.589 200.538 145.873 200.467 146.112 200.323C146.35 200.174 146.524 199.965 146.631 199.696V199.033H145.305C144.576 199.033 144.212 199.278 144.212 199.768C144.212 200.007 144.305 200.195 144.49 200.332C144.675 200.47 144.932 200.538 145.26 200.538Z" fill="white"/>
    <path d="M153.652 196.399V200.502C153.652 201.333 153.446 201.945 153.034 202.339C152.622 202.739 152.006 202.94 151.188 202.94C150.74 202.94 150.313 202.877 149.907 202.751C149.501 202.632 149.172 202.459 148.921 202.232L149.333 201.569C149.554 201.76 149.826 201.909 150.149 202.017C150.477 202.13 150.815 202.187 151.161 202.187C151.717 202.187 152.126 202.056 152.389 201.793C152.658 201.53 152.792 201.13 152.792 200.592V200.216C152.589 200.461 152.338 200.646 152.039 200.771C151.747 200.891 151.427 200.95 151.081 200.95C150.627 200.95 150.214 200.855 149.844 200.664C149.48 200.467 149.193 200.195 148.984 199.848C148.775 199.496 148.67 199.096 148.67 198.648C148.67 198.2 148.775 197.803 148.984 197.456C149.193 197.104 149.48 196.832 149.844 196.641C150.214 196.45 150.627 196.354 151.081 196.354C151.439 196.354 151.77 196.42 152.075 196.551C152.386 196.683 152.64 196.877 152.837 197.134V196.399H153.652ZM151.179 200.198C151.49 200.198 151.767 200.132 152.012 200.001C152.263 199.869 152.457 199.687 152.595 199.454C152.738 199.215 152.81 198.946 152.81 198.648C152.81 198.188 152.658 197.817 152.353 197.537C152.048 197.25 151.657 197.107 151.179 197.107C150.695 197.107 150.301 197.25 149.996 197.537C149.692 197.817 149.539 198.188 149.539 198.648C149.539 198.946 149.608 199.215 149.746 199.454C149.889 199.687 150.083 199.869 150.328 200.001C150.579 200.132 150.863 200.198 151.179 200.198Z" fill="white"/>
    <path d="M156.12 197.196C156.269 196.921 156.49 196.712 156.783 196.569C157.076 196.426 157.431 196.354 157.849 196.354V197.187C157.801 197.181 157.736 197.178 157.652 197.178C157.186 197.178 156.819 197.319 156.55 197.599C156.287 197.874 156.156 198.268 156.156 198.782V201.148H155.296V196.399H156.12V197.196Z" fill="white"/>
    <path d="M163.157 198.8C163.157 198.866 163.151 198.952 163.139 199.06H159.287C159.34 199.478 159.523 199.816 159.833 200.072C160.15 200.323 160.541 200.449 161.007 200.449C161.574 200.449 162.031 200.258 162.378 199.875L162.853 200.431C162.638 200.682 162.369 200.873 162.046 201.004C161.73 201.136 161.374 201.201 160.98 201.201C160.478 201.201 160.033 201.1 159.645 200.897C159.257 200.688 158.955 200.398 158.74 200.028C158.531 199.657 158.427 199.239 158.427 198.773C158.427 198.313 158.528 197.898 158.731 197.528C158.94 197.157 159.224 196.871 159.582 196.668C159.947 196.459 160.356 196.354 160.81 196.354C161.264 196.354 161.667 196.459 162.019 196.668C162.378 196.871 162.656 197.157 162.853 197.528C163.056 197.898 163.157 198.322 163.157 198.8ZM160.81 197.08C160.398 197.08 160.051 197.205 159.771 197.456C159.496 197.707 159.334 198.035 159.287 198.442H162.333C162.285 198.041 162.121 197.716 161.84 197.465C161.565 197.208 161.222 197.08 160.81 197.08Z" fill="white"/>
    <path d="M168.644 198.8C168.644 198.866 168.638 198.952 168.626 199.06H164.773C164.827 199.478 165.009 199.816 165.319 200.072C165.636 200.323 166.027 200.449 166.493 200.449C167.061 200.449 167.518 200.258 167.864 199.875L168.339 200.431C168.124 200.682 167.855 200.873 167.533 201.004C167.216 201.136 166.861 201.201 166.466 201.201C165.965 201.201 165.52 201.1 165.131 200.897C164.743 200.688 164.441 200.398 164.226 200.028C164.017 199.657 163.913 199.239 163.913 198.773C163.913 198.313 164.014 197.898 164.217 197.528C164.426 197.157 164.71 196.871 165.069 196.668C165.433 196.459 165.842 196.354 166.296 196.354C166.75 196.354 167.153 196.459 167.506 196.668C167.864 196.871 168.142 197.157 168.339 197.528C168.542 197.898 168.644 198.322 168.644 198.8ZM166.296 197.08C165.884 197.08 165.537 197.205 165.257 197.456C164.982 197.707 164.821 198.035 164.773 198.442H167.819C167.771 198.041 167.607 197.716 167.326 197.465C167.052 197.208 166.708 197.08 166.296 197.08Z" fill="white"/>
    <path d="M174.318 194.499V201.148H173.494V200.395C173.302 200.658 173.061 200.858 172.768 200.995C172.475 201.133 172.153 201.201 171.8 201.201C171.34 201.201 170.928 201.1 170.564 200.897C170.199 200.694 169.913 200.41 169.704 200.045C169.5 199.675 169.399 199.251 169.399 198.773C169.399 198.295 169.5 197.874 169.704 197.51C169.913 197.145 170.199 196.862 170.564 196.659C170.928 196.456 171.34 196.354 171.8 196.354C172.141 196.354 172.454 196.42 172.741 196.551C173.028 196.677 173.267 196.865 173.458 197.116V194.499H174.318ZM171.872 200.449C172.171 200.449 172.442 200.38 172.687 200.243C172.932 200.099 173.123 199.902 173.261 199.651C173.398 199.394 173.467 199.102 173.467 198.773C173.467 198.445 173.398 198.155 173.261 197.904C173.123 197.647 172.932 197.45 172.687 197.313C172.442 197.175 172.171 197.107 171.872 197.107C171.567 197.107 171.292 197.175 171.048 197.313C170.809 197.45 170.618 197.647 170.474 197.904C170.337 198.155 170.268 198.445 170.268 198.773C170.268 199.102 170.337 199.394 170.474 199.651C170.618 199.902 170.809 200.099 171.048 200.243C171.292 200.38 171.567 200.449 171.872 200.449Z" fill="white"/>
    <path d="M181.022 200.87C180.896 200.977 180.741 201.061 180.556 201.121C180.371 201.174 180.18 201.201 179.982 201.201C179.505 201.201 179.134 201.073 178.871 200.816C178.609 200.559 178.477 200.192 178.477 199.714V197.107H177.671V196.399H178.477V195.359H179.337V196.399H180.699V197.107H179.337V199.678C179.337 199.935 179.4 200.132 179.525 200.269C179.657 200.407 179.842 200.476 180.081 200.476C180.344 200.476 180.568 200.401 180.753 200.252L181.022 200.87Z" fill="white"/>
    <path d="M183.938 201.201C183.466 201.201 183.042 201.097 182.666 200.888C182.289 200.679 181.994 200.392 181.779 200.028C181.57 199.657 181.465 199.239 181.465 198.773C181.465 198.307 181.57 197.892 181.779 197.528C181.994 197.157 182.289 196.871 182.666 196.668C183.042 196.459 183.466 196.354 183.938 196.354C184.41 196.354 184.831 196.459 185.201 196.668C185.578 196.871 185.87 197.157 186.079 197.528C186.295 197.892 186.402 198.307 186.402 198.773C186.402 199.239 186.295 199.657 186.079 200.028C185.87 200.392 185.578 200.679 185.201 200.888C184.831 201.097 184.41 201.201 183.938 201.201ZM183.938 200.449C184.243 200.449 184.514 200.38 184.753 200.243C184.998 200.099 185.189 199.902 185.327 199.651C185.464 199.394 185.533 199.102 185.533 198.773C185.533 198.445 185.464 198.155 185.327 197.904C185.189 197.647 184.998 197.45 184.753 197.313C184.514 197.175 184.243 197.107 183.938 197.107C183.633 197.107 183.359 197.175 183.114 197.313C182.875 197.45 182.684 197.647 182.54 197.904C182.403 198.155 182.334 198.445 182.334 198.773C182.334 199.102 182.403 199.394 182.54 199.651C182.684 199.902 182.875 200.099 183.114 200.243C183.359 200.38 183.633 200.449 183.938 200.449Z" fill="white"/>
    <path d="M192.668 200.87C192.542 200.977 192.387 201.061 192.202 201.121C192.017 201.174 191.826 201.201 191.629 201.201C191.151 201.201 190.78 201.073 190.518 200.816C190.255 200.559 190.123 200.192 190.123 199.714V197.107H189.317V196.399H190.123V195.359H190.983V196.399H192.345V197.107H190.983V199.678C190.983 199.935 191.046 200.132 191.172 200.269C191.303 200.407 191.488 200.476 191.727 200.476C191.99 200.476 192.214 200.401 192.399 200.252L192.668 200.87Z" fill="white"/>
    <path d="M196.243 196.354C196.847 196.354 197.325 196.53 197.677 196.883C198.035 197.229 198.215 197.74 198.215 198.415V201.148H197.355V198.513C197.355 198.053 197.244 197.707 197.023 197.474C196.802 197.241 196.485 197.125 196.073 197.125C195.607 197.125 195.24 197.262 194.971 197.537C194.702 197.806 194.568 198.194 194.568 198.701V201.148H193.708V194.499H194.568V197.071C194.747 196.844 194.98 196.668 195.267 196.542C195.56 196.417 195.885 196.354 196.243 196.354Z" fill="white"/>
    <path d="M204.125 198.8C204.125 198.866 204.119 198.952 204.107 199.06H200.254C200.308 199.478 200.49 199.816 200.8 200.072C201.117 200.323 201.508 200.449 201.974 200.449C202.542 200.449 202.999 200.258 203.345 199.875L203.82 200.431C203.605 200.682 203.336 200.873 203.014 201.004C202.697 201.136 202.342 201.201 201.947 201.201C201.446 201.201 201.001 201.1 200.612 200.897C200.224 200.688 199.922 200.398 199.707 200.028C199.498 199.657 199.394 199.239 199.394 198.773C199.394 198.313 199.495 197.898 199.698 197.528C199.907 197.157 200.191 196.871 200.55 196.668C200.914 196.459 201.323 196.354 201.777 196.354C202.231 196.354 202.634 196.459 202.987 196.668C203.345 196.871 203.623 197.157 203.82 197.528C204.023 197.898 204.125 198.322 204.125 198.8ZM201.777 197.08C201.365 197.08 201.018 197.205 200.738 197.456C200.463 197.707 200.302 198.035 200.254 198.442H203.3C203.252 198.041 203.088 197.716 202.807 197.465C202.533 197.208 202.189 197.08 201.777 197.08Z" fill="white"/>
    <path d="M209.454 196.354C210.112 196.354 210.613 196.515 210.96 196.838C211.312 197.16 211.488 197.641 211.488 198.28V201.148H210.673V200.52C210.53 200.741 210.324 200.912 210.055 201.031C209.792 201.145 209.478 201.201 209.114 201.201C208.582 201.201 208.155 201.073 207.833 200.816C207.516 200.559 207.358 200.222 207.358 199.804C207.358 199.385 207.51 199.051 207.815 198.8C208.119 198.543 208.603 198.415 209.266 198.415H210.628V198.245C210.628 197.874 210.521 197.59 210.306 197.393C210.091 197.196 209.774 197.098 209.356 197.098C209.075 197.098 208.8 197.145 208.532 197.241C208.263 197.331 208.036 197.453 207.851 197.608L207.492 196.963C207.737 196.766 208.03 196.617 208.37 196.515C208.711 196.408 209.072 196.354 209.454 196.354ZM209.257 200.538C209.586 200.538 209.87 200.467 210.109 200.323C210.347 200.174 210.521 199.965 210.628 199.696V199.033H209.302C208.573 199.033 208.209 199.278 208.209 199.768C208.209 200.007 208.302 200.195 208.487 200.332C208.672 200.47 208.929 200.538 209.257 200.538Z" fill="white"/>
    <path d="M217.649 196.399V200.502C217.649 201.333 217.443 201.945 217.031 202.339C216.619 202.739 216.003 202.94 215.185 202.94C214.737 202.94 214.31 202.877 213.904 202.751C213.498 202.632 213.169 202.459 212.918 202.232L213.33 201.569C213.551 201.76 213.823 201.909 214.146 202.017C214.474 202.13 214.812 202.187 215.158 202.187C215.714 202.187 216.123 202.056 216.386 201.793C216.655 201.53 216.789 201.13 216.789 200.592V200.216C216.586 200.461 216.335 200.646 216.036 200.771C215.744 200.891 215.424 200.95 215.078 200.95C214.624 200.95 214.211 200.855 213.841 200.664C213.477 200.467 213.19 200.195 212.981 199.848C212.772 199.496 212.667 199.096 212.667 198.648C212.667 198.2 212.772 197.803 212.981 197.456C213.19 197.104 213.477 196.832 213.841 196.641C214.211 196.45 214.624 196.354 215.078 196.354C215.436 196.354 215.768 196.42 216.072 196.551C216.383 196.683 216.637 196.877 216.834 197.134V196.399H217.649ZM215.176 200.198C215.487 200.198 215.765 200.132 216.009 200.001C216.26 199.869 216.454 199.687 216.592 199.454C216.735 199.215 216.807 198.946 216.807 198.648C216.807 198.188 216.655 197.817 216.35 197.537C216.045 197.25 215.654 197.107 215.176 197.107C214.692 197.107 214.298 197.25 213.993 197.537C213.689 197.817 213.537 198.188 213.537 198.648C213.537 198.946 213.605 199.215 213.743 199.454C213.886 199.687 214.08 199.869 214.325 200.001C214.576 200.132 214.86 200.198 215.176 200.198Z" fill="white"/>
    <path d="M220.117 197.196C220.266 196.921 220.487 196.712 220.78 196.569C221.073 196.426 221.428 196.354 221.846 196.354V197.187C221.798 197.181 221.733 197.178 221.649 197.178C221.183 197.178 220.816 197.319 220.547 197.599C220.284 197.874 220.153 198.268 220.153 198.782V201.148H219.293V196.399H220.117V197.196Z" fill="white"/>
    <path d="M227.154 198.8C227.154 198.866 227.148 198.952 227.137 199.06H223.284C223.338 199.478 223.52 199.816 223.83 200.072C224.147 200.323 224.538 200.449 225.004 200.449C225.572 200.449 226.028 200.258 226.375 199.875L226.85 200.431C226.635 200.682 226.366 200.873 226.043 201.004C225.727 201.136 225.371 201.201 224.977 201.201C224.475 201.201 224.03 201.1 223.642 200.897C223.254 200.688 222.952 200.398 222.737 200.028C222.528 199.657 222.424 199.239 222.424 198.773C222.424 198.313 222.525 197.898 222.728 197.528C222.937 197.157 223.221 196.871 223.579 196.668C223.944 196.459 224.353 196.354 224.807 196.354C225.261 196.354 225.664 196.459 226.017 196.668C226.375 196.871 226.653 197.157 226.85 197.528C227.053 197.898 227.154 198.322 227.154 198.8ZM224.807 197.08C224.395 197.08 224.048 197.205 223.768 197.456C223.493 197.707 223.332 198.035 223.284 198.442H226.33C226.282 198.041 226.118 197.716 225.837 197.465C225.563 197.208 225.219 197.08 224.807 197.08Z" fill="white"/>
    <path d="M232.641 198.8C232.641 198.866 232.635 198.952 232.623 199.06H228.77C228.824 199.478 229.006 199.816 229.317 200.072C229.633 200.323 230.024 200.449 230.49 200.449C231.058 200.449 231.515 200.258 231.861 199.875L232.336 200.431C232.121 200.682 231.852 200.873 231.53 201.004C231.213 201.136 230.858 201.201 230.463 201.201C229.962 201.201 229.517 201.1 229.128 200.897C228.74 200.688 228.438 200.398 228.223 200.028C228.014 199.657 227.91 199.239 227.91 198.773C227.91 198.313 228.011 197.898 228.214 197.528C228.424 197.157 228.707 196.871 229.066 196.668C229.43 196.459 229.839 196.354 230.293 196.354C230.747 196.354 231.15 196.459 231.503 196.668C231.861 196.871 232.139 197.157 232.336 197.528C232.539 197.898 232.641 198.322 232.641 198.8ZM230.293 197.08C229.881 197.08 229.535 197.205 229.254 197.456C228.979 197.707 228.818 198.035 228.77 198.442H231.816C231.769 198.041 231.604 197.716 231.324 197.465C231.049 197.208 230.705 197.08 230.293 197.08Z" fill="white"/>
    <path d="M239.775 196.354C240.373 196.354 240.845 196.527 241.191 196.874C241.544 197.22 241.72 197.734 241.72 198.415V201.148H240.86V198.513C240.86 198.053 240.752 197.707 240.537 197.474C240.328 197.241 240.026 197.125 239.632 197.125C239.196 197.125 238.85 197.262 238.593 197.537C238.336 197.806 238.207 198.194 238.207 198.701V201.148H237.347V198.513C237.347 198.053 237.24 197.707 237.025 197.474C236.816 197.241 236.514 197.125 236.12 197.125C235.684 197.125 235.337 197.262 235.08 197.537C234.824 197.806 234.695 198.194 234.695 198.701V201.148H233.835V196.399H234.659V197.107C234.833 196.862 235.06 196.677 235.34 196.551C235.621 196.42 235.941 196.354 236.299 196.354C236.669 196.354 236.998 196.429 237.285 196.578C237.571 196.727 237.792 196.945 237.948 197.232C238.127 196.957 238.375 196.742 238.691 196.587C239.014 196.432 239.375 196.354 239.775 196.354Z" fill="white"/>
    <path d="M247.621 198.8C247.621 198.866 247.615 198.952 247.603 199.06H243.75C243.804 199.478 243.986 199.816 244.296 200.072C244.613 200.323 245.004 200.449 245.47 200.449C246.038 200.449 246.495 200.258 246.841 199.875L247.316 200.431C247.101 200.682 246.832 200.873 246.51 201.004C246.193 201.136 245.838 201.201 245.443 201.201C244.942 201.201 244.497 201.1 244.108 200.897C243.72 200.688 243.418 200.398 243.203 200.028C242.994 199.657 242.89 199.239 242.89 198.773C242.89 198.313 242.991 197.898 243.194 197.528C243.403 197.157 243.687 196.871 244.046 196.668C244.41 196.459 244.819 196.354 245.273 196.354C245.727 196.354 246.13 196.459 246.483 196.668C246.841 196.871 247.119 197.157 247.316 197.528C247.519 197.898 247.621 198.322 247.621 198.8ZM245.273 197.08C244.861 197.08 244.514 197.205 244.234 197.456C243.959 197.707 243.798 198.035 243.75 198.442H246.796C246.748 198.041 246.584 197.716 246.303 197.465C246.029 197.208 245.685 197.08 245.273 197.08Z" fill="white"/>
    <path d="M251.351 196.354C251.954 196.354 252.432 196.53 252.784 196.883C253.143 197.229 253.322 197.74 253.322 198.415V201.148H252.462V198.513C252.462 198.053 252.351 197.707 252.13 197.474C251.909 197.241 251.593 197.125 251.18 197.125C250.714 197.125 250.347 197.262 250.078 197.537C249.809 197.806 249.675 198.194 249.675 198.701V201.148H248.815V196.399H249.639V197.116C249.812 196.871 250.045 196.683 250.338 196.551C250.637 196.42 250.974 196.354 251.351 196.354Z" fill="white"/>
    <path d="M257.584 200.87C257.458 200.977 257.303 201.061 257.118 201.121C256.933 201.174 256.741 201.201 256.544 201.201C256.066 201.201 255.696 201.073 255.433 200.816C255.171 200.559 255.039 200.192 255.039 199.714V197.107H254.233V196.399H255.039V195.359H255.899V196.399H257.261V197.107H255.899V199.678C255.899 199.935 255.962 200.132 256.087 200.269C256.219 200.407 256.404 200.476 256.643 200.476C256.906 200.476 257.13 200.401 257.315 200.252L257.584 200.87Z" fill="white"/>
    <path d="M125.464 207.554C126.121 207.554 126.623 207.715 126.969 208.038C127.322 208.36 127.498 208.841 127.498 209.48V212.347H126.682V211.72C126.539 211.941 126.333 212.112 126.064 212.231C125.801 212.345 125.488 212.401 125.123 212.401C124.592 212.401 124.165 212.273 123.842 212.016C123.525 211.759 123.367 211.422 123.367 211.003C123.367 210.585 123.52 210.251 123.824 210C124.129 209.743 124.613 209.615 125.276 209.615H126.638V209.444C126.638 209.074 126.53 208.79 126.315 208.593C126.1 208.396 125.783 208.298 125.365 208.298C125.085 208.298 124.81 208.345 124.541 208.441C124.272 208.531 124.045 208.653 123.86 208.808L123.502 208.163C123.746 207.966 124.039 207.817 124.38 207.715C124.72 207.608 125.082 207.554 125.464 207.554ZM125.267 211.738C125.595 211.738 125.879 211.667 126.118 211.523C126.357 211.374 126.53 211.165 126.638 210.896V210.233H125.311C124.583 210.233 124.218 210.478 124.218 210.968C124.218 211.207 124.311 211.395 124.496 211.532C124.681 211.67 124.938 211.738 125.267 211.738Z" fill="white"/>
    <path d="M131.625 207.554C132.228 207.554 132.706 207.73 133.059 208.083C133.417 208.429 133.596 208.94 133.596 209.615V212.347H132.736V209.713C132.736 209.253 132.626 208.907 132.405 208.674C132.184 208.441 131.867 208.324 131.455 208.324C130.989 208.324 130.622 208.462 130.353 208.737C130.084 209.005 129.95 209.394 129.95 209.901V212.347H129.09V207.599H129.914V208.316C130.087 208.071 130.32 207.882 130.613 207.751C130.911 207.62 131.249 207.554 131.625 207.554Z" fill="white"/>
    <path d="M139.694 205.699V212.347H138.87V211.595C138.679 211.858 138.437 212.058 138.144 212.195C137.852 212.333 137.529 212.401 137.177 212.401C136.717 212.401 136.305 212.3 135.94 212.097C135.576 211.894 135.289 211.61 135.08 211.245C134.877 210.875 134.775 210.451 134.775 209.973C134.775 209.495 134.877 209.074 135.08 208.71C135.289 208.345 135.576 208.062 135.94 207.859C136.305 207.655 136.717 207.554 137.177 207.554C137.517 207.554 137.831 207.62 138.117 207.751C138.404 207.876 138.643 208.065 138.834 208.316V205.699H139.694ZM137.248 211.649C137.547 211.649 137.819 211.58 138.064 211.443C138.309 211.299 138.5 211.102 138.637 210.851C138.775 210.594 138.843 210.302 138.843 209.973C138.843 209.645 138.775 209.355 138.637 209.104C138.5 208.847 138.309 208.65 138.064 208.513C137.819 208.375 137.547 208.307 137.248 208.307C136.944 208.307 136.669 208.375 136.424 208.513C136.185 208.65 135.994 208.847 135.851 209.104C135.713 209.355 135.645 209.645 135.645 209.973C135.645 210.302 135.713 210.594 135.851 210.851C135.994 211.102 136.185 211.299 136.424 211.443C136.669 211.58 136.944 211.649 137.248 211.649Z" fill="white"/>
    <path d="M146.246 207.554C146.706 207.554 147.118 207.655 147.482 207.859C147.847 208.062 148.13 208.345 148.334 208.71C148.543 209.074 148.647 209.495 148.647 209.973C148.647 210.451 148.543 210.875 148.334 211.245C148.13 211.61 147.847 211.894 147.482 212.097C147.118 212.3 146.706 212.401 146.246 212.401C145.905 212.401 145.592 212.336 145.305 212.204C145.024 212.073 144.785 211.882 144.588 211.631V214.086H143.728V207.599H144.552V208.351C144.744 208.089 144.986 207.891 145.278 207.76C145.571 207.623 145.893 207.554 146.246 207.554ZM146.174 211.649C146.479 211.649 146.751 211.58 146.99 211.443C147.234 211.299 147.426 211.102 147.563 210.851C147.706 210.594 147.778 210.302 147.778 209.973C147.778 209.645 147.706 209.355 147.563 209.104C147.426 208.847 147.234 208.65 146.99 208.513C146.751 208.375 146.479 208.307 146.174 208.307C145.876 208.307 145.604 208.378 145.359 208.522C145.12 208.659 144.929 208.853 144.785 209.104C144.648 209.355 144.579 209.645 144.579 209.973C144.579 210.302 144.648 210.594 144.785 210.851C144.923 211.102 145.114 211.299 145.359 211.443C145.604 211.58 145.876 211.649 146.174 211.649Z" fill="white"/>
    <path d="M150.66 208.396C150.809 208.121 151.03 207.912 151.323 207.769C151.616 207.626 151.971 207.554 152.389 207.554V208.387C152.341 208.381 152.276 208.378 152.192 208.378C151.726 208.378 151.359 208.519 151.09 208.799C150.827 209.074 150.696 209.468 150.696 209.982V212.347H149.836V207.599H150.66V208.396Z" fill="white"/>
    <path d="M153.449 207.599H154.309V212.347H153.449V207.599ZM153.879 206.685C153.712 206.685 153.572 206.631 153.458 206.524C153.351 206.416 153.297 206.285 153.297 206.129C153.297 205.974 153.351 205.843 153.458 205.735C153.572 205.622 153.712 205.565 153.879 205.565C154.047 205.565 154.184 205.619 154.292 205.726C154.405 205.828 154.462 205.956 154.462 206.111C154.462 206.273 154.405 206.41 154.292 206.524C154.184 206.631 154.047 206.685 153.879 206.685Z" fill="white"/>
    <path d="M160.154 207.599L158.075 212.347H157.197L155.119 207.599H156.015L157.645 211.407L159.312 207.599H160.154Z" fill="white"/>
    <path d="M162.537 207.554C163.194 207.554 163.696 207.715 164.043 208.038C164.395 208.36 164.571 208.841 164.571 209.48V212.347H163.756V211.72C163.613 211.941 163.406 212.112 163.138 212.231C162.875 212.345 162.561 212.401 162.197 212.401C161.665 212.401 161.238 212.273 160.916 212.016C160.599 211.759 160.441 211.422 160.441 211.003C160.441 210.585 160.593 210.251 160.898 210C161.202 209.743 161.686 209.615 162.349 209.615H163.711V209.444C163.711 209.074 163.604 208.79 163.389 208.593C163.173 208.396 162.857 208.298 162.439 208.298C162.158 208.298 161.883 208.345 161.614 208.441C161.346 208.531 161.119 208.653 160.933 208.808L160.575 208.163C160.82 207.966 161.113 207.817 161.453 207.715C161.794 207.608 162.155 207.554 162.537 207.554ZM162.34 211.738C162.669 211.738 162.952 211.667 163.191 211.523C163.43 211.374 163.604 211.165 163.711 210.896V210.233H162.385C161.656 210.233 161.292 210.478 161.292 210.968C161.292 211.207 161.384 211.395 161.57 211.532C161.755 211.67 162.012 211.738 162.34 211.738Z" fill="white"/>
    <path d="M168.259 212.401C167.775 212.401 167.342 212.297 166.96 212.088C166.583 211.879 166.288 211.592 166.073 211.227C165.858 210.857 165.75 210.439 165.75 209.973C165.75 209.507 165.858 209.092 166.073 208.728C166.288 208.357 166.583 208.071 166.96 207.868C167.342 207.658 167.775 207.554 168.259 207.554C168.689 207.554 169.071 207.641 169.406 207.814C169.746 207.987 170.009 208.238 170.194 208.566L169.54 208.988C169.391 208.761 169.206 208.59 168.985 208.477C168.764 208.363 168.519 208.307 168.25 208.307C167.939 208.307 167.659 208.375 167.408 208.513C167.163 208.65 166.969 208.847 166.825 209.104C166.688 209.355 166.619 209.645 166.619 209.973C166.619 210.308 166.688 210.603 166.825 210.86C166.969 211.111 167.163 211.305 167.408 211.443C167.659 211.58 167.939 211.649 168.25 211.649C168.519 211.649 168.764 211.592 168.985 211.478C169.206 211.365 169.391 211.195 169.54 210.968L170.194 211.38C170.009 211.708 169.746 211.962 169.406 212.141C169.071 212.315 168.689 212.401 168.259 212.401Z" fill="white"/>
    <path d="M175.449 207.599L173.146 212.822C172.943 213.306 172.704 213.647 172.429 213.844C172.161 214.041 171.835 214.139 171.453 214.139C171.22 214.139 170.993 214.101 170.772 214.023C170.557 213.951 170.378 213.844 170.234 213.7L170.602 213.055C170.847 213.288 171.13 213.405 171.453 213.405C171.662 213.405 171.835 213.348 171.972 213.235C172.116 213.127 172.244 212.939 172.358 212.67L172.51 212.339L170.413 207.599H171.309L172.967 211.398L174.607 207.599H175.449Z" fill="white"/>
    <path d="M181.176 207.554C181.636 207.554 182.048 207.655 182.412 207.859C182.777 208.062 183.06 208.345 183.263 208.71C183.472 209.074 183.577 209.495 183.577 209.973C183.577 210.451 183.472 210.875 183.263 211.245C183.06 211.61 182.777 211.894 182.412 212.097C182.048 212.3 181.636 212.401 181.176 212.401C180.835 212.401 180.522 212.336 180.235 212.204C179.954 212.073 179.715 211.882 179.518 211.631V214.086H178.658V207.599H179.482V208.351C179.673 208.089 179.915 207.891 180.208 207.76C180.501 207.623 180.823 207.554 181.176 207.554ZM181.104 211.649C181.409 211.649 181.68 211.58 181.919 211.443C182.164 211.299 182.355 211.102 182.493 210.851C182.636 210.594 182.708 210.302 182.708 209.973C182.708 209.645 182.636 209.355 182.493 209.104C182.355 208.847 182.164 208.65 181.919 208.513C181.68 208.375 181.409 208.307 181.104 208.307C180.805 208.307 180.534 208.378 180.289 208.522C180.05 208.659 179.859 208.853 179.715 209.104C179.578 209.355 179.509 209.645 179.509 209.973C179.509 210.302 179.578 210.594 179.715 210.851C179.853 211.102 180.044 211.299 180.289 211.443C180.534 211.58 180.805 211.649 181.104 211.649Z" fill="white"/>
    <path d="M186.799 212.401C186.327 212.401 185.903 212.297 185.527 212.088C185.151 211.879 184.855 211.592 184.64 211.227C184.431 210.857 184.326 210.439 184.326 209.973C184.326 209.507 184.431 209.092 184.64 208.728C184.855 208.357 185.151 208.071 185.527 207.868C185.903 207.658 186.327 207.554 186.799 207.554C187.271 207.554 187.692 207.658 188.063 207.868C188.439 208.071 188.732 208.357 188.941 208.728C189.156 209.092 189.263 209.507 189.263 209.973C189.263 210.439 189.156 210.857 188.941 211.227C188.732 211.592 188.439 211.879 188.063 212.088C187.692 212.297 187.271 212.401 186.799 212.401ZM186.799 211.649C187.104 211.649 187.376 211.58 187.615 211.443C187.86 211.299 188.051 211.102 188.188 210.851C188.325 210.594 188.394 210.302 188.394 209.973C188.394 209.645 188.325 209.355 188.188 209.104C188.051 208.847 187.86 208.65 187.615 208.513C187.376 208.375 187.104 208.307 186.799 208.307C186.495 208.307 186.22 208.375 185.975 208.513C185.736 208.65 185.545 208.847 185.402 209.104C185.264 209.355 185.195 209.645 185.195 209.973C185.195 210.302 185.264 210.594 185.402 210.851C185.545 211.102 185.736 211.299 185.975 211.443C186.22 211.58 186.495 211.649 186.799 211.649Z" fill="white"/>
    <path d="M190.453 205.699H191.313V212.347H190.453V205.699Z" fill="white"/>
    <path d="M192.955 207.599H193.815V212.347H192.955V207.599ZM193.385 206.685C193.218 206.685 193.078 206.631 192.964 206.524C192.857 206.416 192.803 206.285 192.803 206.129C192.803 205.974 192.857 205.843 192.964 205.735C193.078 205.622 193.218 205.565 193.385 205.565C193.553 205.565 193.69 205.619 193.798 205.726C193.911 205.828 193.968 205.956 193.968 206.111C193.968 206.273 193.911 206.41 193.798 206.524C193.69 206.631 193.553 206.685 193.385 206.685Z" fill="white"/>
    <path d="M197.528 212.401C197.044 212.401 196.611 212.297 196.228 212.088C195.852 211.879 195.556 211.592 195.341 211.227C195.126 210.857 195.019 210.439 195.019 209.973C195.019 209.507 195.126 209.092 195.341 208.728C195.556 208.357 195.852 208.071 196.228 207.868C196.611 207.658 197.044 207.554 197.528 207.554C197.958 207.554 198.34 207.641 198.674 207.814C199.015 207.987 199.278 208.238 199.463 208.566L198.809 208.988C198.659 208.761 198.474 208.59 198.253 208.477C198.032 208.363 197.787 208.307 197.519 208.307C197.208 208.307 196.927 208.375 196.676 208.513C196.431 208.65 196.237 208.847 196.094 209.104C195.957 209.355 195.888 209.645 195.888 209.973C195.888 210.308 195.957 210.603 196.094 210.86C196.237 211.111 196.431 211.305 196.676 211.443C196.927 211.58 197.208 211.649 197.519 211.649C197.787 211.649 198.032 211.592 198.253 211.478C198.474 211.365 198.659 211.195 198.809 210.968L199.463 211.38C199.278 211.708 199.015 211.962 198.674 212.141C198.34 212.315 197.958 212.401 197.528 212.401Z" fill="white"/>
    <path d="M204.717 207.599L202.415 212.822C202.212 213.306 201.973 213.647 201.698 213.844C201.429 214.041 201.104 214.139 200.721 214.139C200.488 214.139 200.261 214.101 200.04 214.023C199.825 213.951 199.646 213.844 199.503 213.7L199.87 213.055C200.115 213.288 200.399 213.405 200.721 213.405C200.93 213.405 201.104 213.348 201.241 213.235C201.384 213.127 201.513 212.939 201.626 212.67L201.779 212.339L199.682 207.599H200.578L202.236 211.398L203.875 207.599H204.717Z" fill="white"/>
    <path fill-rule="evenodd" clip-rule="evenodd" d="M114.707 182.481H105.747V191.441H114.707V182.481ZM105.747 181.734C105.334 181.734 105 182.069 105 182.481V191.441C105 191.853 105.334 192.188 105.747 192.188H114.707C115.119 192.188 115.453 191.853 115.453 191.441V182.481C115.453 182.069 115.119 181.734 114.707 181.734H105.747Z" fill="white"/>
    <path fill-rule="evenodd" clip-rule="evenodd" d="M113.689 185.196L109.481 189.404L106.766 186.689L107.716 185.739L109.481 187.504L112.739 184.246L113.689 185.196Z" fill="#1AA3E0"/>
    <defs>
        <filter id="filter0_d" x="85" y="126.188" width="206.506" height="69.8665" filterUnits="userSpaceOnUse" color-interpolation-filters="sRGB">
            <feFlood flood-opacity="0" result="BackgroundImageFix"/>
            <feColorMatrix in="SourceAlpha" type="matrix" values="0 0 0 0 0 0 0 0 0 0 0 0 0 0 0 0 0 0 127 0"/>
            <feOffset dy="10"/>
            <feGaussianBlur stdDeviation="10"/>
            <feColorMatrix type="matrix" values="0 0 0 0 0.101961 0 0 0 0 0.639216 0 0 0 0 0.878431 0 0 0 0.3 0"/>
            <feBlend mode="normal" in2="BackgroundImageFix" result="effect1_dropShadow"/>
            <feBlend mode="normal" in="SourceGraphic" in2="effect1_dropShadow" result="shape"/>
        </filter>
        <filter id="filter1_d" x="85" y="250.134" width="206.506" height="69.8665" filterUnits="userSpaceOnUse" color-interpolation-filters="sRGB">
            <feFlood flood-opacity="0" result="BackgroundImageFix"/>
            <feColorMatrix in="SourceAlpha" type="matrix" values="0 0 0 0 0 0 0 0 0 0 0 0 0 0 0 0 0 0 127 0"/>
            <feOffset dy="10"/>
            <feGaussianBlur stdDeviation="10"/>
            <feColorMatrix type="matrix" values="0 0 0 0 0.101961 0 0 0 0 0.639216 0 0 0 0 0.878431 0 0 0 0.3 0"/>
            <feBlend mode="normal" in2="BackgroundImageFix" result="effect1_dropShadow"/>
            <feBlend mode="normal" in="SourceGraphic" in2="effect1_dropShadow" result="shape"/>
        </filter>
        <clipPath id="clip0">
            <rect width="166.506" height="29.8665" fill="white" transform="translate(105 52.5615)"/>
        </clipPath>
        <clipPath id="clip1">
            <rect width="166.506" height="29.8665" fill="white" transform="translate(105 94.3745)"/>
        </clipPath>
    </defs>
</svg>
