<svg width="296" height="296" viewBox="0 0 296 296" fill="none" xmlns="http://www.w3.org/2000/svg">
    <g style="mix-blend-mode:multiply">
        <path d="M296 226.381H0V226.529H296V226.381Z" fill="#EBEBEB"/>
        <path d="M266.341 235.906H253.506V236.054H266.341V235.906Z" fill="#EBEBEB"/>
        <path d="M204.045 232.84H183.852V232.988H204.045V232.84Z" fill="#EBEBEB"/>
        <path d="M261.143 230.412H234.781V230.56H261.143V230.412Z" fill="#EBEBEB"/>
        <path d="M102.428 233.396H95.833V233.544H102.428V233.396Z" fill="#EBEBEB"/>
        <path d="M90.5582 233.396H67.8314V233.544H90.5582V233.396Z" fill="#EBEBEB"/>
        <path d="M55.6539 230.898H39.2555V231.046H55.6539V230.898Z" fill="#EBEBEB"/>
        <path d="M140.31 199.978H26.0007C24.1359 199.978 22.6204 198.462 22.6204 196.597V35.9107C22.6204 34.0459 24.1359 32.5304 26.0007 32.5304H140.316C142.181 32.5304 143.696 34.0459 143.696 35.9107V196.597C143.69 198.462 142.175 199.978 140.31 199.978ZM26.0007 32.6784C24.2188 32.6784 22.7684 34.1288 22.7684 35.9107V196.597C22.7684 198.379 24.2188 199.83 26.0007 199.83H140.316C142.098 199.83 143.548 198.379 143.548 196.597V35.9107C143.548 34.1288 142.098 32.6784 140.316 32.6784H26.0007Z" fill="#EBEBEB"/>
        <path d="M268.36 199.978H154.044C152.18 199.978 150.664 198.462 150.664 196.597V35.9107C150.664 34.0459 152.18 32.5304 154.044 32.5304H268.36C270.224 32.5304 271.74 34.0459 271.74 35.9107V196.597C271.74 198.462 270.224 199.978 268.36 199.978ZM154.044 32.6784C152.262 32.6784 150.812 34.1288 150.812 35.9107V196.597C150.812 198.379 152.262 199.83 154.044 199.83H268.36C270.141 199.83 271.592 198.379 271.592 196.597V35.9107C271.592 34.1288 270.141 32.6784 268.36 32.6784H154.044Z" fill="#EBEBEB"/>
        <path d="M68.0682 103.381C74.9058 103.381 80.4469 97.8397 80.4469 91.0021C80.4469 84.1645 74.9058 78.6234 68.0682 78.6234H66.5468V103.381H68.0682Z" fill="#E0E0E0"/>
        <path d="M66.5468 103.381C73.3833 103.381 78.9255 97.8387 78.9255 91.0021C78.9255 84.1656 73.3833 78.6234 66.5468 78.6234C59.7102 78.6234 54.168 84.1656 54.168 91.0021C54.168 97.8387 59.7102 103.381 66.5468 103.381Z" fill="#F5F5F5"/>
        <path d="M65.9785 92.5532C56.8439 92.5532 49.4084 85.1177 49.4084 75.9831V66.0849C49.4084 65.2265 50.1069 64.5279 50.9653 64.5279C51.8237 64.5279 52.5223 65.2265 52.5223 66.0849V75.9831C52.5223 83.4068 58.5607 89.4393 65.9785 89.4393C66.8369 89.4393 67.5354 90.1378 67.5354 90.9962C67.5354 91.8546 66.8428 92.5532 65.9785 92.5532Z" fill="#E0E0E0"/>
        <path d="M37.1954 74.7991H64.7352C66.6237 74.7991 67.9971 73.0113 67.5176 71.1879L65.1259 62.1659C64.7944 60.9049 63.6518 60.0287 62.3435 60.0287H39.587C38.2846 60.0287 37.1421 60.9049 36.8046 62.1659L34.413 71.1879C33.9334 73.0113 35.3069 74.7991 37.1954 74.7991Z" fill="#F5F5F5"/>
        <path d="M242.886 103.381C249.723 103.381 255.265 97.8397 255.265 91.0021C255.265 84.1645 249.723 78.6234 242.886 78.6234H241.37V103.381H242.886Z" fill="#E0E0E0"/>
        <path d="M241.364 103.381C248.201 103.381 253.743 97.8387 253.743 91.0021C253.743 84.1656 248.201 78.6234 241.364 78.6234C234.528 78.6234 228.986 84.1656 228.986 91.0021C228.986 97.8387 234.528 103.381 241.364 103.381Z" fill="#F5F5F5"/>
        <path d="M240.796 92.5532C231.661 92.5532 224.226 85.1177 224.226 75.9831V66.0849C224.226 65.2265 224.924 64.5279 225.783 64.5279C226.641 64.5279 227.34 65.2265 227.34 66.0849V75.9831C227.34 83.4068 233.378 89.4393 240.796 89.4393C241.654 89.4393 242.353 90.1378 242.353 90.9962C242.353 91.8546 241.66 92.5532 240.796 92.5532Z" fill="#E0E0E0"/>
        <path d="M212.013 74.7991H239.553C241.441 74.7991 242.815 73.0113 242.335 71.1879L239.944 62.1659C239.612 60.9049 238.469 60.0287 237.161 60.0287H214.399C213.096 60.0287 211.954 60.9049 211.616 62.1659L209.225 71.1879C208.751 73.0113 210.125 74.7991 212.013 74.7991Z" fill="#F5F5F5"/>
        <path d="M79.3156 186.987H88.3199V152.1H79.3156V186.987Z" fill="#E6E6E6"/>
        <path d="M54.908 186.983H84.7863L89.2973 146.153H59.4191L54.908 186.983Z" fill="#F0F0F0"/>
        <path d="M51.6698 186.983H82.5367L87.0477 146.153H56.1868L51.6698 186.983Z" fill="#F5F5F5"/>
        <path d="M80.3049 183.769L84.1055 149.373H58.4127L54.6121 183.769H80.3049Z" fill="white"/>
        <path d="M75.0006 175.427L75.1545 174.024C76.1076 165.393 70.7204 157.703 63.7229 157.703L63.569 159.106C62.61 167.737 67.9972 175.427 75.0006 175.427Z" fill="#F5F5F5"/>
        <path d="M34.9794 226.382H61.5247L61.5247 186.984H34.9794V226.382Z" fill="#E6E6E6"/>
        <path d="M37.6453 226.381H34.9754V218.785H40.4455L37.6453 226.381Z" fill="#F0F0F0"/>
        <path d="M109.376 226.382H135.921V186.984H109.376V226.382Z" fill="#E6E6E6"/>
        <path d="M34.9776 221.721H111.707V186.989H34.9776V221.721Z" fill="#F0F0F0"/>
        <path d="M109.035 226.381H111.705V218.785H106.234L109.035 226.381Z" fill="#F0F0F0"/>
        <path d="M37.0497 203.175H109.635V189.157H37.0497V203.175Z" fill="#E6E6E6"/>
        <path d="M68.5005 198.296H78.1797C82.3829 198.296 86.4025 196.568 89.2974 193.513H57.3827C60.2776 196.568 64.2973 198.296 68.5005 198.296Z" fill="#F0F0F0"/>
        <path d="M37.0497 219.457H109.635V205.438H37.0497V219.457Z" fill="#E6E6E6"/>
        <path d="M68.5005 214.576H78.1797C82.3829 214.576 86.4025 212.848 89.2974 209.793H57.3827C60.2776 212.848 64.2973 214.576 68.5005 214.576Z" fill="#F0F0F0"/>
        <path d="M106.844 185.379H107.531C107.525 183.964 107.537 180.382 107.602 172.171C107.726 157.288 107.963 156.377 107.963 156.377L106.329 163.25C105.293 170.857 106.631 178.506 106.844 185.379Z" fill="#E6E6E6"/>
        <path d="M105.489 162.226C103.138 159.426 98.1181 158.609 92.9796 157.91C90.9609 157.638 98.2839 162.249 101.86 165.523C104.642 168.069 106.418 168.773 107.182 171.307C107.578 168.146 107.513 164.641 105.489 162.226Z" fill="#E6E6E6"/>
        <path d="M108.608 167.228C110.959 164.428 115.979 163.611 121.117 162.912C123.136 162.64 115.813 167.252 112.237 170.526C109.455 173.071 107.679 173.776 106.915 176.309C106.519 173.154 106.584 169.643 108.608 167.228Z" fill="#E6E6E6"/>
        <path d="M107.602 155.72C109.366 152.375 113.8 149.219 118.773 148.024C120.727 147.556 114.25 154.204 111.787 158.496C109.875 161.829 107.336 165.742 106.945 168.554C106.347 162.983 105.838 159.064 107.602 155.72Z" fill="#E6E6E6"/>
        <path d="M107.389 186.983C105.287 186.983 103.553 185.929 103.434 184.585L103.085 182.283H111.693L111.343 184.585C111.225 185.935 109.49 186.983 107.389 186.983Z" fill="#F0F0F0"/>
        <path d="M112.255 183.171H102.529L102.25 180.607H112.533L112.255 183.171Z" fill="#F0F0F0"/>
        <path d="M100.366 134.221H195.21V47.7119L100.366 47.7119L100.366 134.221Z" fill="#E6E6E6"/>
        <path d="M98.2389 134.221H194.285V47.7119L98.2389 47.7119L98.2389 134.221Z" fill="#F5F5F5"/>
        <path d="M190.449 130.347L190.449 51.5869L102.063 51.5869L102.063 130.347H190.449Z" fill="#FAFAFA"/>
        <path d="M179.607 130.346L144.821 51.5868H133.005L167.791 130.346H179.607Z" fill="white"/>
        <path d="M164.44 130.346L129.654 51.5868H121.52L156.306 130.346H164.44Z" fill="white"/>
        <path d="M134.882 130.343L134.882 51.5833H130.312V130.343H134.882Z" fill="#E6E6E6"/>
        <path d="M165.263 130.343L165.263 51.5836H160.693V130.343H165.263Z" fill="#E6E6E6"/>
        <path d="M134.06 132.802L134.06 48.7029H128.282L128.282 132.802H134.06Z" fill="#F5F5F5"/>
        <path d="M164.441 132.803L164.441 48.7032H158.663L158.663 132.803H164.441Z" fill="#F5F5F5"/>
        <path d="M102.474 130.345L102.474 51.5852H102.065L102.065 130.345H102.474Z" fill="#E6E6E6"/>
        <path d="M96.6262 42.7246H199.38C199.652 42.7246 199.871 42.9496 199.871 43.216C199.871 43.4883 199.646 43.7073 199.38 43.7073H96.6262C96.3539 43.7073 96.1349 43.4824 96.1349 43.216C96.129 42.9496 96.3539 42.7246 96.6262 42.7246Z" fill="#E6E6E6"/>
        <path d="M195.212 45.9865C195.579 45.9865 195.881 45.6846 195.881 45.3176V43.8849C195.881 43.5179 195.579 43.2159 195.212 43.2159C194.845 43.2159 194.543 43.5179 194.543 43.8849V45.3176C194.543 45.6846 194.845 45.9865 195.212 45.9865Z" fill="#E6E6E6"/>
        <path d="M104.074 45.9865C104.441 45.9865 104.743 45.6846 104.743 45.3176V43.8849C104.743 43.5179 104.441 43.2159 104.074 43.2159C103.707 43.2159 103.405 43.5179 103.405 43.8849V45.3176C103.411 45.6846 103.707 45.9865 104.074 45.9865Z" fill="#E6E6E6"/>
        <path opacity="0.6" d="M96.7828 110.966L192.764 110.966V43.217L96.7828 43.217L96.7828 110.966Z" fill="#E0E0E0"/>
        <path d="M201.452 167.933H184.905C183.147 167.933 181.72 166.506 181.72 164.748V157.087C181.72 155.329 183.147 153.902 184.905 153.902H201.452C203.21 153.902 204.637 155.329 204.637 157.087V164.748C204.637 166.506 203.21 167.933 201.452 167.933Z" fill="#FAFAFA"/>
        <path d="M203.565 154.317H182.786C182.194 154.317 181.714 153.837 181.714 153.245V152.381C181.714 151.789 182.194 151.309 182.786 151.309H203.565C204.157 151.309 204.637 151.789 204.637 152.381V153.245C204.637 153.837 204.157 154.317 203.565 154.317Z" fill="#E6E6E6"/>
        <path d="M182.052 183.49C182.052 183.49 182.354 193.353 193.85 193.353C205.347 193.353 205.649 183.49 205.649 183.49H182.052Z" fill="#F0F0F0"/>
        <path d="M208.266 183.49C208.266 183.49 208.568 193.353 220.064 193.353C231.561 193.353 231.863 183.49 231.863 183.49H208.266Z" fill="#F0F0F0"/>
        <path d="M226.174 167.933H203.435C201.02 167.933 199.054 165.973 199.054 163.552V151.925C199.054 149.51 201.014 147.544 203.435 147.544H226.174C228.589 147.544 230.554 149.504 230.554 151.925V163.552C230.549 165.973 228.589 167.933 226.174 167.933Z" fill="#F0F0F0"/>
        <path d="M229.08 148.113H200.522C199.711 148.113 199.054 147.455 199.054 146.644V145.454C199.054 144.643 199.711 143.986 200.522 143.986H229.08C229.891 143.986 230.549 144.643 230.549 145.454V146.644C230.549 147.455 229.891 148.113 229.08 148.113Z" fill="#F5F5F5"/>
        <path d="M173.391 226.382H176.375V177.46H173.391V226.382Z" fill="#E6E6E6"/>
        <path d="M259.545 167.933H243.389V177.452H259.545V167.933Z" fill="#E6E6E6"/>
        <path d="M163.063 177.456H243.386V167.937H163.063V177.456Z" fill="#F5F5F5"/>
        <path d="M259.545 193.359H243.389V202.878H259.545V193.359Z" fill="#E6E6E6"/>
        <path d="M163.063 202.878H243.386V193.359H163.063V202.878Z" fill="#F5F5F5"/>
        <path d="M253.715 226.382H256.698V177.46H253.715V226.382Z" fill="#E6E6E6"/>
        <path d="M240.403 226.382H243.387V177.46H240.403V226.382Z" fill="#F5F5F5"/>
        <path d="M163.061 226.382H166.045V177.46H163.061V226.382Z" fill="#F5F5F5"/>
    </g>
    <g style="mix-blend-mode:multiply">
        <path d="M148 253.116C211.393 253.116 262.783 250.115 262.783 246.414C262.783 242.713 211.393 239.713 148 239.713C84.6071 239.713 33.2171 242.713 33.2171 246.414C33.2171 250.115 84.6071 253.116 148 253.116Z" fill="#F5F5F5"/>
    </g>
    <path d="M154.163 216.376H78.6412C76.143 216.376 74.0177 214.351 73.8874 211.859L67.1327 80.6955C67.0025 78.2032 68.9206 76.1785 71.4188 76.1785H146.94C149.433 76.1785 151.564 78.2032 151.694 80.6955L158.455 211.853C158.579 214.351 156.661 216.376 154.163 216.376Z" fill="#1AA3E0"/>
    <path opacity="0.8" d="M154.163 216.376H78.6412C76.143 216.376 74.0177 214.351 73.8874 211.859L67.1327 80.6955C67.0025 78.2032 68.9206 76.1785 71.4188 76.1785H146.94C149.433 76.1785 151.564 78.2032 151.694 80.6955L158.455 211.853C158.579 214.351 156.661 216.376 154.163 216.376Z" fill="white"/>
    <path d="M139.487 71.9044H131.134V72.4964H139.487V71.9044Z" fill="#1AA3E0"/>
    <path d="M128.239 71.9044H125.178V72.4964H128.239V71.9044Z" fill="#1AA3E0"/>
    <path d="M157.413 208.053H85.1828C82.797 208.053 80.7606 206.117 80.6363 203.731L74.1716 78.292C74.0473 75.9062 75.8825 73.9704 78.2683 73.9704H150.498C152.884 73.9704 154.92 75.9062 155.045 78.292L161.509 203.731C161.634 206.123 159.798 208.053 157.413 208.053Z" fill="#1AA3E0"/>
    <path d="M157.413 205.169H85.1828C84.3422 205.169 83.5667 204.429 83.5193 203.589L77.0547 78.144C77.031 77.6882 77.2145 77.3922 77.3744 77.2205C77.5342 77.0547 77.8184 76.8535 78.2683 76.8535H150.498C151.339 76.8535 152.114 77.5935 152.162 78.44L158.626 203.879C158.65 204.335 158.467 204.631 158.307 204.802C158.147 204.968 157.869 205.169 157.413 205.169ZM78.2742 77.0074C77.8716 77.0074 77.623 77.179 77.4868 77.327C77.3448 77.475 77.1849 77.7355 77.2086 78.1381L83.6732 203.577C83.7147 204.347 84.4192 205.021 85.1888 205.021H157.413C157.815 205.021 158.064 204.85 158.2 204.702C158.342 204.554 158.502 204.293 158.478 203.891L152.014 78.4519C151.972 77.6823 151.268 77.0074 150.498 77.0074H78.2742Z" fill="white"/>
    <path opacity="0.3" d="M132.153 122.57C140.367 114.14 139.832 100.296 130.957 91.6475C122.082 82.9995 108.229 82.8226 100.014 91.2525C91.7997 99.6824 92.335 113.527 101.21 122.175C110.085 130.823 123.938 131 132.153 122.57Z" fill="white"/>
    <path d="M133.774 106.921C133.934 109.976 133.306 112.847 132.069 115.345C129.37 120.857 123.716 124.61 116.991 124.61C110.266 124.61 104.227 120.863 100.96 115.345C99.4678 112.841 98.5442 109.976 98.3903 106.921C97.8871 97.1472 105.4 89.2322 115.168 89.2322C124.936 89.2322 133.271 97.1531 133.774 106.921Z" fill="white"/>
    <path d="M132.075 115.351C129.376 120.863 123.722 124.616 116.997 124.616C110.272 124.616 104.233 120.869 100.966 115.351C105.263 112.373 110.52 110.639 116.275 110.639C122.029 110.639 127.463 112.373 132.075 115.351Z" fill="#1AA3E0"/>
    <path d="M121.563 106.507C124.523 103.47 124.329 98.481 121.13 95.364C117.932 92.2471 112.939 92.1824 109.98 95.2195C107.02 98.2566 107.214 103.245 110.413 106.362C113.612 109.479 118.604 109.544 121.563 106.507Z" fill="#1AA3E0"/>
    <path d="M147.059 159.26H90.5049C89.4926 159.26 88.6342 158.443 88.5809 157.431L88.1547 149.119C88.1014 148.107 88.8769 147.29 89.8892 147.29H146.443C147.455 147.29 148.314 148.107 148.367 149.119L148.793 157.431C148.847 158.443 148.071 159.26 147.059 159.26Z" fill="white"/>
    <path opacity="0.3" d="M129.743 142.731H106.122C105.11 142.731 104.251 141.914 104.198 140.902L104.109 139.138C104.056 138.125 104.831 137.309 105.844 137.309H129.464C130.477 137.309 131.335 138.125 131.388 139.138L131.477 140.902C131.525 141.908 130.749 142.731 129.743 142.731Z" fill="black"/>
    <path opacity="0.3" d="M138.522 199.096H103.144C101.421 199.096 99.9592 197.698 99.8704 195.982L99.6572 191.903C99.5684 190.18 100.889 188.789 102.611 188.789H137.989C139.712 188.789 141.174 190.186 141.263 191.903L141.476 195.982C141.565 197.698 140.245 199.096 138.522 199.096Z" fill="black"/>
    <path d="M148.095 179.293H91.5409C90.5286 179.293 89.6702 178.476 89.6169 177.464L89.1907 169.152C89.1374 168.14 89.9129 167.323 90.9253 167.323H147.479C148.491 167.323 149.35 168.14 149.403 169.152L149.829 177.464C149.877 178.47 149.101 179.293 148.095 179.293Z" fill="white"/>
    <path d="M97.6977 153.275C97.7569 154.394 96.8985 155.299 95.7797 155.299C94.6608 155.299 93.7077 154.394 93.6485 153.275C93.5893 152.156 94.4477 151.25 95.5665 151.25C96.6854 151.25 97.6385 152.156 97.6977 153.275Z" fill="#263238"/>
    <path d="M103.92 153.275C103.979 154.394 103.12 155.299 102.002 155.299C100.883 155.299 99.9295 154.394 99.8703 153.275C99.8111 152.156 100.67 151.25 101.788 151.25C102.907 151.25 103.86 152.156 103.92 153.275Z" fill="#263238"/>
    <path d="M110.136 153.275C110.195 154.394 109.336 155.299 108.218 155.299C107.099 155.299 106.146 154.394 106.086 153.275C106.027 152.156 106.886 151.25 108.004 151.25C109.123 151.25 110.076 152.156 110.136 153.275Z" fill="#263238"/>
    <path d="M116.358 153.275C116.417 154.394 115.558 155.299 114.439 155.299C113.321 155.299 112.367 154.394 112.308 153.275C112.249 152.156 113.107 151.25 114.226 151.25C115.345 151.25 116.298 152.156 116.358 153.275Z" fill="#263238"/>
    <path d="M98.7278 173.308C98.787 174.427 97.9286 175.333 96.8097 175.333C95.6908 175.333 94.7377 174.427 94.6785 173.308C94.6193 172.189 95.4777 171.283 96.5966 171.283C97.7154 171.283 98.6686 172.189 98.7278 173.308Z" fill="#263238"/>
    <path d="M104.95 173.308C105.009 174.427 104.151 175.333 103.032 175.333C101.913 175.333 100.96 174.427 100.9 173.308C100.841 172.189 101.7 171.283 102.819 171.283C103.937 171.283 104.891 172.189 104.95 173.308Z" fill="#263238"/>
    <path d="M111.172 173.308C111.231 174.427 110.372 175.333 109.254 175.333C108.135 175.333 107.182 174.427 107.122 173.308C107.063 172.189 107.922 171.283 109.04 171.283C110.159 171.283 111.112 172.189 111.172 173.308Z" fill="#263238"/>
    <path d="M117.388 173.308C117.447 174.427 116.588 175.333 115.47 175.333C114.351 175.333 113.398 174.427 113.338 173.308C113.279 172.189 114.138 171.283 115.256 171.283C116.381 171.283 117.334 172.189 117.388 173.308Z" fill="#263238"/>
    <path d="M123.61 173.308C123.669 174.427 122.81 175.333 121.691 175.333C120.573 175.333 119.619 174.427 119.56 173.308C119.501 172.189 120.359 171.283 121.478 171.283C122.597 171.283 123.55 172.189 123.61 173.308Z" fill="#263238"/>
    <path d="M129.831 173.308C129.891 174.427 129.032 175.333 127.913 175.333C126.795 175.333 125.841 174.427 125.782 173.308C125.723 172.189 126.581 171.283 127.7 171.283C128.819 171.283 129.772 172.189 129.831 173.308Z" fill="#263238"/>
    <path d="M197.154 104.559C197.302 104.778 197.379 104.896 197.473 105.056L197.74 105.5C197.912 105.79 198.06 106.086 198.213 106.376C198.509 106.962 198.788 107.549 199.042 108.141C199.551 109.325 199.966 110.532 200.327 111.752C201.055 114.185 201.499 116.677 201.73 119.175L201.777 119.643C201.783 119.708 201.789 119.815 201.795 119.927L201.807 120.247C201.813 120.667 201.795 121.082 201.736 121.478C201.623 122.272 201.41 123.006 201.15 123.681C200.617 125.03 199.889 126.179 199.101 127.221C197.497 129.299 195.674 130.962 193.59 132.436L191.962 130.524C193.424 128.831 194.845 126.954 195.893 125.084C196.426 124.148 196.84 123.189 197.095 122.289C197.213 121.839 197.278 121.407 197.29 121.022C197.302 120.827 197.29 120.644 197.272 120.472L197.254 120.348C197.249 120.312 197.249 120.265 197.231 120.188L197.154 119.773C196.769 117.553 196.236 115.369 195.544 113.261C195.206 112.202 194.78 111.183 194.354 110.177C194.14 109.674 193.91 109.182 193.673 108.709L193.306 108.016L193.122 107.685L192.974 107.424L197.154 104.559Z" fill="#FFBE9D"/>
    <path d="M191.63 132.472L193.773 137.001L195.472 133.176C195.472 133.176 193.969 129.861 191.926 130.163L191.63 132.472Z" fill="#FFBE9D"/>
    <path d="M195.307 137.226L197.012 134.431L195.472 133.17L193.773 137.001L195.307 137.226Z" fill="#FFBE9D"/>
    <path d="M185.669 241.666C186.125 241.666 186.628 241.572 186.977 241.489C187.025 241.477 187.06 241.441 187.066 241.394C187.072 241.347 187.054 241.299 187.013 241.276C186.841 241.163 185.337 240.192 184.757 240.453C184.668 240.494 184.55 240.583 184.526 240.784C184.491 241.045 184.556 241.258 184.722 241.406C184.941 241.601 185.29 241.666 185.669 241.666ZM186.646 241.317C185.781 241.489 185.136 241.459 184.882 241.228C184.775 241.133 184.734 240.991 184.763 240.808C184.775 240.707 184.822 240.678 184.864 240.66C185.166 240.524 186.036 240.95 186.646 241.317Z" fill="#1AA3E0"/>
    <path d="M186.954 241.489C186.971 241.489 186.995 241.483 187.013 241.471C187.048 241.447 187.072 241.412 187.072 241.37C187.072 241.311 187.066 239.884 186.527 239.405C186.385 239.28 186.214 239.227 186.03 239.245C185.734 239.28 185.657 239.464 185.633 239.57C185.521 240.127 186.421 241.199 186.894 241.465C186.912 241.483 186.936 241.489 186.954 241.489ZM186.107 239.482C186.202 239.482 186.291 239.517 186.367 239.582C186.687 239.867 186.8 240.666 186.829 241.145C186.356 240.766 185.793 239.967 185.864 239.624C185.876 239.57 185.906 239.499 186.06 239.482C186.077 239.482 186.095 239.482 186.107 239.482Z" fill="#1AA3E0"/>
    <path d="M180.08 239.251C180.11 239.221 180.116 239.18 180.104 239.138C180.092 239.091 180.045 239.055 179.998 239.055C179.749 239.044 177.624 238.955 177.144 239.476C177.132 239.488 177.126 239.499 177.115 239.511C177.038 239.618 177.02 239.748 177.061 239.878C177.138 240.097 177.286 240.245 177.493 240.31C178.18 240.524 179.394 239.754 180.057 239.274C180.069 239.257 180.075 239.257 180.08 239.251ZM177.322 239.624C177.588 239.34 178.754 239.263 179.636 239.274C178.713 239.902 177.955 240.198 177.565 240.08C177.428 240.038 177.34 239.943 177.286 239.795C177.263 239.736 177.269 239.689 177.304 239.647C177.31 239.636 177.316 239.63 177.322 239.624Z" fill="#1AA3E0"/>
    <path d="M180.08 239.251C180.086 239.245 180.092 239.239 180.098 239.227C180.122 239.192 180.122 239.144 180.098 239.109C180.069 239.061 179.411 237.895 178.624 237.682C178.387 237.617 178.156 237.647 177.949 237.771C177.665 237.937 177.653 238.126 177.689 238.256C177.843 238.807 179.352 239.286 179.998 239.286C180.027 239.286 180.057 239.275 180.08 239.251ZM177.955 238.061C177.979 238.037 178.014 238.008 178.068 237.972C178.222 237.883 178.381 237.86 178.565 237.907C179.08 238.043 179.565 238.706 179.778 239.032C179.08 238.949 178.008 238.517 177.914 238.191C177.908 238.179 177.896 238.126 177.955 238.061Z" fill="#1AA3E0"/>
    <path d="M186.598 87.2194C186.024 90.1616 184.728 96.5789 186.782 98.5443C186.782 98.5443 185.977 101.528 180.513 101.528C174.498 101.528 177.641 98.5443 177.641 98.5443C180.921 97.7629 180.838 95.3238 180.264 93.0387L186.598 87.2194Z" fill="#FFBE9D"/>
    <path d="M176.582 80.2811C176.617 80.2811 176.653 80.2752 176.688 80.2574C176.807 80.1982 176.854 80.0561 176.795 79.9436C176.215 78.7833 175.137 78.6472 175.09 78.6412C174.96 78.6235 174.847 78.7182 174.829 78.8484C174.818 78.9787 174.906 79.0912 175.037 79.1089C175.072 79.1148 175.913 79.2273 176.374 80.1568C176.41 80.2337 176.493 80.2811 176.582 80.2811Z" fill="#263238"/>
    <path d="M174.788 82.8503C174.788 82.8503 173.906 84.4784 173.059 85.2065C173.521 85.763 174.439 85.6446 174.439 85.6446L174.788 82.8503Z" fill="#D8936F"/>
    <path d="M175.226 82.211C175.179 82.6077 174.924 82.9037 174.67 82.8741C174.409 82.8445 174.237 82.4952 174.291 82.0986C174.338 81.7019 174.593 81.4059 174.847 81.4355C175.102 81.471 175.273 81.8144 175.226 82.211Z" fill="#263238"/>
    <path d="M174.96 81.471L174.042 81.0803C174.036 81.0803 174.433 81.8854 174.96 81.471Z" fill="#263238"/>
    <path d="M185.308 238.126L180.477 239.251L177.541 228.145L182.371 227.014L185.308 238.126Z" fill="#7F3E3B"/>
    <path d="M192.72 241.37H187.759L188.149 229.891H193.11L192.72 241.37Z" fill="#7F3E3B"/>
    <path d="M187.368 240.796H192.939C193.14 240.796 193.306 240.938 193.335 241.133L193.969 245.544C194.034 246 193.643 246.432 193.175 246.426C191.234 246.39 190.298 246.278 187.847 246.278C186.338 246.278 184.136 246.432 182.058 246.432C180.021 246.432 179.867 244.372 180.732 244.188C184.615 243.353 185.231 242.199 186.539 241.098C186.776 240.903 187.072 240.796 187.368 240.796Z" fill="#263238"/>
    <path d="M180.051 238.511L185.112 236.184C185.296 236.101 185.503 236.161 185.616 236.326L188.037 240.068C188.285 240.459 188.114 241.015 187.682 241.199C185.906 241.98 185.006 242.27 182.78 243.294C181.412 243.922 178.642 245.372 176.753 246.237C174.906 247.089 173.9 245.283 174.61 244.751C177.789 242.365 178.701 240.684 179.429 239.132C179.553 238.854 179.778 238.635 180.051 238.511Z" fill="#263238"/>
    <path opacity="0.2" d="M177.547 228.145L179.115 234.101L183.887 232.745L182.377 227.02L177.547 228.145Z" fill="black"/>
    <path opacity="0.2" d="M193.11 229.891H188.149L187.954 235.811H192.915L193.11 229.891Z" fill="black"/>
    <path d="M195.336 99.6691C197.396 100.119 199.599 107.531 199.599 107.531L193.773 113.723C193.773 113.723 188.943 106.761 189.925 104.204C190.95 101.54 192.903 99.1363 195.336 99.6691Z" fill="#263238"/>
    <path opacity="0.4" d="M192.068 104.387C191.027 103.434 190.322 103.718 189.843 104.476C189.369 106.678 192.175 111.29 193.306 113.036C193.827 110.953 194.425 106.554 192.068 104.387Z" fill="black"/>
    <path d="M169.259 99.8171C169.259 99.8171 166.897 100.652 171.627 129.743C179.619 129.743 187.877 129.743 191.766 129.743C191.429 121.543 191.417 116.494 195.336 99.6691C195.336 99.6691 191.115 98.7515 186.782 98.5443C183.396 98.3785 180.613 98.2719 177.635 98.5443C173.71 98.9054 169.259 99.8171 169.259 99.8171Z" fill="#263238"/>
    <path opacity="0.4" d="M169.075 110.982C169.205 112.397 169.377 113.99 169.602 115.789C171.254 114.303 172.598 110.076 172.106 107.614C170.952 108.472 169.886 109.798 169.075 110.982Z" fill="black"/>
    <path d="M171.23 106.572C170.135 109.337 168.927 111.971 167.572 114.599C166.216 117.222 164.765 119.797 162.841 122.295L162.463 122.763L162.273 122.994C162.208 123.071 162.155 123.142 162.054 123.249C161.687 123.651 161.29 124 160.882 124.29C160.065 124.871 159.224 125.244 158.407 125.528C156.773 126.078 155.187 126.274 153.648 126.368C150.552 126.493 147.627 126.209 144.673 125.569L144.999 123.077C146.36 123.083 147.787 123.053 149.16 122.964C150.546 122.893 151.913 122.745 153.227 122.509C154.536 122.29 155.803 121.958 156.862 121.496C157.383 121.265 157.839 120.981 158.171 120.697C158.336 120.555 158.472 120.413 158.573 120.271C158.597 120.253 158.65 120.17 158.692 120.111L158.828 119.916L159.106 119.525C160.562 117.37 161.847 114.86 163.066 112.356C164.268 109.84 165.428 107.229 166.512 104.677L171.23 106.572Z" fill="#FFBE9D"/>
    <path d="M169.259 99.8171C166.796 100.415 163.759 107.182 163.759 107.182L168.874 114.7C168.874 114.7 175.682 106.128 174.877 103.505C174.03 100.776 172.248 99.083 169.259 99.8171Z" fill="#263238"/>
    <path d="M146.419 123.438L142.151 121.466L141.725 125.711C141.725 125.711 145.289 126.759 147.047 125.687L146.419 123.438Z" fill="#FFBE9D"/>
    <path d="M139.599 121.04L139.191 124.273L141.725 125.711L142.151 121.467L139.599 121.04Z" fill="#FFBE9D"/>
    <path d="M188.741 82.501C187.842 87.3377 187.557 89.4038 184.787 91.606C180.619 94.9093 174.871 92.7426 174.314 87.7343C173.811 83.2233 175.368 76.0719 180.382 74.7222C185.32 73.3902 189.641 77.6644 188.741 82.501Z" fill="#FFBE9D"/>
    <path d="M178.115 83.5193C177.837 85.988 177.73 92.3934 183.153 92.5947C189.795 92.8433 191.784 87.166 191.192 84.8987C194.644 82.0867 195.147 77.25 191.263 73.55C187.38 69.85 178.831 71.9161 176.446 75.5214C173.48 79.9969 178.115 83.5193 178.115 83.5193Z" fill="#263238"/>
    <path d="M184.763 74.9945C184.443 72.3956 184.692 70.5959 187.125 70.5959C189.558 70.5959 192.891 71.478 194.111 73.9763C195.33 76.4686 195.431 80.3639 192.027 79.9732C188.623 79.5766 185.148 78.1084 184.763 74.9945Z" fill="#1AA3E0"/>
    <path d="M188.54 74.367C187.96 71.2649 190.725 62.527 197.473 61.9587C200.599 61.6982 202.044 65.0608 200.41 65.6113C203.364 65.5758 205.264 69.4889 202.505 70.075C204.69 71.4721 204.145 74.3374 201.037 75.7464C198.74 76.7883 189.339 78.6649 188.54 74.367Z" fill="#263238"/>
    <path d="M195.745 77.6999C193.572 77.6999 191.305 77.3803 189.896 76.439C189.043 75.8647 188.576 75.107 188.505 74.1835C188.499 74.1006 188.558 74.0295 188.641 74.0236C188.73 74.0177 188.795 74.0769 188.801 74.1598C188.866 74.9886 189.286 75.6694 190.062 76.1903C192.737 77.9841 198.93 77.4039 200.872 76.7705C202.541 76.2259 203.672 75.1721 203.897 73.9467C204.062 73.0468 203.707 72.2003 202.908 71.5491C202.843 71.4958 202.837 71.407 202.884 71.3419C202.938 71.2767 203.026 71.2708 203.092 71.3182C203.974 72.0286 204.37 73.0054 204.187 73.9999C203.944 75.3319 202.736 76.4745 200.966 77.0487C199.948 77.3862 197.894 77.6999 195.745 77.6999Z" fill="#263238"/>
    <path d="M176.605 82.8681C176.013 83.691 175.842 84.7151 175.972 85.538C176.167 86.7812 177.381 86.8641 178.257 86.0649C179.044 85.3486 179.891 83.839 179.246 82.8089C178.606 81.7966 177.28 81.9268 176.605 82.8681Z" fill="#FFBE9D"/>
    <path d="M176.943 129.743C176.943 129.743 179.82 163.777 182.804 182.958C185.213 198.45 187.119 234.663 187.119 234.663H193.88C193.88 234.663 196.283 199.534 195.058 184.207C191.962 145.431 198.871 142.275 191.761 129.737H176.943V129.743Z" fill="#1AA3E0"/>
    <path opacity="0.4" d="M185.456 142.607C182.727 145.395 180.649 148.728 179.068 152.245C179.855 159.893 180.791 168.383 181.785 175.818C184.864 168.045 187.498 156.087 185.456 142.607Z" fill="black"/>
    <path d="M172.213 129.53C172.213 129.53 165.967 166.701 164.984 183.455C167.435 198.948 177.464 231.697 177.464 231.697L183.615 229.471C183.615 229.471 180.211 193.762 176.493 183.988C184.822 155.945 190.944 148.858 189.162 129.749C184.911 129.743 172.213 129.53 172.213 129.53Z" fill="#1AA3E0"/>
    <path d="M176.641 233.331L184.953 231.075L184.479 227.76L175.581 230.17L176.641 233.331Z" fill="#263238"/>
    <path d="M186.196 234.799H194.809L195.259 231.78L186.148 231.472L186.196 234.799Z" fill="#263238"/>
    <path d="M192.068 128.559L192.974 130.364C193.045 130.506 192.88 130.648 192.649 130.648H171.526C171.343 130.648 171.195 130.56 171.183 130.447L170.999 128.642C170.987 128.517 171.141 128.411 171.343 128.411H191.737C191.891 128.411 192.021 128.47 192.068 128.559Z" fill="#1AA3E0"/>
    <path opacity="0.5" d="M192.068 128.559L192.974 130.364C193.045 130.506 192.88 130.648 192.649 130.648H171.526C171.343 130.648 171.195 130.56 171.183 130.447L170.999 128.642C170.987 128.517 171.141 128.411 171.343 128.411H191.737C191.891 128.411 192.021 128.47 192.068 128.559Z" fill="black"/>
    <path d="M189.327 130.844H189.872C189.979 130.844 190.062 130.791 190.056 130.719L189.801 128.375C189.795 128.304 189.7 128.251 189.588 128.251H189.043C188.937 128.251 188.854 128.304 188.86 128.375L189.114 130.719C189.126 130.785 189.221 130.844 189.327 130.844Z" fill="#1AA3E0"/>
    <path d="M181.999 113.593C181.862 113.593 181.75 113.504 181.714 113.374C179.785 106.24 175.771 100.368 173.853 99.4619C173.64 99.3613 173.462 99.3317 173.355 99.379C173.207 99.4442 173.03 99.379 172.965 99.231C172.9 99.083 172.965 98.9055 173.113 98.8403C173.391 98.716 173.722 98.7456 174.107 98.9291C176.15 99.8941 180.199 105.696 182.224 113.001C183.674 112.983 185.912 112.8 186.456 112.758C187.131 111.953 192.098 105.749 190.239 98.9646C190.198 98.8048 190.287 98.645 190.446 98.6035C190.6 98.5621 190.766 98.6509 190.808 98.8107C192.874 106.365 186.883 113.179 186.817 113.244C186.77 113.297 186.699 113.332 186.622 113.338C186.598 113.332 183.644 113.593 181.999 113.593Z" fill="#1AA3E0"/>
    <path d="M191.802 117.772C188.576 111.722 187.256 111.302 186.681 109.354C186.681 109.354 187.202 107.886 188.522 106.4C188.126 106.288 187.291 106.122 186.764 106.021C186.823 105.755 186.883 105.494 186.948 105.246C186.51 105.127 185.604 105.252 185.142 105.329L185.124 104.731C185.124 104.731 183.49 104.405 182.827 104.583C182.892 104.855 182.958 105.145 183.023 105.435C182.448 105.548 181.525 105.731 181.093 105.85C182.348 107.264 182.804 108.774 182.898 109.147C181.158 112.131 174.397 131.353 185.397 132.797C196.396 134.248 195.028 123.823 191.802 117.772Z" fill="#1AA3E0"/>
    <path opacity="0.4" d="M191.802 117.772C188.576 111.722 187.256 111.302 186.681 109.354C186.681 109.354 187.202 107.886 188.522 106.4C188.126 106.288 187.291 106.122 186.764 106.021C186.823 105.755 186.883 105.494 186.948 105.246C186.51 105.127 185.604 105.252 185.142 105.329L185.124 104.731C185.124 104.731 183.49 104.405 182.827 104.583C182.892 104.855 182.958 105.145 183.023 105.435C182.448 105.548 181.525 105.731 181.093 105.85C182.348 107.264 182.804 108.774 182.898 109.147C181.158 112.131 174.397 131.353 185.397 132.797C196.396 134.248 195.028 123.823 191.802 117.772Z" fill="white"/>
    <path d="M182.49 108.579C182.407 108.727 182.413 109.283 182.401 109.502C182.389 109.727 182.981 109.875 183.644 109.934C184.307 109.994 187.06 110.106 186.977 109.798C186.888 109.49 187.113 109.07 187.125 108.81C187.137 108.549 186.03 108.537 185.101 108.573C184.171 108.608 182.673 108.247 182.49 108.579Z" fill="#1AA3E0"/>
    <path d="M176.09 130.844H176.635C176.742 130.844 176.824 130.791 176.819 130.719L176.564 128.375C176.558 128.304 176.463 128.251 176.351 128.251H175.806C175.7 128.251 175.617 128.304 175.623 128.375L175.877 130.719C175.883 130.785 175.978 130.844 176.09 130.844Z" fill="#1AA3E0"/>
</svg>
