<svg width="294" height="362" viewBox="0 0 294 362" fill="none" xmlns="http://www.w3.org/2000/svg">
    <path d="M207.346 47.1983H261.575C261.575 47.1983 256.783 38.4722 242.82 39.7753C229.492 40.9877 228.799 35.4782 222.036 34.8267C215.273 34.1751 209.606 39.2887 207.346 47.1983Z" fill="#E0E0E0"/>
    <path d="M65.6004 190.561C65.6004 190.561 60.1651 193.497 68.0747 204.846C75.9843 216.195 81.1309 221.639 81.1309 221.639C81.1309 221.639 82.6319 224.319 80.3061 225.086C77.9802 225.853 72.6109 225.746 71.9511 228.806C71.2666 231.99 73.8646 234.579 78.6648 236.435C83.465 238.291 93.8406 242.852 94.7726 243.264C95.7046 243.677 96.7273 244.873 95.2263 245.648C93.7252 246.423 82.0876 249.285 83.7701 254.72C85.4527 260.156 99.7048 263.232 101.255 263.595C102.806 263.958 103.243 264.535 103.235 265.36C103.227 266.185 99.2264 266.779 95.9438 267.727C92.6612 268.676 89.0322 270.358 90.2694 273.418C91.5065 276.478 100.464 282.029 120.242 281.245L129.38 280.288L133.273 271.917C140.506 253.5 138.222 243.215 135.747 241.037C133.273 238.86 130.485 241.747 128.514 244.534C126.543 247.322 124.662 250.902 123.879 250.638C123.095 250.374 122.699 249.772 122.864 248.163C123.029 246.555 124.819 232.113 120.233 228.732C115.648 225.35 109.115 235.396 107.862 236.559C106.608 237.722 105.841 236.353 105.759 235.346C105.676 234.34 104.81 223.049 104.604 217.886C104.398 212.723 102.839 209.44 99.6141 209.044C96.3892 208.648 94.8469 213.762 93.354 215.709C91.8612 217.655 89.824 215.354 89.824 215.354C89.824 215.354 86.3682 208.706 78.2771 197.506C70.1861 186.305 65.4931 190.644 65.4931 190.644" fill="#EBEBEB"/>
    <path d="M130.147 282.374C124.217 274.127 113.932 259.281 105.033 246.587C96.1338 233.894 88.0757 222.413 82.1868 214.133C79.2424 210.009 76.867 206.66 75.2093 204.342L73.3123 201.67L72.8257 200.977C72.7184 200.821 72.6689 200.73 72.6689 200.73C72.6689 200.73 72.7349 200.804 72.8504 200.961L73.3618 201.637L75.3 204.277C76.9495 206.561 79.4239 209.893 82.3518 214.017C88.2819 222.265 96.373 233.729 105.264 246.422C114.155 259.116 124.424 273.978 130.312 282.251" fill="#E0E0E0"/>
    <path d="M79.4567 229.267C79.679 229.276 79.8999 229.306 80.1165 229.358C80.5371 229.432 81.1392 229.556 81.8898 229.721C83.3826 230.042 85.428 230.545 87.6632 231.139L93.4366 232.682L95.1851 233.143C95.4037 233.181 95.617 233.244 95.8202 233.333C95.5979 233.33 95.3766 233.303 95.1604 233.251C94.7397 233.176 94.1377 233.053 93.3871 232.879C91.9025 232.541 89.8571 232.055 87.6137 231.42L81.8403 229.919L80.0917 229.465C79.8721 229.428 79.6585 229.361 79.4567 229.267Z" fill="#E0E0E0"/>
    <path d="M96.3649 232.706C96.2824 232.706 97.132 228.418 98.2536 223.172C99.3753 217.927 100.357 213.679 100.431 213.695C100.505 213.712 99.664 217.976 98.5341 223.23C97.4041 228.484 96.4391 232.706 96.3649 232.706Z" fill="#E0E0E0"/>
    <path d="M109.149 252.773C109.22 252.559 109.317 252.354 109.438 252.163L110.312 250.513C111.046 249.144 112.06 247.214 113.091 245.103C114.122 242.991 115.013 240.979 115.632 239.585L116.374 237.894C116.445 237.677 116.548 237.471 116.679 237.284C116.633 237.507 116.567 237.725 116.481 237.935C116.333 238.348 116.11 238.933 115.821 239.659C115.244 241.111 114.395 243.09 113.347 245.235C112.3 247.379 111.26 249.26 110.485 250.612C110.089 251.28 109.759 251.825 109.528 252.187C109.421 252.394 109.294 252.59 109.149 252.773Z" fill="#E0E0E0"/>
    <path d="M93.1807 253.071C93.382 253.016 93.5905 252.991 93.7992 252.997L95.5065 252.898C96.9416 252.824 98.9293 252.75 101.123 252.675C103.317 252.601 105.305 252.56 106.748 252.543H108.455C108.664 252.525 108.874 252.525 109.082 252.543C108.878 252.599 108.667 252.627 108.455 252.626L106.756 252.725C105.313 252.791 103.325 252.873 101.131 252.939C98.9376 253.005 96.9499 253.055 95.5065 253.071H93.8075C93.5993 253.096 93.3889 253.096 93.1807 253.071Z" fill="#E0E0E0"/>
    <path d="M102.213 272.297C102.483 272.236 102.76 272.206 103.037 272.206L105.223 272.074C107.062 271.975 109.611 271.851 112.423 271.736C115.236 271.62 117.784 271.538 119.624 271.488L121.809 271.439C122.084 271.417 122.359 271.417 122.634 271.439C122.362 271.491 122.086 271.522 121.809 271.529L119.624 271.661C117.784 271.76 115.236 271.884 112.423 272C109.611 272.115 107.062 272.198 105.223 272.247L103.037 272.297C102.763 272.319 102.487 272.319 102.213 272.297Z" fill="#E0E0E0"/>
    <path d="M122.089 271.305C122.182 271.034 122.298 270.772 122.436 270.521L123.475 268.418C124.349 266.645 125.537 264.195 126.774 261.449C128.011 258.702 129.083 256.195 129.842 254.364L130.741 252.203C130.84 251.936 130.958 251.677 131.096 251.428C131.038 251.711 130.953 251.987 130.84 252.253C130.659 252.78 130.386 253.531 130.015 254.447C129.306 256.294 128.267 258.826 127.021 261.573C125.776 264.319 124.547 266.769 123.631 268.517C123.17 269.391 122.807 270.101 122.51 270.579C122.388 270.831 122.247 271.074 122.089 271.305Z" fill="#E0E0E0"/>
    <path d="M198.785 149.586C188.97 138.575 189.91 122.682 193.63 109.081C194.249 106.805 194.57 104.331 196.104 102.582C197.638 100.834 200.542 100.058 202.364 101.51C203.874 102.714 204.146 104.867 204.707 106.731C205.452 109.21 206.882 111.428 208.831 113.131C210.109 114.236 211.8 115.119 213.433 114.673C215.668 114.047 216.542 111.374 217.07 109.09C218.043 104.839 219.022 100.589 220.006 96.3387C220.414 94.0323 221.185 91.8052 222.291 89.7405C223.512 87.7445 225.59 86.1115 227.866 86.0208C230.143 85.93 232.559 87.8105 232.485 90.1446C232.349 91.1083 232.148 92.0617 231.883 92.9984C231.759 93.4662 231.775 93.9601 231.929 94.419C232.083 94.8778 232.368 95.2815 232.749 95.5799C233.574 96.0665 234.654 95.6376 235.496 95.1263C238.391 93.386 240.692 90.8045 242.877 88.2064C245.063 85.6084 247.224 82.9444 249.954 80.9402C252.684 78.936 256.098 77.6411 259.406 78.2349C262.713 78.8287 265.707 81.6659 265.773 85.0558C265.839 88.4456 263.2 91.2828 260.544 93.3942C256.62 96.5291 252.264 99.0819 247.612 100.974C246.732 101.219 245.955 101.739 245.393 102.459C244.568 103.861 245.616 105.708 246.993 106.582C248.56 107.547 250.44 107.811 252.173 108.438C253.905 109.065 255.637 110.31 255.909 112.141C256.288 114.69 253.764 116.669 251.471 117.816C246.88 120.098 241.931 121.576 236.84 122.187C235.017 122.402 233.128 122.525 231.495 123.375C229.862 124.224 228.567 126.088 229.021 127.886C229.475 129.684 231.429 130.699 233.26 130.781C235.091 130.864 236.889 130.295 238.712 130.064C242.119 129.618 246.135 130.79 247.471 133.973C247.868 135.055 248.008 136.215 247.879 137.36C247.75 138.505 247.356 139.605 246.729 140.571C245.473 142.479 243.846 144.114 241.945 145.38C235.574 150.16 228.05 153.166 220.138 154.089C212.286 154.914 205.391 153.974 198.801 149.627" fill="#F5F5F5"/>
    <path d="M200.781 150.905C202.562 145.593 200.698 148.257 204.368 141.832C208.415 134.897 212.857 128.2 217.672 121.774C218.937 120.058 220.187 118.368 221.425 116.702C222.662 115.052 223.899 113.402 225.186 111.844C227.689 108.896 230.351 106.088 233.161 103.431C235.825 100.874 238.448 98.5482 240.922 96.3873C243.397 94.2264 245.739 92.2635 247.949 90.5727C251.429 87.8755 255.116 85.4569 258.977 83.3394C260.337 82.5888 261.451 82.0445 262.152 81.6898L262.977 81.2857L263.265 81.162C263.18 81.2259 263.089 81.2812 262.993 81.327L262.168 81.7723C261.443 82.16 260.379 82.7291 259.034 83.4961C255.22 85.6681 251.575 88.1247 248.131 90.8448C245.937 92.5521 243.611 94.5233 241.153 96.6842C238.695 98.8452 236.089 101.188 233.433 103.744C230.644 106.4 227.998 109.203 225.507 112.141C224.221 113.675 223.033 115.316 221.771 116.982L218.018 122.054C213.22 128.459 208.781 135.125 204.723 142.022C201.044 148.431 202.892 145.725 201.077 151.004" fill="#E0E0E0"/>
    <path d="M225.343 111.859C225.309 111.519 225.309 111.176 225.343 110.836C225.343 110.177 225.45 109.187 225.557 108.057C225.772 105.706 226.184 102.481 226.646 98.9266C227.108 95.3718 227.471 92.1469 227.644 89.8046C227.735 88.6334 227.801 87.6932 227.842 87.0333C227.839 86.6922 227.875 86.3518 227.949 86.0189C228.003 86.3569 228.022 86.6996 228.007 87.0416C228.007 87.6932 228.007 88.6911 227.949 89.8211C227.85 92.1799 227.537 95.4213 227.067 98.9843C226.596 102.547 226.184 105.665 225.862 108.057C225.722 109.154 225.607 110.078 225.516 110.82C225.497 111.172 225.439 111.52 225.343 111.859Z" fill="#E0E0E0"/>
    <path d="M255.86 113.32C255.458 113.317 255.057 113.273 254.664 113.188C253.897 113.072 252.783 112.907 251.406 112.742C248.659 112.396 244.808 112.058 240.618 111.86C236.428 111.662 232.56 111.662 229.78 111.736C228.395 111.736 227.306 111.819 226.481 111.852C226.078 111.885 225.672 111.885 225.269 111.852C225.664 111.754 226.067 111.693 226.473 111.67C227.248 111.588 228.37 111.489 229.772 111.423C232.552 111.266 236.37 111.225 240.643 111.423C244.262 111.579 247.87 111.918 251.455 112.437C252.825 112.643 253.93 112.858 254.697 113.015C255.093 113.079 255.483 113.181 255.86 113.32Z" fill="#E0E0E0"/>
    <path d="M204.856 141.371C204.795 141.243 204.756 141.107 204.74 140.967C204.674 140.645 204.592 140.257 204.484 139.787C204.278 138.764 204.006 137.313 203.701 135.432C203.082 131.746 202.39 126.624 201.697 120.957C201.004 115.291 200.361 110.169 199.824 106.474C199.561 104.676 199.338 103.175 199.173 102.103C199.107 101.625 199.049 101.229 199 100.907C198.987 100.767 198.987 100.626 199 100.487C199.059 100.615 199.101 100.751 199.123 100.891L199.371 102.07C199.585 103.093 199.849 104.544 200.154 106.425C200.773 110.112 201.466 115.234 202.159 120.9C202.851 126.566 203.495 131.688 204.031 135.383C204.303 137.181 204.517 138.682 204.682 139.762C204.757 140.232 204.806 140.628 204.856 140.95C204.874 141.09 204.874 141.231 204.856 141.371Z" fill="#E0E0E0"/>
    <path d="M246.729 138.047C246.593 138.09 246.451 138.113 246.309 138.113L245.088 138.228L240.601 138.591C236.816 138.896 231.586 139.416 225.813 139.927C220.04 140.439 214.794 140.909 210.967 141.14C209.07 141.255 207.536 141.329 206.472 141.362H205.251C205.109 141.384 204.965 141.384 204.823 141.362C204.959 141.323 205.101 141.301 205.243 141.296L206.464 141.181L210.951 140.818C214.736 140.513 219.965 139.993 225.739 139.482C231.512 138.971 236.75 138.5 240.585 138.278C242.49 138.162 244.024 138.08 245.088 138.047H246.309C246.448 138.03 246.59 138.03 246.729 138.047Z" fill="#E0E0E0"/>
    <path d="M279.209 221.985C279.18 222.119 279.136 222.249 279.077 222.373L278.624 223.47C278.203 224.46 277.609 225.854 276.867 227.594L270.508 242.3L270.466 242.382H270.376L250.4 245.681L243.703 246.778L243.397 246.828L243.472 246.531C245.121 240.106 246.598 234.159 247.876 229.169L247.967 229.359L236.23 224.113L232.989 222.637L232.164 222.241C232.065 222.199 231.971 222.147 231.884 222.084L232.18 222.192L233.046 222.546L236.346 223.94L248.14 229.054L248.272 229.111V229.243C247.018 234.274 245.542 240.196 243.942 246.63L243.711 246.382L250.408 245.277L270.392 242.027L270.252 242.135L276.743 227.495C277.527 225.746 278.153 224.361 278.599 223.371L279.094 222.291C279.126 222.187 279.165 222.085 279.209 221.985Z" fill="#E0E0E0"/>
    <path d="M246.045 244.46L245.492 245.895L246.366 247.165L244.832 247.091L243.9 248.312L243.496 246.827L242.044 246.316L243.331 245.475L243.372 243.94L244.568 244.905L246.045 244.46Z" fill="#E0E0E0"/>
    <path d="M232.329 221.16L232.056 221.878L232.485 222.505L231.726 222.464L231.265 223.074L231.058 222.34L230.341 222.084L230.976 221.664L231.001 220.896L231.594 221.375L232.329 221.16Z" fill="#E0E0E0"/>
    <path d="M271.069 241.416L270.796 242.134L271.225 242.76L270.466 242.727L270.005 243.338L269.798 242.595L269.081 242.348L269.716 241.927L269.732 241.16L270.334 241.639L271.069 241.416Z" fill="#E0E0E0"/>
    <path d="M248.708 228.558L248.436 229.267L248.873 229.902L248.106 229.861L247.644 230.471L247.446 229.729L246.721 229.482L247.364 229.061L247.381 228.294L247.974 228.772L248.708 228.558Z" fill="#E0E0E0"/>
    <path d="M280.142 221.268L279.869 221.986L280.306 222.613L279.539 222.58L279.078 223.19L278.88 222.448L278.154 222.192L278.797 221.78L278.814 221.013L279.407 221.491L280.142 221.268Z" fill="#E0E0E0"/>
    <path d="M30.1516 281.295H73.3368C73.3368 281.295 69.5181 274.342 58.4001 275.357C47.7853 276.322 47.2492 271.934 41.8469 271.398C36.4446 270.862 31.9579 274.994 30.1516 281.295Z" fill="#E0E0E0"/>
    <path d="M38.7297 111.29H81.9067C81.9067 111.29 78.088 104.346 66.97 105.352C56.3634 106.325 55.8191 101.937 50.425 101.401C45.031 100.865 40.5277 104.997 38.7297 111.29Z" fill="#F5F5F5"/>
    <path d="M258.021 141.322H293.486C293.486 141.322 290.352 135.615 281.222 136.439C272.496 137.264 272.05 133.635 267.621 133.19C263.192 132.744 259.497 136.151 258.021 141.322Z" fill="#F5F5F5"/>
    <path d="M187.18 211.337C188.945 198.05 179.601 187.08 167.922 180.49C156.243 173.9 142.692 171.673 129.792 168.028C117.627 164.572 105.528 159.524 96.521 150.65C87.5145 141.775 82.104 128.439 85.3371 116.215C86.1619 113.147 87.6052 110.063 90.2445 108.289C92.8838 106.516 96.9004 106.566 98.8717 109.056C103.062 114.368 94.8962 123.902 100.01 128.307C101.181 129.329 102.798 129.7 104.01 130.665C107.235 133.247 106.196 138.253 106.649 142.361C107.548 150.485 115.169 156.126 122.65 159.417C132.671 163.821 143.525 165.892 154.148 168.49C164.771 171.088 175.501 174.395 184.351 180.861C193.201 187.327 200.896 197.357 200.847 208.318C200.847 211.378 200.443 215.139 198.521 217.514C196.599 219.89 194.158 220.393 191.387 219.09C188.615 217.786 186.685 215.79 187.197 211.353" fill="#1AA3E0"/>
    <g opacity="0.8">
        <path opacity="0.8" d="M187.18 211.337C188.945 198.05 179.601 187.08 167.922 180.49C156.243 173.9 142.692 171.673 129.792 168.028C117.627 164.572 105.528 159.524 96.521 150.65C87.5145 141.775 82.104 128.439 85.3371 116.215C86.1619 113.147 87.6052 110.063 90.2445 108.289C92.8838 106.516 96.9004 106.566 98.8717 109.056C103.062 114.368 94.8962 123.902 100.01 128.307C101.181 129.329 102.798 129.7 104.01 130.665C107.235 133.247 106.196 138.253 106.649 142.361C107.548 150.485 115.169 156.126 122.65 159.417C132.671 163.821 143.525 165.892 154.148 168.49C164.771 171.088 175.501 174.395 184.351 180.861C193.201 187.327 200.896 197.357 200.847 208.318C200.847 211.378 200.443 215.139 198.521 217.514C196.599 219.89 194.158 220.393 191.387 219.09C188.615 217.786 186.685 215.79 187.197 211.353" fill="white"/>
    </g>
    <path d="M130.684 105.692C130.264 100.743 133.934 96.4793 138.107 94.1864C142.281 91.8935 147.064 90.9533 151.361 88.9161C162.042 83.852 168.83 71.934 169.333 59.7191C169.836 47.5042 164.533 35.281 156.252 26.3074C152.879 22.6619 148.739 18.835 148.689 13.8616C148.64 8.66552 153.638 4.57464 158.702 4.64062C163.766 4.7066 168.368 8.07993 171.379 12.311C174.389 16.5421 176.047 21.565 177.672 26.5136C176.517 24.4352 178.884 21.8702 181.177 22.0928C183.47 22.3155 185.301 24.2208 186.678 26.1177C192.78 34.4024 195.707 44.6016 194.926 54.8611C194.1 64.9294 189.54 74.3252 182.142 81.2044C174.001 88.6274 163.238 92.0997 152.797 95.3988L131.014 102.269" fill="#1AA3E0"/>
    <g opacity="0.8">
        <path opacity="0.8" d="M130.684 105.692C130.264 100.743 133.934 96.4793 138.107 94.1864C142.281 91.8935 147.064 90.9533 151.361 88.9161C162.042 83.852 168.83 71.934 169.333 59.7191C169.836 47.5042 164.533 35.281 156.252 26.3074C152.879 22.6619 148.739 18.835 148.689 13.8616C148.64 8.66552 153.638 4.57464 158.702 4.64062C163.766 4.7066 168.368 8.07993 171.379 12.311C174.389 16.5421 176.047 21.565 177.672 26.5136C176.517 24.4352 178.884 21.8702 181.177 22.0928C183.47 22.3155 185.301 24.2208 186.678 26.1177C192.78 34.4024 195.707 44.6016 194.926 54.8611C194.1 64.9294 189.54 74.3252 182.142 81.2044C174.001 88.6274 163.238 92.0997 152.797 95.3988L131.014 102.269" fill="white"/>
    </g>
    <path d="M124.622 2.1988C123.517 2.65449 122.631 3.51914 122.149 4.6123C121.666 5.70546 121.625 6.94268 122.033 8.0658C122.44 9.18891 123.266 10.1112 124.338 10.6401C125.409 11.169 126.643 11.2637 127.783 10.9045C128.923 10.5453 129.879 9.75986 130.454 8.71213C131.028 7.66441 131.176 6.43532 130.866 5.28134C130.556 4.12737 129.813 3.13766 128.79 2.51874C127.768 1.89983 126.547 1.69952 125.381 1.95961" fill="#1AA3E0"/>
    <g opacity="0.8">
        <path opacity="0.8" d="M124.622 2.1988C123.517 2.65449 122.631 3.51914 122.149 4.6123C121.666 5.70546 121.625 6.94268 122.033 8.0658C122.44 9.18891 123.266 10.1112 124.338 10.6401C125.409 11.169 126.643 11.2637 127.783 10.9045C128.923 10.5453 129.879 9.75986 130.454 8.71213C131.028 7.66441 131.176 6.43532 130.866 5.28134C130.556 4.12737 129.813 3.13766 128.79 2.51874C127.768 1.89983 126.547 1.69952 125.381 1.95961" fill="white"/>
    </g>
    <path d="M151.484 320.002C148.812 314.468 151.146 307.564 155.402 303.127C159.658 298.69 165.464 296.158 171.072 293.683C183.494 288.207 196.64 281.691 202.95 269.682C205.078 265.633 206.29 261.179 207.486 256.758C209.804 248.213 211.981 238.506 207.321 230.976C205.977 228.806 203.964 226.852 201.457 226.439C198.595 225.928 195.684 227.503 193.902 229.804C192.251 232.209 191.258 235.004 191.024 237.912C190.331 243.38 190.908 248.947 190.331 254.407C189.754 259.867 187.766 265.699 183.279 268.816C177.778 272.651 169.934 271.794 164.598 275.843C160.284 279.142 158.643 284.784 155.278 289.04C152.441 292.595 148.474 295.019 144.845 297.758C141.216 300.496 137.702 303.828 136.465 308.208C135.816 310.497 135.841 312.925 136.537 315.2C137.232 317.476 138.57 319.502 140.388 321.037C142.207 322.572 144.429 323.549 146.789 323.853C149.149 324.156 151.547 323.773 153.694 322.748" fill="#1AA3E0"/>
    <g opacity="0.8">
        <path opacity="0.8" d="M151.484 320.002C148.812 314.468 151.146 307.564 155.402 303.127C159.658 298.69 165.464 296.158 171.072 293.683C183.494 288.207 196.64 281.691 202.95 269.682C205.078 265.633 206.29 261.179 207.486 256.758C209.804 248.213 211.981 238.506 207.321 230.976C205.977 228.806 203.964 226.852 201.457 226.439C198.595 225.928 195.684 227.503 193.902 229.804C192.251 232.209 191.258 235.004 191.024 237.912C190.331 243.38 190.908 248.947 190.331 254.407C189.754 259.867 187.766 265.699 183.279 268.816C177.778 272.651 169.934 271.794 164.598 275.843C160.284 279.142 158.643 284.784 155.278 289.04C152.441 292.595 148.474 295.019 144.845 297.758C141.216 300.496 137.702 303.828 136.465 308.208C135.816 310.497 135.841 312.925 136.537 315.2C137.232 317.476 138.57 319.502 140.388 321.037C142.207 322.572 144.429 323.549 146.789 323.853C149.149 324.156 151.547 323.773 153.694 322.748" fill="white"/>
    </g>
    <path d="M68.908 40.4189C66.712 38.7885 64.9365 36.6577 63.729 34.2034C62.5216 31.7492 61.917 29.0424 61.9653 26.3077C62.0137 23.5729 62.7137 20.8892 64.0073 18.4792C65.3008 16.0693 67.1505 14.0026 69.4029 12.4508C71.9432 10.7106 74.9454 9.63835 77.2052 7.50219C79.2094 5.6382 80.5043 3.05665 82.756 1.48958C84.1612 0.493082 85.848 -0.0283983 87.5704 0.00119323C89.2928 0.0307848 90.9607 0.6099 92.3309 1.65408C93.701 2.69825 94.7017 4.15287 95.187 5.80577C95.6723 7.45866 95.6168 9.22338 95.0286 10.8425C93.9977 13.7375 91.3996 15.8572 90.3109 18.7274C89.1397 21.8285 89.8985 25.3256 89.4861 28.5752C89.2162 30.5984 88.4944 32.5349 87.3741 34.2411C86.2539 35.9473 84.764 37.3795 83.0149 38.4315C81.2658 39.4835 79.3023 40.1284 77.27 40.3182C75.2378 40.508 73.1888 40.238 71.2751 39.5282" fill="#1AA3E0"/>
    <g opacity="0.8">
        <path opacity="0.8" d="M68.908 40.4189C66.712 38.7885 64.9365 36.6577 63.729 34.2034C62.5216 31.7492 61.917 29.0424 61.9653 26.3077C62.0137 23.5729 62.7137 20.8892 64.0073 18.4792C65.3008 16.0693 67.1505 14.0026 69.4029 12.4508C71.9432 10.7106 74.9454 9.63835 77.2052 7.50219C79.2094 5.6382 80.5043 3.05665 82.756 1.48958C84.1612 0.493082 85.848 -0.0283983 87.5704 0.00119323C89.2928 0.0307848 90.9607 0.6099 92.3309 1.65408C93.701 2.69825 94.7017 4.15287 95.187 5.80577C95.6723 7.45866 95.6168 9.22338 95.0286 10.8425C93.9977 13.7375 91.3996 15.8572 90.3109 18.7274C89.1397 21.8285 89.8985 25.3256 89.4861 28.5752C89.2162 30.5984 88.4944 32.5349 87.3741 34.2411C86.2539 35.9473 84.764 37.3795 83.0149 38.4315C81.2658 39.4835 79.3023 40.1284 77.27 40.3182C75.2378 40.508 73.1888 40.238 71.2751 39.5282" fill="white"/>
    </g>
    <path d="M69.2219 22.7353H79.3584V43.6268C79.3584 44.2128 79.243 44.793 79.0188 45.3344C78.7945 45.8757 78.4658 46.3676 78.0515 46.782C77.6372 47.1963 77.1453 47.525 76.6039 47.7492C76.0626 47.9735 75.4823 48.0889 74.8964 48.0889H73.6922C72.5088 48.0889 71.3739 47.6188 70.5371 46.782C69.7003 45.9452 69.2302 44.8102 69.2302 43.6268V22.7353H69.2219Z" fill="#1AA3E0"/>
    <path d="M69.2219 22.7358L74.286 13.4406L79.3584 22.7358H69.2219Z" fill="#FFBE9D"/>
    <path d="M72.2819 17.1191C72.2819 17.1191 73.8242 19.4367 76.2985 17.1191L74.2943 13.4406L72.2819 17.1191Z" fill="#1AA3E0"/>
    <path d="M79.4981 42.6141C77.7881 42.8207 76.0643 42.8897 74.3433 42.8203C72.625 42.8898 70.9039 42.8208 69.1967 42.6141C70.9039 42.4073 72.625 42.3384 74.3433 42.4079C76.0643 42.3385 77.7881 42.4074 79.4981 42.6141Z" fill="#263238"/>
    <path d="M79.3583 41.0544C77.6842 41.261 75.996 41.33 74.3107 41.2606C72.6253 41.33 70.9371 41.261 69.2631 41.0544C70.938 40.8582 72.6256 40.7921 74.3107 40.8565C75.9958 40.7921 77.6834 40.8582 79.3583 41.0544Z" fill="#263238"/>
    <path d="M72.199 22.8849C72.3062 22.8849 72.4052 26.9263 72.4052 31.9162C72.4052 36.9061 72.3062 40.9888 72.199 40.9888C72.0918 40.9888 71.9928 36.9391 71.9928 31.9162C71.9928 26.8934 72.0835 22.8849 72.199 22.8849Z" fill="#FAFAFA"/>
    <path d="M76.2981 22.8849C76.4136 22.8849 76.5043 26.9263 76.5043 31.9162C76.5043 36.9061 76.4136 40.9888 76.2981 40.9888C76.1826 40.9888 76.0919 36.9391 76.0919 31.9162C76.0919 26.8934 76.1826 22.8849 76.2981 22.8849Z" fill="#FAFAFA"/>
    <path d="M157.291 308.356L203.338 310.327L204.452 313.008L174.265 361.999L119.78 360.407L157.291 308.356Z" fill="#263238"/>
    <path d="M117.719 355.634L172.525 358.768L201.161 314.337L181.053 315.97L130.173 333.884L117.719 355.634Z" fill="#E0E0E0"/>
    <path d="M110.014 352.341L160.325 353.166C158.239 346.725 163.163 337.66 169.934 334.609C174.421 332.588 182.858 329.965 187.213 327.73C195.461 323.483 202.966 315.449 202.315 308.546L181.629 307.861L155.236 306.839C153.026 313.387 148.308 317.668 141.133 320.249C134.716 322.559 127.409 322.551 121.14 325.198C111.062 329.421 106.22 343.104 109.973 352.366" fill="#EBEBEB"/>
    <path d="M110.015 352.34C110.015 352.34 109.965 352.233 109.891 352.01L109.545 351.045C109.362 350.507 109.219 349.955 109.116 349.396C108.948 348.641 108.832 347.874 108.769 347.103C108.609 344.962 108.742 342.808 109.165 340.703C109.751 337.868 110.846 335.163 112.398 332.719C112.836 332.013 113.318 331.335 113.842 330.69C114.114 330.368 114.378 330.014 114.667 329.7L115.599 328.752C115.91 328.427 116.247 328.126 116.605 327.853C116.959 327.564 117.306 327.259 117.685 326.987C118.471 326.434 119.298 325.943 120.16 325.519C123.648 323.762 127.813 323.044 132.152 322.22C134.329 321.824 136.573 321.395 138.816 320.793C141.124 320.16 143.352 319.263 145.455 318.12C146.542 317.533 147.576 316.854 148.548 316.092C149.55 315.321 150.47 314.451 151.295 313.494C153.003 311.519 154.303 309.226 155.122 306.747L155.171 306.607H155.311L177.292 307.431C184.921 307.728 192.814 307.935 200.897 308.207L202.365 308.256H202.546V308.438C202.657 310.017 202.432 311.603 201.886 313.089C201.626 313.824 201.318 314.54 200.963 315.234C200.599 315.916 200.197 316.576 199.759 317.213C198.019 319.71 195.918 321.934 193.523 323.811C191.208 325.655 188.68 327.214 185.993 328.455C183.337 329.651 180.649 330.624 178.017 331.597C175.386 332.571 172.78 333.494 170.314 334.566C169.1 335.105 167.961 335.798 166.924 336.628C166.388 337.008 165.943 337.494 165.456 337.915C164.97 338.336 164.549 338.847 164.161 339.367C162.555 341.306 161.357 343.551 160.639 345.965C159.912 348.25 159.869 350.699 160.516 353.008L160.59 353.231H160.359L123.747 352.588L113.594 352.382L110.939 352.307H110.023C110.023 352.307 110.336 352.307 110.939 352.307H113.603L123.756 352.423L160.359 352.934L160.202 353.149C159.525 350.777 159.562 348.258 160.31 345.907C161.027 343.438 162.243 341.142 163.881 339.16C164.269 338.633 164.755 338.179 165.192 337.684C165.629 337.189 166.149 336.752 166.693 336.356C167.749 335.504 168.914 334.797 170.157 334.253C172.632 333.164 175.254 332.232 177.886 331.259C180.517 330.286 183.197 329.304 185.828 328.117C188.479 326.888 190.972 325.343 193.251 323.515C195.614 321.666 197.688 319.476 199.404 317.015C199.835 316.398 200.234 315.759 200.6 315.102C200.945 314.427 201.245 313.73 201.499 313.015C202.024 311.584 202.243 310.058 202.142 308.537L202.34 308.718L200.864 308.677C192.781 308.405 184.888 308.19 177.267 307.852L155.278 307.027L155.468 306.895C154.626 309.419 153.298 311.753 151.559 313.766C150.717 314.739 149.777 315.623 148.754 316.405C147.766 317.18 146.712 317.868 145.604 318.459C143.479 319.614 141.225 320.517 138.89 321.147C136.622 321.766 134.37 322.178 132.193 322.566C127.855 323.341 123.706 324.067 120.267 325.783C119.425 326.197 118.617 326.677 117.85 327.218C117.471 327.482 117.133 327.787 116.778 328.043C116.423 328.313 116.089 328.611 115.78 328.933L114.823 329.882C114.526 330.195 114.271 330.542 113.998 330.863C113.473 331.495 112.991 332.162 112.555 332.859C111.003 335.274 109.904 337.951 109.314 340.761C108.871 342.846 108.718 344.984 108.86 347.111C108.909 347.879 109.014 348.643 109.174 349.396C109.266 349.955 109.398 350.506 109.569 351.045C109.71 351.474 109.809 351.796 109.883 352.027C109.957 352.258 110.015 352.34 110.015 352.34Z" fill="#263238"/>
    <path d="M169.415 307.655C169.415 307.655 169.481 307.333 169.53 306.756C169.591 305.944 169.455 305.129 169.135 304.381C168.685 303.265 167.839 302.354 166.759 301.824C166.097 301.516 165.38 301.344 164.65 301.318C163.92 301.293 163.193 301.415 162.511 301.676C161.829 301.938 161.207 302.334 160.681 302.841C160.156 303.348 159.737 303.956 159.452 304.628C158.946 305.723 158.777 306.943 158.965 308.133C159.085 308.935 159.365 309.703 159.79 310.393C160.103 310.888 160.334 311.119 160.309 311.144C160.054 310.968 159.835 310.744 159.666 310.484C159.155 309.805 158.808 309.018 158.652 308.183C158.407 306.932 158.553 305.636 159.072 304.471C159.374 303.749 159.819 303.095 160.381 302.55C160.943 302.005 161.61 301.58 162.341 301.301C163.072 301.022 163.853 300.894 164.635 300.926C165.417 300.958 166.185 301.148 166.891 301.486C168.039 302.068 168.924 303.064 169.365 304.274C169.674 305.06 169.771 305.913 169.646 306.748C169.613 306.975 169.557 307.199 169.481 307.416C169.464 307.589 169.431 307.655 169.415 307.655Z" fill="#263238"/>
    <path d="M177.308 307.656C177.267 307.656 177.374 307.334 177.424 306.757C177.48 305.945 177.345 305.131 177.028 304.381C176.575 303.265 175.726 302.355 174.644 301.824C173.982 301.517 173.265 301.346 172.535 301.321C171.806 301.297 171.079 301.419 170.397 301.68C169.716 301.942 169.094 302.337 168.568 302.844C168.042 303.35 167.623 303.957 167.337 304.629C166.834 305.724 166.667 306.944 166.858 308.134C166.974 308.936 167.255 309.705 167.683 310.394C167.997 310.889 168.227 311.12 168.203 311.144C167.941 310.973 167.719 310.748 167.551 310.484C167.044 309.804 166.697 309.017 166.537 308.183C166.299 306.931 166.449 305.637 166.966 304.472C167.267 303.75 167.712 303.098 168.273 302.553C168.835 302.009 169.501 301.584 170.231 301.305C170.961 301.026 171.741 300.898 172.522 300.929C173.304 300.96 174.07 301.15 174.776 301.486C175.924 302.068 176.809 303.065 177.251 304.274C177.556 305.061 177.656 305.912 177.539 306.748C177.508 306.977 177.45 307.201 177.366 307.416C177.364 307.499 177.344 307.581 177.308 307.656Z" fill="#263238"/>
    <path d="M183.279 308.066C183.279 308.066 183.329 307.736 183.345 307.159C183.358 306.345 183.177 305.539 182.817 304.809C182.301 303.722 181.403 302.865 180.294 302.4C179.617 302.132 178.893 302.002 178.166 302.016C177.438 302.03 176.72 302.189 176.054 302.483C174.714 303.097 173.673 304.218 173.159 305.6C172.718 306.723 172.617 307.951 172.871 309.13C173.044 309.928 173.381 310.68 173.86 311.341C174.198 311.811 174.446 312.034 174.421 312.058C174.152 311.903 173.919 311.692 173.737 311.44C173.188 310.789 172.796 310.022 172.59 309.196C172.281 307.961 172.355 306.66 172.805 305.468C173.065 304.73 173.472 304.052 174.002 303.476C174.533 302.9 175.174 302.438 175.889 302.118C176.603 301.798 177.375 301.626 178.158 301.614C178.941 301.601 179.718 301.748 180.442 302.046C181.622 302.56 182.562 303.504 183.073 304.685C183.432 305.457 183.579 306.311 183.502 307.159C183.485 307.389 183.44 307.616 183.37 307.835C183.345 307.992 183.279 308.066 183.279 308.066Z" fill="#263238"/>
    <path d="M189.721 308.431C189.721 308.431 189.721 308.101 189.721 307.523C189.694 306.71 189.471 305.914 189.07 305.206C188.499 304.146 187.556 303.335 186.422 302.929C185.731 302.696 185 302.604 184.273 302.658C183.545 302.713 182.836 302.913 182.188 303.247C181.539 303.58 180.964 304.041 180.497 304.602C180.03 305.162 179.681 305.811 179.469 306.509C179.086 307.652 179.051 308.884 179.37 310.047C179.588 310.835 179.964 311.571 180.476 312.208C180.838 312.653 181.094 312.86 181.069 312.893C180.793 312.748 180.549 312.549 180.352 312.307C179.772 311.686 179.34 310.942 179.09 310.13C178.71 308.913 178.71 307.61 179.09 306.393C179.313 305.644 179.684 304.946 180.181 304.343C180.678 303.739 181.292 303.242 181.985 302.88C182.683 302.522 183.447 302.311 184.23 302.258C185.013 302.206 185.798 302.314 186.538 302.575C187.739 303.023 188.728 303.906 189.309 305.049C189.708 305.811 189.899 306.664 189.861 307.523C189.854 307.751 189.823 307.978 189.771 308.2C189.762 308.356 189.738 308.431 189.721 308.431Z" fill="#263238"/>
    <path d="M196.155 308.281C196.155 308.281 196.155 307.951 196.155 307.374C196.104 306.56 195.858 305.77 195.437 305.073C194.837 304.031 193.874 303.247 192.732 302.87C192.034 302.655 191.3 302.582 190.573 302.656C189.846 302.73 189.142 302.95 188.502 303.303C187.862 303.655 187.3 304.133 186.849 304.708C186.399 305.283 186.068 305.943 185.878 306.648C185.581 307.614 185.532 308.639 185.736 309.63C185.939 310.62 186.388 311.543 187.041 312.314C187.42 312.751 187.684 312.949 187.659 312.974C187.377 312.846 187.126 312.657 186.925 312.421C186.331 311.814 185.881 311.081 185.606 310.277C185.195 309.07 185.163 307.766 185.515 306.541C185.718 305.785 186.069 305.078 186.55 304.46C187.03 303.842 187.629 303.327 188.311 302.945C188.999 302.569 189.755 302.337 190.535 302.264C191.315 302.19 192.102 302.276 192.847 302.516C194.064 302.933 195.08 303.793 195.693 304.924C196.114 305.68 196.328 306.533 196.311 307.398C196.311 307.629 196.286 307.858 196.237 308.083C196.196 308.198 196.171 308.281 196.155 308.281Z" fill="#263238"/>
    <path d="M201.581 309C201.581 309 201.581 308.67 201.581 308.093C201.563 307.279 201.348 306.48 200.954 305.767C200.395 304.705 199.464 303.886 198.34 303.466C197.652 303.223 196.922 303.122 196.193 303.167C195.465 303.212 194.753 303.404 194.1 303.73C193.448 304.057 192.867 304.511 192.394 305.066C191.921 305.622 191.564 306.267 191.346 306.963C191.013 307.917 190.924 308.938 191.087 309.935C191.25 310.932 191.659 311.872 192.278 312.671C192.641 313.124 192.888 313.33 192.871 313.363C192.596 313.217 192.355 313.014 192.162 312.77C191.586 312.144 191.162 311.393 190.925 310.576C190.561 309.354 190.581 308.05 190.983 306.839C191.214 306.092 191.593 305.399 192.098 304.801C192.602 304.203 193.221 303.713 193.919 303.359C194.621 303.011 195.387 302.809 196.17 302.767C196.953 302.724 197.736 302.841 198.472 303.111C199.672 303.574 200.652 304.476 201.21 305.635C201.602 306.399 201.784 307.253 201.738 308.11C201.728 308.338 201.695 308.564 201.639 308.786C201.622 308.926 201.598 309.009 201.581 309Z" fill="#263238"/>
    <path d="M225.343 140.043C223.065 139.975 220.785 140.079 218.523 140.356C211.658 141.24 205.353 144.603 200.796 149.812C196.238 155.021 193.743 161.717 193.779 168.638C193.755 173.191 194.346 177.728 195.536 182.123C199.503 196.194 200.724 208.59 200.27 214.636L213.549 221.77C213.549 221.77 219.694 212.936 225.632 209.126C231.57 205.316 251.332 195.105 259.159 184.671C264.199 177.925 265.172 164.052 253.147 151.961C245.75 144.57 235.797 140.303 225.343 140.043Z" fill="#1AA3E0"/>
    <path d="M193.919 229.993L205.912 236.476L198.109 246.389L190.109 242.76L193.919 229.993Z" fill="#455A64"/>
    <path d="M194.506 230.398C194.399 230.357 195.586 226.794 197.162 222.447C198.737 218.101 200.098 214.596 200.205 214.637C200.312 214.678 199.124 218.233 197.549 222.588C195.974 226.942 194.613 230.431 194.506 230.398Z" fill="#263238"/>
    <path d="M205.16 236.006C205.061 235.948 206.942 232.583 209.35 228.493C211.759 224.402 213.796 221.16 213.903 221.16C214.01 221.16 212.122 224.583 209.705 228.674C207.288 232.765 205.251 236.047 205.16 236.006Z" fill="#263238"/>
    <g opacity="0.4">
        <path opacity="0.4" d="M229.303 140.422C228.766 140.422 222.168 148.175 219.249 153.404C209.426 170.997 208.98 188.111 206.258 208.07C205.871 210.924 204.452 217.069 204.477 216.928C205.928 218.067 210.811 220.335 210.811 220.335C210.811 220.335 215.422 214.776 217.253 211.98C224.577 200.788 232.536 192.053 238.812 180.234C245.089 168.415 251.126 157.965 245.32 145.874C245.32 145.874 235.241 140.084 229.303 140.422Z" fill="black"/>
    </g>
    <path d="M259.159 186.436C259.09 186.315 259.032 186.188 258.986 186.056C258.879 185.809 258.747 185.421 258.524 184.943C257.903 183.558 257.125 182.249 256.206 181.042C254.797 179.177 253.075 177.569 251.118 176.291C248.609 174.628 245.749 173.57 242.763 173.198H242.664L242.614 173.132C241.011 170.93 239.22 168.872 237.261 166.979C235.117 164.91 232.645 163.21 229.946 161.948C227.233 160.721 224.268 160.155 221.294 160.298C218.584 160.404 215.961 161.28 213.731 162.822L213.607 162.905L213.5 162.806C211.232 160.817 208.413 159.565 205.417 159.218C203.09 158.953 200.733 159.253 198.546 160.092C197.13 160.634 195.802 161.382 194.604 162.311C194.192 162.641 193.878 162.905 193.68 163.086C193.582 163.185 193.474 163.273 193.359 163.35C193.446 163.243 193.54 163.141 193.639 163.045C193.829 162.847 194.126 162.567 194.53 162.22C195.712 161.238 197.043 160.45 198.472 159.886C200.687 158.998 203.085 158.664 205.458 158.913C208.526 159.243 211.419 160.507 213.747 162.534H213.516C215.801 160.94 218.494 160.033 221.277 159.919C224.311 159.764 227.338 160.329 230.111 161.569C232.853 162.851 235.361 164.582 237.534 166.69C239.508 168.601 241.308 170.685 242.911 172.918L242.787 172.843C245.826 173.229 248.731 174.325 251.266 176.043C253.239 177.359 254.966 179.008 256.371 180.918C257.279 182.152 258.033 183.492 258.615 184.91C258.821 185.396 258.936 185.792 259.027 186.048C259.079 186.174 259.124 186.304 259.159 186.436Z" fill="#263238"/>
    <path d="M234.465 203.963C234.261 202.942 233.873 201.966 233.319 201.084C232.67 200.075 231.798 199.229 230.77 198.61C229.456 197.797 227.913 197.432 226.374 197.571H226.209V197.406C225.887 195.431 225.066 193.572 223.823 192.004C222.58 190.437 220.957 189.213 219.108 188.449C217.469 187.808 215.708 187.54 213.953 187.665C212.341 187.782 210.77 188.235 209.343 188.993L209.219 189.059L209.12 188.952C207.885 187.658 206.27 186.791 204.509 186.478C203.142 186.212 201.733 186.257 200.386 186.61C199.19 186.943 198.07 187.503 197.086 188.259C197.086 188.259 197.136 188.185 197.26 188.078C197.383 187.971 197.565 187.797 197.82 187.608C198.573 187.075 199.409 186.67 200.295 186.412C201.675 186.014 203.129 185.94 204.542 186.197C206.384 186.501 208.078 187.396 209.367 188.746L209.145 188.705C210.611 187.926 212.223 187.459 213.879 187.335C215.694 187.208 217.515 187.49 219.207 188.16C221.242 188.982 223.006 190.36 224.296 192.136C225.456 193.695 226.215 195.517 226.506 197.439L226.316 197.29C227.926 197.165 229.533 197.567 230.894 198.437C231.94 199.087 232.821 199.97 233.467 201.018C233.881 201.689 234.176 202.426 234.342 203.196C234.383 203.397 234.413 203.601 234.432 203.806C234.448 203.857 234.459 203.91 234.465 203.963Z" fill="#263238"/>
    <path d="M203.594 239.602C203.594 239.602 203.462 239.437 203.157 239.305C202.697 239.165 202.204 239.183 201.755 239.354C201.41 239.463 201.052 239.526 200.691 239.544C200.468 239.542 200.248 239.495 200.044 239.406C199.84 239.316 199.656 239.187 199.503 239.024C198.868 238.356 198.629 237.375 198.027 236.74C197.89 236.583 197.719 236.46 197.528 236.379C197.337 236.297 197.129 236.26 196.922 236.27C196.497 236.316 196.077 236.401 195.668 236.525C195.26 236.641 194.832 236.664 194.414 236.591C193.976 236.483 193.576 236.253 193.263 235.927C192.949 235.602 192.734 235.194 192.641 234.752C192.585 234.569 192.585 234.374 192.641 234.191C192.641 234.191 192.641 234.389 192.781 234.719C192.936 235.175 193.224 235.574 193.606 235.865C193.857 236.066 194.155 236.199 194.472 236.253C194.841 236.303 195.216 236.269 195.569 236.154C196.001 236.015 196.446 235.921 196.897 235.874C197.162 235.858 197.428 235.903 197.673 236.004C197.919 236.106 198.138 236.261 198.316 236.459C199.017 237.284 199.231 238.191 199.767 238.76C200.004 239.025 200.336 239.185 200.691 239.206C201.023 239.202 201.353 239.155 201.672 239.066C202.181 238.907 202.73 238.943 203.215 239.165C203.561 239.362 203.611 239.602 203.594 239.602Z" fill="#263238"/>
    <path d="M204.971 237.654C202.961 236.818 201.008 235.854 199.123 234.767C197.17 233.8 195.278 232.715 193.457 231.518C195.466 232.358 197.422 233.322 199.313 234.404C201.263 235.372 203.152 236.457 204.971 237.654Z" fill="#263238"/>
    <path d="M202.588 240.698C202.588 240.698 202.423 240.781 202.134 240.913C201.986 240.979 201.821 241.078 201.59 241.177C201.325 241.269 201.044 241.305 200.765 241.284C200.041 241.244 199.348 240.975 198.786 240.517C198.457 240.238 198.2 239.884 198.035 239.486C197.901 239.096 197.703 238.731 197.449 238.405C197.152 238.155 196.805 237.97 196.431 237.862C196.058 237.754 195.666 237.725 195.28 237.779C194.579 237.861 193.867 237.793 193.194 237.581C192.732 237.405 192.355 237.06 192.138 236.616C192.006 236.294 192.055 236.088 192.072 236.096C192.088 236.104 192.121 236.277 192.286 236.541C192.525 236.907 192.884 237.178 193.301 237.308C193.943 237.47 194.61 237.5 195.264 237.399C195.704 237.334 196.153 237.366 196.58 237.491C197.008 237.616 197.402 237.833 197.738 238.125C198.017 238.485 198.235 238.889 198.381 239.321C198.521 239.67 198.738 239.983 199.017 240.236C199.516 240.655 200.126 240.919 200.773 240.995C201.215 241.035 201.66 240.955 202.06 240.764C202.398 240.674 202.588 240.674 202.588 240.698Z" fill="#263238"/>
    <path d="M112.036 163.674L132.779 160.598L122.882 146.576L117.57 146.89C115.815 146.991 114.122 147.578 112.682 148.586C111.241 149.594 110.11 150.983 109.413 152.597C108.66 154.348 108.45 156.285 108.811 158.156L112.036 163.674Z" fill="#1AA3E0"/>
    <path opacity="0.4" d="M112.036 163.674L132.779 160.598L122.882 146.576L117.57 146.89C115.815 146.991 114.122 147.578 112.682 148.586C111.241 149.594 110.11 150.983 109.413 152.597C108.66 154.348 108.45 156.285 108.811 158.156L112.036 163.674Z" fill="black"/>
    <path d="M201.128 186.654C201.342 187.248 201.573 187.949 201.813 188.79C202.01 189.515 202.085 190.267 202.035 191.017C202.003 191.947 201.844 192.868 201.565 193.755C201.227 194.58 202.019 195.339 202.687 194.943C203.355 194.547 204.336 192.403 204.336 189.648C204.336 186.893 207.091 190.192 208.139 191.38C209.186 192.567 212.601 196.089 213.219 196.056C214.126 196.007 214.242 195.025 213.17 193.862C212.097 192.699 209.12 188.996 209.772 188.468C210.423 187.94 215.669 194.069 215.669 194.069C215.669 194.069 216.576 195.561 217.318 194.984C218.72 193.937 212.658 187.842 212.065 187.281C211.66 186.885 212.345 186.291 212.766 186.736C213.186 187.182 217.863 192.963 219.298 191.908C220.395 191.083 214.349 186.852 214.052 185.12C213.755 183.388 218.308 188.807 219.323 187.998C219.71 187.693 219.949 187.413 216.848 184.699C215.364 183.363 209.706 179.404 209.706 179.404L192.682 130.668L179.535 138.198L201.128 186.654Z" fill="#FFBE9D"/>
    <path d="M99.7879 94.4762L80.7686 71.7785C80.5287 70.9952 80.2167 70.2359 79.8366 69.5103C79.3954 68.6048 78.7675 67.803 77.9942 67.1576C77.2209 66.5122 76.3196 66.0379 75.3498 65.7658C74.1456 65.5019 72.76 65.6339 71.8115 64.8421C71.3909 64.4875 71.1105 64.0173 70.6651 63.6544C70.2197 63.2915 69.4857 63.2585 69.197 63.7287C69.1229 63.9121 69.0918 64.11 69.1061 64.3073C69.1204 64.5046 69.1797 64.696 69.2795 64.8668C69.9938 66.5462 71.1303 68.0123 72.5786 69.1227C70.7971 69.667 68.2485 70.4918 68.2485 70.4918C68.2485 70.4918 64.2319 66.1288 62.1699 66.137C60.108 66.1452 63.8195 70.0382 63.8195 70.0382C63.8195 70.0382 60.5204 66.9865 59.4976 67.8443C58.4749 68.702 61.0977 70.9702 61.0977 70.9702C60.3099 70.4346 59.3686 70.171 58.4172 70.2196C57.4852 70.3763 56.6852 71.4733 57.1883 72.2733C57.4029 72.5616 57.6865 72.7913 58.0131 72.9414L63.0772 75.7621C63.8875 76.3023 64.8148 76.6416 65.7824 76.7519C68.3557 76.8343 70.3104 75.2425 72.8755 75.3085C72.8755 75.3085 87.2183 105.503 88.6699 107.062C90.1215 108.621 121.661 110.741 121.661 110.741L139.897 95.0289L99.7879 94.4762Z" fill="#FFBE9D"/>
    <path d="M156.928 258.96L176.351 267.414L165.959 291.638C163.699 290.508 164.441 275.967 164.441 275.967L151.773 271.06L156.928 258.96Z" fill="#1AA3E0"/>
    <g opacity="0.6">
        <path opacity="0.6" d="M166.595 268.041C166.765 267.837 167.005 267.703 167.269 267.665C167.532 267.627 167.8 267.688 168.021 267.835C168.229 268 168.366 268.237 168.404 268.499C168.443 268.761 168.379 269.028 168.228 269.245C168.047 269.46 167.794 269.599 167.517 269.637C167.239 269.676 166.958 269.609 166.726 269.452C166.525 269.259 166.406 268.996 166.395 268.717C166.384 268.438 166.482 268.166 166.669 267.959" fill="white"/>
    </g>
    <path opacity="0.6" d="M176.352 267.416L174.356 266.64L165.135 290.155C165.135 290.155 165.135 291.441 165.96 291.639L176.352 267.416Z" fill="white"/>
    <path d="M164.137 276.321C164.26 276.362 164.565 275.793 165.201 275.381C165.836 274.968 166.454 274.861 166.454 274.738C166.454 274.614 165.695 274.49 164.945 275.01C164.194 275.529 164.021 276.296 164.137 276.321Z" fill="#263238"/>
    <path d="M164.095 279.307C164.202 279.389 164.623 278.961 165.299 278.771C165.975 278.581 166.544 278.697 166.594 278.581C166.643 278.466 166 278.095 165.167 278.342C164.334 278.589 163.988 279.257 164.095 279.307Z" fill="#263238"/>
    <path d="M166.52 282.062C166.595 281.963 166.067 281.543 165.291 281.567C164.516 281.592 164.021 282.038 164.095 282.128C164.17 282.219 164.665 282.029 165.308 282.021C165.951 282.013 166.454 282.194 166.52 282.062Z" fill="#263238"/>
    <path d="M161.373 274.88C161.505 274.88 161.571 274.261 161.909 273.618C162.248 272.975 162.676 272.537 162.602 272.43C162.528 272.323 161.885 272.645 161.505 273.412C161.126 274.179 161.258 274.896 161.373 274.88Z" fill="#263238"/>
    <path d="M158.752 273.064C158.801 273.064 159.073 272.652 159.263 271.852C159.376 271.382 159.429 270.9 159.42 270.416C159.416 270.14 159.394 269.865 159.354 269.592C159.336 269.424 159.291 269.259 159.222 269.105C159.172 268.992 159.086 268.898 158.976 268.84C158.867 268.782 158.742 268.762 158.62 268.783C158.511 268.805 158.41 268.852 158.324 268.921C158.238 268.99 158.169 269.078 158.125 269.179C158.058 269.335 158.014 269.498 157.993 269.666C157.861 270.437 157.926 271.228 158.183 271.967C158.455 272.751 158.818 273.13 158.859 273.097C158.9 273.064 158.669 272.627 158.48 271.876C158.377 271.436 158.33 270.984 158.339 270.532C158.346 270.255 158.373 269.98 158.422 269.707C158.463 269.427 158.554 269.204 158.702 269.188C158.851 269.171 158.768 269.188 158.826 269.27C158.87 269.387 158.9 269.509 158.917 269.633C158.964 269.906 158.994 270.181 159.007 270.458C159.032 270.912 159.013 271.368 158.95 271.819C158.856 272.229 158.789 272.645 158.752 273.064Z" fill="#263238"/>
    <path d="M158.982 272.99C158.982 272.99 158.702 272.536 157.951 272.165C157.511 271.95 157.037 271.813 156.549 271.761C156.275 271.731 155.999 271.731 155.725 271.761C155.536 271.759 155.35 271.805 155.184 271.894C155.018 271.984 154.878 272.114 154.776 272.272C154.734 272.382 154.723 272.501 154.745 272.616C154.767 272.731 154.82 272.838 154.9 272.924C155.017 273.046 155.15 273.151 155.296 273.237C155.551 273.397 155.829 273.516 156.12 273.592C156.602 273.712 157.106 273.712 157.589 273.592C158.413 273.386 158.776 272.957 158.743 272.932C158.346 273.071 157.941 273.186 157.531 273.279C157.094 273.341 156.65 273.307 156.228 273.18C155.983 273.102 155.749 272.991 155.535 272.85C155.296 272.701 155.131 272.52 155.197 272.437C155.268 272.355 155.357 272.289 155.456 272.244C155.556 272.2 155.665 272.179 155.774 272.182C156.048 272.155 156.324 272.155 156.599 272.182C157.047 272.213 157.488 272.307 157.91 272.462C158.537 272.726 158.941 273.039 158.982 272.99Z" fill="#263238"/>
    <path d="M141.967 292.233L150 309.066L152.515 324.259C152.558 324.517 152.653 324.764 152.796 324.984C152.938 325.204 153.124 325.392 153.342 325.537C153.561 325.681 153.806 325.779 154.064 325.825C154.322 325.87 154.587 325.862 154.841 325.801C155.138 325.732 155.414 325.593 155.645 325.395C155.876 325.197 156.056 324.946 156.169 324.663C157.646 321.009 163.015 307.524 162.355 306.328C161.596 304.942 155.056 288.01 155.056 288.01L141.967 292.233Z" fill="#1AA3E0"/>
    <path opacity="0.6" d="M154.842 325.759L161.836 305.14L162.166 305.857C162.446 306.48 162.496 307.181 162.306 307.837C161.795 309.594 160.286 314.435 156.219 324.596C156.104 324.889 155.918 325.149 155.678 325.352C155.437 325.555 155.15 325.695 154.842 325.759Z" fill="white"/>
    <g opacity="0.6">
        <path opacity="0.6" d="M155.882 301.221C155.741 301.468 155.697 301.758 155.758 302.035C155.819 302.312 155.98 302.557 156.211 302.722C156.454 302.872 156.745 302.923 157.025 302.865C157.304 302.807 157.55 302.643 157.713 302.409C157.857 302.145 157.901 301.837 157.834 301.544C157.767 301.251 157.595 300.992 157.35 300.817C157.081 300.687 156.772 300.666 156.489 300.76C156.205 300.854 155.97 301.055 155.832 301.32" fill="white"/>
    </g>
    <path d="M155.386 316.579C154.762 316.177 154.041 315.951 153.299 315.925C152.557 315.899 151.822 316.074 151.171 316.43C151.171 316.43 151.295 316.166 151.666 315.936C152.163 315.636 152.737 315.49 153.316 315.515C153.892 315.532 154.45 315.716 154.924 316.043C155.287 316.307 155.419 316.546 155.386 316.579Z" fill="#263238"/>
    <path d="M155.237 319.402C154.628 319.346 154.017 319.329 153.406 319.352C152.811 319.494 152.224 319.67 151.649 319.88C151.559 319.814 152.218 319.055 153.348 318.94C153.677 318.86 154.02 318.86 154.349 318.94C154.678 319.021 154.982 319.179 155.237 319.402Z" fill="#263238"/>
    <path d="M156.326 312.645C155.394 312.483 154.451 312.392 153.506 312.373C152.563 312.479 151.631 312.661 150.718 312.917C151.529 312.34 152.488 312.008 153.482 311.96C154.476 311.912 155.463 312.149 156.326 312.645Z" fill="#263238"/>
    <path d="M154.314 307.326C154.314 307.45 153.201 307.474 151.955 307.986C150.71 308.497 149.877 309.215 149.794 309.124C150.266 308.396 150.978 307.856 151.807 307.598C152.584 307.214 153.473 307.118 154.314 307.326Z" fill="#263238"/>
    <path d="M152.079 302.318C151.23 302.415 150.398 302.626 149.605 302.945C148.869 303.374 148.197 303.905 147.609 304.52C147.568 304.52 147.65 304.199 147.947 303.803C148.335 303.279 148.844 302.857 149.432 302.574C150.012 302.283 150.654 302.136 151.304 302.145C151.799 302.161 152.087 302.277 152.079 302.318Z" fill="#263238"/>
    <path d="M149.208 301.989C149.065 301.799 148.959 301.583 148.895 301.354C148.691 300.738 148.61 300.088 148.656 299.441C148.646 298.964 148.794 298.497 149.076 298.113C149.178 298.001 149.311 297.922 149.458 297.885C149.604 297.848 149.759 297.856 149.901 297.907C150.179 298.042 150.398 298.274 150.52 298.558C150.738 299.148 150.744 299.795 150.537 300.388C150.329 300.982 149.92 301.484 149.381 301.808C148.843 302.117 148.226 302.261 147.606 302.22C146.987 302.178 146.393 301.955 145.901 301.577C145.776 301.478 145.674 301.353 145.602 301.211C145.531 301.068 145.492 300.911 145.489 300.752C145.497 300.594 145.555 300.443 145.654 300.32C145.753 300.197 145.889 300.109 146.041 300.068C146.502 299.974 146.98 300.003 147.427 300.15C148.058 300.315 148.653 300.595 149.184 300.975C149.555 301.23 149.72 301.42 149.703 301.445C148.978 300.996 148.188 300.662 147.361 300.455C146.967 300.339 146.549 300.324 146.148 300.414C146.064 300.435 145.99 300.482 145.935 300.549C145.88 300.616 145.848 300.699 145.843 300.785C145.858 300.886 145.892 300.983 145.945 301.071C145.997 301.159 146.066 301.236 146.148 301.296C146.582 301.612 147.097 301.796 147.632 301.826C148.167 301.857 148.7 301.733 149.167 301.47C149.635 301.198 149.993 300.772 150.183 300.265C150.372 299.759 150.381 299.202 150.206 298.69C150.132 298.488 149.985 298.32 149.794 298.22C149.715 298.184 149.627 298.174 149.543 298.192C149.458 298.21 149.381 298.254 149.324 298.319C149.082 298.643 148.949 299.036 148.944 299.441C148.882 300.299 148.971 301.162 149.208 301.989Z" fill="#263238"/>
    <path d="M169.035 261.014L147.006 246.168L154.297 174.586L133.43 162.404L114.353 157.983C114.353 157.983 106.385 174.561 102.806 185.201C95.2674 207.775 89.9806 215.866 91.193 232.213C91.5724 237.393 110.691 250.358 122.765 257.542C122.901 258.98 123.116 260.409 123.409 261.823C127.533 280.479 140.135 305.288 140.135 305.288L159.27 296.389L153.101 275.233L159.534 278.986L169.035 261.014ZM121.685 214.827L124.258 203.354C123.714 210.654 123.219 218.266 122.864 225.565C121.62 222.14 121.216 218.466 121.685 214.852V214.827Z" fill="#263238"/>
    <path d="M140.169 305.289C140.11 305.193 140.06 305.09 140.02 304.984L139.616 304.085L138.14 300.596C136.87 297.553 135.047 293.173 132.861 287.689C130.676 282.204 128.086 275.705 125.438 268.364C124.787 266.525 124.152 264.636 123.55 262.682C123.286 261.692 122.947 260.719 122.774 259.671C122.725 259.415 122.667 259.152 122.626 258.896L122.535 258.112L122.362 256.545C122.131 254.434 121.947 252.284 121.809 250.095C121.743 249.007 121.686 247.902 121.636 246.796C121.587 245.691 121.554 244.561 121.636 243.431C121.966 234.441 122.717 225.913 123.343 218.152C123.97 210.391 124.572 203.413 125.067 197.533C125.562 191.652 125.892 186.918 126.057 183.627C126.164 181.977 126.222 180.707 126.255 179.849L126.313 178.86C126.298 178.75 126.298 178.639 126.313 178.53C126.322 178.64 126.322 178.75 126.313 178.86C126.313 179.107 126.313 179.429 126.313 179.849C126.313 180.715 126.271 181.994 126.197 183.635C126.057 186.934 125.768 191.685 125.331 197.557C124.894 203.43 124.308 210.416 123.682 218.177C123.055 225.938 122.337 234.466 122.032 243.431C121.966 244.553 122.032 245.658 122.032 246.772C122.032 247.885 122.131 248.974 122.205 250.071C122.337 252.27 122.516 254.412 122.741 256.496L122.914 258.071L123.005 258.846C123.046 259.102 123.104 259.349 123.154 259.605C123.319 260.611 123.649 261.593 123.912 262.574C124.498 264.513 125.133 266.401 125.776 268.241C128.366 275.573 130.931 282.097 133.076 287.581C135.22 293.066 137.01 297.479 138.239 300.53C138.841 302.048 139.319 303.227 139.649 304.052C139.798 304.44 139.921 304.745 140.004 304.968C140.086 305.19 140.169 305.289 140.169 305.289Z" fill="#455A64"/>
    <path d="M125.439 176.104C125.439 176.104 125.249 175.989 124.944 175.7C124.55 175.257 124.235 174.749 124.012 174.199C123.359 172.38 123.04 170.457 123.072 168.525C123.046 166.596 123.137 164.669 123.344 162.751C123.382 161.959 123.493 161.173 123.674 160.401C123.741 161.191 123.741 161.986 123.674 162.776C123.599 164.236 123.484 166.257 123.517 168.483C123.504 170.376 123.782 172.259 124.342 174.067C124.536 174.597 124.799 175.099 125.125 175.56C125.323 175.898 125.463 176.088 125.439 176.104Z" fill="#455A64"/>
    <path d="M117.207 159.072C117.402 159.719 117.458 160.399 117.372 161.068C117.262 162.71 116.716 164.293 115.789 165.653C114.863 167.014 113.59 168.101 112.102 168.805C111.508 169.128 110.853 169.325 110.18 169.382C110.18 169.316 110.897 169.118 111.97 168.557C113.365 167.815 114.559 166.745 115.45 165.439C116.341 164.133 116.901 162.63 117.083 161.06C117.223 159.839 117.133 159.072 117.207 159.072Z" fill="#455A64"/>
    <path d="M151.435 200.691C151.435 200.691 151.435 200.765 151.435 200.905C151.435 201.045 151.435 201.285 151.386 201.54C151.32 202.134 151.237 202.959 151.139 204.015C150.899 206.167 150.569 209.227 150.157 212.988C149.332 220.601 148.112 231.051 146.808 242.606C146.344 248.045 146.708 253.524 147.889 258.854C148.406 261.176 149.07 263.462 149.877 265.699C150.619 267.811 151.303 269.782 151.939 271.588C153.184 275.168 154.19 278.079 154.899 280.125C155.229 281.114 155.493 281.89 155.724 282.451L155.922 283.061C155.95 283.127 155.966 283.196 155.972 283.267C155.972 283.267 155.972 283.209 155.881 283.069C155.79 282.929 155.741 282.723 155.65 282.475C155.436 281.923 155.155 281.156 154.825 280.174L151.741 271.687C151.097 269.889 150.388 267.918 149.629 265.815C148.803 263.565 148.122 261.265 147.592 258.928C146.377 253.564 145.996 248.045 146.462 242.564C147.749 230.976 149.035 220.535 149.934 212.955C150.404 209.194 150.759 206.134 151.048 203.99C151.18 202.951 151.287 202.142 151.369 201.515C151.369 201.26 151.435 201.054 151.46 200.889C151.443 200.824 151.434 200.757 151.435 200.691Z" fill="#455A64"/>
    <path d="M114.353 157.861L117.734 149.226L125.446 160.723L115.161 158.158" fill="#FFBE9D"/>
    <path d="M195.033 131.904L185.886 111.392C184.789 108.093 182.736 107.582 181.02 105.668L158.1 92.7441C141.39 85.8984 132.292 108.844 132.292 108.844L117.108 143.484C99.252 149.398 111.896 163.114 111.896 163.114C111.896 163.114 107.038 154.668 111.822 151.625C116.82 148.433 122.362 156.837 127.69 164.821C133.983 174.24 154.421 180.36 154.421 180.36C156.813 177.836 156.145 169.019 158.017 164.285C158.611 162.792 172.764 130.007 172.764 130.007L178.249 143.295C178.249 143.295 185.276 135.047 188.691 133.744C190.749 132.952 192.871 132.336 195.033 131.904Z" fill="#1AA3E0"/>
    <path d="M154.413 146.487C154.203 146.677 153.97 146.84 153.72 146.973C153.054 147.36 152.356 147.688 151.633 147.955C149.231 148.86 146.635 149.129 144.098 148.738C141.561 148.346 139.168 147.307 137.15 145.72C136.541 145.249 135.975 144.725 135.459 144.153C135.255 143.958 135.082 143.733 134.948 143.485C135.006 143.427 135.773 144.359 137.323 145.489C139.338 146.975 141.684 147.952 144.159 148.334C146.634 148.716 149.164 148.492 151.534 147.683C153.365 147.072 154.413 146.421 154.413 146.487Z" fill="#263238"/>
    <path d="M116.473 113.941L130.617 115.277L153.249 91.3582L139.937 90.8963L116.242 93.2387C117.488 100.077 117.566 107.076 116.473 113.941Z" fill="#1AA3E0"/>
    <path d="M136.078 101.355C136.044 101.509 135.986 101.656 135.905 101.792L135.336 103.013C134.825 104.118 134.107 105.644 133.241 107.491C131.484 111.285 129.117 116.564 126.643 122.419C124.169 128.275 121.81 133.579 120.045 137.381C119.179 139.286 118.461 140.812 117.95 141.868L117.348 143.072C117.285 143.218 117.204 143.357 117.109 143.484C117.151 143.331 117.206 143.182 117.274 143.039L117.801 141.802L119.781 137.265C121.43 133.381 123.732 128.094 126.239 122.255C128.746 116.415 131.188 111.137 132.977 107.367C133.893 105.487 134.627 103.978 135.196 102.938C135.46 102.46 135.666 102.064 135.831 101.751C135.899 101.61 135.982 101.477 136.078 101.355Z" fill="#263238"/>
    <path d="M179.255 108.307C179.296 108.381 178.43 108.835 177.218 109.858C176.523 110.454 175.885 111.114 175.313 111.829C174.616 112.712 174.013 113.666 173.515 114.674C173.036 115.69 172.66 116.751 172.393 117.841C172.185 118.738 172.064 119.652 172.03 120.571C171.972 122.138 172.154 123.112 172.071 123.12C171.984 122.906 171.929 122.681 171.906 122.452C171.844 122.181 171.806 121.905 171.791 121.627C171.749 121.266 171.729 120.902 171.733 120.538C171.727 119.596 171.824 118.656 172.022 117.734C172.269 116.597 172.643 115.49 173.135 114.435C173.652 113.402 174.279 112.428 175.008 111.532C175.61 110.811 176.288 110.156 177.028 109.577C177.307 109.348 177.602 109.139 177.911 108.95C178.133 108.791 178.367 108.651 178.612 108.53C178.813 108.422 179.03 108.347 179.255 108.307Z" fill="#263238"/>
    <path d="M183.206 75.4563L169.935 100.265C168.889 102.217 167.144 103.699 165.049 104.416C162.954 105.132 160.666 105.028 158.644 104.125C157.555 103.633 156.578 102.922 155.774 102.037C154.97 101.152 154.356 100.112 153.969 98.9805C153.583 97.849 153.432 96.6504 153.527 95.4586C153.622 94.2667 153.96 93.1069 154.52 92.0508L156.805 87.7454C156.805 87.7454 151.032 84.0092 153.737 77.7739C156.145 72.2149 164.987 56.5112 166.859 53.1956L178.043 58.202C179.532 58.9784 180.85 60.0454 181.919 61.3399C182.988 62.6344 183.787 64.1301 184.269 65.7387C184.75 67.3473 184.904 69.036 184.721 70.7051C184.539 72.3742 184.024 73.9897 183.206 75.4563Z" fill="#FFBE9D"/>
    <path d="M156.804 87.6559C159.644 88.9893 162.817 89.4487 165.918 88.9755C165.918 88.9755 162.009 92.5798 156.07 89.2559L156.804 87.6559Z" fill="#EB996E"/>
    <path d="M161.069 67.8194C160.964 68.0496 160.952 68.3119 161.037 68.5506C161.121 68.7893 161.296 68.9856 161.523 69.0978C161.632 69.1567 161.751 69.1934 161.874 69.2058C161.997 69.2181 162.121 69.2059 162.239 69.1698C162.357 69.1338 162.467 69.0746 162.562 68.9956C162.657 68.9167 162.736 68.8197 162.793 68.7101C162.899 68.4799 162.91 68.2176 162.826 67.9789C162.741 67.7402 162.567 67.5439 162.339 67.4317C162.231 67.3728 162.112 67.3361 161.989 67.3238C161.866 67.3114 161.741 67.3236 161.623 67.3597C161.505 67.3958 161.395 67.455 161.3 67.5339C161.205 67.6128 161.127 67.7099 161.069 67.8194Z" fill="#263238"/>
    <path d="M161.118 67.0373C161.176 67.2022 162.066 67.0373 163.023 67.4332C163.98 67.829 164.458 68.6456 164.615 68.5796C164.772 68.5136 164.664 68.2909 164.466 67.9363C164.18 67.4666 163.757 67.0954 163.254 66.8723C162.757 66.6496 162.203 66.589 161.67 66.6991C161.283 66.7898 161.085 66.93 161.118 67.0373Z" fill="#263238"/>
    <path d="M169.985 72.2079C169.877 72.4378 169.864 72.7009 169.949 72.9402C170.034 73.1795 170.21 73.3757 170.438 73.4863C170.548 73.5449 170.667 73.5811 170.791 73.5929C170.914 73.6047 171.038 73.5918 171.157 73.5549C171.275 73.518 171.385 73.458 171.479 73.3782C171.574 73.2985 171.652 73.2006 171.709 73.0904C171.812 72.8611 171.822 72.6008 171.737 72.364C171.653 72.1272 171.48 71.9323 171.255 71.8202C171.147 71.7602 171.027 71.7226 170.904 71.7096C170.781 71.6966 170.656 71.7086 170.538 71.7448C170.419 71.7809 170.309 71.8406 170.214 71.9201C170.119 71.9997 170.041 72.0975 169.985 72.2079Z" fill="#263238"/>
    <path d="M170.405 71.4003C170.463 71.5652 171.354 71.4003 172.31 71.7962C173.267 72.192 173.745 73.0168 173.902 72.9508C174.059 72.8849 173.96 72.6622 173.754 72.2993C173.466 71.8323 173.043 71.464 172.541 71.2436C172.046 71.017 171.49 70.9562 170.958 71.0703C170.57 71.1611 170.372 71.326 170.405 71.4003Z" fill="#263238"/>
    <path d="M163.782 76.916C163.35 76.5387 162.873 76.2147 162.364 75.951C162.133 75.8108 161.918 75.6623 161.951 75.4809C161.984 75.2994 162.199 75.0602 162.438 74.8293L163.988 73.2952C165.358 72.0231 166.624 70.6441 167.774 69.1713C166.298 70.3241 164.919 71.5958 163.65 72.9735L162.124 74.5324C161.84 74.7577 161.645 75.076 161.572 75.4314C161.571 75.5327 161.591 75.6331 161.633 75.7257C161.674 75.8182 161.735 75.9007 161.811 75.9675C161.93 76.0624 162.06 76.1427 162.199 76.2067C162.691 76.5148 163.224 76.7535 163.782 76.916Z" fill="#263238"/>
    <path d="M166.289 78.8309C166.141 78.7567 165.679 79.7876 164.467 80.1258C163.254 80.464 162.199 79.8619 162.124 80.0021C162.05 80.1423 162.281 80.3073 162.743 80.5299C163.344 80.8111 164.025 80.8696 164.665 80.6949C165.281 80.5314 165.809 80.1313 166.133 79.5814C166.364 79.1691 166.364 78.8639 166.289 78.8309Z" fill="#263238"/>
    <path d="M171.832 67.5553C171.832 67.8605 172.813 68.1574 173.869 68.7925C174.925 69.4275 175.7 70.1368 175.947 69.9719C176.063 69.8894 176.013 69.576 175.766 69.1471C175.414 68.6239 174.949 68.1867 174.405 67.8683C173.861 67.5498 173.252 67.3583 172.624 67.3079C172.145 67.3079 171.84 67.4151 171.832 67.5553Z" fill="#263238"/>
    <path d="M162.701 64.4536C162.776 64.7506 163.526 64.8165 164.351 65.1547C165.176 65.4929 165.745 65.9795 166.001 65.798C166.256 65.6166 166.116 65.4516 165.91 65.1217C165.638 64.6936 165.236 64.364 164.763 64.1815C164.296 63.9794 163.776 63.9303 163.279 64.0413C162.866 64.1072 162.66 64.2887 162.701 64.4536Z" fill="#263238"/>
    <path d="M179.032 79.175C179.164 79.175 183.857 79.8184 181.828 84C179.799 88.1816 176.054 85.2784 176.054 85.1547C176.054 85.0309 179.032 79.175 179.032 79.175Z" fill="#FFBE9D"/>
    <path d="M178.117 84.1924C178.117 84.1924 178.167 84.2748 178.257 84.3986C178.397 84.5554 178.592 84.6527 178.802 84.6707C179.16 84.6347 179.502 84.5032 179.792 84.2899C180.082 84.0767 180.31 83.7895 180.451 83.4583C180.635 83.1059 180.74 82.7173 180.756 82.3201C180.78 82.1702 180.766 82.0169 180.717 81.8733C180.669 81.7297 180.586 81.6 180.476 81.4954C180.402 81.4336 180.308 81.3998 180.212 81.3998C180.116 81.3998 180.022 81.4336 179.948 81.4954C179.841 81.5861 179.824 81.6768 179.8 81.6768C179.775 81.6768 179.742 81.5613 179.857 81.4046C179.933 81.3123 180.038 81.2484 180.154 81.2232C180.312 81.1936 180.474 81.2261 180.608 81.3139C180.762 81.4316 180.883 81.5864 180.961 81.7638C181.039 81.9412 181.071 82.1354 181.053 82.3284C181.055 82.7763 180.947 83.2179 180.74 83.615C180.58 83.9973 180.31 84.3239 179.966 84.5542C179.621 84.7844 179.216 84.9082 178.802 84.9099C178.674 84.8844 178.553 84.8323 178.446 84.757C178.339 84.6817 178.25 84.5849 178.183 84.4728C178.076 84.2996 178.101 84.1924 178.117 84.1924Z" fill="#EB996E"/>
    <path d="M181.457 80.1252C181.069 79.929 180.635 79.8386 180.201 79.8632C179.766 79.8878 179.346 80.0266 178.983 80.2654C178.438 80.7438 178.067 81.4036 177.523 81.915C177.272 82.1811 176.94 82.3563 176.578 82.413C176.217 82.4697 175.847 82.4048 175.527 82.2284C175.339 82.0609 175.199 81.8468 175.121 81.6079C175.043 81.3689 175.029 81.1135 175.081 80.8675C175.192 80.374 175.396 79.9064 175.683 79.4901C176.813 77.6261 178.108 75.8446 179.082 73.8899C180.14 71.9591 180.603 69.7575 180.409 67.5639C180.298 66.4729 179.894 65.4323 179.241 64.5513C178.588 63.6703 177.709 62.9816 176.698 62.5575C175.337 62.0791 173.819 62.2194 172.426 61.8235C171.601 61.5758 170.842 61.1443 170.208 60.5614C169.574 59.9786 169.08 59.2596 168.764 58.4584C168.599 58.1352 168.418 57.8213 168.219 57.5181C168.269 57.4192 168.764 56.5779 169.25 56.4129C172.929 55.1675 177.902 56.5944 180.946 58.9945C182.499 60.2017 183.77 61.7334 184.671 63.4828C185.571 65.2321 186.079 67.1569 186.158 69.1227C186.199 72.9992 183.758 77.2715 181.49 80.1582" fill="#263238"/>
    <path d="M181.498 79.6715C182.661 77.692 184.541 76.2651 185.976 74.4836C187.412 72.7021 188.451 70.1866 187.379 68.1411C187.032 67.4401 186.471 66.8545 186.183 66.1287C185.954 65.3751 185.816 64.5972 185.77 63.811C185.584 62.6097 185.128 61.4662 184.437 60.4663C183.745 59.4664 182.836 58.6361 181.778 58.0376C180.31 57.2129 178.619 56.8829 177.127 56.0994C174.776 54.8622 173.052 52.5694 170.528 51.5879C170.131 51.3939 169.697 51.2863 169.255 51.2721C168.813 51.2579 168.372 51.3374 167.963 51.5054C167.768 51.6006 167.594 51.736 167.454 51.9027C167.314 52.0694 167.211 52.2638 167.151 52.4731C167.091 52.6824 167.076 52.9019 167.106 53.1174C167.137 53.333 167.213 53.5397 167.328 53.7241C167.279 53.5341 167.19 53.3571 167.065 53.2054C166.941 53.0538 166.785 52.9313 166.608 52.8464C166.431 52.7615 166.238 52.7164 166.042 52.7141C165.845 52.7118 165.651 52.7525 165.473 52.8333C165.122 53.0246 164.835 53.3153 164.649 53.6689C164.462 54.0226 164.384 54.4233 164.425 54.821C164.522 55.6149 164.833 56.3675 165.324 56.9984C166.854 59.1663 169.105 60.7189 171.675 61.378L177.374 60.9326L182.042 64.3884L185.49 69.8896L179.23 78.0219L181.498 79.6715Z" fill="#263238"/>
    <path d="M145.876 47.2167C145.644 43.623 144.452 40.1575 142.423 37.1823C140.395 34.207 137.604 31.8311 134.343 30.3029C131.083 28.7746 127.471 28.1501 123.887 28.4945C120.302 28.8389 116.876 30.1396 113.966 32.2607C111.056 34.3818 108.769 37.2455 107.343 40.5526C105.918 43.8597 105.407 47.4889 105.864 51.0609C106.321 54.6329 107.729 58.0167 109.94 60.8588C112.152 63.7008 115.086 65.8969 118.436 67.2174C118.593 69.5928 118.766 72.2816 118.766 72.2816L136.35 71.1434C136.35 71.1434 136.276 68.2979 136.144 65.7576C139.314 63.8606 141.899 61.1263 143.616 57.8553C145.333 54.5843 146.115 50.9032 145.876 47.2167Z" fill="#1AA3E0"/>
    <path d="M129.982 71.472C129.982 71.472 129.982 71.3813 129.982 71.2246C129.982 71.0679 129.982 70.8039 129.982 70.4905C129.982 69.8554 130.073 68.907 130.172 67.6945C130.271 66.4821 130.411 64.9893 130.683 63.282C130.984 61.3368 131.473 59.4254 132.143 57.5746C132.537 56.4972 133.026 55.4567 133.603 54.4652C133.917 53.9237 134.362 53.47 134.898 53.1455C135.187 52.984 135.512 52.8944 135.843 52.8843C136.175 52.8743 136.504 52.9441 136.803 53.0878C137.119 53.2402 137.365 53.5092 137.488 53.8383C137.623 54.1714 137.623 54.5444 137.488 54.8775C137.193 55.5186 136.674 56.0293 136.028 56.3126C135.347 56.5792 134.62 56.708 133.889 56.6916C133.158 56.6752 132.437 56.5139 131.769 56.217C131.101 55.9201 130.498 55.4935 129.996 54.9621C129.494 54.4306 129.102 53.8047 128.844 53.1208C128.539 52.3916 128.445 51.5915 128.572 50.8114C128.641 50.3966 128.852 50.0188 129.17 49.7433C129.488 49.4678 129.892 49.3117 130.312 49.3021C130.53 49.3091 130.742 49.372 130.928 49.4846C131.114 49.5973 131.269 49.756 131.376 49.9454C131.598 50.3111 131.682 50.7437 131.615 51.1661C131.421 51.9796 130.973 52.7104 130.337 53.2527C129.73 53.8358 129.008 54.2841 128.216 54.5684C127.424 54.8526 126.581 54.9664 125.743 54.9023C124.902 54.8232 124.093 54.5419 123.385 54.0823C122.677 53.6227 122.091 52.9985 121.677 52.263C121.464 51.9007 121.328 51.4981 121.278 51.0808C121.229 50.6635 121.266 50.2404 121.388 49.8382C121.448 49.6318 121.552 49.4411 121.693 49.2794C121.835 49.1178 122.01 48.9892 122.207 48.9026C122.403 48.8161 122.617 48.7738 122.831 48.7787C123.046 48.7836 123.257 48.8355 123.45 48.9309C123.829 49.1066 124.146 49.3945 124.357 49.7557C124.554 50.1078 124.683 50.494 124.736 50.8939C124.842 51.6663 124.789 52.4522 124.58 53.2032C124.192 54.6755 123.257 55.9441 121.965 56.7498C120.732 57.5059 119.27 57.7983 117.841 57.5746C117.147 57.5096 116.493 57.22 115.977 56.7498C115.725 56.5042 115.564 56.1801 115.521 55.8308C115.477 55.4816 115.554 55.128 115.738 54.8281C115.952 54.5519 116.266 54.3711 116.612 54.3249C116.942 54.2828 117.277 54.3254 117.586 54.4487C118.155 54.7265 118.616 55.1847 118.897 55.7518C119.474 56.8075 119.945 57.8385 120.423 58.82C122.287 62.7624 123.64 66.0202 124.547 68.2801C125 69.4101 125.372 70.2926 125.57 70.8864C125.677 71.1833 125.759 71.4143 125.825 71.571C125.855 71.6489 125.88 71.7288 125.899 71.8102L125.8 71.5792L125.52 70.9112L124.456 68.3131C123.516 66.0697 122.138 62.8201 120.258 58.8942C119.78 57.921 119.293 56.8735 118.724 55.8425C118.459 55.3167 118.031 54.8911 117.503 54.6301C117.237 54.5046 116.937 54.4672 116.648 54.5236C116.359 54.58 116.095 54.7271 115.895 54.9435C115.745 55.2052 115.687 55.5092 115.729 55.8078C115.77 56.1063 115.91 56.3825 116.126 56.5931C116.607 57.0316 117.218 57.301 117.866 57.3601C119.245 57.5653 120.651 57.2729 121.833 56.5353C123.059 55.7498 123.943 54.5302 124.308 53.1208C124.509 52.3993 124.56 51.644 124.456 50.9021C124.432 50.5334 124.314 50.1769 124.113 49.8666C123.913 49.5562 123.636 49.3023 123.31 49.1289C123.145 49.0533 122.967 49.0142 122.786 49.0142C122.605 49.0142 122.426 49.0533 122.262 49.1289C122.095 49.2086 121.947 49.3236 121.829 49.466C121.711 49.6084 121.625 49.7748 121.578 49.9536C121.467 50.3235 121.434 50.7123 121.481 51.0956C121.527 51.4788 121.653 51.8483 121.85 52.1805C122.251 52.8727 122.813 53.4586 123.487 53.8891C124.162 54.3196 124.929 54.5822 125.726 54.6549C126.53 54.7144 127.337 54.6033 128.094 54.329C128.852 54.0547 129.543 53.6232 130.122 53.063C130.712 52.5601 131.13 51.8853 131.318 51.1331C131.376 50.7652 131.303 50.3887 131.112 50.0691C131.024 49.9155 130.898 49.7866 130.747 49.6944C130.595 49.6021 130.423 49.5495 130.246 49.5412C129.882 49.5436 129.532 49.6818 129.264 49.9289C128.996 50.1746 128.816 50.5023 128.753 50.8609C128.631 51.5963 128.72 52.3512 129.009 53.0383C129.255 53.6999 129.632 54.3056 130.115 54.8199C130.599 55.3342 131.181 55.7467 131.826 56.0333C132.471 56.3198 133.167 56.4746 133.873 56.4886C134.579 56.5026 135.281 56.3755 135.937 56.1147C136.533 55.8542 137.014 55.385 137.29 54.7951C137.408 54.5171 137.415 54.2046 137.311 53.9212C137.207 53.6377 136.999 53.4046 136.729 53.2692C136.458 53.1387 136.161 53.0751 135.861 53.0837C135.561 53.0923 135.267 53.1729 135.005 53.3187C134.506 53.6256 134.089 54.0504 133.793 54.5559C133.22 55.5344 132.735 56.5611 132.341 57.624C131.663 59.4573 131.166 61.3522 130.856 63.282C130.568 64.9893 130.411 66.4739 130.295 67.6863C130.18 68.8987 130.122 69.8307 130.065 70.4823C130.065 70.7874 130.015 71.0349 130.007 71.2081C129.999 71.3813 129.982 71.472 129.982 71.472Z" fill="#263238"/>
    <path d="M135.203 74.4833L120.11 75.4648C119.808 75.4829 119.512 75.3813 119.285 75.1821C119.058 74.9829 118.919 74.7021 118.897 74.4008C118.879 74.1002 118.981 73.8046 119.181 73.5789C119.38 73.3532 119.661 73.2158 119.961 73.1967L135.063 72.2234C135.211 72.2133 135.36 72.2327 135.501 72.2803C135.642 72.328 135.773 72.403 135.884 72.5011C135.996 72.5992 136.088 72.7184 136.153 72.8519C136.219 72.9855 136.258 73.1306 136.267 73.2791C136.285 73.5798 136.183 73.8753 135.984 74.101C135.785 74.3267 135.504 74.4642 135.203 74.4833Z" fill="#263238"/>
    <path d="M135.269 75.4725L120.168 76.454C119.868 76.4737 119.589 76.6116 119.391 76.8375C119.193 77.0633 119.092 77.3585 119.112 77.6582C119.132 77.9579 119.27 78.2375 119.495 78.4354C119.721 78.6334 120.017 78.7336 120.316 78.7139L121.966 78.6067L124.44 82.6563C124.581 82.8823 124.78 83.066 125.017 83.1879C125.254 83.3099 125.519 83.3656 125.784 83.3491L131.179 83.0027C131.445 82.9821 131.702 82.89 131.921 82.7362C132.14 82.5824 132.314 82.3725 132.424 82.1285L134.288 77.8149L135.418 77.7407C135.707 77.7058 135.972 77.5616 136.157 77.3376C136.343 77.1135 136.436 76.8268 136.417 76.5363C136.398 76.2458 136.269 75.9737 136.055 75.7758C135.842 75.5779 135.56 75.4694 135.269 75.4725Z" fill="#263238"/>
    <g opacity="0.2">
        <path opacity="0.2" d="M112.093 36.5602C113.205 35.377 114.507 34.3874 115.945 33.6322C116.885 33.1177 117.897 32.7452 118.947 32.527C119.706 32.4033 120.143 32.4446 120.192 32.6013C120.299 32.9642 118.815 33.5992 116.893 35.0756C114.326 36.9436 112.351 39.5108 111.203 42.4708C110.055 45.4308 109.782 48.6586 110.419 51.769C110.856 54.2021 111.524 55.6702 111.243 55.8929C111.095 55.9836 110.749 55.7197 110.278 55.1176C109.632 54.2474 109.126 53.2818 108.777 52.2556C108.243 50.7282 107.964 49.1231 107.953 47.5049C107.914 45.4912 108.264 43.489 108.984 41.6078" fill="white"/>
    </g>
    <g opacity="0.2">
        <path opacity="0.2" d="M125.091 33.1615C123.821 33.2275 122.674 32.9553 122.501 32.2872C122.427 31.9573 122.641 31.5862 123.078 31.281C123.644 30.937 124.286 30.7362 124.947 30.696C125.608 30.6558 126.269 30.7773 126.872 31.0501C127.351 31.3057 127.598 31.6521 127.565 31.9903" fill="white"/>
    </g>
    <path d="M132.143 82.4983C131.784 82.4353 131.429 82.3499 131.08 82.2426C130.231 82.0634 129.362 82.0106 128.498 82.0859C127.647 82.1777 126.814 82.3915 126.024 82.721C125.413 82.9849 125.05 83.1994 125.034 83.1664C125.3 82.9122 125.611 82.7083 125.949 82.5643C126.752 82.1734 127.618 81.9303 128.506 81.8467C129.395 81.7609 130.293 81.8392 131.154 82.0777C131.505 82.1609 131.84 82.3031 132.143 82.4983Z" fill="#455A64"/>
    <path d="M134.33 77.8644C134.33 77.9304 131.608 78.1613 128.235 78.384C124.861 78.6067 122.139 78.7222 122.131 78.6479C122.123 78.5737 124.853 78.351 128.218 78.1366C131.583 77.9221 134.321 77.7984 134.33 77.8644Z" fill="#455A64"/>
    <path d="M133.496 79.7193C133.011 79.8395 132.518 79.9195 132.02 79.9585C131.104 80.0822 129.834 80.2142 128.424 80.3296C127.013 80.4451 125.743 80.5028 124.82 80.5276C124.323 80.5727 123.823 80.5727 123.327 80.5276C123.816 80.4282 124.312 80.373 124.811 80.3626L128.407 80.0905L132.003 79.7935C132.498 79.7265 132.997 79.7017 133.496 79.7193Z" fill="#455A64"/>
    <path d="M24.7578 180.747L28.0569 186.001C28.0569 186.001 42.0781 173.126 55.926 176.764C55.9013 176.747 43.4307 166.173 24.7578 180.747Z" fill="#1AA3E0"/>
    <path d="M55.9009 176.746C55.9009 176.746 66.1693 165.595 81.2297 168.135L85.3536 168.754L84.0504 166.387C84.0504 166.387 57.8309 157.413 55.9009 176.746Z" fill="#1AA3E0"/>
    <path d="M34.2263 139.146C34.2263 139.146 13.6564 135.607 0.179565 142.907L21.6237 183.222C21.6237 183.222 39.1584 166.322 55.9343 176.731L34.2263 139.146Z" fill="#F5F5F5"/>
    <path d="M34.2262 139.145C34.2686 139.197 34.3072 139.252 34.3417 139.31L34.6469 139.821L35.8345 141.825L40.2883 149.463L56.058 176.68C56.0777 176.715 56.0854 176.755 56.0801 176.794C56.0748 176.834 56.0567 176.87 56.0286 176.898C56.0005 176.927 55.9639 176.945 55.9245 176.95C55.8852 176.955 55.8451 176.947 55.8106 176.928C53.3927 175.433 50.7151 174.406 47.9175 173.901C46.4481 173.663 44.9602 173.558 43.472 173.587C41.9411 173.655 40.4184 173.848 38.9192 174.165C32.5819 175.722 26.7352 178.841 21.9123 183.237L21.7309 183.402C21.7124 183.422 21.69 183.438 21.6652 183.448C21.6404 183.459 21.6136 183.465 21.5866 183.465C21.5595 183.465 21.5327 183.459 21.5079 183.448C21.4831 183.438 21.4607 183.422 21.4422 183.402V183.361L0.0228284 142.988C0.0114563 142.97 0.00412825 142.949 0.00130792 142.927C-0.00151242 142.905 0.000239743 142.883 0.00645521 142.862C0.0126707 142.841 0.0232112 142.822 0.0373956 142.805C0.05158 142.789 0.0690932 142.775 0.0888118 142.766C4.38719 140.621 9.02538 139.24 13.7966 138.683C17.4375 138.235 21.1082 138.075 24.7743 138.205C27.8095 138.312 30.1766 138.551 31.7766 138.749C32.6014 138.848 33.1953 138.939 33.6076 139.013L34.0778 139.095H34.2262H34.0695L33.5994 139.038C33.187 138.988 32.5767 138.906 31.7684 138.823C30.1189 138.658 27.793 138.452 24.7661 138.378C21.1145 138.277 17.4606 138.462 13.8378 138.93C9.10604 139.512 4.5104 140.907 0.253764 143.054L0.319748 142.832L21.7639 183.147L21.4422 183.089L21.6237 182.924C24.1243 180.689 26.8754 178.752 29.8219 177.151C32.6482 175.593 35.6804 174.444 38.8285 173.736C40.3513 173.41 41.8994 173.217 43.4555 173.159C44.9688 173.124 46.4821 173.231 47.9752 173.48C50.8168 174.003 53.5357 175.052 55.992 176.573L55.7364 176.821L40.1399 149.603L35.7521 141.9L34.6056 139.854C34.4819 139.623 34.3829 139.45 34.317 139.318C34.2827 139.263 34.2524 139.205 34.2262 139.145Z" fill="#263238"/>
    <path d="M66.5575 130.874C66.5575 130.874 51.0022 120.977 34.4902 139.122L56.1653 176.723C56.1653 176.723 60.5861 161.465 86.4675 166.768L66.5575 130.874Z" fill="#F5F5F5"/>
    <path d="M66.558 130.874C66.6005 130.921 66.6365 130.974 66.6652 131.03C66.7312 131.154 66.8302 131.311 66.9457 131.517L68.0426 133.43L72.1665 140.721L86.6248 166.727C86.6365 166.747 86.644 166.769 86.647 166.792C86.65 166.815 86.6484 166.838 86.6423 166.86C86.6361 166.882 86.6256 166.903 86.6112 166.921C86.5969 166.94 86.5791 166.955 86.5588 166.966C86.519 166.981 86.4749 166.981 86.4351 166.966L82.5834 166.331C81.9256 166.219 81.2619 166.145 80.5957 166.108L78.5667 165.943C77.8783 165.885 77.187 165.869 76.4966 165.894L74.4099 165.902C73.7006 165.902 72.9995 166.042 72.2902 166.108C71.5744 166.167 70.8635 166.274 70.1623 166.43L68.0426 166.908L65.9559 167.642C65.2699 167.919 64.5983 168.23 63.9435 168.574C63.6033 168.729 63.2776 168.914 62.9703 169.127L62.0218 169.737C61.3949 170.158 60.8341 170.669 60.2485 171.139C59.696 171.657 59.1755 172.208 58.6897 172.789C57.6913 173.961 56.9094 175.302 56.3803 176.748C56.3617 176.799 56.3234 176.841 56.274 176.864C56.2245 176.887 56.1678 176.89 56.1164 176.871C56.0708 176.855 56.0326 176.823 56.0092 176.781L55.1349 175.271C47.4727 161.951 40.289 149.538 34.3588 139.171C34.3389 139.14 34.3284 139.104 34.3284 139.068C34.3284 139.031 34.3389 138.995 34.3588 138.965C37.6325 135.258 41.6256 132.256 46.0954 130.14C49.5636 128.556 53.3658 127.843 57.1721 128.061C59.6032 128.206 61.9953 128.741 64.2569 129.645C64.8489 129.888 65.4271 130.163 65.9889 130.47L66.4178 130.717L66.5498 130.816L66.4013 130.742L65.9642 130.519C65.5765 130.329 64.9992 130.049 64.2239 129.752C61.3304 128.651 58.2454 128.141 55.1514 128.253C52.0574 128.365 49.0172 129.096 46.2108 130.404C41.7916 132.525 37.8471 135.519 34.6145 139.204V139.006L55.4401 175.131L56.3473 176.624L55.9679 176.673C56.5132 175.169 57.3202 173.773 58.3515 172.55C58.8547 171.953 59.3888 171.383 59.9516 170.842C60.5619 170.356 61.131 169.828 61.7743 169.407L62.7393 168.78C63.0551 168.565 63.389 168.377 63.7373 168.219C64.4301 167.898 65.0817 167.51 65.791 167.263L67.9107 166.529L70.0716 166.042C70.783 165.882 71.5053 165.774 72.2325 165.72C72.95 165.654 73.6593 165.522 74.3686 165.514H76.4883C77.1842 165.481 77.8815 165.498 78.575 165.564L80.6204 165.737C81.2925 165.769 81.9619 165.843 82.6246 165.96L86.5011 166.611L86.3114 166.875C80.3977 156.153 75.4573 147.171 71.9768 140.845C70.253 137.703 68.8921 135.212 67.9601 133.496L66.9044 131.55C66.7972 131.336 66.7065 131.171 66.6405 131.047C66.5745 130.923 66.558 130.874 66.558 130.874Z" fill="#263238"/>
    <path d="M5.95325 123.523L29.1542 168.185C29.1542 168.185 48.0003 167.36 55.9841 176.548L34.4904 139.144C34.4904 139.144 21.8879 123.523 5.95325 123.523Z" fill="#F5F5F5"/>
    <path d="M5.95307 123.524H6.54691L8.32842 123.599C8.52637 123.599 8.74081 123.599 8.95525 123.599L9.63982 123.714L11.1904 123.97C11.7911 124.069 12.3838 124.213 12.9637 124.399C13.6358 124.56 14.2992 124.755 14.9514 124.984C20.4939 126.832 27.9333 131.302 34.614 139.005L56.1406 176.384C56.1677 176.431 56.175 176.487 56.1611 176.54C56.1472 176.592 56.1132 176.637 56.0664 176.665C56.0313 176.693 55.9876 176.708 55.9427 176.708C55.8977 176.708 55.8541 176.693 55.8189 176.665L54.9117 175.757C53.1868 174.101 51.1744 172.774 48.9733 171.84C46.8413 170.886 44.6163 170.157 42.3339 169.662C38.0031 168.701 33.5726 168.264 29.1375 168.359C29.1024 168.359 29.0679 168.35 29.0375 168.333C29.0071 168.316 28.9818 168.29 28.9643 168.26C22.2011 155.146 16.4277 143.937 12.3286 136.003C10.3326 132.085 8.73256 128.951 7.60262 126.79C7.06652 125.743 6.64588 124.926 6.35721 124.316L6.0438 123.698L5.94482 123.491C5.99409 123.561 6.03558 123.635 6.06854 123.714L6.41495 124.349L7.71809 126.823L12.5513 136.077L29.2942 168.095L29.121 167.996C33.5857 167.888 38.0471 168.32 42.4081 169.283C44.7148 169.784 46.9643 170.519 49.1218 171.477C51.3661 172.435 53.4175 173.793 55.1756 175.485L56.1159 176.409L55.7777 176.648C47.8021 162.751 40.4204 149.868 34.3336 139.236C31.352 135.756 27.9404 132.669 24.1806 130.048C21.3113 128.021 18.182 126.39 14.8771 125.199C14.2279 124.965 13.5673 124.764 12.8977 124.597C12.3239 124.405 11.7367 124.256 11.1409 124.151L9.59858 123.871L8.93051 123.747L8.32018 123.698L5.95307 123.524Z" fill="#263238"/>
    <path d="M78.368 250.191L78.8629 251.016C79.422 251.945 80.2346 252.694 81.2053 253.177L82.03 253.606L81.2053 254.101C80.2795 254.663 79.5306 255.475 79.0443 256.443L78.6155 257.309L78.1206 256.484C77.5615 255.555 76.7489 254.806 75.7782 254.323L74.9122 253.894L75.737 253.4C76.6678 252.843 77.4181 252.03 77.8979 251.057L78.368 250.191Z" fill="#1AA3E0"/>
    <path d="M32.6428 80.0656L33.1376 80.8903C33.6972 81.8165 34.5099 82.5635 35.48 83.043L36.3048 83.4719L35.48 83.975C34.5477 84.5297 33.7969 85.3435 33.3191 86.3173L32.8902 87.1421L32.3953 86.3173C31.8355 85.3863 31.0195 84.6361 30.0447 84.1564L29.1787 83.7276L30.0035 83.2327C30.9304 82.6679 31.6794 81.8532 32.1644 80.8821L32.6428 80.0656Z" fill="#1AA3E0"/>
    <path d="M244.263 109.418L244.758 110.243C245.318 111.174 246.134 111.924 247.109 112.404L247.975 112.833L247.15 113.328C246.223 113.89 245.476 114.706 244.997 115.678L244.569 116.503L244.066 115.678C243.508 114.75 242.695 114.003 241.723 113.526L240.849 113.113L241.674 112.61C242.606 112.055 243.357 111.242 243.835 110.268L244.263 109.418Z" fill="#1AA3E0"/>
    <path d="M219.273 260.872L219.768 261.697C220.33 262.624 221.146 263.371 222.118 263.85L222.984 264.279L222.159 264.782C221.231 265.341 220.481 266.154 219.999 267.124L219.578 267.99L219.075 267.165C218.518 266.234 217.705 265.484 216.732 265.004L215.866 264.575L216.691 264.081C217.622 263.521 218.372 262.705 218.852 261.73L219.273 260.872Z" fill="#1AA3E0"/>
    <path d="M224.031 292.7L224.271 292.799C224.533 292.901 224.818 292.93 225.095 292.882L225.351 292.832L225.252 293.071C225.15 293.334 225.121 293.619 225.17 293.896L225.219 294.152L224.98 294.053C224.718 293.951 224.432 293.922 224.155 293.97L223.899 294.02L223.998 293.781C224.101 293.518 224.129 293.233 224.081 292.956L224.031 292.7Z" fill="#1AA3E0"/>
    <path d="M238.424 77.493L238.655 77.592C238.918 77.693 239.203 77.7215 239.48 77.6745L239.727 77.625L239.637 77.8642C239.53 78.1255 239.502 78.4118 239.554 78.689L239.604 78.9447L239.364 78.8457C239.102 78.7447 238.817 78.7162 238.54 78.7632L238.292 78.8127L238.383 78.5735C238.489 78.3122 238.518 78.0259 238.465 77.7487L238.424 77.493Z" fill="#1AA3E0"/>
    <path d="M41.9375 57.8541L42.1767 57.9449C42.438 58.051 42.7243 58.0796 43.0015 58.0273H43.2571L43.1582 58.2583C43.0572 58.5208 43.0287 58.8057 43.0757 59.083L43.1252 59.3305L42.886 59.2397C42.6247 59.1336 42.3384 59.105 42.0612 59.1573H41.8055L41.9045 58.9263C42.0055 58.6638 42.034 58.3789 41.987 58.1016L41.9375 57.8541Z" fill="#1AA3E0"/>
    <path d="M66.161 225.415L66.4002 225.505C66.6605 225.615 66.948 225.644 67.225 225.588L67.4807 225.547L67.3817 225.786C67.2794 226.048 67.2509 226.333 67.2992 226.611L67.3487 226.858L67.1095 226.767C66.8482 226.661 66.5619 226.633 66.2847 226.685L66.0291 226.734L66.128 226.495C66.2291 226.233 66.2575 225.948 66.2105 225.67L66.161 225.415Z" fill="#1AA3E0"/>
    <path d="M92.4808 290.184L92.2498 290.423L91.5653 291.108L88.9012 293.739L79.004 303.281V303.182C79.5236 313.533 80.1834 327.554 80.8762 343.225V343.571L80.5793 343.382L77.008 340.99L54.3762 325.839H54.3267V325.789C50.9451 315.702 48.0996 307.191 46.0789 301.186C45.0892 298.201 44.3139 295.842 43.7696 294.209L43.1757 292.353C43.1098 292.155 43.0603 291.998 43.0273 291.883C43.0273 291.767 42.9778 291.718 42.986 291.718L43.052 291.866L43.2252 292.336C43.3737 292.774 43.5881 293.384 43.8685 294.176L46.2604 301.129C48.3058 307.125 51.209 315.612 54.6236 325.682L54.5576 325.6L77.2142 340.726L80.7855 343.11L80.505 343.266C79.837 327.596 79.2349 313.574 78.7895 303.207V303.149H78.8307L88.794 293.697L91.5075 291.149L92.2168 290.497C92.39 290.25 92.4808 290.184 92.4808 290.184Z" fill="#1AA3E0"/>
    <path d="M81.9394 338.483L81.8651 340.817L83.7539 342.203L81.5105 342.854L80.7764 345.073L79.4568 343.143L77.1227 343.135L78.5578 341.287L77.8402 339.061L80.0424 339.852L81.9394 338.483Z" fill="#1AA3E0"/>
    <path d="M54.6727 322.638L54.7222 324.148L55.9923 324.973L54.5655 325.476L54.1778 326.944L53.2541 325.748L51.7448 325.83L52.5943 324.577L52.0499 323.166L53.5015 323.595L54.6727 322.638Z" fill="#1AA3E0"/>
    <path d="M42.9279 288.882L44.0661 290.35L45.9219 290.234L44.8826 291.777L45.559 293.5L43.7774 292.989L42.3423 294.168L42.2764 292.313L40.7175 291.315L42.4578 290.68L42.9279 288.882Z" fill="#1AA3E0"/>
    <path d="M91.3331 287.422L92.4795 288.882L94.327 288.775L93.2878 290.309L93.9641 292.041L92.1826 291.521L90.7475 292.701L90.6898 290.845L89.1227 289.847L90.8712 289.212L91.3331 287.422Z" fill="#1AA3E0"/>
    <path d="M78.632 301.559L79.3578 302.499L80.5372 302.425L79.8774 303.406L80.3063 304.512L79.1681 304.182L78.2526 304.932L78.2114 303.753L77.2134 303.109L78.3268 302.705L78.632 301.559Z" fill="#1AA3E0"/>
    <path d="M34.9773 239.183C44.0601 239.183 51.4233 231.82 51.4233 222.737C51.4233 213.654 44.0601 206.291 34.9773 206.291C25.8944 206.291 18.5312 213.654 18.5312 222.737C18.5312 231.82 25.8944 239.183 34.9773 239.183Z" fill="#1AA3E0"/>
    <g opacity="0.3">
        <path opacity="0.3" d="M32.8414 227.867C32.843 228.4 32.6865 228.921 32.3917 229.364C32.0969 229.808 31.677 230.154 31.1854 230.358C30.6937 230.563 30.1524 230.617 29.6301 230.513C29.1078 230.41 28.6279 230.153 28.2514 229.777C27.8749 229.4 27.6186 228.92 27.5151 228.398C27.4116 227.876 27.4656 227.334 27.6701 226.843C27.8746 226.351 28.2205 225.931 28.664 225.637C29.1074 225.342 29.6284 225.185 30.1609 225.187C30.8711 225.189 31.5517 225.472 32.0539 225.974C32.5561 226.477 32.8392 227.157 32.8414 227.867Z" fill="white"/>
    </g>
    <g opacity="0.3">
        <path opacity="0.3" d="M29.0461 220.13C29.0477 220.44 28.9572 220.744 28.786 221.003C28.6148 221.262 28.3707 221.464 28.0845 221.584C27.7983 221.704 27.4829 221.736 27.1784 221.676C26.8739 221.617 26.5939 221.468 26.3739 221.249C26.1539 221.031 26.0038 220.751 25.9427 220.447C25.8816 220.143 25.9121 219.827 26.0305 219.541C26.1488 219.254 26.3497 219.009 26.6076 218.836C26.8655 218.663 27.1687 218.571 27.479 218.571C27.8932 218.571 28.2906 218.735 28.5842 219.027C28.8779 219.319 29.0439 219.716 29.0461 220.13Z" fill="white"/>
    </g>
    <path d="M19.0176 226.737C19.0918 227.025 4.93867 240.601 8.59242 243.496C12.2462 246.391 27.5622 238.968 40.6679 228.403C53.7736 217.837 65.6998 205.004 62.4255 201.606C59.1511 198.208 42.8041 208.262 42.8041 208.262L44.7588 209.515C44.7588 209.515 54.6561 203.173 57.7737 205.631C60.8914 208.088 52.0003 217.705 39.406 226.893C26.8117 236.081 14.6628 242.514 12.7905 239.999C10.9183 237.483 19.8011 229.095 19.8011 229.095L19.0176 226.737Z" fill="#1AA3E0"/>
    <g opacity="0.3">
        <path opacity="0.3" d="M19.0176 226.737C19.0918 227.025 4.93867 240.601 8.59242 243.496C12.2462 246.391 27.5622 238.968 40.6679 228.403C53.7736 217.837 65.6998 205.004 62.4255 201.606C59.1511 198.208 42.8041 208.262 42.8041 208.262L44.7588 209.515C44.7588 209.515 54.6561 203.173 57.7737 205.631C60.8914 208.088 52.0003 217.705 39.406 226.893C26.8117 236.081 14.6628 242.514 12.7905 239.999C10.9183 237.483 19.8011 229.095 19.8011 229.095L19.0176 226.737Z" fill="black"/>
    </g>
    <g opacity="0.3">
        <path opacity="0.3" d="M25.9128 211.148C26.0448 211.305 24.9313 212.254 23.6694 214.15C21.9953 216.588 21.0719 219.462 21.0132 222.419C20.9546 225.375 21.7633 228.284 23.3395 230.786C24.5272 232.741 25.5994 233.731 25.4592 233.879C25.319 234.028 24.0571 233.236 22.589 231.289C21.7411 230.15 21.0683 228.891 20.593 227.553C19.3895 224.223 19.463 220.564 20.7992 217.285C21.3253 215.963 22.0483 214.728 22.9436 213.623C24.486 211.742 25.8386 211.033 25.9128 211.148Z" fill="white"/>
    </g>
    <path d="M225.643 78.4286C231.045 73.2366 231.216 64.6478 226.024 59.245C220.832 53.8422 212.244 53.6713 206.841 58.8633C201.438 64.0553 201.267 72.6441 206.459 78.0469C211.651 83.4497 220.24 83.6206 225.643 78.4286Z" fill="#1AA3E0"/>
    <path d="M211.887 68.7353H211.916L212.835 66.4298H213.822V66.5879L212.117 70.5414H211.68L209.957 66.5867V66.4286H210.945L211.887 68.7353Z" fill="white"/>
    <path d="M216.615 69.1767V70.4947H215.57V66.4297H218.074V67.3592H216.615V68.2476H217.907V69.1767H216.615Z" fill="white"/>
    <path d="M221.417 69.2174L220.681 70.4946H219.573V70.3366L220.871 68.3393L219.711 66.5854V66.4273H220.781L221.417 67.4872H221.445L222.088 66.4301H223.151V66.5882L221.992 68.3404L223.296 70.3378V70.4958H222.188L221.453 69.2186L221.417 69.2174Z" fill="white"/>
    <path d="M215.557 59.5043C210.947 59.5043 207.198 63.2958 207.198 67.9555C207.198 71.3352 209.171 74.2572 212.013 75.608C210.847 74.8596 209.887 73.8257 209.222 72.6024C208.557 71.379 208.208 70.0056 208.207 68.6095C208.207 64.0364 211.887 60.316 216.411 60.316C218.429 60.3143 220.376 61.0679 221.878 62.4315C221.094 61.5127 220.124 60.7756 219.033 60.2705C217.942 59.7653 216.756 59.504 215.557 59.5043Z" fill="white"/>
    <path d="M220.621 59.7123C223.343 61.4278 225.159 64.4811 225.159 67.9552C225.159 73.3073 220.852 77.6616 215.558 77.6616C213.168 77.6638 210.864 76.7615 209.099 75.1323C210.013 76.1825 211.138 77.0237 212.399 77.5998C213.66 78.1759 215.028 78.4737 216.411 78.4733C221.791 78.4733 226.168 74.0471 226.168 68.6097C226.168 64.6941 223.9 61.3041 220.621 59.7123Z" fill="white"/>
</svg>
