<svg xmlns="http://www.w3.org/2000/svg" display="none">

    <symbol id="logo-icon" viewBox="0 0 34 24">
        <g>
            <path d="M18.5095 1.59699C17.7552 1.59699 17.1813 1.80248 16.7877 2.21347C16.4105 2.62446 16.2219 3.23272 16.2219 4.03826V5.56713H21.089L24.9755 10.6469L28.8619 5.56713H30.7806L25.9102 11.8799L33.4434 22.1514L32.6956 23.8453L24.9755 13.1129L20.8431 18.5379H18.8752L23.9916 11.8799L20.2068 6.97421V7.04669H16.2711V18.5379H14.5247V7.04669H12.8352L7.7359 18.5379H5.94027L0.208984 5.56713H2.02922L6.87498 16.6145L11.7699 5.56713H14.5247V3.96428C14.5247 2.78063 14.8609 1.84358 15.5332 1.15312C16.2219 0.462661 17.1895 0.117432 18.4357 0.117432C18.9277 0.117432 19.4033 0.191409 19.8624 0.339365C20.3216 0.470882 20.7069 0.668156 21.0185 0.931188L20.4282 2.23813C19.9198 1.8107 19.2803 1.59699 18.5095 1.59699Z"
                  fill="white"/>

        </g>
    </symbol>


    <symbol id="logo-text" viewBox="0 0 143 14">
        <g>
            <path d="M6.01977 0.399949C7.15977 0.399949 8.14977 0.591949 8.98977 0.975949C9.82977 1.34795 10.4778 1.88795 10.9338 2.59595C11.3898 3.29195 11.6178 4.11395 11.6178 5.06195C11.6178 6.00995 11.3898 6.83195 10.9338 7.52795C10.4778 8.22395 9.82977 8.76395 8.98977 9.14795C8.14977 9.51995 7.15977 9.70595 6.01977 9.70595H3.82377V13H0.259766V0.399949H6.01977ZM5.80377 6.89795C6.53577 6.89795 7.08777 6.74195 7.45977 6.42995C7.83177 6.10595 8.01777 5.64995 8.01777 5.06195C8.01777 4.47395 7.83177 4.01795 7.45977 3.69395C7.08777 3.36995 6.53577 3.20795 5.80377 3.20795H3.82377V6.89795H5.80377Z"
                  fill="#1AA3E0"/>
            <path d="M21.8847 10.5519H16.5567L15.5667 13H11.9307L17.4927 0.399949H21.0027L26.5827 13H22.8747L21.8847 10.5519ZM20.8407 7.92395L19.2207 3.89195L17.6007 7.92395H20.8407Z"
                  fill="#1AA3E0"/>
            <path d="M33.821 9.65195H31.877V13H28.313V0.399949H34.073C35.213 0.399949 36.203 0.591949 37.043 0.975949C37.883 1.34795 38.531 1.88795 38.987 2.59595C39.4431 3.29195 39.671 4.11395 39.671 5.06195C39.671 5.97395 39.455 6.77195 39.023 7.45595C38.6031 8.12795 37.997 8.65595 37.205 9.03995L39.923 13H36.107L33.821 9.65195ZM36.071 5.06195C36.071 4.47395 35.885 4.01795 35.513 3.69395C35.141 3.36995 34.589 3.20795 33.857 3.20795H31.877V6.89795H33.857C34.589 6.89795 35.141 6.74195 35.513 6.42995C35.885 6.10595 36.071 5.64995 36.071 5.06195Z"
                  fill="#1AA3E0"/>
            <path d="M44.8635 3.22595H40.9935V0.399949H52.2795V3.22595H48.4275V13H44.8635V3.22595Z" fill="#1AA3E0"/>
            <path d="M66.3153 0.399949V13H63.3813L57.8193 6.28595V13H54.3273V0.399949H57.2613L62.8233 7.11395V0.399949H66.3153Z"
                  fill="#1AA3E0"/>
            <path d="M79.6652 10.2459V13H69.5492V0.399949H79.4312V3.15395H73.0772V5.27795H78.6752V7.94195H73.0772V10.2459H79.6652Z"
                  fill="#1AA3E0"/>
            <path d="M87.871 9.65195H85.927V13H82.363V0.399949H88.123C89.263 0.399949 90.253 0.591949 91.093 0.975949C91.933 1.34795 92.581 1.88795 93.037 2.59595C93.493 3.29195 93.721 4.11395 93.721 5.06195C93.721 5.97395 93.505 6.77195 93.073 7.45595C92.653 8.12795 92.047 8.65595 91.255 9.03995L93.973 13H90.157L87.871 9.65195ZM90.121 5.06195C90.121 4.47395 89.935 4.01795 89.563 3.69395C89.191 3.36995 88.639 3.20795 87.907 3.20795H85.927V6.89795H87.907C88.639 6.89795 89.191 6.74195 89.563 6.42995C89.935 6.10595 90.121 5.64995 90.121 5.06195Z"
                  fill="#1AA3E0"/>
            <path d="M100.835 13.252C99.8152 13.252 98.8252 13.1259 97.8652 12.874C96.9052 12.622 96.1252 12.2859 95.5252 11.8659L96.6952 9.23795C97.2592 9.60995 97.9132 9.90995 98.6572 10.1379C99.4012 10.3659 100.133 10.4799 100.853 10.4799C102.221 10.4799 102.905 10.1379 102.905 9.45395C102.905 9.09395 102.707 8.82995 102.311 8.66195C101.927 8.48195 101.303 8.29595 100.439 8.10395C99.4912 7.89995 98.6992 7.68395 98.0632 7.45595C97.4272 7.21595 96.8812 6.83795 96.4252 6.32195C95.9692 5.80595 95.7412 5.10995 95.7412 4.23395C95.7412 3.46595 95.9512 2.77595 96.3712 2.16395C96.7912 1.53995 97.4152 1.04795 98.2432 0.68795C99.0832 0.327949 100.109 0.147949 101.321 0.147949C102.149 0.147949 102.965 0.243949 103.769 0.43595C104.573 0.61595 105.281 0.885949 105.893 1.24595L104.795 3.89195C103.595 3.24395 102.431 2.91995 101.303 2.91995C100.595 2.91995 100.079 3.02795 99.7552 3.24395C99.4312 3.44795 99.2692 3.71795 99.2692 4.05395C99.2692 4.38995 99.4612 4.64195 99.8452 4.80995C100.229 4.97795 100.847 5.15195 101.699 5.33195C102.659 5.53595 103.451 5.75795 104.075 5.99795C104.711 6.22595 105.257 6.59795 105.713 7.11395C106.181 7.61795 106.415 8.30795 106.415 9.18395C106.415 9.93995 106.205 10.6239 105.785 11.2359C105.365 11.8479 104.735 12.34 103.895 12.712C103.055 13.0719 102.035 13.252 100.835 13.252Z"
                  fill="#1AA3E0"/>
            <path d="M120.769 0.399949V13H117.205V8.08595H112.345V13H108.781V0.399949H112.345V5.13395H117.205V0.399949H120.769Z"
                  fill="#1AA3E0"/>
            <path d="M124.003 0.399949H127.567V13H124.003V0.399949Z" fill="#1AA3E0"/>
            <path d="M136.583 0.399949C137.723 0.399949 138.713 0.591949 139.553 0.975949C140.393 1.34795 141.041 1.88795 141.497 2.59595C141.953 3.29195 142.181 4.11395 142.181 5.06195C142.181 6.00995 141.953 6.83195 141.497 7.52795C141.041 8.22395 140.393 8.76395 139.553 9.14795C138.713 9.51995 137.723 9.70595 136.583 9.70595H134.387V13H130.823V0.399949H136.583ZM136.367 6.89795C137.099 6.89795 137.651 6.74195 138.023 6.42995C138.395 6.10595 138.581 5.64995 138.581 5.06195C138.581 4.47395 138.395 4.01795 138.023 3.69395C137.651 3.36995 137.099 3.20795 136.367 3.20795H134.387V6.89795H136.367Z"
                  fill="#1AA3E0"/>

        </g>
    </symbol>

    <symbol id="wallet" viewBox="0 0 24 24">
        <g>
            <path d="M21 12V5H3C1.895 5 1 4.105 1 3V20C1 21.657 2.343 23 4 23H21V16" stroke="#15B9FF" stroke-width="2"
                  stroke-miterlimit="10" stroke-linecap="square"/>
            <path d="M17 2V1H3C1.895 1 1 1.895 1 3C1 4.105 1.895 5 3 5" stroke="#15B9FF" stroke-width="2"
                  stroke-miterlimit="10" stroke-linecap="square"/>
            <path d="M23 16H18C16.895 16 16 15.105 16 14C16 12.895 16.895 12 18 12H23V16Z" stroke="#15B9FF"
                  stroke-width="2" stroke-miterlimit="10" stroke-linecap="square"/>

        </g>
    </symbol>

    <symbol id="user" viewBox="0 0 22 24">
        <g>
            <path d="M13 19H16" stroke="#9B9EA8" stroke-width="2" stroke-miterlimit="10" stroke-linecap="square"/>
            <path d="M7.796 13.907L1.971 17.417C1.369 17.779 1 18.43 1 19.132V23H21V19.132C21 18.429 20.631 17.778 20.029 17.417L14.204 13.907"
                  stroke="#9B9EA8" stroke-width="2" stroke-miterlimit="10"/>
            <path d="M5.00293 6.796C5.63293 6.982 6.29493 7.106 6.98493 7.106C8.94493 7.106 10.7139 6.298 11.9849 5C13.2559 6.298 15.0389 7.106 16.9989 7.106"
                  stroke="#9B9EA8" stroke-width="2" stroke-miterlimit="10"/>
            <path d="M5 7C5 3.686 7.686 1 11 1C14.314 1 17 3.686 17 7C17 12 14.314 15 11 15C7.686 15 5 12 5 7Z"
                  stroke="#9B9EA8" stroke-width="2" stroke-miterlimit="10" stroke-linecap="square"/>

        </g>
    </symbol>

    <symbol id="question" viewBox="0 0 24 24">
        <g>
            <path d="M12 23C18.0751 23 23 18.0751 23 12C23 5.92487 18.0751 1 12 1C5.92487 1 1 5.92487 1 12C1 18.0751 5.92487 23 12 23Z"
                  stroke="#9B9EA8" stroke-width="2" stroke-miterlimit="10" stroke-linecap="square"/>
            <path d="M12 19C12.5523 19 13 18.5523 13 18C13 17.4477 12.5523 17 12 17C11.4477 17 11 17.4477 11 18C11 18.5523 11.4477 19 12 19Z"
                  fill="#9B9EA8"/>
            <path d="M9.85254 6.56001C11.8325 5.68501 14.3945 5.78901 15.2695 7.20501C16.1445 8.62101 15.5405 10.268 14.0405 11.539C12.5405 12.81 11.9995 13.5 11.9995 14.5"
                  stroke="#9B9EA8" stroke-width="2" stroke-miterlimit="10" stroke-linecap="square"/>

        </g>
    </symbol>


    <symbol id="view" viewBox="0 0 16 10">
        <g>
            <svg width="16" height="10" viewBox="0 0 16 10" fill="none" xmlns="http://www.w3.org/2000/svg">
                <path d="M8.00033 3C8.53076 3 9.03947 3.21071 9.41454 3.58579C9.78961 3.96086 10.0003 4.46957 10.0003 5C10.0003 5.53043 9.78961 6.03914 9.41454 6.41421C9.03947 6.78929 8.53076 7 8.00033 7C7.46989 7 6.96118 6.78929 6.58611 6.41421C6.21104 6.03914 6.00033 5.53043 6.00033 5C6.00033 4.46957 6.21104 3.96086 6.58611 3.58579C6.96118 3.21071 7.46989 3 8.00033 3V3ZM8.00033 0C11.3337 0 14.1803 2.07333 15.3337 5C14.1803 7.92667 11.3337 10 8.00033 10C4.66699 10 1.82033 7.92667 0.666992 5C1.82033 2.07333 4.66699 0 8.00033 0ZM2.12033 5C3.22033 7.24 5.49366 8.66667 8.00033 8.66667C10.507 8.66667 12.7803 7.24 13.8803 5C12.7803 2.76 10.507 1.33333 8.00033 1.33333C5.49366 1.33333 3.22033 2.76 2.12033 5Z"
                      fill="#9B9EA8"/>
            </svg>

        </g>
    </symbol>

    <symbol id="user2" viewBox="0 0 20 20">
        <g>
            <path d="M11.6665 15.8334H14.1665" stroke="#424B62" stroke-width="2"
                  stroke-miterlimit="10" stroke-linecap="square"/>
            <path d="M7.32984 11.5892L2.47567 14.5142C1.974 14.8159 1.6665 15.3584 1.6665 15.9434V19.1667H18.3332V15.9434C18.3332 15.3576 18.0257 14.8151 17.524 14.5142L12.6698 11.5892"
                  stroke="#424B62" stroke-width="2" stroke-miterlimit="10"/>
            <path d="M5.00244 5.66341C5.52744 5.81841 6.07911 5.92175 6.65411 5.92175C8.28744 5.92175 9.76161 5.24841 10.8208 4.16675C11.8799 5.24841 13.3658 5.92175 14.9991 5.92175"
                  stroke="#424B62" stroke-width="2" stroke-miterlimit="10"/>
            <path d="M5 5.83337C5 3.07171 7.23833 0.833374 10 0.833374C12.7617 0.833374 15 3.07171 15 5.83337C15 10 12.7617 12.5 10 12.5C7.23833 12.5 5 10 5 5.83337Z"
                  stroke="#424B62" stroke-width="2" stroke-miterlimit="10"
                  stroke-linecap="square"/>
        </g>
    </symbol>

    <symbol id="program" viewBox="0 0 20 20">
        <g>
            <path d="M6.25 7.5C4.1825 7.5 2.5 5.8175 2.5 3.75C2.5 1.6825 4.1825 0 6.25 0C8.3175 0 10 1.6825 10 3.75C10 5.8175 8.3175 7.5 6.25 7.5ZM6.25 1.66667C5.10083 1.66667 4.16667 2.60167 4.16667 3.75C4.16667 4.89833 5.10083 5.83333 6.25 5.83333C7.39917 5.83333 8.33333 4.89833 8.33333 3.75C8.33333 2.60167 7.39917 1.66667 6.25 1.66667Z"
                  fill="#424B62"/>
            <path d="M13.75 20C11.6825 20 10 18.3175 10 16.25C10 14.1825 11.6825 12.5 13.75 12.5C15.8175 12.5 17.5 14.1825 17.5 16.25C17.5 18.3175 15.8175 20 13.75 20ZM13.75 14.1667C12.6008 14.1667 11.6667 15.1017 11.6667 16.25C11.6667 17.3983 12.6008 18.3333 13.75 18.3333C14.8992 18.3333 15.8333 17.3983 15.8333 16.25C15.8333 15.1017 14.8992 14.1667 13.75 14.1667Z"
                  fill="#424B62"/>
            <path d="M2.49991 19.1667C2.30158 19.1667 2.10158 19.0967 1.94241 18.9525C1.60074 18.645 1.57324 18.1183 1.88074 17.7758L16.8807 1.10916C17.1891 0.767492 17.7157 0.739992 18.0574 1.04749C18.3991 1.35499 18.4266 1.88166 18.1191 2.22416L3.11908 18.8908C2.95491 19.0733 2.72741 19.1667 2.49991 19.1667Z"
                  fill="#424B62"/>
        </g>
    </symbol>

    <symbol id="billing" viewBox="0 0 20 20">
        <g>
            <path d="M4.99967 2.5H2.49967C1.57884 2.5 0.833008 3.24583 0.833008 4.16667C0.833008 5.0875 1.57884 5.83333 2.49967 5.83333"
                  stroke="#424B62" stroke-width="2" stroke-miterlimit="10" stroke-linecap="square"/>
            <path d="M5 5.83337V0.833374H16.6667V5.83337" stroke="#424B62" stroke-width="2" stroke-miterlimit="10"
                  stroke-linecap="square"/>
            <path d="M19.1663 5.83341H2.49967C1.57884 5.83341 0.833008 5.08758 0.833008 4.16675V16.6667C0.833008 18.0476 1.95217 19.1667 3.33301 19.1667H19.1663V5.83341Z"
                  stroke="#424B62" stroke-width="2" stroke-miterlimit="10" stroke-linecap="square"/>
            <path d="M14.1667 14.1667C15.0871 14.1667 15.8333 13.4205 15.8333 12.5C15.8333 11.5796 15.0871 10.8334 14.1667 10.8334C13.2462 10.8334 12.5 11.5796 12.5 12.5C12.5 13.4205 13.2462 14.1667 14.1667 14.1667Z"
                  stroke="#424B62" stroke-width="2" stroke-miterlimit="10" stroke-linecap="square"/>
        </g>
    </symbol>

    <symbol id="mail" viewBox="0 0 20 18">
        <g>
            <path d="M15.8327 4.83331L9.99935 10.6666L4.16602 4.83331" stroke="#424B62" stroke-width="2"
                  stroke-miterlimit="10" stroke-linecap="square"/>
            <path d="M17.4997 1.5H2.49967C1.5792 1.5 0.833008 2.24619 0.833008 3.16667V14.8333C0.833008 15.7538 1.5792 16.5 2.49967 16.5H17.4997C18.4201 16.5 19.1663 15.7538 19.1663 14.8333V3.16667C19.1663 2.24619 18.4201 1.5 17.4997 1.5Z"
                  stroke="#424B62" stroke-width="2" stroke-miterlimit="10" stroke-linecap="square"/>
            <path d="M5.83268 11.5L4.16602 13.1667" stroke="#424B62" stroke-width="2" stroke-miterlimit="10"
                  stroke-linecap="square"/>
            <path d="M14.166 11.5L15.8327 13.1667" stroke="#424B62" stroke-width="2" stroke-miterlimit="10"
                  stroke-linecap="square"/>

        </g>
    </symbol>


    <symbol id="security" viewBox="0 0 20 20">
        <g>

            <path d="M10 1.66663V18.3333" stroke="#424B62" stroke-width="2"
                  stroke-miterlimit="10"/>
            <path d="M17.4201 10H2.58008" stroke="#424B62" stroke-width="2"
                  stroke-miterlimit="10"/>
            <path d="M9.99984 1.66663C7.49984 3.33329 4.1665 4.16663 1.6665 4.16663C1.6665 9.99996 4.1665 15.8333 9.99984 18.3333C15.8332 15.8333 18.3332 9.99996 18.3332 4.16663C15.8332 4.16663 12.4998 3.33329 9.99984 1.66663Z"
                  stroke="#424B62" stroke-width="2" stroke-miterlimit="10"
                  stroke-linecap="square"/>

        </g>
    </symbol>

    <symbol id="error" viewBox="0 0 24 23">
        <g>

            <path d="M2 22L12 3L22 22H2Z" stroke="white" stroke-width="2" stroke-miterlimit="10"
                  stroke-linecap="square"/>
            <path d="M12 11V15" stroke="white" stroke-width="2" stroke-miterlimit="10" stroke-linecap="square"/>
            <path d="M12.5 18C12.5 18.2761 12.2761 18.5 12 18.5C11.7239 18.5 11.5 18.2761 11.5 18C11.5 17.7239 11.7239 17.5 12 17.5C12.2761 17.5 12.5 17.7239 12.5 18Z"
                  fill="#444444" stroke="white"/>

        </g>
    </symbol>

    <symbol id="success" viewBox="0 0 24 20">
        <g>

            <path d="M9 18L2 11L5 8L9 12L19 2L22 5L9 18Z" stroke="white" stroke-width="2" stroke-miterlimit="10"
                  stroke-linecap="square"/>

        </g>
    </symbol>

    <symbol id="attention" viewBox="0 0 24 24">
        <g>
            <path d="M9.336 14L11.855 20.252C12.0524 20.7437 12.0466 21.2937 11.8389 21.7812C11.6311 22.2687 11.2384 22.6538 10.747 22.852V22.852C10.2553 23.0494 9.70526 23.0436 9.21778 22.8359C8.7303 22.6281 8.34518 22.2354 8.147 21.744L5 14"
                  stroke="white" stroke-width="2" stroke-miterlimit="10"/>
            <path d="M11 6H5C3.93913 6 2.92172 6.42143 2.17157 7.17157C1.42143 7.92172 1 8.93913 1 10C1 11.0609 1.42143 12.0783 2.17157 12.8284C2.92172 13.5786 3.93913 14 5 14H11L19 18V2L11 6Z"
                  stroke="white" stroke-width="2" stroke-miterlimit="10" stroke-linecap="square"/>
            <path d="M21 7V13C21.7956 13 22.5587 12.6839 23.1213 12.1213C23.6839 11.5587 24 10.7956 24 10C24 9.20435 23.6839 8.44129 23.1213 7.87868C22.5587 7.31607 21.7956 7 21 7Z"
                  fill="white"/>

        </g>
    </symbol>

    <symbol id="copy" viewBox="0 0 22 22">
        <g>
            <path d="M15 7H21V21H7V15" stroke="#1AA3E0" stroke-width="2" stroke-miterlimit="10"
                  stroke-linecap="square"/>
            <path d="M15 1H1V15H15V1Z" stroke="#1AA3E0" stroke-width="2" stroke-miterlimit="10"
                  stroke-linecap="square"/>

        </g>
    </symbol>

    <symbol id="statistic" viewBox="0 0 16 16">
        <g>
            <path d="M14 15H2C1.448 15 1 14.552 1 14V2C1 1.448 1.448 1 2 1H14C14.552 1 15 1.448 15 2V14C15 14.552 14.552 15 14 15Z"
                  stroke="#15B9FF" stroke-width="1.5" stroke-miterlimit="10" stroke-linecap="round"
                  stroke-linejoin="round"/>
            <path d="M3 8.5H5L6.5 5L9.5 12L11 8.5H13" stroke="#15B9FF" stroke-width="1.5" stroke-miterlimit="10"
                  stroke-linecap="round" stroke-linejoin="round"/>

        </g>
    </symbol>

    <symbol id="statistic2" viewBox="0 0 16 16">
        <g>
            <path d="M14 15H2C1.448 15 1 14.552 1 14V2C1 1.448 1.448 1 2 1H14C14.552 1 15 1.448 15 2V14C15 14.552 14.552 15 14 15Z"
                  stroke="#6D7792" stroke-width="1.5" stroke-miterlimit="10" stroke-linecap="round"
                  stroke-linejoin="round"/>
            <path d="M3 8.5H5L6.5 5L9.5 12L11 8.5H13" stroke="#6D7792" stroke-width="1.5" stroke-miterlimit="10"
                  stroke-linecap="round" stroke-linejoin="round"/>

        </g>
    </symbol>

    <symbol id="profile1" viewBox="0 0 24 24">
        <g>
            <path d="M19.8858 13.2851L19.7972 13.8056L20.177 14.1723L22.2756 16.199L22.2755 16.1993L20.7757 18.7989C20.7753 18.7988 20.7749 18.7988 20.7744 18.7988C20.7722 18.7985 20.77 18.7982 20.7679 18.7976L17.9744 17.9995L17.4724 17.856L17.0677 18.186C16.3948 18.7346 15.6372 19.1703 14.8245 19.476L14.3336 19.6607L14.2065 20.1696L13.4995 22.9996L13.4994 23L10.5027 23L9.79582 20.1706L9.66855 19.6612L9.17692 19.4767C8.36301 19.1714 7.60419 18.7356 6.93017 18.1866L6.52561 17.8571L6.02392 18.0005L3.23035 18.7986C3.2278 18.7993 3.2252 18.7997 3.22259 18.7999L1.72303 16.2006L3.82248 14.1722L4.20206 13.8054L4.11344 13.2851C4.04113 12.8605 4.00308 12.4308 3.99967 12.0001C4.00313 11.5697 4.04117 11.1402 4.11344 10.7159L4.20206 10.1956L3.82248 9.82884L1.72266 7.80001L1.72282 7.79972L3.21922 5.20596C3.22033 5.20435 3.22189 5.2031 3.22372 5.20236C3.22561 5.2016 3.22769 5.20143 3.22967 5.20188L6.02492 6.00052L6.52691 6.14395L6.93155 5.81404C7.60449 5.26538 8.36208 4.82968 9.17474 4.52396L9.66569 4.33927L9.79282 3.83037L10.4998 1.00037L10.4999 0.999999L13.4994 1L14.2021 3.82908L14.3289 4.33952L14.8214 4.52427C15.6353 4.82964 16.3941 5.26536 17.0681 5.81435L17.4727 6.14387L17.9744 6.00052L20.7699 5.2018C20.77 5.20176 20.7701 5.20173 20.7703 5.2017C20.772 5.20128 20.7739 5.20142 20.7757 5.20212C20.7773 5.20278 20.7787 5.20392 20.7797 5.20538C20.7798 5.20555 20.7799 5.20573 20.7801 5.20591L22.2762 7.79937L20.1768 9.82784L19.7972 10.1946L19.8858 10.7149C19.9582 11.1395 19.9962 11.5693 19.9996 12C19.9962 12.4307 19.9582 12.8605 19.8858 13.2851Z"
                  stroke="#9B9EA8" stroke-width="2"/>
            <circle cx="12" cy="12" r="2.5" fill="#9B9EA8" stroke="#9B9EA8"/>

        </g>
    </symbol>

    <symbol id="profile2" viewBox="0 0 24 24">
        <g>
            <g clip-path="url(#clip0)">
                <path d="M8.09961 16C9.49961 18.4 12.0996 20 14.9996 20C19.3996 20 22.9996 16.4 22.9996 12C22.9996 7.6 19.3996 4 14.9996 4C11.9996 4 9.49961 5.6 8.09961 8"
                      stroke="#9B9EA8" stroke-width="2" stroke-miterlimit="10"/>
                <path d="M15 12H1" stroke="#9B9EA8" stroke-width="2" stroke-miterlimit="10"/>
                <path d="M4 15L1 12L4 9" stroke="#9B9EA8" stroke-width="2" stroke-miterlimit="10"
                      stroke-linecap="square"/>
            </g>
            <defs>
                <clipPath id="clip0">
                    <rect width="24" height="24" fill="white"/>
                </clipPath>
            </defs>
        </g>
    </symbol>

    <symbol id="fb" viewBox="0 0 18 18">
        <g>
            <path d="M16.5 0H1.5C0.67125 0 0 0.67125 0 1.5V16.5C0 17.3288 0.67125 18 1.5 18H9.75V11.25H7.5V8.25H9.75V6.30975C9.75 3.98475 11.1698 2.71875 13.2443 2.71875C14.238 2.71875 15.0915 2.793 15.3405 2.826V5.256L13.902 5.25675C12.774 5.25675 12.5557 5.793 12.5557 6.579V8.25H15.8857L15.1357 11.25H12.5557V18H16.5C17.3288 18 18 17.3288 18 16.5V1.5C18 0.67125 17.3288 0 16.5 0Z"
                  fill="#988FF2"/>
        </g>
    </symbol>

    <symbol id="fb2" viewBox="0 0 18 18">
        <g>
            <path d="M16.5 0H1.5C0.67125 0 0 0.67125 0 1.5V16.5C0 17.3288 0.67125 18 1.5 18H9.75V11.25H7.5V8.25H9.75V6.30975C9.75 3.98475 11.1698 2.71875 13.2443 2.71875C14.238 2.71875 15.0915 2.793 15.3405 2.826V5.256L13.902 5.25675C12.774 5.25675 12.5557 5.793 12.5557 6.579V8.25H15.8857L15.1357 11.25H12.5557V18H16.5C17.3288 18 18 17.3288 18 16.5V1.5C18 0.67125 17.3288 0 16.5 0Z"
                  fill="#fff"/>
        </g>
    </symbol>

    <symbol id="twitter" viewBox="0 0 18 18">
        <g>
            <path d="M18 3.44961C17.325 3.74961 16.65 3.97461 15.9 4.04961C16.65 3.59961 17.25 2.84961 17.55 2.02461C16.8 2.47461 16.05 2.77461 15.225 2.92461C14.55 2.17461 13.575 1.72461 12.525 1.72461C10.5 1.72461 8.85 3.37461 8.85 5.39961C8.85 5.69961 8.85 5.99961 8.925 6.22461C5.775 6.07461 3.075 4.57461 1.275 2.32461C0.9 2.92461 0.75 3.52461 0.75 4.19961C0.75 5.47461 1.425 6.59961 2.4 7.27461C1.8 7.27461 1.2 7.12461 0.75 6.82461C0.75 6.82461 0.75 6.82461 0.75 6.89961C0.75 8.69961 2.025 10.1996 3.675 10.4996C3.375 10.5746 3.075 10.6496 2.7 10.6496C2.475 10.6496 2.25 10.6496 2.025 10.5746C2.475 12.0746 3.825 13.1246 5.475 13.1246C4.2 14.0996 2.625 14.6996 0.9 14.6996C0.6 14.6996 0.3 14.6996 0 14.6246C1.65 15.6746 3.6 16.2746 5.625 16.2746C12.45 16.2746 16.125 10.6496 16.125 5.77461C16.125 5.62461 16.125 5.47461 16.125 5.32461C16.875 4.79961 17.475 4.12461 18 3.44961Z"
                  fill="#988FF2"/>
        </g>
    </symbol>

    <symbol id="youtube" viewBox="0 0 18 18">
        <g>
            <path d="M17.85 5.39922C17.85 5.39922 17.7 4.12422 17.1 3.59922C16.425 2.84922 15.675 2.84922 15.3 2.84922C12.75 2.69922 9 2.69922 9 2.69922C9 2.69922 5.25 2.69922 2.7 2.84922C2.325 2.92422 1.575 2.92422 0.9 3.59922C0.375 4.12422 0.15 5.39922 0.15 5.39922C0.15 5.39922 0 6.82422 0 8.32422V9.67422C0 11.0992 0.15 12.5992 0.15 12.5992C0.15 12.5992 0.3 13.8742 0.9 14.3992C1.575 15.1492 2.475 15.0742 2.85 15.1492C4.275 15.2992 9 15.2992 9 15.2992C9 15.2992 12.75 15.2992 15.3 15.0742C15.675 14.9992 16.425 14.9992 17.1 14.3242C17.625 13.7992 17.85 12.5242 17.85 12.5242C17.85 12.5242 18 11.0992 18 9.59922V8.24922C18 6.82422 17.85 5.39922 17.85 5.39922ZM7.125 11.3242V6.29922L12 8.84922L7.125 11.3242Z"
                  fill="#988FF2"/>
        </g>
    </symbol>

    <symbol id="user-vfx" viewBox="0 0 40 40">
        <g>
            <circle cx="20" cy="20" r="20" fill="#81C728" fill-opacity="0.2"/>
            <path fill-rule="evenodd" clip-rule="evenodd"
                  d="M23 20C25.21 20 27 18.21 27 16C27 13.79 25.21 12 23 12C20.79 12 19 13.79 19 16C19 18.21 20.79 20 23 20ZM23 14C24.1 14 25 14.9 25 16C25 17.1 24.1 18 23 18C21.9 18 21 17.1 21 16C21 14.9 21.9 14 23 14ZM15 26C15 23.34 20.33 22 23 22C25.67 22 31 23.34 31 26V28H15V26ZM17 26C17.22 25.28 20.31 24 23 24C25.7 24 28.8 25.29 29 26H17ZM14 20V23H12V20H9V18H12V15H14V18H17V20H14Z"
                  fill="#81C728"/>

        </g>
    </symbol>

    <symbol id="google" viewBox="0 0 24 25">
        <g>
            <path d="M22.7872 10.4547H12.0487V15.0567H18.135C17.16 18.125 14.76 19.148 12 19.148C10.9307 19.1494 9.87678 18.8929 8.92776 18.4001C7.97874 17.9074 7.16259 17.193 6.54855 16.3175C5.93451 15.4421 5.54071 14.4314 5.40056 13.3713C5.2604 12.3113 5.37803 11.233 5.74347 10.2281C6.10891 9.22313 6.71136 8.32117 7.49972 7.59873C8.28808 6.87628 9.23908 6.35467 10.272 6.07814C11.305 5.80161 12.3894 5.77834 13.4332 6.01028C14.4771 6.24223 15.4496 6.72255 16.2682 7.4105L19.6125 4.22525C18.2658 2.98481 16.6366 2.09182 14.8665 1.62378C13.0964 1.15574 11.2389 1.12681 9.45505 1.53949C7.67123 1.95217 6.0151 2.79399 4.63041 3.99188C3.24571 5.18976 2.17432 6.70751 1.50922 8.41337C0.844124 10.1192 0.605429 11.9616 0.813856 13.7807C1.02228 15.5997 1.67153 17.3404 2.70525 18.8516C3.73896 20.3628 5.12589 21.5988 6.74565 22.4525C8.36541 23.3061 10.169 23.7515 12 23.75C18.2032 23.75 23.8102 19.6587 22.7872 10.4547Z"
                  fill="white"/>

        </g>
    </symbol>

    <symbol id="login" viewBox="0 0 40 40">
        <g>
            <circle cx="20" cy="20" r="20" fill="#81C728" fill-opacity="0.2"/>
            <path fill-rule="evenodd" clip-rule="evenodd"
                  d="M24 27H30V23H32V17H21.32C20.17 14.58 17.72 13 15 13C11.14 13 8 16.14 8 20C8 23.86 11.14 27 15 27C17.72 27 20.18 25.42 21.32 23H24V27ZM28 25H26V21H19.94L19.71 21.67C19.01 23.66 17.11 25 15 25C12.24 25 10 22.76 10 20C10 17.24 12.24 15 15 15C17.11 15 19.01 16.34 19.71 18.33L19.94 19H30V21H28V25ZM15 23C13.35 23 12 21.65 12 20C12 18.35 13.35 17 15 17C16.65 17 18 18.35 18 20C18 21.65 16.65 23 15 23ZM14 20C14 19.45 14.45 19 15 19C15.55 19 16 19.45 16 20C16 20.55 15.55 21 15 21C14.45 21 14 20.55 14 20Z"
                  fill="#81C728"/>

        </g>
    </symbol>

    <symbol id="view2" viewBox="0 0 24 16">
        <g>
            <path d="M2 8C2 8 6 1 12 1C18 1 22 8 22 8C22 8 18 15 12 15C6 15 2 8 2 8Z" stroke="#22283C" stroke-width="2"
                  fill="none"
                  stroke-miterlimit="10" stroke-linecap="square"/>
            <path d="M12 11C13.6569 11 15 9.65685 15 8C15 6.34315 13.6569 5 12 5C10.3431 5 9 6.34315 9 8C9 9.65685 10.3431 11 12 11Z"
                  stroke="#22283C" stroke-width="2" fill="none" stroke-miterlimit="10" stroke-linecap="square"/>

        </g>
    </symbol>

    <symbol id="view-off" viewBox="0 0 24 24">
        <g>
            <path d="M2 5.27L3.28 4L20 20.72L18.73 22L15.65 18.92C14.5 19.3 13.28 19.5 12 19.5C7 19.5 2.73 16.39 1 12C1.69 10.24 2.79 8.69 4.19 7.46L2 5.27ZM12 9C12.7956 9 13.5587 9.31607 14.1213 9.87868C14.6839 10.4413 15 11.2044 15 12C15 12.35 14.94 12.69 14.83 13L11 9.17C11.31 9.06 11.65 9 12 9ZM12 4.5C17 4.5 21.27 7.61 23 12C22.18 14.08 20.79 15.88 19 17.19L17.58 15.76C18.94 14.82 20.06 13.54 20.82 12C19.17 8.64 15.76 6.5 12 6.5C10.91 6.5 9.84 6.68 8.84 7L7.3 5.47C8.74 4.85 10.33 4.5 12 4.5ZM3.18 12C4.83 15.36 8.24 17.5 12 17.5C12.69 17.5 13.37 17.43 14 17.29L11.72 15C10.29 14.85 9.15 13.71 9 12.28L5.6 8.87C4.61 9.72 3.78 10.78 3.18 12Z"
                  fill="#1AA3E0"/>
        </g>
    </symbol>

    <symbol id="view-off2" viewBox="0 0 24 24">
        <g>
            <path d="M2 5.27L3.28 4L20 20.72L18.73 22L15.65 18.92C14.5 19.3 13.28 19.5 12 19.5C7 19.5 2.73 16.39 1 12C1.69 10.24 2.79 8.69 4.19 7.46L2 5.27ZM12 9C12.7956 9 13.5587 9.31607 14.1213 9.87868C14.6839 10.4413 15 11.2044 15 12C15 12.35 14.94 12.69 14.83 13L11 9.17C11.31 9.06 11.65 9 12 9ZM12 4.5C17 4.5 21.27 7.61 23 12C22.18 14.08 20.79 15.88 19 17.19L17.58 15.76C18.94 14.82 20.06 13.54 20.82 12C19.17 8.64 15.76 6.5 12 6.5C10.91 6.5 9.84 6.68 8.84 7L7.3 5.47C8.74 4.85 10.33 4.5 12 4.5ZM3.18 12C4.83 15.36 8.24 17.5 12 17.5C12.69 17.5 13.37 17.43 14 17.29L11.72 15C10.29 14.85 9.15 13.71 9 12.28L5.6 8.87C4.61 9.72 3.78 10.78 3.18 12Z"
                  fill="#9B9EA8"/>
        </g>
    </symbol>

    <symbol id="delete" viewBox="0 0 23 23">
        <g>
            <path d="M21.356 3.28573H15.6061V2.46428C15.6061 1.1033 14.5028 0 13.1418 0H9.85605C8.49507 0 7.39177 1.1033 7.39177 2.46428V3.28573H1.64176C1.18808 3.28573 0.820312 3.65349 0.820312 4.10717C0.820312 4.56085 1.18813 4.92856 1.64176 4.92856H2.53463L4.10604 22.2533C4.14479 22.6775 4.50148 23.0017 4.92748 23H18.0703C18.4964 23.0018 18.853 22.6776 18.8918 22.2533L20.4632 4.92856H21.3561C21.8098 4.92856 22.1775 4.5608 22.1775 4.10712C22.1775 3.65344 21.8097 3.28573 21.356 3.28573ZM9.03461 2.46428C9.03461 2.0106 9.40237 1.64284 9.85605 1.64284H13.1418C13.5955 1.64284 13.9632 2.0106 13.9632 2.46428V3.28573H9.03466V2.46428H9.03461ZM17.3204 21.3571H5.67745L4.1882 4.92856H8.21321H18.8137L17.3204 21.3571Z"
                  fill="#1AA3E0"/>
            <path d="M9.03498 18.8379C9.03488 18.8368 9.03484 18.8356 9.03474 18.8345L8.2133 7.33455C8.1811 6.88087 7.7872 6.53924 7.33357 6.57144C6.87989 6.60364 6.53826 6.99754 6.57046 7.45117L7.3919 18.9511C7.42256 19.3819 7.78152 19.7154 8.21335 19.7143H8.2725C8.72507 19.6828 9.06646 19.2905 9.03498 18.8379Z"
                  fill="#1AA3E0"/>
            <path d="M11.5011 6.57129C11.0475 6.57129 10.6797 6.93905 10.6797 7.39273V18.8927C10.6797 19.3464 11.0475 19.7142 11.5011 19.7142C11.9548 19.7142 12.3226 19.3464 12.3226 18.8927V7.39273C12.3226 6.93905 11.9548 6.57129 11.5011 6.57129Z"
                  fill="#1AA3E0"/>
            <path d="M15.6663 6.57144C15.2126 6.53924 14.8188 6.88087 14.7866 7.33455L13.9651 18.8345C13.9319 19.2869 14.2717 19.6807 14.7241 19.714C14.7255 19.7141 14.7268 19.7142 14.7282 19.7143H14.7866C15.2184 19.7154 15.5774 19.3819 15.608 18.9511L16.4295 7.45117C16.4617 6.99754 16.12 6.60368 15.6663 6.57144Z"
                  fill="#1AA3E0"/>
        </g>
    </symbol>

    <symbol id="edit" viewBox="0 0 22 22">
        <g><path d="M19.0866 0.867902C17.9274 -0.289301 16.0501 -0.289301 14.8909 0.867902L13.8406 1.92394L2.66043 13.0982L2.63666 13.1221C2.63091 13.1279 2.63091 13.134 2.62478 13.134C2.6129 13.1518 2.59508 13.1694 2.58339 13.1873C2.58339 13.1932 2.57726 13.1932 2.57726 13.1991C2.56538 13.217 2.55963 13.2288 2.54756 13.2467C2.54181 13.2526 2.54181 13.2584 2.53587 13.2645C2.52993 13.2823 2.52399 13.2942 2.51786 13.312C2.51786 13.3178 2.51211 13.3178 2.51211 13.3239L0.0315674 20.7831C-0.0411987 20.9955 0.0141184 21.2307 0.173944 21.3883C0.286248 21.4991 0.437721 21.5611 0.595318 21.5606C0.659731 21.5594 0.723587 21.5494 0.785215 21.5309L8.23872 19.0444C8.24447 19.0444 8.24447 19.0444 8.2506 19.0386C8.26935 19.033 8.28735 19.0251 8.30387 19.0147C8.30852 19.0141 8.3126 19.0121 8.31594 19.0089C8.33358 18.997 8.35734 18.985 8.37516 18.9731C8.39279 18.9614 8.4108 18.9436 8.42862 18.9317C8.43456 18.9256 8.44031 18.9256 8.44031 18.9198C8.44644 18.9139 8.45832 18.9081 8.46426 18.8961L20.6947 6.66561C21.8519 5.50636 21.8519 3.62911 20.6947 2.47005L19.0866 0.867902ZM8.04882 17.6497L3.91861 13.5197L14.256 3.18231L18.3862 7.31234L8.04882 17.6497ZM3.33685 14.6175L6.94508 18.2256L1.52698 20.0295L3.33685 14.6175ZM19.8581 5.83474L19.229 6.46977L15.0986 2.33937L15.7338 1.70453C16.4286 1.01028 17.5548 1.01028 18.2498 1.70453L19.8638 3.31856C20.5534 4.01652 20.5508 5.14012 19.8581 5.83474Z"
                 fill="#1AA3E0"/></g>
    </symbol>
    <symbol id="close" viewBox="0 0 12 12">
        <g>
            <g opacity="0.6">
                <path d="M8 4L4 8" stroke="black" stroke-width="0.5" stroke-miterlimit="10" stroke-linecap="square"/>
                <path d="M8 8L4 4" stroke="black" stroke-width="0.5" stroke-miterlimit="10" stroke-linecap="square"/>
            </g>
            <circle opacity="0.6" cx="6" cy="6" r="5.75" stroke="black" stroke-width="0.5"/>
        </g>
    </symbol>

    <symbol id="img" viewBox="0 0 11 11">
        <g opacity="0.7">
            <path d="M10.888 2.91337L8.54954 0.522627C8.47572 0.447238 8.37474 0.404785 8.26932 0.404785H3.03061C2.81413 0.404785 2.63869 0.580248 2.63869 0.796703V4.11499H3.42255V1.18864H8.10447L10.2159 3.34722V9.81097H3.42253V8.19102H2.63867V10.2029C2.63867 10.4194 2.81411 10.5948 3.03059 10.5948H10.6078C10.8243 10.5948 10.9997 10.4194 10.9997 10.2029V3.18746C10.9997 3.0849 10.9597 2.98665 10.888 2.91337Z" fill="#424B62"/>
            <path d="M8.64909 2.88713V0.796875H7.86523V3.27905C7.86523 3.49553 8.04068 3.67097 8.25715 3.67097H10.6087V2.88711H8.64909V2.88713Z" fill="#424B62"/>
            <path d="M8.89729 4.97754H7.08137C6.86489 4.97754 6.68945 5.153 6.68945 5.36946C6.68945 5.58591 6.86489 5.76137 7.08137 5.76137H8.89729C9.11377 5.76137 9.28921 5.58593 9.28921 5.36946C9.28921 5.15298 9.11377 4.97754 8.89729 4.97754Z" fill="#424B62"/>
            <path d="M8.89729 6.87207H7.08137C6.86489 6.87207 6.68945 7.04753 6.68945 7.26399C6.68945 7.48044 6.86489 7.65591 7.08137 7.65591H8.89729C9.11377 7.65591 9.28921 7.48044 9.28921 7.26399C9.28921 7.04753 9.11377 6.87207 8.89729 6.87207Z" fill="#424B62"/>
            <path d="M5.64371 3.72314H0.391918C0.175441 3.72314 0 3.89859 0 4.11506V8.19108C0 8.40755 0.175441 8.583 0.391918 8.583H5.64371C5.86019 8.583 6.03563 8.40755 6.03563 8.19108V4.11506C6.03563 3.89859 5.86019 3.72314 5.64371 3.72314ZM5.25179 7.79914H0.783857V4.50698H5.25179V7.79914Z" fill="#424B62"/>
            <path d="M2.15652 5.9676C2.02993 5.85251 1.84336 5.83291 1.69574 5.91913L0.193359 6.79443L0.587898 7.47168L1.84218 6.74099L3.75895 8.48127L4.28596 7.90109L2.15652 5.9676Z" fill="#424B62"/>
            <path d="M4.26841 5.32397C4.1336 5.21711 3.94456 5.21071 3.8028 5.30842L2.20898 6.40579L2.65343 7.05129L4.00871 6.11812L5.41467 7.23157L5.90144 6.61729L4.26841 5.32397Z" fill="#424B62"/>
        </g>
    </symbol>


</svg>
