<svg xmlns="http://www.w3.org/2000/svg" display="none">

    <symbol id="logo-icon" viewBox="0 0 34 24">
        <g>
            <path d="M18.5095 1.59699C17.7552 1.59699 17.1813 1.80248 16.7877 2.21347C16.4105 2.62446 16.2219 3.23272 16.2219 4.03826V5.56713H21.089L24.9755 10.6469L28.8619 5.56713H30.7806L25.9102 11.8799L33.4434 22.1514L32.6956 23.8453L24.9755 13.1129L20.8431 18.5379H18.8752L23.9916 11.8799L20.2068 6.97421V7.04669H16.2711V18.5379H14.5247V7.04669H12.8352L7.7359 18.5379H5.94027L0.208984 5.56713H2.02922L6.87498 16.6145L11.7699 5.56713H14.5247V3.96428C14.5247 2.78063 14.8609 1.84358 15.5332 1.15312C16.2219 0.462661 17.1895 0.117432 18.4357 0.117432C18.9277 0.117432 19.4033 0.191409 19.8624 0.339365C20.3216 0.470882 20.7069 0.668156 21.0185 0.931188L20.4282 2.23813C19.9198 1.8107 19.2803 1.59699 18.5095 1.59699Z"
                  fill="white"/>

        </g>
    </symbol>


    <symbol id="logo-text" viewBox="0 0 143 14">
        <g>
            <path d="M6.01977 0.399949C7.15977 0.399949 8.14977 0.591949 8.98977 0.975949C9.82977 1.34795 10.4778 1.88795 10.9338 2.59595C11.3898 3.29195 11.6178 4.11395 11.6178 5.06195C11.6178 6.00995 11.3898 6.83195 10.9338 7.52795C10.4778 8.22395 9.82977 8.76395 8.98977 9.14795C8.14977 9.51995 7.15977 9.70595 6.01977 9.70595H3.82377V13H0.259766V0.399949H6.01977ZM5.80377 6.89795C6.53577 6.89795 7.08777 6.74195 7.45977 6.42995C7.83177 6.10595 8.01777 5.64995 8.01777 5.06195C8.01777 4.47395 7.83177 4.01795 7.45977 3.69395C7.08777 3.36995 6.53577 3.20795 5.80377 3.20795H3.82377V6.89795H5.80377Z"
                  fill="#1AA3E0"/>
            <path d="M21.8847 10.5519H16.5567L15.5667 13H11.9307L17.4927 0.399949H21.0027L26.5827 13H22.8747L21.8847 10.5519ZM20.8407 7.92395L19.2207 3.89195L17.6007 7.92395H20.8407Z"
                  fill="#1AA3E0"/>
            <path d="M33.821 9.65195H31.877V13H28.313V0.399949H34.073C35.213 0.399949 36.203 0.591949 37.043 0.975949C37.883 1.34795 38.531 1.88795 38.987 2.59595C39.4431 3.29195 39.671 4.11395 39.671 5.06195C39.671 5.97395 39.455 6.77195 39.023 7.45595C38.6031 8.12795 37.997 8.65595 37.205 9.03995L39.923 13H36.107L33.821 9.65195ZM36.071 5.06195C36.071 4.47395 35.885 4.01795 35.513 3.69395C35.141 3.36995 34.589 3.20795 33.857 3.20795H31.877V6.89795H33.857C34.589 6.89795 35.141 6.74195 35.513 6.42995C35.885 6.10595 36.071 5.64995 36.071 5.06195Z"
                  fill="#1AA3E0"/>
            <path d="M44.8635 3.22595H40.9935V0.399949H52.2795V3.22595H48.4275V13H44.8635V3.22595Z" fill="#1AA3E0"/>
            <path d="M66.3153 0.399949V13H63.3813L57.8193 6.28595V13H54.3273V0.399949H57.2613L62.8233 7.11395V0.399949H66.3153Z"
                  fill="#1AA3E0"/>
            <path d="M79.6652 10.2459V13H69.5492V0.399949H79.4312V3.15395H73.0772V5.27795H78.6752V7.94195H73.0772V10.2459H79.6652Z"
                  fill="#1AA3E0"/>
            <path d="M87.871 9.65195H85.927V13H82.363V0.399949H88.123C89.263 0.399949 90.253 0.591949 91.093 0.975949C91.933 1.34795 92.581 1.88795 93.037 2.59595C93.493 3.29195 93.721 4.11395 93.721 5.06195C93.721 5.97395 93.505 6.77195 93.073 7.45595C92.653 8.12795 92.047 8.65595 91.255 9.03995L93.973 13H90.157L87.871 9.65195ZM90.121 5.06195C90.121 4.47395 89.935 4.01795 89.563 3.69395C89.191 3.36995 88.639 3.20795 87.907 3.20795H85.927V6.89795H87.907C88.639 6.89795 89.191 6.74195 89.563 6.42995C89.935 6.10595 90.121 5.64995 90.121 5.06195Z"
                  fill="#1AA3E0"/>
            <path d="M100.835 13.252C99.8152 13.252 98.8252 13.1259 97.8652 12.874C96.9052 12.622 96.1252 12.2859 95.5252 11.8659L96.6952 9.23795C97.2592 9.60995 97.9132 9.90995 98.6572 10.1379C99.4012 10.3659 100.133 10.4799 100.853 10.4799C102.221 10.4799 102.905 10.1379 102.905 9.45395C102.905 9.09395 102.707 8.82995 102.311 8.66195C101.927 8.48195 101.303 8.29595 100.439 8.10395C99.4912 7.89995 98.6992 7.68395 98.0632 7.45595C97.4272 7.21595 96.8812 6.83795 96.4252 6.32195C95.9692 5.80595 95.7412 5.10995 95.7412 4.23395C95.7412 3.46595 95.9512 2.77595 96.3712 2.16395C96.7912 1.53995 97.4152 1.04795 98.2432 0.68795C99.0832 0.327949 100.109 0.147949 101.321 0.147949C102.149 0.147949 102.965 0.243949 103.769 0.43595C104.573 0.61595 105.281 0.885949 105.893 1.24595L104.795 3.89195C103.595 3.24395 102.431 2.91995 101.303 2.91995C100.595 2.91995 100.079 3.02795 99.7552 3.24395C99.4312 3.44795 99.2692 3.71795 99.2692 4.05395C99.2692 4.38995 99.4612 4.64195 99.8452 4.80995C100.229 4.97795 100.847 5.15195 101.699 5.33195C102.659 5.53595 103.451 5.75795 104.075 5.99795C104.711 6.22595 105.257 6.59795 105.713 7.11395C106.181 7.61795 106.415 8.30795 106.415 9.18395C106.415 9.93995 106.205 10.6239 105.785 11.2359C105.365 11.8479 104.735 12.34 103.895 12.712C103.055 13.0719 102.035 13.252 100.835 13.252Z"
                  fill="#1AA3E0"/>
            <path d="M120.769 0.399949V13H117.205V8.08595H112.345V13H108.781V0.399949H112.345V5.13395H117.205V0.399949H120.769Z"
                  fill="#1AA3E0"/>
            <path d="M124.003 0.399949H127.567V13H124.003V0.399949Z" fill="#1AA3E0"/>
            <path d="M136.583 0.399949C137.723 0.399949 138.713 0.591949 139.553 0.975949C140.393 1.34795 141.041 1.88795 141.497 2.59595C141.953 3.29195 142.181 4.11395 142.181 5.06195C142.181 6.00995 141.953 6.83195 141.497 7.52795C141.041 8.22395 140.393 8.76395 139.553 9.14795C138.713 9.51995 137.723 9.70595 136.583 9.70595H134.387V13H130.823V0.399949H136.583ZM136.367 6.89795C137.099 6.89795 137.651 6.74195 138.023 6.42995C138.395 6.10595 138.581 5.64995 138.581 5.06195C138.581 4.47395 138.395 4.01795 138.023 3.69395C137.651 3.36995 137.099 3.20795 136.367 3.20795H134.387V6.89795H136.367Z"
                  fill="#1AA3E0"/>

        </g>
    </symbol>

    <symbol id="wallet" viewBox="0 0 24 24">
        <g>
            <path d="M21 12V5H3C1.895 5 1 4.105 1 3V20C1 21.657 2.343 23 4 23H21V16" stroke="#15B9FF" stroke-width="2"
                  stroke-miterlimit="10" stroke-linecap="square"/>
            <path d="M17 2V1H3C1.895 1 1 1.895 1 3C1 4.105 1.895 5 3 5" stroke="#15B9FF" stroke-width="2"
                  stroke-miterlimit="10" stroke-linecap="square"/>
            <path d="M23 16H18C16.895 16 16 15.105 16 14C16 12.895 16.895 12 18 12H23V16Z" stroke="#15B9FF"
                  stroke-width="2" stroke-miterlimit="10" stroke-linecap="square"/>

        </g>
    </symbol>

    <symbol id="user" viewBox="0 0 22 24">
        <g>
            <path d="M13 19H16" stroke="#9B9EA8" stroke-width="2" stroke-miterlimit="10" stroke-linecap="square"/>
            <path d="M7.796 13.907L1.971 17.417C1.369 17.779 1 18.43 1 19.132V23H21V19.132C21 18.429 20.631 17.778 20.029 17.417L14.204 13.907"
                  stroke="#9B9EA8" stroke-width="2" stroke-miterlimit="10"/>
            <path d="M5.00293 6.796C5.63293 6.982 6.29493 7.106 6.98493 7.106C8.94493 7.106 10.7139 6.298 11.9849 5C13.2559 6.298 15.0389 7.106 16.9989 7.106"
                  stroke="#9B9EA8" stroke-width="2" stroke-miterlimit="10"/>
            <path d="M5 7C5 3.686 7.686 1 11 1C14.314 1 17 3.686 17 7C17 12 14.314 15 11 15C7.686 15 5 12 5 7Z"
                  stroke="#9B9EA8" stroke-width="2" stroke-miterlimit="10" stroke-linecap="square"/>

        </g>
    </symbol>

    <symbol id="question" viewBox="0 0 24 24">
        <g>
            <path d="M12 23C18.0751 23 23 18.0751 23 12C23 5.92487 18.0751 1 12 1C5.92487 1 1 5.92487 1 12C1 18.0751 5.92487 23 12 23Z"
                  stroke="#9B9EA8" stroke-width="2" stroke-miterlimit="10" stroke-linecap="square"/>
            <path d="M12 19C12.5523 19 13 18.5523 13 18C13 17.4477 12.5523 17 12 17C11.4477 17 11 17.4477 11 18C11 18.5523 11.4477 19 12 19Z"
                  fill="#9B9EA8"/>
            <path d="M9.85254 6.56001C11.8325 5.68501 14.3945 5.78901 15.2695 7.20501C16.1445 8.62101 15.5405 10.268 14.0405 11.539C12.5405 12.81 11.9995 13.5 11.9995 14.5"
                  stroke="#9B9EA8" stroke-width="2" stroke-miterlimit="10" stroke-linecap="square"/>

        </g>
    </symbol>


    <symbol id="view" viewBox="0 0 16 10">
        <g>
            <svg width="16" height="10" viewBox="0 0 16 10" fill="none" xmlns="http://www.w3.org/2000/svg">
                <path d="M8.00033 3C8.53076 3 9.03947 3.21071 9.41454 3.58579C9.78961 3.96086 10.0003 4.46957 10.0003 5C10.0003 5.53043 9.78961 6.03914 9.41454 6.41421C9.03947 6.78929 8.53076 7 8.00033 7C7.46989 7 6.96118 6.78929 6.58611 6.41421C6.21104 6.03914 6.00033 5.53043 6.00033 5C6.00033 4.46957 6.21104 3.96086 6.58611 3.58579C6.96118 3.21071 7.46989 3 8.00033 3V3ZM8.00033 0C11.3337 0 14.1803 2.07333 15.3337 5C14.1803 7.92667 11.3337 10 8.00033 10C4.66699 10 1.82033 7.92667 0.666992 5C1.82033 2.07333 4.66699 0 8.00033 0ZM2.12033 5C3.22033 7.24 5.49366 8.66667 8.00033 8.66667C10.507 8.66667 12.7803 7.24 13.8803 5C12.7803 2.76 10.507 1.33333 8.00033 1.33333C5.49366 1.33333 3.22033 2.76 2.12033 5Z"
                      fill="#9B9EA8"/>
            </svg>

        </g>
    </symbol>

    <symbol id="user2" viewBox="0 0 20 20">
        <g>
            <path d="M11.6665 15.8334H14.1665" stroke="#424B62" stroke-width="2"
                  stroke-miterlimit="10" stroke-linecap="square"/>
            <path d="M7.32984 11.5892L2.47567 14.5142C1.974 14.8159 1.6665 15.3584 1.6665 15.9434V19.1667H18.3332V15.9434C18.3332 15.3576 18.0257 14.8151 17.524 14.5142L12.6698 11.5892"
                  stroke="#424B62" stroke-width="2" stroke-miterlimit="10"/>
            <path d="M5.00244 5.66341C5.52744 5.81841 6.07911 5.92175 6.65411 5.92175C8.28744 5.92175 9.76161 5.24841 10.8208 4.16675C11.8799 5.24841 13.3658 5.92175 14.9991 5.92175"
                  stroke="#424B62" stroke-width="2" stroke-miterlimit="10"/>
            <path d="M5 5.83337C5 3.07171 7.23833 0.833374 10 0.833374C12.7617 0.833374 15 3.07171 15 5.83337C15 10 12.7617 12.5 10 12.5C7.23833 12.5 5 10 5 5.83337Z"
                  stroke="#424B62" stroke-width="2" stroke-miterlimit="10"
                  stroke-linecap="square"/>
        </g>
    </symbol>

    <symbol id="program" viewBox="0 0 20 20">
        <g>
            <path d="M6.25 7.5C4.1825 7.5 2.5 5.8175 2.5 3.75C2.5 1.6825 4.1825 0 6.25 0C8.3175 0 10 1.6825 10 3.75C10 5.8175 8.3175 7.5 6.25 7.5ZM6.25 1.66667C5.10083 1.66667 4.16667 2.60167 4.16667 3.75C4.16667 4.89833 5.10083 5.83333 6.25 5.83333C7.39917 5.83333 8.33333 4.89833 8.33333 3.75C8.33333 2.60167 7.39917 1.66667 6.25 1.66667Z"
                  fill="#424B62"/>
            <path d="M13.75 20C11.6825 20 10 18.3175 10 16.25C10 14.1825 11.6825 12.5 13.75 12.5C15.8175 12.5 17.5 14.1825 17.5 16.25C17.5 18.3175 15.8175 20 13.75 20ZM13.75 14.1667C12.6008 14.1667 11.6667 15.1017 11.6667 16.25C11.6667 17.3983 12.6008 18.3333 13.75 18.3333C14.8992 18.3333 15.8333 17.3983 15.8333 16.25C15.8333 15.1017 14.8992 14.1667 13.75 14.1667Z"
                  fill="#424B62"/>
            <path d="M2.49991 19.1667C2.30158 19.1667 2.10158 19.0967 1.94241 18.9525C1.60074 18.645 1.57324 18.1183 1.88074 17.7758L16.8807 1.10916C17.1891 0.767492 17.7157 0.739992 18.0574 1.04749C18.3991 1.35499 18.4266 1.88166 18.1191 2.22416L3.11908 18.8908C2.95491 19.0733 2.72741 19.1667 2.49991 19.1667Z"
                  fill="#424B62"/>
        </g>
    </symbol>

    <symbol id="billing" viewBox="0 0 20 20">
        <g>
            <path d="M4.99967 2.5H2.49967C1.57884 2.5 0.833008 3.24583 0.833008 4.16667C0.833008 5.0875 1.57884 5.83333 2.49967 5.83333"
                  stroke="#424B62" stroke-width="2" stroke-miterlimit="10" stroke-linecap="square"/>
            <path d="M5 5.83337V0.833374H16.6667V5.83337" stroke="#424B62" stroke-width="2" stroke-miterlimit="10"
                  stroke-linecap="square"/>
            <path d="M19.1663 5.83341H2.49967C1.57884 5.83341 0.833008 5.08758 0.833008 4.16675V16.6667C0.833008 18.0476 1.95217 19.1667 3.33301 19.1667H19.1663V5.83341Z"
                  stroke="#424B62" stroke-width="2" stroke-miterlimit="10" stroke-linecap="square"/>
            <path d="M14.1667 14.1667C15.0871 14.1667 15.8333 13.4205 15.8333 12.5C15.8333 11.5796 15.0871 10.8334 14.1667 10.8334C13.2462 10.8334 12.5 11.5796 12.5 12.5C12.5 13.4205 13.2462 14.1667 14.1667 14.1667Z"
                  stroke="#424B62" stroke-width="2" stroke-miterlimit="10" stroke-linecap="square"/>
        </g>
    </symbol>

    <symbol id="mail" viewBox="0 0 20 18">
        <g>
            <path d="M15.8327 4.83331L9.99935 10.6666L4.16602 4.83331" stroke="#424B62" stroke-width="2"
                  stroke-miterlimit="10" stroke-linecap="square"/>
            <path d="M17.4997 1.5H2.49967C1.5792 1.5 0.833008 2.24619 0.833008 3.16667V14.8333C0.833008 15.7538 1.5792 16.5 2.49967 16.5H17.4997C18.4201 16.5 19.1663 15.7538 19.1663 14.8333V3.16667C19.1663 2.24619 18.4201 1.5 17.4997 1.5Z"
                  stroke="#424B62" stroke-width="2" stroke-miterlimit="10" stroke-linecap="square"/>
            <path d="M5.83268 11.5L4.16602 13.1667" stroke="#424B62" stroke-width="2" stroke-miterlimit="10"
                  stroke-linecap="square"/>
            <path d="M14.166 11.5L15.8327 13.1667" stroke="#424B62" stroke-width="2" stroke-miterlimit="10"
                  stroke-linecap="square"/>

        </g>
    </symbol>


    <symbol id="security" viewBox="0 0 20 20">
        <g>

            <path d="M10 1.66663V18.3333" stroke="#424B62" stroke-width="2"
                  stroke-miterlimit="10"/>
            <path d="M17.4201 10H2.58008" stroke="#424B62" stroke-width="2"
                  stroke-miterlimit="10"/>
            <path d="M9.99984 1.66663C7.49984 3.33329 4.1665 4.16663 1.6665 4.16663C1.6665 9.99996 4.1665 15.8333 9.99984 18.3333C15.8332 15.8333 18.3332 9.99996 18.3332 4.16663C15.8332 4.16663 12.4998 3.33329 9.99984 1.66663Z"
                  stroke="#424B62" stroke-width="2" stroke-miterlimit="10"
                  stroke-linecap="square"/>

        </g>
    </symbol>

    <symbol id="error" viewBox="0 0 24 23">
        <g>

            <path d="M2 22L12 3L22 22H2Z" stroke="white" stroke-width="2" stroke-miterlimit="10"
                  stroke-linecap="square"/>
            <path d="M12 11V15" stroke="white" stroke-width="2" stroke-miterlimit="10" stroke-linecap="square"/>
            <path d="M12.5 18C12.5 18.2761 12.2761 18.5 12 18.5C11.7239 18.5 11.5 18.2761 11.5 18C11.5 17.7239 11.7239 17.5 12 17.5C12.2761 17.5 12.5 17.7239 12.5 18Z"
                  fill="#444444" stroke="white"/>

        </g>
    </symbol>

    <symbol id="success" viewBox="0 0 24 20">
        <g>

            <path d="M9 18L2 11L5 8L9 12L19 2L22 5L9 18Z" stroke="white" stroke-width="2" stroke-miterlimit="10"
                  stroke-linecap="square"/>

        </g>
    </symbol>

    <symbol id="attention" viewBox="0 0 24 24">
        <g>
            <path d="M9.336 14L11.855 20.252C12.0524 20.7437 12.0466 21.2937 11.8389 21.7812C11.6311 22.2687 11.2384 22.6538 10.747 22.852V22.852C10.2553 23.0494 9.70526 23.0436 9.21778 22.8359C8.7303 22.6281 8.34518 22.2354 8.147 21.744L5 14"
                  stroke="white" stroke-width="2" stroke-miterlimit="10"/>
            <path d="M11 6H5C3.93913 6 2.92172 6.42143 2.17157 7.17157C1.42143 7.92172 1 8.93913 1 10C1 11.0609 1.42143 12.0783 2.17157 12.8284C2.92172 13.5786 3.93913 14 5 14H11L19 18V2L11 6Z"
                  stroke="white" stroke-width="2" stroke-miterlimit="10" stroke-linecap="square"/>
            <path d="M21 7V13C21.7956 13 22.5587 12.6839 23.1213 12.1213C23.6839 11.5587 24 10.7956 24 10C24 9.20435 23.6839 8.44129 23.1213 7.87868C22.5587 7.31607 21.7956 7 21 7Z"
                  fill="white"/>

        </g>
    </symbol>

    <symbol id="copy" viewBox="0 0 22 22">
        <g>
            <path d="M15 7H21V21H7V15" stroke="#1AA3E0" stroke-width="2" stroke-miterlimit="10"
                  stroke-linecap="square"/>
            <path d="M15 1H1V15H15V1Z" stroke="#1AA3E0" stroke-width="2" stroke-miterlimit="10"
                  stroke-linecap="square"/>

        </g>
    </symbol>

    <symbol id="statistic" viewBox="0 0 16 16">
        <g>
                <path d="M14 15H2C1.448 15 1 14.552 1 14V2C1 1.448 1.448 1 2 1H14C14.552 1 15 1.448 15 2V14C15 14.552 14.552 15 14 15Z" stroke="#15B9FF" stroke-width="1.5" stroke-miterlimit="10" stroke-linecap="round" stroke-linejoin="round"/>
                <path d="M3 8.5H5L6.5 5L9.5 12L11 8.5H13" stroke="#15B9FF" stroke-width="1.5" stroke-miterlimit="10" stroke-linecap="round" stroke-linejoin="round"/>

        </g>
    </symbol>

    <symbol id="statistic2" viewBox="0 0 16 16">
        <g>
                <path d="M14 15H2C1.448 15 1 14.552 1 14V2C1 1.448 1.448 1 2 1H14C14.552 1 15 1.448 15 2V14C15 14.552 14.552 15 14 15Z" stroke="#6D7792" stroke-width="1.5" stroke-miterlimit="10" stroke-linecap="round" stroke-linejoin="round"/>
                <path d="M3 8.5H5L6.5 5L9.5 12L11 8.5H13" stroke="#6D7792" stroke-width="1.5" stroke-miterlimit="10" stroke-linecap="round" stroke-linejoin="round"/>

        </g>
    </symbol>
</svg>
