<svg width="72" height="72" viewBox="0 0 72 72" fill="none" xmlns="http://www.w3.org/2000/svg">
    <g clip-path="url(#clip0)">
        <path d="M39.6074 26.7973C46.3936 24.9807 51.0381 19.8001 51.0381 13.8785C51.0381 10.186 49.2649 6.73407 46.0453 4.15942C42.9186 1.65839 38.7795 0.28125 34.3911 0.28125C30.002 0.28125 25.8629 1.65839 22.7362 4.15942C19.5172 6.73407 17.744 10.186 17.744 13.8785C17.744 17.231 19.2437 20.4489 21.9666 22.9384C24.4171 25.179 27.7092 26.6918 31.305 27.2417C33.0831 30.5771 35.3123 32.9403 37.938 34.2719C38.9251 34.7723 40.1056 33.9445 39.9787 32.8502C39.9754 32.82 39.6639 30.1036 39.6074 26.7973ZM37.9034 24.2996C37.2475 24.4341 36.7762 25.0104 36.7751 25.68C36.7723 27.3224 36.8377 28.8693 36.9163 30.1273C35.6309 28.9297 34.4828 27.3197 33.4874 25.313C33.2748 24.884 32.8585 24.5918 32.3828 24.538C25.647 23.77 20.5675 19.1876 20.5675 13.8785C20.5675 7.93762 26.7687 3.10474 34.3911 3.10474C42.0134 3.10474 48.2141 7.93762 48.2141 13.8785C48.2146 18.769 43.9744 23.0543 37.9034 24.2996Z" fill="#1AA3E0"/>
        <path d="M35.6979 12.937C35.4798 12.4085 34.948 12.0619 34.3779 12.0663C33.7851 12.0707 33.2496 12.464 33.0578 13.0232C32.8645 13.5879 33.0611 14.2344 33.5352 14.5964C34.0016 14.9524 34.6542 14.9821 35.1507 14.6684C35.722 14.307 35.956 13.5621 35.6979 12.937Z" fill="#1AA3E0"/>
        <path d="M31.533 12.303C31.0502 11.9839 30.4075 11.9932 29.934 12.3256C29.45 12.665 29.2297 13.2979 29.3929 13.8648C29.5566 14.4328 30.0713 14.8475 30.6607 14.8854C31.2578 14.9233 31.8231 14.5679 32.0527 14.0169C32.3076 13.4066 32.0873 12.6694 31.533 12.303Z" fill="#1AA3E0"/>
        <path d="M38.8225 12.303C38.3386 11.9839 37.697 11.9938 37.2235 12.3256C36.7384 12.665 36.5198 13.2973 36.6829 13.8647C36.8455 14.4327 37.3602 14.8475 37.9497 14.8854C38.5457 14.9233 39.1142 14.5679 39.3433 14.0169C39.5971 13.4066 39.3762 12.6689 38.8225 12.303Z" fill="#1AA3E0"/>
        <path d="M29.7043 51.7681C31.0281 49.2012 31.2726 46.2722 30.3937 43.5213L28.0366 36.1445C27.4032 34.1637 26.2211 32.4179 24.6176 31.0974C21.7639 28.7463 17.9615 28.013 14.4459 29.1363C11.6949 30.0158 9.45099 31.9131 8.12714 34.4801C6.80383 37.0476 6.55884 39.976 7.43774 42.727L9.79541 50.1043C10.1728 51.2853 10.7364 52.3559 11.4423 53.2958L11.2286 53.9368C4.67633 55.86 0 62.5864 0 70.268C0 71.0475 0.632263 71.6798 1.41174 71.6798H28.682C29.462 71.6798 30.0938 71.0475 30.0938 70.268C30.0938 64.9386 27.8652 59.9942 24.1562 56.8306C26.5545 55.8622 28.5068 54.0907 29.7043 51.7681ZM10.6364 35.7743C11.6147 33.878 13.2726 32.4756 15.3051 31.8258C16.1065 31.5698 16.9277 31.4445 17.7429 31.4445C19.1915 31.4445 20.6191 31.8406 21.876 32.6041C21.0306 34.0456 20.0435 35.4046 18.8789 36.6048C17.7056 37.8133 16.3076 38.8416 14.725 39.4404C14.2663 39.614 13.7983 39.7172 13.3264 39.843C12.938 39.9469 12.6057 40.2182 12.4272 40.5786C12.2399 40.9549 12.2322 41.3943 12.4019 41.7777C12.4074 41.7898 12.4107 41.8019 12.4162 41.814C12.4816 41.9519 12.559 42.132 12.6403 42.343C13.0622 43.4466 13.6126 45.484 13.0545 46.8194C12.8584 47.2879 12.5013 47.6598 12.0542 47.8977L10.1272 41.8673C9.47791 39.8348 9.65863 37.671 10.6364 35.7743ZM19.6282 57.6151L19.1689 58.9922C19.1354 59.0922 19.0975 59.19 19.0552 59.285C18.7586 59.9491 18.2461 60.4863 17.5869 60.8159C16.8333 61.1928 15.978 61.2532 15.1787 60.9868C14.3795 60.7204 13.7313 60.1584 13.355 59.4047C12.9781 58.6511 12.9177 57.7958 13.1841 56.9965L13.6796 55.5112C13.6879 55.5172 13.6967 55.5227 13.7049 55.5293C13.7966 55.5958 13.8889 55.6606 13.9823 55.7243C13.9944 55.7326 14.0065 55.7414 14.0186 55.7496C15.6649 56.8658 17.6061 57.5255 19.6282 57.6151ZM27.2093 68.8563H2.88556C3.33435 63.7493 6.19189 59.3383 10.2321 57.3426C10.1058 58.4791 10.3184 59.6448 10.8292 60.6671C11.5433 62.0953 12.7705 63.1604 14.2855 63.6652C15.7819 64.1646 17.438 64.0465 18.8492 63.3417C20.2775 62.6276 21.3426 61.4004 21.8474 59.8859L22.1891 58.8615C25.0302 61.2125 26.8594 64.8408 27.2093 68.8563ZM22.5264 54.4224C19.732 55.3151 16.5839 54.5565 14.4904 52.5048C13.9098 51.9357 13.4176 51.276 13.0369 50.558C14.1537 50.0504 15.0809 49.1842 15.5929 48.0625C16.3883 46.32 16.1439 44.2876 15.7462 42.7769C15.6984 42.5957 15.6281 42.4199 15.5825 42.2392C15.5781 42.2227 15.5764 42.2056 15.577 42.1886C15.5462 42.1458 15.5588 42.1238 15.6143 42.1233C15.6528 42.0941 15.7258 42.0821 15.7703 42.0645C15.8665 42.0277 15.962 41.9892 16.0571 41.9491C16.4691 41.7777 16.8717 41.5849 17.2639 41.3729C17.9583 40.9983 18.6152 40.5528 19.236 40.0672C20.4906 39.0861 21.5903 37.9094 22.5577 36.6471C23.0839 35.9605 23.5723 35.2447 24.0255 34.5075C24.6077 35.2497 25.056 36.0929 25.3466 37.0036L27.7042 44.3804C29.0451 48.5766 26.722 53.0816 22.5264 54.4224Z" fill="#1AA3E0"/>
        <path d="M67.4479 57.9056C68.1417 56.6938 68.5163 55.3112 68.5163 53.9055C68.5163 50.5223 66.4344 47.5823 63.3868 46.4057L64.5623 42.7269C66.3773 37.0481 63.2336 30.9512 57.5542 29.1363C54.8032 28.2568 51.8748 28.5018 49.3078 29.8257C46.7409 31.1495 44.843 33.3935 43.9635 36.1445L41.6064 43.5212C40.7275 46.2722 40.972 49.2012 42.2958 51.7681C43.456 54.0187 45.3242 55.7545 47.6214 56.7411C44.0168 59.9282 41.9063 64.7584 41.9063 69.9878C41.9063 70.7673 42.5386 71.3996 43.3181 71.3996H55.1174C55.8974 71.3996 56.5291 70.7673 56.5291 69.9878C56.5291 69.2084 55.8974 68.5761 55.1174 68.5761H44.7903C45.0918 65.0698 46.5096 61.8722 48.7722 59.5404C49.5188 61.5531 51.2299 63.1296 53.2964 63.7092C53.888 63.8751 54.5027 63.9596 55.1174 63.9596C58.8473 63.9596 61.8817 60.9252 61.8817 57.1954C61.8817 57.1712 61.8811 57.1465 61.8795 57.1223C62.5348 57.4552 63.166 57.854 63.7625 58.3149C64.0674 58.5516 64.3624 58.8016 64.6447 59.0652C67.126 61.385 68.7822 64.788 69.1151 68.5761H66.4086C65.6291 68.5761 64.9969 69.2084 64.9969 69.9878C64.9969 70.7673 65.6291 71.3996 66.4086 71.3996H70.5884C71.3678 71.3996 72.0001 70.7673 72.0001 69.9878C72.0001 65.3176 70.2725 61.0043 67.4479 57.9056ZM62.5255 49.1017C64.4151 49.9043 65.6928 51.7692 65.6928 53.9055C65.6928 54.613 65.555 55.2953 65.288 55.9281C64.5953 55.4112 63.8653 54.9597 63.1078 54.5784C62.5469 54.2955 61.9668 54.0593 61.3758 53.8484C61.2357 53.7984 61.0934 53.7566 60.9522 53.7116C60.8643 53.6841 60.7671 53.6797 60.7221 53.6034C60.6617 53.5012 60.6375 53.3578 60.5985 53.2458C61.3016 52.2966 61.841 51.243 62.2052 50.1037L62.5255 49.1017ZM50.6015 32.335C52.4983 31.3572 54.662 31.1764 56.695 31.8257C58.7275 32.4756 60.3853 33.878 61.3637 35.7742C62.3415 37.671 62.5222 39.8353 61.8729 41.8678C61.8235 42.0227 61.7943 42.2194 61.7152 42.3605C61.707 42.3754 61.7081 42.3913 61.6971 42.4012C61.6477 42.4462 61.4554 42.4468 61.3878 42.4578C61.1978 42.4885 61.0066 42.5121 60.8149 42.5292C60.0261 42.5984 59.2263 42.5281 58.471 42.2853C58.0579 42.1529 57.6596 41.9722 57.2872 41.7508C53.8814 39.7282 52.6982 34.5734 52.6872 34.524C52.4889 33.6198 51.4392 33.1386 50.6267 33.5912C50.3092 33.7681 50.0571 34.0746 49.7758 34.3032C49.4358 34.5795 49.0755 34.8332 48.6942 35.0486C48.2537 35.2969 47.7736 35.5012 47.2699 35.5693C48.0268 34.1927 49.1743 33.0716 50.6015 32.335ZM44.2959 44.3809L46.2174 38.3686C47.7522 38.6054 49.2996 38.0451 50.5795 37.2283C50.6048 37.2947 50.6306 37.3612 50.6564 37.4277C51.3661 39.2481 52.6603 41.7574 54.8164 43.4679C56.1303 44.5106 57.7118 45.1802 59.3856 45.3389C59.8404 45.3818 60.2991 45.3895 60.755 45.3647C60.5875 45.8893 59.9415 47.9103 59.7866 48.3964C59.5784 49.0468 59.3823 49.6966 59.0857 50.3141C58.7874 50.9343 58.4001 51.5165 57.9497 52.0367C56.4473 53.7704 54.2456 54.7927 51.9314 54.8014C51.1003 54.8025 50.2653 54.6757 49.4737 54.4224C45.278 53.0815 42.955 48.5766 44.2959 44.3809ZM55.1174 61.1362C53.5876 61.1362 52.1615 60.2133 51.5293 58.8213C51.354 58.4363 51.2409 58.0232 51.1975 57.6024C51.5842 57.6288 51.9737 57.6321 52.3609 57.6156C54.5329 57.5277 56.6319 56.7856 58.3814 55.4749L59.0522 57.4151C58.9373 59.486 57.2163 61.1362 55.1174 61.1362Z" fill="#1AA3E0"/>
        <path d="M61.5443 68.8135C61.0345 68.4712 60.3396 68.5064 59.865 68.897C59.4289 69.2557 59.2465 69.8566 59.4113 70.3971C59.5854 70.9695 60.1166 71.3777 60.7148 71.3991C61.3037 71.4194 61.8579 71.0525 62.0738 70.5059C62.3155 69.8934 62.0903 69.1793 61.5443 68.8135Z" fill="#1AA3E0"/>
    </g>
    <defs>
        <clipPath id="clip0">
            <rect width="72" height="72" fill="white"/>
        </clipPath>
    </defs>
</svg>
