<svg width="20" height="20" viewBox="0 0 20 20" fill="none" xmlns="http://www.w3.org/2000/svg">
    <path d="M11.6665 15.8334H14.1665" stroke="#424B62" stroke-width="2" stroke-miterlimit="10" stroke-linecap="square"/>
    <path d="M7.32984 11.5892L2.47567 14.5142C1.974 14.8159 1.6665 15.3584 1.6665 15.9434V19.1667H18.3332V15.9434C18.3332 15.3576 18.0257 14.8151 17.524 14.5142L12.6698 11.5892" stroke="#424B62" stroke-width="2" stroke-miterlimit="10"/>
    <path d="M5.00244 5.66341C5.52744 5.81841 6.07911 5.92175 6.65411 5.92175C8.28744 5.92175 9.76161 5.24841 10.8208 4.16675C11.8799 5.24841 13.3658 5.92175 14.9991 5.92175" stroke="#424B62" stroke-width="2" stroke-miterlimit="10"/>
    <path d="M5 5.83337C5 3.07171 7.23833 0.833374 10 0.833374C12.7617 0.833374 15 3.07171 15 5.83337C15 10 12.7617 12.5 10 12.5C7.23833 12.5 5 10 5 5.83337Z" stroke="#424B62" stroke-width="2" stroke-miterlimit="10" stroke-linecap="square"/>
</svg>
